  0
SECTION
  2
HEADER
  9
$ACADVER
  1
AC1009
  9
$INSBASE
 10
0.0
 20
0.0
 30
0.0
  9
$EXTMIN
 10
1.0000000000000000E+020
 20
1.0000000000000000E+020
 30
1.0000000000000000E+020
  9
$EXTMAX
 10
-1.0000000000000000E+020
 20
-1.0000000000000000E+020
 30
-1.0000000000000000E+020
  9
$LIMMIN
 10
0.0
 20
0.0
  9
$LIMMAX
 10
12.0
 20
9.0
  9
$ORTHOMODE
 70
     0
  9
$REGENMODE
 70
     1
  9
$FILLMODE
 70
     1
  9
$QTEXTMODE
 70
     0
  9
$MIRRTEXT
 70
     0
  9
$DRAGMODE
 70
     2
  9
$LTSCALE
 40
1.0
  9
$OSMODE
 70
     0
  9
$ATTMODE
 70
     1
  9
$TEXTSIZE
 40
0.2
  9
$TRACEWID
 40
0.05
  9
$TEXTSTYLE
  7
Standard
  9
$CLAYER
  8
LAYER_1
  9
$CELTYPE
  6
BYLAYER
  9
$CECOLOR
 62
   256
  9
$DIMSCALE
 40
1.0
  9
$DIMASZ
 40
0.18
  9
$DIMEXO
 40
0.0625
  9
$DIMDLI
 40
0.38
  9
$DIMRND
 40
0.0
  9
$DIMDLE
 40
0.0
  9
$DIMEXE
 40
0.18
  9
$DIMTP
 40
0.0
  9
$DIMTM
 40
0.0
  9
$DIMTXT
 40
0.18
  9
$DIMCEN
 40
0.09
  9
$DIMTSZ
 40
0.0
  9
$DIMTOL
 70
     0
  9
$DIMLIM
 70
     0
  9
$DIMTIH
 70
     1
  9
$DIMTOH
 70
     1
  9
$DIMSE1
 70
     0
  9
$DIMSE2
 70
     0
  9
$DIMTAD
 70
     0
  9
$DIMZIN
 70
     0
  9
$DIMBLK
  1

  9
$DIMASO
 70
     1
  9
$DIMSHO
 70
     1
  9
$DIMPOST
  1

  9
$DIMAPOST
  1

  9
$DIMALT
 70
     0
  9
$DIMALTD
 70
     2
  9
$DIMALTF
 40
25.399999999999999
  9
$DIMLFAC
 40
1.0
  9
$DIMTOFL
 70
     0
  9
$DIMTVP
 40
0.0
  9
$DIMTIX
 70
     0
  9
$DIMSOXD
 70
     0
  9
$DIMSAH
 70
     0
  9
$DIMBLK1
  1

  9
$DIMBLK2
  1

  9
$DIMSTYLE
  2
STANDARD
  9
$DIMCLRD
 70
     0
  9
$DIMCLRE
 70
     0
  9
$DIMCLRT
 70
     0
  9
$DIMTFAC
 40
1.0
  9
$DIMGAP
 40
0.09
  9
$LUNITS
 70
     2
  9
$LUPREC
 70
     4
  9
$SKETCHINC
 40
0.1
  9
$FILLETRAD
 40
0.0
  9
$AUNITS
 70
     0
  9
$AUPREC
 70
     0
  9
$MENU
  1
.
  9
$ELEVATION
 40
0.0
  9
$PELEVATION
 40
0.0
  9
$THICKNESS
 40
0.0
  9
$LIMCHECK
 70
     0
  9
$BLIPMODE
 70
     0
  9
$CHAMFERA
 40
0.0
  9
$CHAMFERB
 40
0.0
  9
$SKPOLY
 70
     0
  9
$TDCREATE
 40
2456393.8727359502
  9
$TDUPDATE
 40
2456420.5745427432
  9
$TDINDWG
 40
0.012112037
  9
$TDUSRTIMER
 40
0.0121120139
  9
$USRTIMER
 70
     1
  9
$ANGBASE
 50
0.0
  9
$ANGDIR
 70
     0
  9
$PDMODE
 70
     0
  9
$PDSIZE
 40
0.0
  9
$PLINEWID
 40
0.0
  9
$COORDS
 70
     0
  9
$SPLFRAME
 70
     0
  9
$SPLINETYPE
 70
     6
  9
$SPLINESEGS
 70
     8
  9
$ATTDIA
 70
     1
  9
$ATTREQ
 70
     1
  9
$HANDLING
 70
     1
  9
$HANDSEED
  5
5EE
  9
$SURFTAB1
 70
     6
  9
$SURFTAB2
 70
     6
  9
$SURFTYPE
 70
     6
  9
$SURFU
 70
     6
  9
$SURFV
 70
     6
  9
$UCSNAME
  2

  9
$UCSORG
 10
0.0
 20
0.0
 30
0.0
  9
$UCSXDIR
 10
1.0
 20
0.0
 30
0.0
  9
$UCSYDIR
 10
0.0
 20
1.0
 30
0.0
  9
$PUCSNAME
  2

  9
$PUCSORG
 10
0.0
 20
0.0
 30
0.0
  9
$PUCSXDIR
 10
1.0
 20
0.0
 30
0.0
  9
$PUCSYDIR
 10
0.0
 20
1.0
 30
0.0
  9
$USERI1
 70
     0
  9
$USERI2
 70
     0
  9
$USERI3
 70
     0
  9
$USERI4
 70
     0
  9
$USERI5
 70
     0
  9
$USERR1
 40
0.0
  9
$USERR2
 40
0.0
  9
$USERR3
 40
0.0
  9
$USERR4
 40
0.0
  9
$USERR5
 40
0.0
  9
$WORLDVIEW
 70
     1
  9
$SHADEDGE
 70
     3
  9
$SHADEDIF
 70
    70
  9
$TILEMODE
 70
     1
  9
$MAXACTVP
 70
    64
  9
$PLIMCHECK
 70
     0
  9
$PEXTMIN
 10
1.049999952316284
 20
0.7999999523162842
 30
0.0
  9
$PEXTMAX
 10
9.4499995708465594
 20
7.1999995708465576
 30
0.0
  9
$PLIMMIN
 10
-0.2500002402958907
 20
-0.2499999962453767
  9
$PLIMMAX
 10
10.74999951940822
 20
8.2499997634587334
  9
$UNITMODE
 70
     0
  9
$VISRETAIN
 70
     1
  9
$PLINEGEN
 70
     0
  9
$PSLTSCALE
 70
     1
  0
ENDSEC
  0
SECTION
  2
TABLES
  0
TABLE
  2
VPORT
 70
     1
  0
VPORT
  2
*ACTIVE
 70
     0
 10
0.0
 20
0.0
 11
1.0
 21
1.0
 12
23.348421554903009
 22
8.6802838350983347
 13
0.0
 23
0.0
 14
0.5
 24
0.5
 15
0.5
 25
0.5
 16
0.0
 26
0.0
 36
1.0
 17
0.0
 27
0.0
 37
0.0
 40
37.365623147774834
 41
2.1521298174442181
 42
50.0
 43
0.0
 44
0.0
 50
0.0
 51
0.0
 71
     0
 72
  1000
 73
     1
 74
     2
 75
     0
 76
     0
 77
     0
 78
     0
  0
ENDTAB
  0
TABLE
  2
LTYPE
 70
    10
  0
LTYPE
  2
CONTINUOUS
 70
     0
  3
Solid line
 72
    65
 73
     0
 40
0.0
  0
LTYPE
  2
PHANTOM2
 70
     0
  3
Phantom (.5x) ___ _ _ ___ _ _ ___ _ _ ___ _ _
 72
    65
 73
     6
 40
1.25
 49
0.625
 49
-0.125
 49
0.125
 49
-0.125
 49
0.125
 49
-0.125
  0
LTYPE
  2
CENTER1
 70
     0
  3
Center (.5x) ___ _ ___ _ ___ _ ___ _ ___ _ ___
 72
    65
 73
     4
 40
1.125
 49
0.75
 49
-0.125
 49
0.125
 49
-0.125
  0
LTYPE
  2
CENTER2
 70
     0
  3
Center (2x) ________  __  ________  __  _____
 72
    65
 73
     4
 40
4.0
 49
2.5
 49
-0.5
 49
0.5
 49
-0.5
  0
LTYPE
  2
DASHDOT1
 70
     0
  3
Dash dot (.5x) _._._._._._._._._._._._._._._.
 72
    65
 73
     4
 40
0.5
 49
0.25
 49
-0.125
 49
0.0
 49
-0.125
  0
LTYPE
  2
DASHDOT2
 70
     0
  3
Dash dot (2x) ____  .  ____  .  ____  .  ___
 72
    65
 73
     4
 40
2.0
 49
1.0
 49
-0.5
 49
0.0
 49
-0.5
  0
LTYPE
  2
DASHED1
 70
     0
  3
Dashed (.5x) _ _ _ _ _ _ _ _ _ _ _ _ _ _ _ _ _
 72
    65
 73
     2
 40
0.375
 49
0.25
 49
-0.125
  0
LTYPE
  2
DASHED2
 70
     0
  3
Dashed (2x) ____  ____  ____  ____  ____  ___
 72
    65
 73
     2
 40
1.5
 49
1.0
 49
-0.5
  0
LTYPE
  2
DOT1
 70
     0
  3
Dot (.5x) .....................................
 72
    65
 73
     2
 40
0.125
 49
0.0
 49
-0.125
  0
LTYPE
  2
DOT2
 70
     0
  3
Dot (2x) .  .  .  .  .  .  .  .  .  .  .  .  . 
 72
    65
 73
     2
 40
0.5
 49
0.0
 49
-0.5
  0
ENDTAB
  0
TABLE
  2
LAYER
 70
     4
  0
LAYER
  2
0
 70
     0
 62
     7
  6
CONTINUOUS
  0
LAYER
  2
LAYER_1
 70
     0
 62
     7
  6
CONTINUOUS
  0
ENDTAB
  0
TABLE
  2
STYLE
 70
     2
  0
STYLE
  2
Standard
 70
     0
 40
0.0
 41
1.0
 50
0.0
 71
     0
 42
0.2
  3
txt
  4

  0
STYLE
  2
STANDARD_360
 70
     0
 40
0.0
 41
1.0
 50
0.0
 71
     0
 42
0.2
  3
txt
  4

  0
ENDTAB
  0
TABLE
  2
VIEW
 70
     0
  0
ENDTAB
  0
TABLE
  2
UCS
 70
     0
  0
ENDTAB
  0
TABLE
  2
APPID
 70
    12
  0
APPID
  2
ACAD
 70
     0
  0
APPID
  2
ACADANNOPO
 70
     0
  0
APPID
  2
ACADANNOTATIVE
 70
     0
  0
APPID
  2
ACAD_DSTYLE_DIMJAG
 70
     0
  0
APPID
  2
ACAD_DSTYLE_DIMTALN
 70
     0
  0
APPID
  2
ACAD_MLEADERVER
 70
     0
  0
APPID
  2
ACAD_NAV_VCDISPLAY
 70
     0
  0
APPID
  2
ACAECLAYERSTANDARD
 70
     0
  0
APPID
  2
ACCMTRANSPARENCY
 70
     0
  0
APPID
  2
ACAD_EXEMPT_FROM_CAD_STANDARDS
 70
     0
  0
APPID
  2
ACAD_PSEXT
 70
     0
  0
APPID
  2
ADE_PROJECTION
 70
     0
  0
ENDTAB
  0
TABLE
  2
DIMSTYLE
 70
     2
  0
DIMSTYLE
  2
STANDARD
 70
     0
  3

  4

  5

  6

  7

 40
1.0
 41
0.18
 42
0.0625
 43
0.38
 44
0.18
 45
0.0
 46
0.0
 47
0.0
 48
0.0
140
0.18
141
0.09
142
0.0
143
25.399999999999999
144
1.0
145
0.0
146
1.0
147
0.09
 71
     0
 72
     0
 73
     1
 74
     1
 75
     0
 76
     0
 77
     0
 78
     0
170
     0
171
     2
172
     0
173
     0
174
     0
175
     0
176
     0
177
     0
178
     0
  0
DIMSTYLE
  2
STANDARD_360
 70
     0
  3

  4

  5

  6

  7

 40
1.0
 41
1.0
 42
0.0625
 43
0.38
 44
0.18
 45
0.0
 46
0.0
 47
0.0
 48
0.0
140
1.0
141
0.09
142
0.0
143
25.399999999999999
144
1.0
145
0.0
146
1.0
147
0.09
 71
     0
 72
     0
 73
     0
 74
     1
 75
     0
 76
     0
 77
     1
 78
     0
170
     0
171
     2
172
     0
173
     0
174
     0
175
     0
176
     0
177
     0
178
     0
  0
ENDTAB
  0
ENDSEC
  0
SECTION
  2
BLOCKS
  0
BLOCK
  8
0
  2
$MODEL_SPACE
 70
     0
 10
0.0
 20
0.0
 30
0.0
  3
$MODEL_SPACE
  1

  0
ENDBLK
  5
21
  8
0
  0
BLOCK
 67
     1
  8
0
  2
$PAPER_SPACE
 70
     0
 10
0.0
 20
0.0
 30
0.0
  3
$PAPER_SPACE
  1

  0
ENDBLK
  5
60
 67
     1
  8
0
  0
ENDSEC
  0
SECTION
  2
ENTITIES
  0
POLYLINE
  5
228
  8
LAYER_1
 62
   240
 66
     1
 10
0.0
 20
0.0
 30
0.0
 70
     1
  0
VERTEX
  5
283
  8
LAYER_1
 62
   240
 10
904.00065514657933
 20
486.9191574140836
 30
0.0
  0
VERTEX
  5
284
  8
LAYER_1
 62
   240
 10
954.00065514657933
 20
486.9191574140836
 30
0.0
  0
VERTEX
  5
285
  8
LAYER_1
 62
   240
 10
954.00065514657933
 20
536.91915741408366
 30
0.0
  0
VERTEX
  5
286
  8
LAYER_1
 62
   240
 10
904.00065514657933
 20
536.91915741408366
 30
0.0
  0
SEQEND
  5
287
  8
LAYER_1
 62
   240
  0
POLYLINE
  5
229
  8
LAYER_1
 66
     1
 10
0.0
 20
0.0
 30
0.0
  0
VERTEX
  5
288
  8
LAYER_1
 10
912.40247601118006
 20
525.72452116038062
 30
0.0
  0
VERTEX
  5
289
  8
LAYER_1
 10
912.40247601118006
 20
525.81150534716312
 30
0.0
  0
VERTEX
  5
28A
  8
LAYER_1
 10
912.57644438474506
 20
525.98547372072812
 30
0.0
  0
VERTEX
  5
28B
  8
LAYER_1
 10
912.66342857152756
 20
525.98547372072812
 30
0.0
  0
VERTEX
  5
28C
  8
LAYER_1
 10
912.66342857152756
 20
526.07245790751062
 30
0.0
  0
VERTEX
  5
28D
  8
LAYER_1
 10
912.75041275830995
 20
526.07245790751062
 30
0.0
  0
VERTEX
  5
28E
  8
LAYER_1
 10
912.75041275830995
 20
526.1594420942929
 30
0.0
  0
VERTEX
  5
28F
  8
LAYER_1
 10
912.83739694509245
 20
526.2464262810754
 30
0.0
  0
VERTEX
  5
290
  8
LAYER_1
 10
912.92438113187495
 20
526.2464262810754
 30
0.0
  0
VERTEX
  5
291
  8
LAYER_1
 10
912.92438113187495
 20
526.3334104678579
 30
0.0
  0
VERTEX
  5
292
  8
LAYER_1
 10
913.01136531865745
 20
526.3334104678579
 30
0.0
  0
VERTEX
  5
293
  8
LAYER_1
 10
913.01136531865745
 20
526.4203946546404
 30
0.0
  0
VERTEX
  5
294
  8
LAYER_1
 10
913.09834950543996
 20
526.4203946546404
 30
0.0
  0
VERTEX
  5
295
  8
LAYER_1
 10
913.09834950543996
 20
526.50737884142291
 30
0.0
  0
VERTEX
  5
296
  8
LAYER_1
 10
913.27231787900485
 20
526.68134721498791
 30
0.0
  0
VERTEX
  5
297
  8
LAYER_1
 10
913.35930206578735
 20
526.68134721498791
 30
0.0
  0
VERTEX
  5
298
  8
LAYER_1
 10
913.62025462613485
 20
526.9422997753353
 30
0.0
  0
VERTEX
  5
299
  8
LAYER_1
 10
913.70723881291735
 20
527.0292839621178
 30
0.0
  0
VERTEX
  5
29A
  8
LAYER_1
 10
913.79422299969985
 20
527.1162681489003
 30
0.0
  0
VERTEX
  5
29B
  8
LAYER_1
 10
913.88120718648236
 20
527.20325233568281
 30
0.0
  0
VERTEX
  5
29C
  8
LAYER_1
 10
913.96819137326463
 20
527.20325233568281
 30
0.0
  0
VERTEX
  5
29D
  8
LAYER_1
 10
914.05517556004713
 20
527.29023652246508
 30
0.0
  0
VERTEX
  5
29E
  8
LAYER_1
 10
914.22914393361214
 20
527.37722070924758
 30
0.0
  0
VERTEX
  5
29F
  8
LAYER_1
 10
914.31612812039441
 20
527.46420489603008
 30
0.0
  0
VERTEX
  5
2A0
  8
LAYER_1
 10
914.40311230717691
 20
527.46420489603008
 30
0.0
  0
VERTEX
  5
2A1
  8
LAYER_1
 10
914.57708068074191
 20
527.55118908281258
 30
0.0
  0
VERTEX
  5
2A2
  8
LAYER_1
 10
915.27295417500181
 20
527.81214164315998
 30
0.0
  0
VERTEX
  5
2A3
  8
LAYER_1
 10
915.35993836178432
 20
527.89912582994248
 30
0.0
  0
VERTEX
  5
2A4
  8
LAYER_1
 10
915.44692254856682
 20
527.89912582994248
 30
0.0
  0
VERTEX
  5
2A5
  8
LAYER_1
 10
915.62089092213182
 20
527.89912582994248
 30
0.0
  0
VERTEX
  5
2A6
  8
LAYER_1
 10
915.79485929569682
 20
527.98611001672498
 30
0.0
  0
VERTEX
  5
2A7
  8
LAYER_1
 10
915.8818434824791
 20
527.98611001672498
 30
0.0
  0
VERTEX
  5
2A8
  8
LAYER_1
 10
915.9688276692616
 20
527.98611001672498
 30
0.0
  0
VERTEX
  5
2A9
  8
LAYER_1
 10
916.1427960428266
 20
528.07309420350737
 30
0.0
  0
VERTEX
  5
2AA
  8
LAYER_1
 10
916.31676441639138
 20
528.07309420350737
 30
0.0
  0
VERTEX
  5
2AB
  8
LAYER_1
 10
917.36057465778129
 20
528.16007839028987
 30
0.0
  0
VERTEX
  5
2AC
  8
LAYER_1
 10
917.53454303134606
 20
528.16007839028987
 30
0.0
  0
VERTEX
  5
2AD
  8
LAYER_1
 10
917.62152721812856
 20
528.16007839028987
 30
0.0
  0
VERTEX
  5
2AE
  8
LAYER_1
 10
917.79549559169357
 20
528.16007839028987
 30
0.0
  0
VERTEX
  5
2AF
  8
LAYER_1
 10
917.96946396525857
 20
528.24706257707248
 30
0.0
  0
VERTEX
  5
2B0
  8
LAYER_1
 10
918.14343233882357
 20
528.24706257707248
 30
0.0
  0
VERTEX
  5
2B1
  8
LAYER_1
 10
918.40438489917085
 20
528.33404676385499
 30
0.0
  0
VERTEX
  5
2B2
  8
LAYER_1
 10
918.57835327273585
 20
528.33404676385499
 30
0.0
  0
VERTEX
  5
2B3
  8
LAYER_1
 10
918.66533745951835
 20
528.33404676385499
 30
0.0
  0
VERTEX
  5
2B4
  8
LAYER_1
 10
920.23105282160293
 20
528.33404676385499
 30
0.0
  0
VERTEX
  5
2B5
  8
LAYER_1
 10
920.31803700838543
 20
528.33404676385499
 30
0.0
  0
VERTEX
  5
2B6
  8
LAYER_1
 10
920.49200538195043
 20
528.33404676385499
 30
0.0
  0
VERTEX
  5
2B7
  8
LAYER_1
 10
920.57898956873282
 20
528.33404676385499
 30
0.0
  0
VERTEX
  5
2B8
  8
LAYER_1
 10
922.0577207440349
 20
528.33404676385499
 30
0.0
  0
VERTEX
  5
2B9
  8
LAYER_1
 10
922.1447049308174
 20
528.24706257707248
 30
0.0
  0
VERTEX
  5
2BA
  8
LAYER_1
 10
922.7535942382948
 20
528.16007839028987
 30
0.0
  0
VERTEX
  5
2BB
  8
LAYER_1
 10
923.18851517220708
 20
528.16007839028987
 30
0.0
  0
VERTEX
  5
2BC
  8
LAYER_1
 10
923.79740447968436
 20
527.98611001672498
 30
0.0
  0
VERTEX
  5
2BD
  8
LAYER_1
 10
923.97137285324936
 20
527.98611001672498
 30
0.0
  0
VERTEX
  5
2BE
  8
LAYER_1
 10
924.92819890785677
 20
527.81214164315998
 30
0.0
  0
VERTEX
  5
2BF
  8
LAYER_1
 10
925.62407240211655
 20
527.72515745637747
 30
0.0
  0
VERTEX
  5
2C0
  8
LAYER_1
 10
925.71105658889905
 20
527.72515745637747
 30
0.0
  0
VERTEX
  5
2C1
  8
LAYER_1
 10
925.88502496246394
 20
527.72515745637747
 30
0.0
  0
VERTEX
  5
2C2
  8
LAYER_1
 10
925.97200914924645
 20
527.72515745637747
 30
0.0
  0
VERTEX
  5
2C3
  8
LAYER_1
 10
927.45074032454841
 20
527.37722070924758
 30
0.0
  0
VERTEX
  5
2C4
  8
LAYER_1
 10
927.53772451133091
 20
527.37722070924758
 30
0.0
  0
VERTEX
  5
2C5
  8
LAYER_1
 10
927.79867707167841
 20
527.29023652246508
 30
0.0
  0
VERTEX
  5
2C6
  8
LAYER_1
 10
927.88566125846091
 20
527.29023652246508
 30
0.0
  0
VERTEX
  5
2C7
  8
LAYER_1
 10
928.05962963202592
 20
527.29023652246508
 30
0.0
  0
VERTEX
  5
2C8
  8
LAYER_1
 10
928.23359800559081
 20
527.20325233568281
 30
0.0
  0
VERTEX
  5
2C9
  8
LAYER_1
 10
928.32058219237331
 20
527.20325233568281
 30
0.0
  0
VERTEX
  5
2CA
  8
LAYER_1
 10
928.40756637915581
 20
527.1162681489003
 30
0.0
  0
VERTEX
  5
2CB
  8
LAYER_1
 10
928.58153475272059
 20
527.1162681489003
 30
0.0
  0
VERTEX
  5
2CC
  8
LAYER_1
 10
929.88629755445777
 20
526.76833140177041
 30
0.0
  0
VERTEX
  5
2CD
  8
LAYER_1
 10
930.40820267515278
 20
526.50737884142291
 30
0.0
  0
VERTEX
  5
2CE
  8
LAYER_1
 10
930.58217104871756
 20
526.4203946546404
 30
0.0
  0
VERTEX
  5
2CF
  8
LAYER_1
 10
930.75613942228256
 20
526.4203946546404
 30
0.0
  0
VERTEX
  5
2D0
  8
LAYER_1
 10
930.84312360906506
 20
526.3334104678579
 30
0.0
  0
VERTEX
  5
2D1
  8
LAYER_1
 10
931.36502872975996
 20
526.1594420942929
 30
0.0
  0
VERTEX
  5
2D2
  8
LAYER_1
 10
931.45201291654234
 20
526.07245790751062
 30
0.0
  0
VERTEX
  5
2D3
  8
LAYER_1
 10
931.53899710332485
 20
525.98547372072812
 30
0.0
  0
VERTEX
  5
2D4
  8
LAYER_1
 10
931.62598129010735
 20
525.98547372072812
 30
0.0
  0
VERTEX
  5
2D5
  8
LAYER_1
 10
931.79994966367235
 20
525.89848953394562
 30
0.0
  0
VERTEX
  5
2D6
  8
LAYER_1
 10
931.88693385045485
 20
525.81150534716312
 30
0.0
  0
VERTEX
  5
2D7
  8
LAYER_1
 10
931.97391803723735
 20
525.81150534716312
 30
0.0
  0
VERTEX
  5
2D8
  8
LAYER_1
 10
932.06090222401986
 20
525.81150534716312
 30
0.0
  0
VERTEX
  5
2D9
  8
LAYER_1
 10
932.66979153149714
 20
525.46356860003323
 30
0.0
  0
VERTEX
  5
2DA
  8
LAYER_1
 10
932.75677571827964
 20
525.37658441325073
 30
0.0
  0
VERTEX
  5
2DB
  8
LAYER_1
 10
932.84375990506192
 20
525.28960022646834
 30
0.0
  0
VERTEX
  5
2DC
  8
LAYER_1
 10
932.93074409184442
 20
525.28960022646834
 30
0.0
  0
VERTEX
  5
2DD
  8
LAYER_1
 10
933.10471246540942
 20
525.20261603968584
 30
0.0
  0
VERTEX
  5
2DE
  8
LAYER_1
 10
933.19169665219192
 20
525.11563185290333
 30
0.0
  0
VERTEX
  5
2DF
  8
LAYER_1
 10
933.27868083897442
 20
525.11563185290333
 30
0.0
  0
VERTEX
  5
2E0
  8
LAYER_1
 10
933.27868083897442
 20
525.02864766612083
 30
0.0
  0
VERTEX
  5
2E1
  8
LAYER_1
 10
933.88757014645182
 20
524.68071091899094
 30
0.0
  0
VERTEX
  5
2E2
  8
LAYER_1
 10
933.88757014645182
 20
524.59372673220844
 30
0.0
  0
VERTEX
  5
2E3
  8
LAYER_1
 10
933.9745543332341
 20
524.50674254542605
 30
0.0
  0
VERTEX
  5
2E4
  8
LAYER_1
 10
934.0615385200166
 20
524.50674254542605
 30
0.0
  0
VERTEX
  5
2E5
  8
LAYER_1
 10
934.0615385200166
 20
524.41975835864355
 30
0.0
  0
VERTEX
  5
2E6
  8
LAYER_1
 10
934.1485227067991
 20
524.41975835864355
 30
0.0
  0
VERTEX
  5
2E7
  8
LAYER_1
 10
934.1485227067991
 20
524.33277417186105
 30
0.0
  0
VERTEX
  5
2E8
  8
LAYER_1
 10
934.2355068935816
 20
524.24578998507855
 30
0.0
  0
VERTEX
  5
2E9
  8
LAYER_1
 10
934.2355068935816
 20
524.15880579829604
 30
0.0
  0
VERTEX
  5
2EA
  8
LAYER_1
 10
934.4094752671466
 20
523.98483742473115
 30
0.0
  0
VERTEX
  5
2EB
  8
LAYER_1
 10
934.49645945392911
 20
523.89785323794865
 30
0.0
  0
VERTEX
  5
2EC
  8
LAYER_1
 10
934.49645945392911
 20
523.81086905116615
 30
0.0
  0
VERTEX
  5
2ED
  8
LAYER_1
 10
934.58344364071161
 20
523.81086905116615
 30
0.0
  0
VERTEX
  5
2EE
  8
LAYER_1
 10
934.58344364071161
 20
523.72388486438365
 30
0.0
  0
VERTEX
  5
2EF
  8
LAYER_1
 10
934.67042782749411
 20
523.63690067760115
 30
0.0
  0
VERTEX
  5
2F0
  8
LAYER_1
 10
934.67042782749411
 20
523.54991649081865
 30
0.0
  0
VERTEX
  5
2F1
  8
LAYER_1
 10
934.75741201427638
 20
523.54991649081865
 30
0.0
  0
VERTEX
  5
2F2
  8
LAYER_1
 10
934.75741201427638
 20
523.46293230403614
 30
0.0
  0
VERTEX
  5
2F3
  8
LAYER_1
 10
934.84439620105888
 20
523.28896393047137
 30
0.0
  0
VERTEX
  5
2F4
  8
LAYER_1
 10
934.93138038784139
 20
523.20197974368887
 30
0.0
  0
VERTEX
  5
2F5
  8
LAYER_1
 10
935.01836457462389
 20
523.11499555690636
 30
0.0
  0
VERTEX
  5
2F6
  8
LAYER_1
 10
935.01836457462389
 20
523.02801137012386
 30
0.0
  0
VERTEX
  5
2F7
  8
LAYER_1
 10
935.01836457462389
 20
522.94102718334136
 30
0.0
  0
VERTEX
  5
2F8
  8
LAYER_1
 10
935.10534876140639
 20
522.94102718334136
 30
0.0
  0
VERTEX
  5
2F9
  8
LAYER_1
 10
935.10534876140639
 20
522.85404299655886
 30
0.0
  0
VERTEX
  5
2FA
  8
LAYER_1
 10
935.19233294818889
 20
522.68007462299386
 30
0.0
  0
VERTEX
  5
2FB
  8
LAYER_1
 10
935.19233294818889
 20
522.59309043621136
 30
0.0
  0
VERTEX
  5
2FC
  8
LAYER_1
 10
935.19233294818889
 20
522.50610624942897
 30
0.0
  0
VERTEX
  5
2FD
  8
LAYER_1
 10
935.19233294818889
 20
522.41912206264647
 30
0.0
  0
VERTEX
  5
2FE
  8
LAYER_1
 10
935.19233294818889
 20
522.33213787586396
 30
0.0
  0
VERTEX
  5
2FF
  8
LAYER_1
 10
935.19233294818889
 20
522.24515368908146
 30
0.0
  0
VERTEX
  5
300
  8
LAYER_1
 10
935.19233294818889
 20
522.15816950229896
 30
0.0
  0
VERTEX
  5
301
  8
LAYER_1
 10
935.19233294818889
 20
522.07118531551657
 30
0.0
  0
VERTEX
  5
302
  8
LAYER_1
 10
935.10534876140639
 20
522.07118531551657
 30
0.0
  0
VERTEX
  5
303
  8
LAYER_1
 10
935.10534876140639
 20
521.98420112873407
 30
0.0
  0
VERTEX
  5
304
  8
LAYER_1
 10
935.01836457462389
 20
521.98420112873407
 30
0.0
  0
VERTEX
  5
305
  8
LAYER_1
 10
934.93138038784139
 20
521.89721694195157
 30
0.0
  0
VERTEX
  5
306
  8
LAYER_1
 10
934.93138038784139
 20
521.81023275516907
 30
0.0
  0
VERTEX
  5
307
  8
LAYER_1
 10
934.84439620105888
 20
521.81023275516907
 30
0.0
  0
VERTEX
  5
308
  8
LAYER_1
 10
934.75741201427638
 20
521.81023275516907
 30
0.0
  0
VERTEX
  5
309
  8
LAYER_1
 10
934.3224910803641
 20
521.63626438160429
 30
0.0
  0
VERTEX
  5
30A
  8
LAYER_1
 10
934.2355068935816
 20
521.63626438160429
 30
0.0
  0
VERTEX
  5
30B
  8
LAYER_1
 10
934.1485227067991
 20
521.63626438160429
 30
0.0
  0
VERTEX
  5
30C
  8
LAYER_1
 10
934.0615385200166
 20
521.63626438160429
 30
0.0
  0
VERTEX
  5
30D
  8
LAYER_1
 10
933.36566502575693
 20
521.46229600803929
 30
0.0
  0
VERTEX
  5
30E
  8
LAYER_1
 10
933.27868083897442
 20
521.46229600803929
 30
0.0
  0
VERTEX
  5
30F
  8
LAYER_1
 10
933.19169665219192
 20
521.37531182125679
 30
0.0
  0
VERTEX
  5
310
  8
LAYER_1
 10
933.10471246540942
 20
521.37531182125679
 30
0.0
  0
VERTEX
  5
311
  8
LAYER_1
 10
932.40883897114963
 20
521.2883276344744
 30
0.0
  0
VERTEX
  5
312
  8
LAYER_1
 10
932.32185478436725
 20
521.2883276344744
 30
0.0
  0
VERTEX
  5
313
  8
LAYER_1
 10
932.23487059758475
 20
521.2883276344744
 30
0.0
  0
VERTEX
  5
314
  8
LAYER_1
 10
932.14788641080224
 20
521.2883276344744
 30
0.0
  0
VERTEX
  5
315
  8
LAYER_1
 10
931.97391803723735
 20
521.2013434476919
 30
0.0
  0
VERTEX
  5
316
  8
LAYER_1
 10
931.88693385045485
 20
521.2013434476919
 30
0.0
  0
VERTEX
  5
317
  8
LAYER_1
 10
931.79994966367235
 20
521.2013434476919
 30
0.0
  0
VERTEX
  5
318
  8
LAYER_1
 10
931.62598129010735
 20
521.2013434476919
 30
0.0
  0
VERTEX
  5
319
  8
LAYER_1
 10
931.53899710332485
 20
521.1143592609094
 30
0.0
  0
VERTEX
  5
31A
  8
LAYER_1
 10
930.49518686193505
 20
521.02737507412689
 30
0.0
  0
VERTEX
  5
31B
  8
LAYER_1
 10
930.40820267515278
 20
521.02737507412689
 30
0.0
  0
VERTEX
  5
31C
  8
LAYER_1
 10
930.23423430158778
 20
520.94039088734439
 30
0.0
  0
VERTEX
  5
31D
  8
LAYER_1
 10
930.14725011480527
 20
520.94039088734439
 30
0.0
  0
VERTEX
  5
31E
  8
LAYER_1
 10
930.06026592802277
 20
520.94039088734439
 30
0.0
  0
VERTEX
  5
31F
  8
LAYER_1
 10
929.88629755445777
 20
520.94039088734439
 30
0.0
  0
VERTEX
  5
320
  8
LAYER_1
 10
929.71232918089277
 20
520.94039088734439
 30
0.0
  0
VERTEX
  5
321
  8
LAYER_1
 10
929.62534499411038
 20
520.94039088734439
 30
0.0
  0
VERTEX
  5
322
  8
LAYER_1
 10
929.53836080732788
 20
520.94039088734439
 30
0.0
  0
VERTEX
  5
323
  8
LAYER_1
 10
929.1034398734156
 20
520.94039088734439
 30
0.0
  0
VERTEX
  5
324
  8
LAYER_1
 10
927.45074032454841
 20
520.67943832699689
 30
0.0
  0
VERTEX
  5
325
  8
LAYER_1
 10
927.3637561377659
 20
520.67943832699689
 30
0.0
  0
VERTEX
  5
326
  8
LAYER_1
 10
927.18978776420113
 20
520.59245414021439
 30
0.0
  0
VERTEX
  5
327
  8
LAYER_1
 10
927.10280357741863
 20
520.59245414021439
 30
0.0
  0
VERTEX
  5
328
  8
LAYER_1
 10
926.14597752281134
 20
520.50546995343211
 30
0.0
  0
VERTEX
  5
329
  8
LAYER_1
 10
926.05899333602895
 20
520.50546995343211
 30
0.0
  0
VERTEX
  5
32A
  8
LAYER_1
 10
925.79804077568144
 20
520.41848576664961
 30
0.0
  0
VERTEX
  5
32B
  8
LAYER_1
 10
925.36311984176905
 20
520.33150157986711
 30
0.0
  0
VERTEX
  5
32C
  8
LAYER_1
 10
925.27613565498655
 20
520.33150157986711
 30
0.0
  0
VERTEX
  5
32D
  8
LAYER_1
 10
925.10216728142154
 20
520.33150157986711
 30
0.0
  0
VERTEX
  5
32E
  8
LAYER_1
 10
925.01518309463916
 20
520.33150157986711
 30
0.0
  0
VERTEX
  5
32F
  8
LAYER_1
 10
923.44946773255458
 20
520.07054901951972
 30
0.0
  0
VERTEX
  5
330
  8
LAYER_1
 10
923.27549935898958
 20
519.98356483273722
 30
0.0
  0
VERTEX
  5
331
  8
LAYER_1
 10
923.18851517220708
 20
519.98356483273722
 30
0.0
  0
VERTEX
  5
332
  8
LAYER_1
 10
923.01454679864207
 20
519.98356483273722
 30
0.0
  0
VERTEX
  5
333
  8
LAYER_1
 10
922.9275626118598
 20
519.89658064595471
 30
0.0
  0
VERTEX
  5
334
  8
LAYER_1
 10
922.8405784250773
 20
519.89658064595471
 30
0.0
  0
VERTEX
  5
335
  8
LAYER_1
 10
922.4056574911649
 20
519.80959645917221
 30
0.0
  0
VERTEX
  5
336
  8
LAYER_1
 10
921.70978399690512
 20
519.54864389882482
 30
0.0
  0
VERTEX
  5
337
  8
LAYER_1
 10
921.62279981012261
 20
519.54864389882482
 30
0.0
  0
VERTEX
  5
338
  8
LAYER_1
 10
921.53581562334011
 20
519.46165971204232
 30
0.0
  0
VERTEX
  5
339
  8
LAYER_1
 10
921.27486306299284
 20
519.46165971204232
 30
0.0
  0
VERTEX
  5
33A
  8
LAYER_1
 10
921.18787887621033
 20
519.37467552525993
 30
0.0
  0
VERTEX
  5
33B
  8
LAYER_1
 10
921.10089468942783
 20
519.37467552525993
 30
0.0
  0
VERTEX
  5
33C
  8
LAYER_1
 10
920.92692631586283
 20
519.28769133847743
 30
0.0
  0
VERTEX
  5
33D
  8
LAYER_1
 10
920.40502119516793
 20
518.93975459134754
 30
0.0
  0
VERTEX
  5
33E
  8
LAYER_1
 10
920.31803700838543
 20
518.93975459134754
 30
0.0
  0
VERTEX
  5
33F
  8
LAYER_1
 10
920.23105282160293
 20
518.85277040456504
 30
0.0
  0
VERTEX
  5
340
  8
LAYER_1
 10
920.14406863482043
 20
518.85277040456504
 30
0.0
  0
VERTEX
  5
341
  8
LAYER_1
 10
920.05708444803793
 20
518.76578621778253
 30
0.0
  0
VERTEX
  5
342
  8
LAYER_1
 10
920.05708444803793
 20
518.67880203100003
 30
0.0
  0
VERTEX
  5
343
  8
LAYER_1
 10
919.97010026125542
 20
518.67880203100003
 30
0.0
  0
VERTEX
  5
344
  8
LAYER_1
 10
919.62216351412565
 20
518.50483365743514
 30
0.0
  0
VERTEX
  5
345
  8
LAYER_1
 10
919.53517932734314
 20
518.41784947065264
 30
0.0
  0
VERTEX
  5
346
  8
LAYER_1
 10
919.44819514056064
 20
518.33086528387014
 30
0.0
  0
VERTEX
  5
347
  8
LAYER_1
 10
919.36121095377825
 20
518.33086528387014
 30
0.0
  0
VERTEX
  5
348
  8
LAYER_1
 10
919.36121095377825
 20
518.24388109708764
 30
0.0
  0
VERTEX
  5
349
  8
LAYER_1
 10
919.27422676699575
 20
518.24388109708764
 30
0.0
  0
VERTEX
  5
34A
  8
LAYER_1
 10
919.18724258021325
 20
518.15689691030525
 30
0.0
  0
VERTEX
  5
34B
  8
LAYER_1
 10
918.83930583308324
 20
517.80896016317536
 30
0.0
  0
VERTEX
  5
34C
  8
LAYER_1
 10
918.83930583308324
 20
517.72197597639286
 30
0.0
  0
VERTEX
  5
34D
  8
LAYER_1
 10
918.75232164630086
 20
517.72197597639286
 30
0.0
  0
VERTEX
  5
34E
  8
LAYER_1
 10
918.75232164630086
 20
517.63499178961035
 30
0.0
  0
VERTEX
  5
34F
  8
LAYER_1
 10
918.66533745951835
 20
517.63499178961035
 30
0.0
  0
VERTEX
  5
350
  8
LAYER_1
 10
918.57835327273585
 20
517.54800760282785
 30
0.0
  0
VERTEX
  5
351
  8
LAYER_1
 10
918.57835327273585
 20
517.46102341604535
 30
0.0
  0
VERTEX
  5
352
  8
LAYER_1
 10
918.49136908595335
 20
517.37403922926285
 30
0.0
  0
VERTEX
  5
353
  8
LAYER_1
 10
918.31740071238835
 20
517.11308666891534
 30
0.0
  0
VERTEX
  5
354
  8
LAYER_1
 10
918.31740071238835
 20
517.02610248213296
 30
0.0
  0
VERTEX
  5
355
  8
LAYER_1
 10
918.23041652560585
 20
517.02610248213296
 30
0.0
  0
VERTEX
  5
356
  8
LAYER_1
 10
918.23041652560585
 20
516.93911829535045
 30
0.0
  0
VERTEX
  5
357
  8
LAYER_1
 10
918.23041652560585
 20
516.85213410856795
 30
0.0
  0
VERTEX
  5
358
  8
LAYER_1
 10
918.14343233882357
 20
516.85213410856795
 30
0.0
  0
VERTEX
  5
359
  8
LAYER_1
 10
918.14343233882357
 20
516.76514992178545
 30
0.0
  0
VERTEX
  5
35A
  8
LAYER_1
 10
918.05644815204107
 20
516.67816573500295
 30
0.0
  0
VERTEX
  5
35B
  8
LAYER_1
 10
917.96946396525857
 20
516.59118154822056
 30
0.0
  0
VERTEX
  5
35C
  8
LAYER_1
 10
917.96946396525857
 20
516.50419736143806
 30
0.0
  0
VERTEX
  5
35D
  8
LAYER_1
 10
917.79549559169357
 20
516.24324480109078
 30
0.0
  0
VERTEX
  5
35E
  8
LAYER_1
 10
917.79549559169357
 20
516.15626061430828
 30
0.0
  0
VERTEX
  5
35F
  8
LAYER_1
 10
917.79549559169357
 20
515.98229224074328
 30
0.0
  0
VERTEX
  5
360
  8
LAYER_1
 10
917.70851140491106
 20
515.98229224074328
 30
0.0
  0
VERTEX
  5
361
  8
LAYER_1
 10
917.70851140491106
 20
515.89530805396078
 30
0.0
  0
VERTEX
  5
362
  8
LAYER_1
 10
917.62152721812856
 20
515.80832386717839
 30
0.0
  0
VERTEX
  5
363
  8
LAYER_1
 10
917.62152721812856
 20
515.63435549361338
 30
0.0
  0
VERTEX
  5
364
  8
LAYER_1
 10
917.62152721812856
 20
515.54737130683088
 30
0.0
  0
VERTEX
  5
365
  8
LAYER_1
 10
917.53454303134606
 20
515.54737130683088
 30
0.0
  0
VERTEX
  5
366
  8
LAYER_1
 10
917.53454303134606
 20
515.28641874648338
 30
0.0
  0
VERTEX
  5
367
  8
LAYER_1
 10
917.53454303134606
 20
515.19943455970088
 30
0.0
  0
VERTEX
  5
368
  8
LAYER_1
 10
917.44755884456356
 20
515.11245037291837
 30
0.0
  0
VERTEX
  5
369
  8
LAYER_1
 10
917.44755884456356
 20
515.02546618613599
 30
0.0
  0
VERTEX
  5
36A
  8
LAYER_1
 10
917.44755884456356
 20
514.93848199935348
 30
0.0
  0
VERTEX
  5
36B
  8
LAYER_1
 10
917.36057465778129
 20
514.85149781257098
 30
0.0
  0
VERTEX
  5
36C
  8
LAYER_1
 10
917.36057465778129
 20
514.76451362578848
 30
0.0
  0
VERTEX
  5
36D
  8
LAYER_1
 10
917.36057465778129
 20
514.67752943900621
 30
0.0
  0
VERTEX
  5
36E
  8
LAYER_1
 10
917.36057465778129
 20
514.59054525222371
 30
0.0
  0
VERTEX
  5
36F
  8
LAYER_1
 10
917.36057465778129
 20
514.4165768786587
 30
0.0
  0
VERTEX
  5
370
  8
LAYER_1
 10
917.36057465778129
 20
514.06864013152881
 30
0.0
  0
VERTEX
  5
371
  8
LAYER_1
 10
917.36057465778129
 20
513.98165594474631
 30
0.0
  0
VERTEX
  5
372
  8
LAYER_1
 10
917.36057465778129
 20
513.89467175796381
 30
0.0
  0
VERTEX
  5
373
  8
LAYER_1
 10
917.36057465778129
 20
513.80768757118142
 30
0.0
  0
VERTEX
  5
374
  8
LAYER_1
 10
917.36057465778129
 20
513.63371919761641
 30
0.0
  0
VERTEX
  5
375
  8
LAYER_1
 10
917.36057465778129
 20
513.5467350108338
 30
0.0
  0
VERTEX
  5
376
  8
LAYER_1
 10
917.36057465778129
 20
513.37276663726902
 30
0.0
  0
VERTEX
  5
377
  8
LAYER_1
 10
917.36057465778129
 20
513.28578245048652
 30
0.0
  0
VERTEX
  5
378
  8
LAYER_1
 10
917.44755884456356
 20
512.93784570335663
 30
0.0
  0
VERTEX
  5
379
  8
LAYER_1
 10
917.53454303134606
 20
512.85086151657413
 30
0.0
  0
VERTEX
  5
37A
  8
LAYER_1
 10
917.62152721812856
 20
512.58990895622674
 30
0.0
  0
VERTEX
  5
37B
  8
LAYER_1
 10
917.62152721812856
 20
512.41594058266173
 30
0.0
  0
VERTEX
  5
37C
  8
LAYER_1
 10
917.62152721812856
 20
512.32895639587923
 30
0.0
  0
VERTEX
  5
37D
  8
LAYER_1
 10
917.70851140491106
 20
512.24197220909684
 30
0.0
  0
VERTEX
  5
37E
  8
LAYER_1
 10
917.96946396525857
 20
511.63308290161939
 30
0.0
  0
VERTEX
  5
37F
  8
LAYER_1
 10
918.05644815204107
 20
511.63308290161939
 30
0.0
  0
VERTEX
  5
380
  8
LAYER_1
 10
918.05644815204107
 20
511.54609871483689
 30
0.0
  0
VERTEX
  5
381
  8
LAYER_1
 10
918.14343233882357
 20
511.45911452805439
 30
0.0
  0
VERTEX
  5
382
  8
LAYER_1
 10
918.14343233882357
 20
511.372130341272
 30
0.0
  0
VERTEX
  5
383
  8
LAYER_1
 10
918.23041652560585
 20
511.372130341272
 30
0.0
  0
VERTEX
  5
384
  8
LAYER_1
 10
918.23041652560585
 20
511.19816196770711
 30
0.0
  0
VERTEX
  5
385
  8
LAYER_1
 10
918.31740071238835
 20
511.19816196770711
 30
0.0
  0
VERTEX
  5
386
  8
LAYER_1
 10
918.31740071238835
 20
511.11117778092461
 30
0.0
  0
VERTEX
  5
387
  8
LAYER_1
 10
918.40438489917085
 20
511.0241935941421
 30
0.0
  0
VERTEX
  5
388
  8
LAYER_1
 10
918.75232164630086
 20
510.58927266022982
 30
0.0
  0
VERTEX
  5
389
  8
LAYER_1
 10
918.83930583308324
 20
510.58927266022982
 30
0.0
  0
VERTEX
  5
38A
  8
LAYER_1
 10
918.83930583308324
 20
510.50228847344732
 30
0.0
  0
VERTEX
  5
38B
  8
LAYER_1
 10
918.92629001986575
 20
510.41530428666482
 30
0.0
  0
VERTEX
  5
38C
  8
LAYER_1
 10
919.18724258021325
 20
510.24133591309987
 30
0.0
  0
VERTEX
  5
38D
  8
LAYER_1
 10
919.27422676699575
 20
510.15435172631737
 30
0.0
  0
VERTEX
  5
38E
  8
LAYER_1
 10
919.36121095377825
 20
510.06736753953481
 30
0.0
  0
VERTEX
  5
38F
  8
LAYER_1
 10
919.70914770090815
 20
509.80641497918742
 30
0.0
  0
VERTEX
  5
390
  8
LAYER_1
 10
919.79613188769042
 20
509.71943079240492
 30
0.0
  0
VERTEX
  5
391
  8
LAYER_1
 10
919.88311607447292
 20
509.71943079240492
 30
0.0
  0
VERTEX
  5
392
  8
LAYER_1
 10
919.97010026125542
 20
509.71943079240492
 30
0.0
  0
VERTEX
  5
393
  8
LAYER_1
 10
920.14406863482043
 20
509.54546241883997
 30
0.0
  0
VERTEX
  5
394
  8
LAYER_1
 10
920.23105282160293
 20
509.54546241883997
 30
0.0
  0
VERTEX
  5
395
  8
LAYER_1
 10
920.31803700838543
 20
509.54546241883997
 30
0.0
  0
VERTEX
  5
396
  8
LAYER_1
 10
920.40502119516793
 20
509.45847823205747
 30
0.0
  0
VERTEX
  5
397
  8
LAYER_1
 10
921.01391050264533
 20
509.19752567171008
 30
0.0
  0
VERTEX
  5
398
  8
LAYER_1
 10
921.10089468942783
 20
509.19752567171008
 30
0.0
  0
VERTEX
  5
399
  8
LAYER_1
 10
921.18787887621033
 20
509.11054148492758
 30
0.0
  0
VERTEX
  5
39A
  8
LAYER_1
 10
921.27486306299284
 20
509.11054148492758
 30
0.0
  0
VERTEX
  5
39B
  8
LAYER_1
 10
921.36184724977511
 20
509.11054148492758
 30
0.0
  0
VERTEX
  5
39C
  8
LAYER_1
 10
921.44883143655761
 20
509.11054148492758
 30
0.0
  0
VERTEX
  5
39D
  8
LAYER_1
 10
921.62279981012261
 20
509.02355729814519
 30
0.0
  0
VERTEX
  5
39E
  8
LAYER_1
 10
921.79676818368762
 20
509.02355729814519
 30
0.0
  0
VERTEX
  5
39F
  8
LAYER_1
 10
921.88375237046989
 20
509.02355729814519
 30
0.0
  0
VERTEX
  5
3A0
  8
LAYER_1
 10
922.4056574911649
 20
509.02355729814519
 30
0.0
  0
VERTEX
  5
3A1
  8
LAYER_1
 10
922.4926416779474
 20
508.93657311136269
 30
0.0
  0
VERTEX
  5
3A2
  8
LAYER_1
 10
922.57962586472991
 20
508.93657311136269
 30
0.0
  0
VERTEX
  5
3A3
  8
LAYER_1
 10
922.66661005151229
 20
508.93657311136269
 30
0.0
  0
VERTEX
  5
3A4
  8
LAYER_1
 10
922.7535942382948
 20
508.93657311136269
 30
0.0
  0
VERTEX
  5
3A5
  8
LAYER_1
 10
922.8405784250773
 20
508.93657311136269
 30
0.0
  0
VERTEX
  5
3A6
  8
LAYER_1
 10
922.9275626118598
 20
508.93657311136269
 30
0.0
  0
VERTEX
  5
3A7
  8
LAYER_1
 10
923.01454679864207
 20
508.93657311136269
 30
0.0
  0
VERTEX
  5
3A8
  8
LAYER_1
 10
923.10153098542457
 20
508.93657311136269
 30
0.0
  0
VERTEX
  5
3A9
  8
LAYER_1
 10
923.88438866646686
 20
508.93657311136269
 30
0.0
  0
VERTEX
  5
3AA
  8
LAYER_1
 10
924.05835704003186
 20
508.93657311136269
 30
0.0
  0
VERTEX
  5
3AB
  8
LAYER_1
 10
924.14534122681437
 20
508.93657311136269
 30
0.0
  0
VERTEX
  5
3AC
  8
LAYER_1
 10
924.31930960037926
 20
508.93657311136269
 30
0.0
  0
VERTEX
  5
3AD
  8
LAYER_1
 10
924.40629378716176
 20
509.02355729814519
 30
0.0
  0
VERTEX
  5
3AE
  8
LAYER_1
 10
924.58026216072676
 20
509.02355729814519
 30
0.0
  0
VERTEX
  5
3AF
  8
LAYER_1
 10
924.66724634750926
 20
509.02355729814519
 30
0.0
  0
VERTEX
  5
3B0
  8
LAYER_1
 10
924.75423053429176
 20
509.02355729814519
 30
0.0
  0
VERTEX
  5
3B1
  8
LAYER_1
 10
925.36311984176905
 20
509.19752567171008
 30
0.0
  0
VERTEX
  5
3B2
  8
LAYER_1
 10
925.53708821533405
 20
509.19752567171008
 30
0.0
  0
VERTEX
  5
3B3
  8
LAYER_1
 10
925.62407240211655
 20
509.28450985849253
 30
0.0
  0
VERTEX
  5
3B4
  8
LAYER_1
 10
925.71105658889905
 20
509.37149404527503
 30
0.0
  0
VERTEX
  5
3B5
  8
LAYER_1
 10
925.79804077568144
 20
509.37149404527503
 30
0.0
  0
VERTEX
  5
3B6
  8
LAYER_1
 10
925.88502496246394
 20
509.37149404527503
 30
0.0
  0
VERTEX
  5
3B7
  8
LAYER_1
 10
926.14597752281134
 20
509.45847823205747
 30
0.0
  0
VERTEX
  5
3B8
  8
LAYER_1
 10
926.23296170959384
 20
509.54546241883997
 30
0.0
  0
VERTEX
  5
3B9
  8
LAYER_1
 10
926.49391426994134
 20
509.63244660562248
 30
0.0
  0
VERTEX
  5
3BA
  8
LAYER_1
 10
926.92883520385362
 20
509.98038335275231
 30
0.0
  0
VERTEX
  5
3BB
  8
LAYER_1
 10
927.10280357741863
 20
509.98038335275231
 30
0.0
  0
VERTEX
  5
3BC
  8
LAYER_1
 10
927.45074032454841
 20
510.24133591309987
 30
0.0
  0
VERTEX
  5
3BD
  8
LAYER_1
 10
927.53772451133091
 20
510.24133591309987
 30
0.0
  0
VERTEX
  5
3BE
  8
LAYER_1
 10
927.62470869811341
 20
510.32832009988232
 30
0.0
  0
VERTEX
  5
3BF
  8
LAYER_1
 10
927.79867707167841
 20
510.41530428666482
 30
0.0
  0
VERTEX
  5
3C0
  8
LAYER_1
 10
928.84248731306809
 20
511.0241935941421
 30
0.0
  0
VERTEX
  5
3C1
  8
LAYER_1
 10
929.01645568663309
 20
511.11117778092461
 30
0.0
  0
VERTEX
  5
3C2
  8
LAYER_1
 10
929.1034398734156
 20
511.11117778092461
 30
0.0
  0
VERTEX
  5
3C3
  8
LAYER_1
 10
929.36439243376287
 20
511.2851461544895
 30
0.0
  0
VERTEX
  5
3C4
  8
LAYER_1
 10
929.45137662054537
 20
511.2851461544895
 30
0.0
  0
VERTEX
  5
3C5
  8
LAYER_1
 10
929.71232918089277
 20
511.372130341272
 30
0.0
  0
VERTEX
  5
3C6
  8
LAYER_1
 10
929.79931336767527
 20
511.45911452805439
 30
0.0
  0
VERTEX
  5
3C7
  8
LAYER_1
 10
931.01709198263006
 20
511.89403546196689
 30
0.0
  0
VERTEX
  5
3C8
  8
LAYER_1
 10
931.19106035619507
 20
511.9810196487494
 30
0.0
  0
VERTEX
  5
3C9
  8
LAYER_1
 10
931.36502872975996
 20
512.06800383553184
 30
0.0
  0
VERTEX
  5
3CA
  8
LAYER_1
 10
931.45201291654234
 20
512.15498802231434
 30
0.0
  0
VERTEX
  5
3CB
  8
LAYER_1
 10
931.62598129010735
 20
512.15498802231434
 30
0.0
  0
VERTEX
  5
3CC
  8
LAYER_1
 10
931.79994966367235
 20
512.15498802231434
 30
0.0
  0
VERTEX
  5
3CD
  8
LAYER_1
 10
932.06090222401986
 20
512.32895639587923
 30
0.0
  0
VERTEX
  5
3CE
  8
LAYER_1
 10
932.23487059758475
 20
512.32895639587923
 30
0.0
  0
VERTEX
  5
3CF
  8
LAYER_1
 10
933.27868083897442
 20
512.67689314300924
 30
0.0
  0
VERTEX
  5
3D0
  8
LAYER_1
 10
933.36566502575693
 20
512.67689314300924
 30
0.0
  0
VERTEX
  5
3D1
  8
LAYER_1
 10
933.45264921253943
 20
512.76387732979163
 30
0.0
  0
VERTEX
  5
3D2
  8
LAYER_1
 10
933.62661758610432
 20
512.76387732979163
 30
0.0
  0
VERTEX
  5
3D3
  8
LAYER_1
 10
933.80058595966932
 20
512.76387732979163
 30
0.0
  0
VERTEX
  5
3D4
  8
LAYER_1
 10
933.9745543332341
 20
512.85086151657413
 30
0.0
  0
VERTEX
  5
3D5
  8
LAYER_1
 10
934.0615385200166
 20
512.85086151657413
 30
0.0
  0
VERTEX
  5
3D6
  8
LAYER_1
 10
934.2355068935816
 20
512.93784570335663
 30
0.0
  0
VERTEX
  5
3D7
  8
LAYER_1
 10
935.27931713497139
 20
513.19879826370402
 30
0.0
  0
VERTEX
  5
3D8
  8
LAYER_1
 10
935.45328550853651
 20
513.19879826370402
 30
0.0
  0
VERTEX
  5
3D9
  8
LAYER_1
 10
935.62725388210129
 20
513.19879826370402
 30
0.0
  0
VERTEX
  5
3DA
  8
LAYER_1
 10
935.71423806888379
 20
513.19879826370402
 30
0.0
  0
VERTEX
  5
3DB
  8
LAYER_1
 10
935.80122225566629
 20
513.19879826370402
 30
0.0
  0
VERTEX
  5
3DC
  8
LAYER_1
 10
935.97519062923107
 20
513.19879826370402
 30
0.0
  0
VERTEX
  5
3DD
  8
LAYER_1
 10
936.06217481601357
 20
513.19879826370402
 30
0.0
  0
VERTEX
  5
3DE
  8
LAYER_1
 10
936.14915900279607
 20
513.19879826370402
 30
0.0
  0
VERTEX
  5
3DF
  8
LAYER_1
 10
936.23614318957857
 20
513.19879826370402
 30
0.0
  0
VERTEX
  5
3E0
  8
LAYER_1
 10
937.10598505740325
 20
513.28578245048652
 30
0.0
  0
VERTEX
  5
3E1
  8
LAYER_1
 10
937.19296924418575
 20
513.28578245048652
 30
0.0
  0
VERTEX
  5
3E2
  8
LAYER_1
 10
937.27995343096825
 20
513.28578245048652
 30
0.0
  0
VERTEX
  5
3E3
  8
LAYER_1
 10
937.36693761775075
 20
513.28578245048652
 30
0.0
  0
VERTEX
  5
3E4
  8
LAYER_1
 10
937.54090599131575
 20
513.28578245048652
 30
0.0
  0
VERTEX
  5
3E5
  8
LAYER_1
 10
937.71487436488076
 20
513.28578245048652
 30
0.0
  0
VERTEX
  5
3E6
  8
LAYER_1
 10
937.88884273844565
 20
513.28578245048652
 30
0.0
  0
VERTEX
  5
3E7
  8
LAYER_1
 10
937.97582692522815
 20
513.28578245048652
 30
0.0
  0
VERTEX
  5
3E8
  8
LAYER_1
 10
938.14979529879315
 20
513.28578245048652
 30
0.0
  0
VERTEX
  5
3E9
  8
LAYER_1
 10
938.67170041948793
 20
513.28578245048652
 30
0.0
  0
VERTEX
  5
3EA
  8
LAYER_1
 10
938.84566879305305
 20
513.19879826370402
 30
0.0
  0
VERTEX
  5
3EB
  8
LAYER_1
 10
938.93265297983555
 20
513.19879826370402
 30
0.0
  0
VERTEX
  5
3EC
  8
LAYER_1
 10
939.01963716661805
 20
513.19879826370402
 30
0.0
  0
VERTEX
  5
3ED
  8
LAYER_1
 10
939.19360554018283
 20
513.19879826370402
 30
0.0
  0
VERTEX
  5
3EE
  8
LAYER_1
 10
939.19360554018283
 20
513.11181407692152
 30
0.0
  0
VERTEX
  5
3EF
  8
LAYER_1
 10
939.28058972696533
 20
513.11181407692152
 30
0.0
  0
VERTEX
  5
3F0
  8
LAYER_1
 10
939.36757391374783
 20
513.11181407692152
 30
0.0
  0
VERTEX
  5
3F1
  8
LAYER_1
 10
939.97646322122512
 20
512.93784570335663
 30
0.0
  0
VERTEX
  5
3F2
  8
LAYER_1
 10
939.97646322122512
 20
512.85086151657413
 30
0.0
  0
VERTEX
  5
3F3
  8
LAYER_1
 10
940.15043159479012
 20
512.85086151657413
 30
0.0
  0
VERTEX
  5
3F4
  8
LAYER_1
 10
940.23741578157239
 20
512.85086151657413
 30
0.0
  0
VERTEX
  5
3F5
  8
LAYER_1
 10
940.4983683419199
 20
512.67689314300924
 30
0.0
  0
VERTEX
  5
3F6
  8
LAYER_1
 10
940.58535252870251
 20
512.67689314300924
 30
0.0
  0
VERTEX
  5
3F7
  8
LAYER_1
 10
940.67233671548502
 20
512.67689314300924
 30
0.0
  0
VERTEX
  5
3F8
  8
LAYER_1
 10
940.75932090226752
 20
512.58990895622674
 30
0.0
  0
VERTEX
  5
3F9
  8
LAYER_1
 10
941.2812260229623
 20
512.41594058266173
 30
0.0
  0
VERTEX
  5
3FA
  8
LAYER_1
 10
941.45519439652708
 20
512.32895639587923
 30
0.0
  0
VERTEX
  5
3FB
  8
LAYER_1
 10
941.54217858330958
 20
512.32895639587923
 30
0.0
  0
VERTEX
  5
3FC
  8
LAYER_1
 10
941.62916277009208
 20
512.24197220909684
 30
0.0
  0
VERTEX
  5
3FD
  8
LAYER_1
 10
941.71614695687458
 20
512.15498802231434
 30
0.0
  0
VERTEX
  5
3FE
  8
LAYER_1
 10
941.80313114365708
 20
512.15498802231434
 30
0.0
  0
VERTEX
  5
3FF
  8
LAYER_1
 10
941.89011533043958
 20
512.06800383553184
 30
0.0
  0
VERTEX
  5
400
  8
LAYER_1
 10
941.97709951722209
 20
512.06800383553184
 30
0.0
  0
VERTEX
  5
401
  8
LAYER_1
 10
942.49900463791698
 20
511.72006708840189
 30
0.0
  0
VERTEX
  5
402
  8
LAYER_1
 10
942.67297301148176
 20
511.72006708840189
 30
0.0
  0
VERTEX
  5
403
  8
LAYER_1
 10
942.84694138504676
 20
511.63308290161939
 30
0.0
  0
VERTEX
  5
404
  8
LAYER_1
 10
942.84694138504676
 20
511.54609871483689
 30
0.0
  0
VERTEX
  5
405
  8
LAYER_1
 10
942.93392557182926
 20
511.45911452805439
 30
0.0
  0
VERTEX
  5
406
  8
LAYER_1
 10
943.02090975861177
 20
511.45911452805439
 30
0.0
  0
VERTEX
  5
407
  8
LAYER_1
 10
943.19487813217677
 20
511.372130341272
 30
0.0
  0
VERTEX
  5
408
  8
LAYER_1
 10
943.28186231895927
 20
511.2851461544895
 30
0.0
  0
VERTEX
  5
409
  8
LAYER_1
 10
943.80376743965394
 20
510.9372094073596
 30
0.0
  0
VERTEX
  5
40A
  8
LAYER_1
 10
943.89075162643644
 20
510.8502252205771
 30
0.0
  0
VERTEX
  5
40B
  8
LAYER_1
 10
943.97773581321894
 20
510.8502252205771
 30
0.0
  0
VERTEX
  5
40C
  8
LAYER_1
 10
944.06472000000144
 20
510.76324103379471
 30
0.0
  0
VERTEX
  5
40D
  8
LAYER_1
 10
944.06472000000144
 20
510.67625684701221
 30
0.0
  0
VERTEX
  5
40E
  8
LAYER_1
 10
944.15170418678395
 20
510.58927266022982
 30
0.0
  0
VERTEX
  5
40F
  8
LAYER_1
 10
944.23868837356645
 20
510.58927266022982
 30
0.0
  0
VERTEX
  5
410
  8
LAYER_1
 10
944.23868837356645
 20
510.50228847344732
 30
0.0
  0
VERTEX
  5
411
  8
LAYER_1
 10
944.67360930747884
 20
510.06736753953481
 30
0.0
  0
VERTEX
  5
412
  8
LAYER_1
 10
944.67360930747884
 20
509.98038335275231
 30
0.0
  0
VERTEX
  5
413
  8
LAYER_1
 10
944.76059349426134
 20
509.98038335275231
 30
0.0
  0
VERTEX
  5
414
  8
LAYER_1
 10
944.76059349426134
 20
509.89339916596981
 30
0.0
  0
VERTEX
  5
415
  8
LAYER_1
 10
944.84757768104384
 20
509.80641497918742
 30
0.0
  0
VERTEX
  5
416
  8
LAYER_1
 10
944.84757768104384
 20
509.71943079240492
 30
0.0
  0
VERTEX
  5
417
  8
LAYER_1
 10
944.84757768104384
 20
509.63244660562248
 30
0.0
  0
VERTEX
  5
418
  8
LAYER_1
 10
945.02154605460885
 20
509.37149404527503
 30
0.0
  0
VERTEX
  5
419
  8
LAYER_1
 10
945.02154605460885
 20
509.28450985849253
 30
0.0
  0
VERTEX
  5
41A
  8
LAYER_1
 10
945.02154605460885
 20
509.19752567171008
 30
0.0
  0
VERTEX
  5
41B
  8
LAYER_1
 10
945.02154605460885
 20
509.11054148492758
 30
0.0
  0
VERTEX
  5
41C
  8
LAYER_1
 10
945.02154605460885
 20
509.02355729814519
 30
0.0
  0
VERTEX
  5
41D
  8
LAYER_1
 10
945.02154605460885
 20
508.93657311136269
 30
0.0
  0
VERTEX
  5
41E
  8
LAYER_1
 10
945.02154605460885
 20
508.84958892458019
 30
0.0
  0
VERTEX
  5
41F
  8
LAYER_1
 10
945.02154605460885
 20
508.6756205510153
 30
0.0
  0
VERTEX
  5
420
  8
LAYER_1
 10
945.02154605460885
 20
508.5886363642328
 30
0.0
  0
VERTEX
  5
421
  8
LAYER_1
 10
945.02154605460885
 20
508.5016521774503
 30
0.0
  0
VERTEX
  5
422
  8
LAYER_1
 10
944.93456186782635
 20
508.5016521774503
 30
0.0
  0
VERTEX
  5
423
  8
LAYER_1
 10
944.93456186782635
 20
508.41466799066791
 30
0.0
  0
VERTEX
  5
424
  8
LAYER_1
 10
944.84757768104384
 20
508.32768380388529
 30
0.0
  0
VERTEX
  5
425
  8
LAYER_1
 10
944.76059349426134
 20
508.32768380388529
 30
0.0
  0
VERTEX
  5
426
  8
LAYER_1
 10
944.67360930747884
 20
508.24069961710279
 30
0.0
  0
VERTEX
  5
427
  8
LAYER_1
 10
944.58662512069634
 20
508.15371543032029
 30
0.0
  0
VERTEX
  5
428
  8
LAYER_1
 10
944.49964093391395
 20
508.15371543032029
 30
0.0
  0
VERTEX
  5
429
  8
LAYER_1
 10
944.49964093391395
 20
508.0667312435379
 30
0.0
  0
VERTEX
  5
42A
  8
LAYER_1
 10
944.41265674713145
 20
508.0667312435379
 30
0.0
  0
VERTEX
  5
42B
  8
LAYER_1
 10
944.32567256034895
 20
508.0667312435379
 30
0.0
  0
VERTEX
  5
42C
  8
LAYER_1
 10
944.23868837356645
 20
507.9797470567554
 30
0.0
  0
VERTEX
  5
42D
  8
LAYER_1
 10
944.23868837356645
 20
507.8927628699729
 30
0.0
  0
VERTEX
  5
42E
  8
LAYER_1
 10
944.15170418678395
 20
507.8927628699729
 30
0.0
  0
VERTEX
  5
42F
  8
LAYER_1
 10
944.06472000000144
 20
507.8927628699729
 30
0.0
  0
VERTEX
  5
430
  8
LAYER_1
 10
943.89075162643644
 20
507.8057786831904
 30
0.0
  0
VERTEX
  5
431
  8
LAYER_1
 10
943.80376743965394
 20
507.8057786831904
 30
0.0
  0
VERTEX
  5
432
  8
LAYER_1
 10
943.71678325287155
 20
507.8057786831904
 30
0.0
  0
VERTEX
  5
433
  8
LAYER_1
 10
943.62979906608905
 20
507.7187944964079
 30
0.0
  0
VERTEX
  5
434
  8
LAYER_1
 10
943.54281487930655
 20
507.7187944964079
 30
0.0
  0
VERTEX
  5
435
  8
LAYER_1
 10
943.45583069252405
 20
507.7187944964079
 30
0.0
  0
VERTEX
  5
436
  8
LAYER_1
 10
943.36884650574154
 20
507.7187944964079
 30
0.0
  0
VERTEX
  5
437
  8
LAYER_1
 10
943.28186231895927
 20
507.7187944964079
 30
0.0
  0
VERTEX
  5
438
  8
LAYER_1
 10
942.93392557182926
 20
507.54482612284301
 30
0.0
  0
VERTEX
  5
439
  8
LAYER_1
 10
942.84694138504676
 20
507.54482612284301
 30
0.0
  0
VERTEX
  5
43A
  8
LAYER_1
 10
942.75995719826426
 20
507.54482612284301
 30
0.0
  0
VERTEX
  5
43B
  8
LAYER_1
 10
942.58598882469926
 20
507.54482612284301
 30
0.0
  0
VERTEX
  5
43C
  8
LAYER_1
 10
942.49900463791698
 20
507.45784193606062
 30
0.0
  0
VERTEX
  5
43D
  8
LAYER_1
 10
942.32503626435198
 20
507.37085774927812
 30
0.0
  0
VERTEX
  5
43E
  8
LAYER_1
 10
942.23805207756936
 20
507.37085774927812
 30
0.0
  0
VERTEX
  5
43F
  8
LAYER_1
 10
942.15106789078709
 20
507.37085774927812
 30
0.0
  0
VERTEX
  5
440
  8
LAYER_1
 10
941.45519439652708
 20
507.19688937571311
 30
0.0
  0
VERTEX
  5
441
  8
LAYER_1
 10
941.1942418361798
 20
507.10990518893072
 30
0.0
  0
VERTEX
  5
442
  8
LAYER_1
 10
941.1072576493973
 20
507.10990518893072
 30
0.0
  0
VERTEX
  5
443
  8
LAYER_1
 10
940.93328927583252
 20
507.02292100214822
 30
0.0
  0
VERTEX
  5
444
  8
LAYER_1
 10
940.84630508905002
 20
507.02292100214822
 30
0.0
  0
VERTEX
  5
445
  8
LAYER_1
 10
940.58535252870251
 20
507.02292100214822
 30
0.0
  0
VERTEX
  5
446
  8
LAYER_1
 10
940.4983683419199
 20
506.93593681536572
 30
0.0
  0
VERTEX
  5
447
  8
LAYER_1
 10
939.01963716661805
 20
506.58800006823577
 30
0.0
  0
VERTEX
  5
448
  8
LAYER_1
 10
938.84566879305305
 20
506.58800006823577
 30
0.0
  0
VERTEX
  5
449
  8
LAYER_1
 10
938.75868460627044
 20
506.58800006823577
 30
0.0
  0
VERTEX
  5
44A
  8
LAYER_1
 10
938.32376367235793
 20
506.50101588145333
 30
0.0
  0
VERTEX
  5
44B
  8
LAYER_1
 10
938.14979529879315
 20
506.41403169467083
 30
0.0
  0
VERTEX
  5
44C
  8
LAYER_1
 10
937.97582692522815
 20
506.41403169467083
 30
0.0
  0
VERTEX
  5
44D
  8
LAYER_1
 10
937.62789017809826
 20
506.32704750788838
 30
0.0
  0
VERTEX
  5
44E
  8
LAYER_1
 10
937.36693761775075
 20
506.32704750788838
 30
0.0
  0
VERTEX
  5
44F
  8
LAYER_1
 10
935.97519062923107
 20
506.06609494754088
 30
0.0
  0
VERTEX
  5
450
  8
LAYER_1
 10
935.71423806888379
 20
505.89212657397599
 30
0.0
  0
VERTEX
  5
451
  8
LAYER_1
 10
935.45328550853651
 20
505.89212657397599
 30
0.0
  0
VERTEX
  5
452
  8
LAYER_1
 10
935.27931713497139
 20
505.80514238719348
 30
0.0
  0
VERTEX
  5
453
  8
LAYER_1
 10
934.84439620105888
 20
505.7181582004111
 30
0.0
  0
VERTEX
  5
454
  8
LAYER_1
 10
934.58344364071161
 20
505.63117401362859
 30
0.0
  0
VERTEX
  5
455
  8
LAYER_1
 10
934.3224910803641
 20
505.63117401362859
 30
0.0
  0
VERTEX
  5
456
  8
LAYER_1
 10
933.45264921253943
 20
505.37022145328109
 30
0.0
  0
VERTEX
  5
457
  8
LAYER_1
 10
933.19169665219192
 20
505.2832372664987
 30
0.0
  0
VERTEX
  5
458
  8
LAYER_1
 10
933.01772827862692
 20
505.1962530797162
 30
0.0
  0
VERTEX
  5
459
  8
LAYER_1
 10
932.66979153149714
 20
505.1962530797162
 30
0.0
  0
VERTEX
  5
45A
  8
LAYER_1
 10
932.49582315793214
 20
505.1092688929337
 30
0.0
  0
VERTEX
  5
45B
  8
LAYER_1
 10
932.23487059758475
 20
505.0222847061512
 30
0.0
  0
VERTEX
  5
45C
  8
LAYER_1
 10
932.06090222401986
 20
504.93530051936881
 30
0.0
  0
VERTEX
  5
45D
  8
LAYER_1
 10
930.93010779584756
 20
504.6743479590213
 30
0.0
  0
VERTEX
  5
45E
  8
LAYER_1
 10
930.84312360906506
 20
504.6743479590213
 30
0.0
  0
VERTEX
  5
45F
  8
LAYER_1
 10
930.75613942228256
 20
504.5873637722388
 30
0.0
  0
VERTEX
  5
460
  8
LAYER_1
 10
930.40820267515278
 20
504.5003795854563
 30
0.0
  0
VERTEX
  5
461
  8
LAYER_1
 10
930.14725011480527
 20
504.5003795854563
 30
0.0
  0
VERTEX
  5
462
  8
LAYER_1
 10
930.06026592802277
 20
504.5003795854563
 30
0.0
  0
VERTEX
  5
463
  8
LAYER_1
 10
929.97328174124027
 20
504.4133953986738
 30
0.0
  0
VERTEX
  5
464
  8
LAYER_1
 10
929.01645568663309
 20
504.23942702510891
 30
0.0
  0
VERTEX
  5
465
  8
LAYER_1
 10
928.84248731306809
 20
504.15244283832652
 30
0.0
  0
VERTEX
  5
466
  8
LAYER_1
 10
928.75550312628559
 20
504.15244283832652
 30
0.0
  0
VERTEX
  5
467
  8
LAYER_1
 10
928.58153475272059
 20
504.15244283832652
 30
0.0
  0
VERTEX
  5
468
  8
LAYER_1
 10
928.49455056593808
 20
504.06545865154402
 30
0.0
  0
VERTEX
  5
469
  8
LAYER_1
 10
928.32058219237331
 20
503.97847446476152
 30
0.0
  0
VERTEX
  5
46A
  8
LAYER_1
 10
928.23359800559081
 20
503.97847446476152
 30
0.0
  0
VERTEX
  5
46B
  8
LAYER_1
 10
928.14661381880831
 20
503.97847446476152
 30
0.0
  0
VERTEX
  5
46C
  8
LAYER_1
 10
927.62470869811341
 20
503.71752190441413
 30
0.0
  0
VERTEX
  5
46D
  8
LAYER_1
 10
927.53772451133091
 20
503.71752190441413
 30
0.0
  0
VERTEX
  5
46E
  8
LAYER_1
 10
927.45074032454841
 20
503.71752190441413
 30
0.0
  0
VERTEX
  5
46F
  8
LAYER_1
 10
927.27677195098363
 20
503.63053771763163
 30
0.0
  0
VERTEX
  5
470
  8
LAYER_1
 10
927.18978776420113
 20
503.54355353084918
 30
0.0
  0
VERTEX
  5
471
  8
LAYER_1
 10
927.01581939063612
 20
503.54355353084918
 30
0.0
  0
VERTEX
  5
472
  8
LAYER_1
 10
927.01581939063612
 20
503.45656934406668
 30
0.0
  0
VERTEX
  5
473
  8
LAYER_1
 10
926.66788264350635
 20
503.28260097050168
 30
0.0
  0
VERTEX
  5
474
  8
LAYER_1
 10
926.58089845672384
 20
503.19561678371929
 30
0.0
  0
VERTEX
  5
475
  8
LAYER_1
 10
926.49391426994134
 20
503.19561678371929
 30
0.0
  0
VERTEX
  5
476
  8
LAYER_1
 10
926.40693008315884
 20
503.19561678371929
 30
0.0
  0
VERTEX
  5
477
  8
LAYER_1
 10
926.40693008315884
 20
503.10863259693679
 30
0.0
  0
VERTEX
  5
478
  8
LAYER_1
 10
926.31994589637634
 20
503.10863259693679
 30
0.0
  0
VERTEX
  5
479
  8
LAYER_1
 10
926.23296170959384
 20
503.02164841015428
 30
0.0
  0
VERTEX
  5
47A
  8
LAYER_1
 10
925.97200914924645
 20
502.76069584980678
 30
0.0
  0
VERTEX
  5
47B
  8
LAYER_1
 10
925.88502496246394
 20
502.76069584980678
 30
0.0
  0
VERTEX
  5
47C
  8
LAYER_1
 10
925.79804077568144
 20
502.67371166302428
 30
0.0
  0
VERTEX
  5
47D
  8
LAYER_1
 10
925.71105658889905
 20
502.58672747624189
 30
0.0
  0
VERTEX
  5
47E
  8
LAYER_1
 10
925.62407240211655
 20
502.58672747624189
 30
0.0
  0
VERTEX
  5
47F
  8
LAYER_1
 10
925.53708821533405
 20
502.49974328945939
 30
0.0
  0
VERTEX
  5
480
  8
LAYER_1
 10
925.45010402855155
 20
502.41275910267689
 30
0.0
  0
VERTEX
  5
481
  8
LAYER_1
 10
925.18915146820405
 20
502.1518065423295
 30
0.0
  0
VERTEX
  5
482
  8
LAYER_1
 10
925.10216728142154
 20
502.06482235554699
 30
0.0
  0
VERTEX
  5
483
  8
LAYER_1
 10
925.01518309463916
 20
501.97783816876461
 30
0.0
  0
VERTEX
  5
484
  8
LAYER_1
 10
924.92819890785677
 20
501.97783816876461
 30
0.0
  0
VERTEX
  5
485
  8
LAYER_1
 10
924.92819890785677
 20
501.8908539819821
 30
0.0
  0
VERTEX
  5
486
  8
LAYER_1
 10
924.84121472107427
 20
501.8908539819821
 30
0.0
  0
VERTEX
  5
487
  8
LAYER_1
 10
924.66724634750926
 20
501.45593304806971
 30
0.0
  0
VERTEX
  5
488
  8
LAYER_1
 10
924.58026216072676
 20
501.36894886128732
 30
0.0
  0
VERTEX
  5
489
  8
LAYER_1
 10
924.58026216072676
 20
501.28196467450482
 30
0.0
  0
VERTEX
  5
48A
  8
LAYER_1
 10
924.49327797394426
 20
501.28196467450482
 30
0.0
  0
VERTEX
  5
48B
  8
LAYER_1
 10
924.49327797394426
 20
501.19498048772232
 30
0.0
  0
VERTEX
  5
48C
  8
LAYER_1
 10
924.49327797394426
 20
501.10799630093982
 30
0.0
  0
VERTEX
  5
48D
  8
LAYER_1
 10
924.40629378716176
 20
501.02101211415732
 30
0.0
  0
VERTEX
  5
48E
  8
LAYER_1
 10
924.23232541359675
 20
500.67307536702742
 30
0.0
  0
VERTEX
  5
48F
  8
LAYER_1
 10
924.23232541359675
 20
500.58609118024492
 30
0.0
  0
VERTEX
  5
490
  8
LAYER_1
 10
924.23232541359675
 20
500.49910699346242
 30
0.0
  0
VERTEX
  5
491
  8
LAYER_1
 10
924.23232541359675
 20
500.41212280667997
 30
0.0
  0
VERTEX
  5
492
  8
LAYER_1
 10
924.23232541359675
 20
500.32513861989747
 30
0.0
  0
VERTEX
  5
493
  8
LAYER_1
 10
924.23232541359675
 20
500.23815443311503
 30
0.0
  0
VERTEX
  5
494
  8
LAYER_1
 10
924.23232541359675
 20
499.89021768598508
 30
0.0
  0
VERTEX
  5
495
  8
LAYER_1
 10
924.23232541359675
 20
499.80323349920269
 30
0.0
  0
VERTEX
  5
496
  8
LAYER_1
 10
924.23232541359675
 20
499.71624931242019
 30
0.0
  0
VERTEX
  5
497
  8
LAYER_1
 10
924.23232541359675
 20
499.62926512563769
 30
0.0
  0
VERTEX
  5
498
  8
LAYER_1
 10
924.23232541359675
 20
499.54228093885519
 30
0.0
  0
VERTEX
  5
499
  8
LAYER_1
 10
924.23232541359675
 20
499.45529675207268
 30
0.0
  0
VERTEX
  5
49A
  8
LAYER_1
 10
924.31930960037926
 20
499.28132837850779
 30
0.0
  0
VERTEX
  5
49B
  8
LAYER_1
 10
924.31930960037926
 20
499.19434419172529
 30
0.0
  0
VERTEX
  5
49C
  8
LAYER_1
 10
924.40629378716176
 20
499.19434419172529
 30
0.0
  0
VERTEX
  5
49D
  8
LAYER_1
 10
924.40629378716176
 20
499.10736000494279
 30
0.0
  0
VERTEX
  5
49E
  8
LAYER_1
 10
924.49327797394426
 20
499.02037581816029
 30
0.0
  0
VERTEX
  5
49F
  8
LAYER_1
 10
924.49327797394426
 20
498.93339163137779
 30
0.0
  0
VERTEX
  5
4A0
  8
LAYER_1
 10
924.58026216072676
 20
498.8464074445954
 30
0.0
  0
VERTEX
  5
4A1
  8
LAYER_1
 10
924.66724634750926
 20
498.6724390710304
 30
0.0
  0
VERTEX
  5
4A2
  8
LAYER_1
 10
924.75423053429176
 20
498.6724390710304
 30
0.0
  0
VERTEX
  5
4A3
  8
LAYER_1
 10
924.75423053429176
 20
498.58545488424801
 30
0.0
  0
VERTEX
  5
4A4
  8
LAYER_1
 10
924.84121472107427
 20
498.58545488424801
 30
0.0
  0
VERTEX
  5
4A5
  8
LAYER_1
 10
924.84121472107427
 20
498.49847069746551
 30
0.0
  0
VERTEX
  5
4A6
  8
LAYER_1
 10
924.92819890785677
 20
498.49847069746551
 30
0.0
  0
VERTEX
  5
4A7
  8
LAYER_1
 10
925.01518309463916
 20
498.3245023239005
 30
0.0
  0
VERTEX
  5
4A8
  8
LAYER_1
 10
925.10216728142154
 20
498.3245023239005
 30
0.0
  0
VERTEX
  5
4A9
  8
LAYER_1
 10
925.10216728142154
 20
498.23751813711812
 30
0.0
  0
VERTEX
  5
4AA
  8
LAYER_1
 10
925.18915146820405
 20
498.23751813711812
 30
0.0
  0
VERTEX
  5
4AB
  8
LAYER_1
 10
925.27613565498655
 20
498.23751813711812
 30
0.0
  0
VERTEX
  5
4AC
  8
LAYER_1
 10
925.27613565498655
 20
498.15053395033561
 30
0.0
  0
VERTEX
  5
4AD
  8
LAYER_1
 10
925.45010402855155
 20
498.06354976355311
 30
0.0
  0
VERTEX
  5
4AE
  8
LAYER_1
 10
925.45010402855155
 20
497.97656557677061
 30
0.0
  0
VERTEX
  5
4AF
  8
LAYER_1
 10
925.53708821533405
 20
497.97656557677061
 30
0.0
  0
VERTEX
  5
4B0
  8
LAYER_1
 10
925.62407240211655
 20
497.97656557677061
 30
0.0
  0
VERTEX
  5
4B1
  8
LAYER_1
 10
925.62407240211655
 20
497.88958138998811
 30
0.0
  0
VERTEX
  5
4B2
  8
LAYER_1
 10
925.71105658889905
 20
497.88958138998811
 30
0.0
  0
VERTEX
  5
4B3
  8
LAYER_1
 10
925.71105658889905
 20
497.80259720320572
 30
0.0
  0
VERTEX
  5
4B4
  8
LAYER_1
 10
925.97200914924645
 20
497.71561301642322
 30
0.0
  0
VERTEX
  5
4B5
  8
LAYER_1
 10
925.97200914924645
 20
497.62862882964077
 30
0.0
  0
VERTEX
  5
4B6
  8
LAYER_1
 10
926.05899333602895
 20
497.62862882964077
 30
0.0
  0
VERTEX
  5
4B7
  8
LAYER_1
 10
926.14597752281134
 20
497.62862882964077
 30
0.0
  0
VERTEX
  5
4B8
  8
LAYER_1
 10
926.23296170959384
 20
497.54164464285827
 30
0.0
  0
VERTEX
  5
4B9
  8
LAYER_1
 10
926.31994589637634
 20
497.54164464285827
 30
0.0
  0
VERTEX
  5
4BA
  8
LAYER_1
 10
926.84185101707135
 20
497.36767626929333
 30
0.0
  0
VERTEX
  5
4BB
  8
LAYER_1
 10
926.92883520385362
 20
497.36767626929333
 30
0.0
  0
VERTEX
  5
4BC
  8
LAYER_1
 10
927.01581939063612
 20
497.36767626929333
 30
0.0
  0
VERTEX
  5
4BD
  8
LAYER_1
 10
927.10280357741863
 20
497.36767626929333
 30
0.0
  0
VERTEX
  5
4BE
  8
LAYER_1
 10
927.45074032454841
 20
497.36767626929333
 30
0.0
  0
VERTEX
  5
4BF
  8
LAYER_1
 10
927.53772451133091
 20
497.28069208251083
 30
0.0
  0
VERTEX
  5
4C0
  8
LAYER_1
 10
927.71169288489591
 20
497.28069208251083
 30
0.0
  0
VERTEX
  5
4C1
  8
LAYER_1
 10
927.88566125846091
 20
497.28069208251083
 30
0.0
  0
VERTEX
  5
4C2
  8
LAYER_1
 10
927.97264544524342
 20
497.28069208251083
 30
0.0
  0
VERTEX
  5
4C3
  8
LAYER_1
 10
928.05962963202592
 20
497.28069208251083
 30
0.0
  0
VERTEX
  5
4C4
  8
LAYER_1
 10
928.58153475272059
 20
497.28069208251083
 30
0.0
  0
VERTEX
  5
4C5
  8
LAYER_1
 10
928.75550312628559
 20
497.28069208251083
 30
0.0
  0
VERTEX
  5
4C6
  8
LAYER_1
 10
929.01645568663309
 20
497.28069208251083
 30
0.0
  0
VERTEX
  5
4C7
  8
LAYER_1
 10
929.1034398734156
 20
497.28069208251083
 30
0.0
  0
VERTEX
  5
4C8
  8
LAYER_1
 10
929.1904240601981
 20
497.28069208251083
 30
0.0
  0
VERTEX
  5
4C9
  8
LAYER_1
 10
929.27740824698037
 20
497.28069208251083
 30
0.0
  0
VERTEX
  5
4CA
  8
LAYER_1
 10
929.79931336767527
 20
497.28069208251083
 30
0.0
  0
VERTEX
  5
4CB
  8
LAYER_1
 10
929.97328174124027
 20
497.28069208251083
 30
0.0
  0
VERTEX
  5
4CC
  8
LAYER_1
 10
930.06026592802277
 20
497.28069208251083
 30
0.0
  0
VERTEX
  5
4CD
  8
LAYER_1
 10
930.14725011480527
 20
497.28069208251083
 30
0.0
  0
VERTEX
  5
4CE
  8
LAYER_1
 10
930.32121848837028
 20
497.28069208251083
 30
0.0
  0
VERTEX
  5
4CF
  8
LAYER_1
 10
930.40820267515278
 20
497.28069208251083
 30
0.0
  0
VERTEX
  5
4D0
  8
LAYER_1
 10
931.01709198263006
 20
497.36767626929333
 30
0.0
  0
VERTEX
  5
4D1
  8
LAYER_1
 10
931.19106035619507
 20
497.45466045607583
 30
0.0
  0
VERTEX
  5
4D2
  8
LAYER_1
 10
931.27804454297745
 20
497.45466045607583
 30
0.0
  0
VERTEX
  5
4D3
  8
LAYER_1
 10
931.36502872975996
 20
497.45466045607583
 30
0.0
  0
VERTEX
  5
4D4
  8
LAYER_1
 10
931.53899710332485
 20
497.45466045607583
 30
0.0
  0
VERTEX
  5
4D5
  8
LAYER_1
 10
931.62598129010735
 20
497.45466045607583
 30
0.0
  0
VERTEX
  5
4D6
  8
LAYER_1
 10
931.71296547688985
 20
497.45466045607583
 30
0.0
  0
VERTEX
  5
4D7
  8
LAYER_1
 10
932.23487059758475
 20
497.54164464285827
 30
0.0
  0
VERTEX
  5
4D8
  8
LAYER_1
 10
932.32185478436725
 20
497.62862882964077
 30
0.0
  0
VERTEX
  5
4D9
  8
LAYER_1
 10
932.40883897114963
 20
497.62862882964077
 30
0.0
  0
VERTEX
  5
4DA
  8
LAYER_1
 10
932.58280734471464
 20
497.71561301642322
 30
0.0
  0
VERTEX
  5
4DB
  8
LAYER_1
 10
932.75677571827964
 20
497.80259720320572
 30
0.0
  0
VERTEX
  5
4DC
  8
LAYER_1
 10
932.84375990506192
 20
497.80259720320572
 30
0.0
  0
VERTEX
  5
4DD
  8
LAYER_1
 10
932.93074409184442
 20
497.80259720320572
 30
0.0
  0
VERTEX
  5
4DE
  8
LAYER_1
 10
933.27868083897442
 20
497.97656557677061
 30
0.0
  0
VERTEX
  5
4DF
  8
LAYER_1
 10
933.45264921253943
 20
498.06354976355311
 30
0.0
  0
VERTEX
  5
4E0
  8
LAYER_1
 10
933.62661758610432
 20
498.06354976355311
 30
0.0
  0
VERTEX
  5
4E1
  8
LAYER_1
 10
933.71360177288682
 20
498.06354976355311
 30
0.0
  0
VERTEX
  5
4E2
  8
LAYER_1
 10
933.80058595966932
 20
498.23751813711812
 30
0.0
  0
VERTEX
  5
4E3
  8
LAYER_1
 10
933.9745543332341
 20
498.23751813711812
 30
0.0
  0
VERTEX
  5
4E4
  8
LAYER_1
 10
934.0615385200166
 20
498.3245023239005
 30
0.0
  0
VERTEX
  5
4E5
  8
LAYER_1
 10
934.49645945392911
 20
498.49847069746551
 30
0.0
  0
VERTEX
  5
4E6
  8
LAYER_1
 10
934.58344364071161
 20
498.58545488424801
 30
0.0
  0
VERTEX
  5
4E7
  8
LAYER_1
 10
934.75741201427638
 20
498.58545488424801
 30
0.0
  0
VERTEX
  5
4E8
  8
LAYER_1
 10
935.01836457462389
 20
498.7594232578129
 30
0.0
  0
VERTEX
  5
4E9
  8
LAYER_1
 10
935.10534876140639
 20
498.8464074445954
 30
0.0
  0
VERTEX
  5
4EA
  8
LAYER_1
 10
935.19233294818889
 20
498.8464074445954
 30
0.0
  0
VERTEX
  5
4EB
  8
LAYER_1
 10
935.19233294818889
 20
498.93339163137779
 30
0.0
  0
VERTEX
  5
4EC
  8
LAYER_1
 10
935.45328550853651
 20
499.10736000494279
 30
0.0
  0
VERTEX
  5
4ED
  8
LAYER_1
 10
935.54026969531878
 20
499.10736000494279
 30
0.0
  0
VERTEX
  5
4EE
  8
LAYER_1
 10
935.62725388210129
 20
499.10736000494279
 30
0.0
  0
VERTEX
  5
4EF
  8
LAYER_1
 10
935.80122225566629
 20
499.19434419172529
 30
0.0
  0
VERTEX
  5
4F0
  8
LAYER_1
 10
935.88820644244879
 20
499.19434419172529
 30
0.0
  0
VERTEX
  5
4F1
  8
LAYER_1
 10
936.06217481601357
 20
499.28132837850779
 30
0.0
  0
VERTEX
  5
4F2
  8
LAYER_1
 10
936.14915900279607
 20
499.3683125652903
 30
0.0
  0
VERTEX
  5
4F3
  8
LAYER_1
 10
936.67106412349108
 20
499.62926512563769
 30
0.0
  0
VERTEX
  5
4F4
  8
LAYER_1
 10
936.75804831027335
 20
499.62926512563769
 30
0.0
  0
VERTEX
  5
4F5
  8
LAYER_1
 10
936.84503249705585
 20
499.62926512563769
 30
0.0
  0
VERTEX
  5
4F6
  8
LAYER_1
 10
937.01900087062086
 20
499.80323349920269
 30
0.0
  0
VERTEX
  5
4F7
  8
LAYER_1
 10
937.19296924418575
 20
499.80323349920269
 30
0.0
  0
VERTEX
  5
4F8
  8
LAYER_1
 10
937.36693761775075
 20
499.89021768598508
 30
0.0
  0
VERTEX
  5
4F9
  8
LAYER_1
 10
938.06281111201065
 20
500.06418605955002
 30
0.0
  0
VERTEX
  5
4FA
  8
LAYER_1
 10
938.14979529879315
 20
500.06418605955002
 30
0.0
  0
VERTEX
  5
4FB
  8
LAYER_1
 10
938.32376367235793
 20
500.15117024633253
 30
0.0
  0
VERTEX
  5
4FC
  8
LAYER_1
 10
938.49773204592293
 20
500.23815443311503
 30
0.0
  0
VERTEX
  5
4FD
  8
LAYER_1
 10
938.58471623270543
 20
500.23815443311503
 30
0.0
  0
VERTEX
  5
4FE
  8
LAYER_1
 10
938.93265297983555
 20
500.32513861989747
 30
0.0
  0
VERTEX
  5
4FF
  8
LAYER_1
 10
939.01963716661805
 20
500.41212280667997
 30
0.0
  0
VERTEX
  5
500
  8
LAYER_1
 10
939.71551066087761
 20
500.58609118024492
 30
0.0
  0
VERTEX
  5
501
  8
LAYER_1
 10
939.97646322122512
 20
500.67307536702742
 30
0.0
  0
VERTEX
  5
502
  8
LAYER_1
 10
940.15043159479012
 20
500.76005955380992
 30
0.0
  0
VERTEX
  5
503
  8
LAYER_1
 10
940.93328927583252
 20
500.84704374059243
 30
0.0
  0
VERTEX
  5
504
  8
LAYER_1
 10
941.1072576493973
 20
500.93402792737481
 30
0.0
  0
VERTEX
  5
505
  8
LAYER_1
 10
941.2812260229623
 20
501.02101211415732
 30
0.0
  0
VERTEX
  5
506
  8
LAYER_1
 10
941.45519439652708
 20
501.02101211415732
 30
0.0
  0
VERTEX
  5
507
  8
LAYER_1
 10
941.62916277009208
 20
501.10799630093982
 30
0.0
  0
VERTEX
  5
508
  8
LAYER_1
 10
941.89011533043958
 20
501.10799630093982
 30
0.0
  0
VERTEX
  5
509
  8
LAYER_1
 10
942.06408370400459
 20
501.10799630093982
 30
0.0
  0
VERTEX
  5
50A
  8
LAYER_1
 10
942.23805207756936
 20
501.19498048772232
 30
0.0
  0
VERTEX
  5
50B
  8
LAYER_1
 10
942.41202045113448
 20
501.19498048772232
 30
0.0
  0
VERTEX
  5
50C
  8
LAYER_1
 10
942.93392557182926
 20
501.36894886128732
 30
0.0
  0
VERTEX
  5
50D
  8
LAYER_1
 10
943.02090975861177
 20
501.36894886128732
 30
0.0
  0
VERTEX
  5
50E
  8
LAYER_1
 10
943.19487813217677
 20
501.36894886128732
 30
0.0
  0
VERTEX
  5
50F
  8
LAYER_1
 10
943.45583069252405
 20
501.36894886128732
 30
0.0
  0
VERTEX
  5
510
  8
LAYER_1
 10
943.54281487930655
 20
501.36894886128732
 30
0.0
  0
VERTEX
  5
511
  8
LAYER_1
 10
943.62979906608905
 20
501.45593304806971
 30
0.0
  0
VERTEX
  5
512
  8
LAYER_1
 10
944.15170418678395
 20
501.54291723485221
 30
0.0
  0
VERTEX
  5
513
  8
LAYER_1
 10
944.23868837356645
 20
501.54291723485221
 30
0.0
  0
VERTEX
  5
514
  8
LAYER_1
 10
944.32567256034895
 20
501.54291723485221
 30
0.0
  0
VERTEX
  5
515
  8
LAYER_1
 10
944.41265674713145
 20
501.54291723485221
 30
0.0
  0
VERTEX
  5
516
  8
LAYER_1
 10
944.49964093391395
 20
501.54291723485221
 30
0.0
  0
VERTEX
  5
517
  8
LAYER_1
 10
944.58662512069634
 20
501.54291723485221
 30
0.0
  0
VERTEX
  5
518
  8
LAYER_1
 10
944.67360930747884
 20
501.54291723485221
 30
0.0
  0
VERTEX
  5
519
  8
LAYER_1
 10
945.02154605460885
 20
501.54291723485221
 30
0.0
  0
VERTEX
  5
51A
  8
LAYER_1
 10
945.10853024139135
 20
501.54291723485221
 30
0.0
  0
VERTEX
  5
51B
  8
LAYER_1
 10
945.19551442817385
 20
501.54291723485221
 30
0.0
  0
VERTEX
  5
51C
  8
LAYER_1
 10
945.28249861495635
 20
501.54291723485221
 30
0.0
  0
VERTEX
  5
51D
  8
LAYER_1
 10
945.36948280173885
 20
501.54291723485221
 30
0.0
  0
VERTEX
  5
51E
  8
LAYER_1
 10
945.36948280173885
 20
501.45593304806971
 30
0.0
  0
VERTEX
  5
51F
  8
LAYER_1
 10
945.45646698852113
 20
501.45593304806971
 30
0.0
  0
VERTEX
  5
520
  8
LAYER_1
 10
945.54345117530363
 20
501.36894886128732
 30
0.0
  0
VERTEX
  5
521
  8
LAYER_1
 10
945.63043536208613
 20
501.36894886128732
 30
0.0
  0
VERTEX
  5
522
  8
LAYER_1
 10
945.71741954886841
 20
501.28196467450482
 30
0.0
  0
VERTEX
  5
523
  8
LAYER_1
 10
945.80440373565102
 20
501.28196467450482
 30
0.0
  0
VERTEX
  5
524
  8
LAYER_1
 10
945.80440373565102
 20
501.19498048772232
 30
0.0
  0
VERTEX
  5
525
  8
LAYER_1
 10
945.80440373565102
 20
501.10799630093982
 30
0.0
  0
VERTEX
  5
526
  8
LAYER_1
 10
945.89138792243352
 20
501.02101211415732
 30
0.0
  0
VERTEX
  5
527
  8
LAYER_1
 10
945.97837210921602
 20
501.02101211415732
 30
0.0
  0
VERTEX
  5
528
  8
LAYER_1
 10
945.97837210921602
 20
500.93402792737481
 30
0.0
  0
VERTEX
  5
529
  8
LAYER_1
 10
945.97837210921602
 20
500.84704374059243
 30
0.0
  0
VERTEX
  5
52A
  8
LAYER_1
 10
945.97837210921602
 20
500.76005955380992
 30
0.0
  0
VERTEX
  5
52B
  8
LAYER_1
 10
946.06535629599853
 20
500.76005955380992
 30
0.0
  0
VERTEX
  5
52C
  8
LAYER_1
 10
946.06535629599853
 20
500.67307536702742
 30
0.0
  0
VERTEX
  5
52D
  8
LAYER_1
 10
946.06535629599853
 20
500.58609118024492
 30
0.0
  0
VERTEX
  5
52E
  8
LAYER_1
 10
946.06535629599853
 20
500.49910699346242
 30
0.0
  0
VERTEX
  5
52F
  8
LAYER_1
 10
946.06535629599853
 20
500.41212280667997
 30
0.0
  0
VERTEX
  5
530
  8
LAYER_1
 10
946.06535629599853
 20
500.32513861989747
 30
0.0
  0
VERTEX
  5
531
  8
LAYER_1
 10
946.06535629599853
 20
500.23815443311503
 30
0.0
  0
VERTEX
  5
532
  8
LAYER_1
 10
946.06535629599853
 20
500.15117024633253
 30
0.0
  0
VERTEX
  5
533
  8
LAYER_1
 10
946.06535629599853
 20
500.06418605955002
 30
0.0
  0
VERTEX
  5
534
  8
LAYER_1
 10
946.15234048278103
 20
500.06418605955002
 30
0.0
  0
VERTEX
  5
535
  8
LAYER_1
 10
946.15234048278103
 20
499.97720187276758
 30
0.0
  0
VERTEX
  5
536
  8
LAYER_1
 10
946.15234048278103
 20
499.89021768598508
 30
0.0
  0
VERTEX
  5
537
  8
LAYER_1
 10
946.15234048278103
 20
499.80323349920269
 30
0.0
  0
VERTEX
  5
538
  8
LAYER_1
 10
946.15234048278103
 20
499.71624931242019
 30
0.0
  0
VERTEX
  5
539
  8
LAYER_1
 10
946.15234048278103
 20
499.62926512563769
 30
0.0
  0
VERTEX
  5
53A
  8
LAYER_1
 10
946.15234048278103
 20
499.54228093885519
 30
0.0
  0
VERTEX
  5
53B
  8
LAYER_1
 10
946.15234048278103
 20
499.45529675207268
 30
0.0
  0
VERTEX
  5
53C
  8
LAYER_1
 10
946.15234048278103
 20
499.3683125652903
 30
0.0
  0
VERTEX
  5
53D
  8
LAYER_1
 10
946.15234048278103
 20
499.28132837850779
 30
0.0
  0
VERTEX
  5
53E
  8
LAYER_1
 10
946.15234048278103
 20
499.19434419172529
 30
0.0
  0
VERTEX
  5
53F
  8
LAYER_1
 10
946.15234048278103
 20
499.10736000494279
 30
0.0
  0
VERTEX
  5
540
  8
LAYER_1
 10
946.15234048278103
 20
499.02037581816029
 30
0.0
  0
VERTEX
  5
541
  8
LAYER_1
 10
946.15234048278103
 20
498.93339163137779
 30
0.0
  0
VERTEX
  5
542
  8
LAYER_1
 10
946.15234048278103
 20
498.8464074445954
 30
0.0
  0
VERTEX
  5
543
  8
LAYER_1
 10
946.06535629599853
 20
498.8464074445954
 30
0.0
  0
VERTEX
  5
544
  8
LAYER_1
 10
946.06535629599853
 20
498.7594232578129
 30
0.0
  0
VERTEX
  5
545
  8
LAYER_1
 10
946.06535629599853
 20
498.6724390710304
 30
0.0
  0
VERTEX
  5
546
  8
LAYER_1
 10
946.06535629599853
 20
498.58545488424801
 30
0.0
  0
VERTEX
  5
547
  8
LAYER_1
 10
945.97837210921602
 20
498.58545488424801
 30
0.0
  0
VERTEX
  5
548
  8
LAYER_1
 10
945.89138792243352
 20
498.3245023239005
 30
0.0
  0
VERTEX
  5
549
  8
LAYER_1
 10
945.89138792243352
 20
498.23751813711812
 30
0.0
  0
VERTEX
  5
54A
  8
LAYER_1
 10
945.80440373565102
 20
498.23751813711812
 30
0.0
  0
VERTEX
  5
54B
  8
LAYER_1
 10
945.80440373565102
 20
498.15053395033561
 30
0.0
  0
VERTEX
  5
54C
  8
LAYER_1
 10
945.80440373565102
 20
498.06354976355311
 30
0.0
  0
VERTEX
  5
54D
  8
LAYER_1
 10
945.71741954886841
 20
497.97656557677061
 30
0.0
  0
VERTEX
  5
54E
  8
LAYER_1
 10
945.71741954886841
 20
497.88958138998811
 30
0.0
  0
VERTEX
  5
54F
  8
LAYER_1
 10
945.63043536208613
 20
497.80259720320572
 30
0.0
  0
VERTEX
  5
550
  8
LAYER_1
 10
945.63043536208613
 20
497.71561301642322
 30
0.0
  0
VERTEX
  5
551
  8
LAYER_1
 10
945.54345117530363
 20
497.71561301642322
 30
0.0
  0
VERTEX
  5
552
  8
LAYER_1
 10
945.54345117530363
 20
497.62862882964077
 30
0.0
  0
VERTEX
  5
553
  8
LAYER_1
 10
945.45646698852113
 20
497.62862882964077
 30
0.0
  0
VERTEX
  5
554
  8
LAYER_1
 10
945.45646698852113
 20
497.54164464285827
 30
0.0
  0
VERTEX
  5
555
  8
LAYER_1
 10
945.45646698852113
 20
497.45466045607583
 30
0.0
  0
VERTEX
  5
556
  8
LAYER_1
 10
945.36948280173885
 20
497.45466045607583
 30
0.0
  0
VERTEX
  5
557
  8
LAYER_1
 10
945.36948280173885
 20
497.36767626929333
 30
0.0
  0
VERTEX
  5
558
  8
LAYER_1
 10
945.28249861495635
 20
497.36767626929333
 30
0.0
  0
VERTEX
  5
559
  8
LAYER_1
 10
945.19551442817385
 20
497.28069208251083
 30
0.0
  0
VERTEX
  5
55A
  8
LAYER_1
 10
945.19551442817385
 20
497.19370789572832
 30
0.0
  0
VERTEX
  5
55B
  8
LAYER_1
 10
945.10853024139135
 20
497.10672370894582
 30
0.0
  0
VERTEX
  5
55C
  8
LAYER_1
 10
945.02154605460885
 20
497.01973952216338
 30
0.0
  0
VERTEX
  5
55D
  8
LAYER_1
 10
944.93456186782635
 20
497.01973952216338
 30
0.0
  0
VERTEX
  5
55E
  8
LAYER_1
 10
944.84757768104384
 20
496.84577114859837
 30
0.0
  0
VERTEX
  5
55F
  8
LAYER_1
 10
944.76059349426134
 20
496.75878696181587
 30
0.0
  0
VERTEX
  5
560
  8
LAYER_1
 10
944.58662512069634
 20
496.67180277503348
 30
0.0
  0
VERTEX
  5
561
  8
LAYER_1
 10
944.49964093391395
 20
496.67180277503348
 30
0.0
  0
VERTEX
  5
562
  8
LAYER_1
 10
944.49964093391395
 20
496.58481858825098
 30
0.0
  0
VERTEX
  5
563
  8
LAYER_1
 10
944.41265674713145
 20
496.49783440146859
 30
0.0
  0
VERTEX
  5
564
  8
LAYER_1
 10
944.32567256034895
 20
496.41085021468609
 30
0.0
  0
VERTEX
  5
565
  8
LAYER_1
 10
944.23868837356645
 20
496.32386602790359
 30
0.0
  0
VERTEX
  5
566
  8
LAYER_1
 10
944.15170418678395
 20
496.23688184112109
 30
0.0
  0
VERTEX
  5
567
  8
LAYER_1
 10
943.97773581321894
 20
496.14989765433859
 30
0.0
  0
VERTEX
  5
568
  8
LAYER_1
 10
943.89075162643644
 20
496.14989765433859
 30
0.0
  0
VERTEX
  5
569
  8
LAYER_1
 10
943.89075162643644
 20
496.0629134675562
 30
0.0
  0
VERTEX
  5
56A
  8
LAYER_1
 10
943.62979906608905
 20
495.88894509399131
 30
0.0
  0
VERTEX
  5
56B
  8
LAYER_1
 10
943.54281487930655
 20
495.88894509399131
 30
0.0
  0
VERTEX
  5
56C
  8
LAYER_1
 10
943.54281487930655
 20
495.80196090720881
 30
0.0
  0
VERTEX
  5
56D
  8
LAYER_1
 10
943.45583069252405
 20
495.80196090720881
 30
0.0
  0
VERTEX
  5
56E
  8
LAYER_1
 10
943.36884650574154
 20
495.71497672042631
 30
0.0
  0
VERTEX
  5
56F
  8
LAYER_1
 10
943.28186231895927
 20
495.62799253364381
 30
0.0
  0
VERTEX
  5
570
  8
LAYER_1
 10
943.02090975861177
 20
495.5410083468613
 30
0.0
  0
VERTEX
  5
571
  8
LAYER_1
 10
942.93392557182926
 20
495.4540241600788
 30
0.0
  0
VERTEX
  5
572
  8
LAYER_1
 10
942.84694138504676
 20
495.4540241600788
 30
0.0
  0
VERTEX
  5
573
  8
LAYER_1
 10
942.75995719826426
 20
495.3670399732963
 30
0.0
  0
VERTEX
  5
574
  8
LAYER_1
 10
942.67297301148176
 20
495.2800557865138
 30
0.0
  0
VERTEX
  5
575
  8
LAYER_1
 10
942.58598882469926
 20
495.2800557865138
 30
0.0
  0
VERTEX
  5
576
  8
LAYER_1
 10
942.41202045113448
 20
495.1930715997313
 30
0.0
  0
VERTEX
  5
577
  8
LAYER_1
 10
942.32503626435198
 20
495.10608741294891
 30
0.0
  0
VERTEX
  5
578
  8
LAYER_1
 10
942.32503626435198
 20
495.01910322616641
 30
0.0
  0
VERTEX
  5
579
  8
LAYER_1
 10
942.15106789078709
 20
495.01910322616641
 30
0.0
  0
VERTEX
  5
57A
  8
LAYER_1
 10
942.15106789078709
 20
494.93211903938402
 30
0.0
  0
VERTEX
  5
57B
  8
LAYER_1
 10
942.06408370400459
 20
494.93211903938402
 30
0.0
  0
VERTEX
  5
57C
  8
LAYER_1
 10
941.97709951722209
 20
494.84513485260152
 30
0.0
  0
VERTEX
  5
57D
  8
LAYER_1
 10
941.89011533043958
 20
494.84513485260152
 30
0.0
  0
VERTEX
  5
57E
  8
LAYER_1
 10
941.80313114365708
 20
494.84513485260152
 30
0.0
  0
VERTEX
  5
57F
  8
LAYER_1
 10
941.80313114365708
 20
494.75815066581902
 30
0.0
  0
VERTEX
  5
580
  8
LAYER_1
 10
941.71614695687458
 20
494.67116647903651
 30
0.0
  0
VERTEX
  5
581
  8
LAYER_1
 10
941.62916277009208
 20
494.67116647903651
 30
0.0
  0
VERTEX
  5
582
  8
LAYER_1
 10
941.62916277009208
 20
494.58418229225401
 30
0.0
  0
VERTEX
  5
583
  8
LAYER_1
 10
941.54217858330958
 20
494.58418229225401
 30
0.0
  0
VERTEX
  5
584
  8
LAYER_1
 10
941.45519439652708
 20
494.58418229225401
 30
0.0
  0
VERTEX
  5
585
  8
LAYER_1
 10
941.45519439652708
 20
494.49719810547163
 30
0.0
  0
VERTEX
  5
586
  8
LAYER_1
 10
941.3682102097448
 20
494.41021391868912
 30
0.0
  0
VERTEX
  5
587
  8
LAYER_1
 10
941.2812260229623
 20
494.41021391868912
 30
0.0
  0
VERTEX
  5
588
  8
LAYER_1
 10
941.1942418361798
 20
494.32322973190668
 30
0.0
  0
VERTEX
  5
589
  8
LAYER_1
 10
941.1072576493973
 20
494.32322973190668
 30
0.0
  0
VERTEX
  5
58A
  8
LAYER_1
 10
941.1072576493973
 20
494.23624554512418
 30
0.0
  0
VERTEX
  5
58B
  8
LAYER_1
 10
941.1072576493973
 20
494.14926135834168
 30
0.0
  0
VERTEX
  5
58C
  8
LAYER_1
 10
941.0202734626148
 20
494.14926135834168
 30
0.0
  0
VERTEX
  5
58D
  8
LAYER_1
 10
941.0202734626148
 20
494.06227717155917
 30
0.0
  0
VERTEX
  5
58E
  8
LAYER_1
 10
941.0202734626148
 20
493.97529298477667
 30
0.0
  0
VERTEX
  5
58F
  8
LAYER_1
 10
941.0202734626148
 20
493.88830879799428
 30
0.0
  0
VERTEX
  5
590
  8
LAYER_1
 10
941.0202734626148
 20
493.80132461121178
 30
0.0
  0
VERTEX
  5
591
  8
LAYER_1
 10
941.0202734626148
 20
493.71434042442928
 30
0.0
  0
VERTEX
  5
592
  8
LAYER_1
 10
941.0202734626148
 20
493.62735623764678
 30
0.0
  0
VERTEX
  5
593
  8
LAYER_1
 10
941.0202734626148
 20
493.54037205086428
 30
0.0
  0
VERTEX
  5
594
  8
LAYER_1
 10
941.0202734626148
 20
493.45338786408178
 30
0.0
  0
VERTEX
  5
595
  8
LAYER_1
 10
941.0202734626148
 20
493.36640367729939
 30
0.0
  0
VERTEX
  5
596
  8
LAYER_1
 10
941.0202734626148
 20
493.27941949051689
 30
0.0
  0
VERTEX
  5
597
  8
LAYER_1
 10
941.0202734626148
 20
493.19243530373438
 30
0.0
  0
VERTEX
  5
598
  8
LAYER_1
 10
941.0202734626148
 20
493.10545111695188
 30
0.0
  0
VERTEX
  5
599
  8
LAYER_1
 10
941.0202734626148
 20
493.01846693016938
 30
0.0
  0
VERTEX
  5
59A
  8
LAYER_1
 10
941.0202734626148
 20
492.93148274338699
 30
0.0
  0
VERTEX
  5
59B
  8
LAYER_1
 10
941.0202734626148
 20
492.84449855660449
 30
0.0
  0
VERTEX
  5
59C
  8
LAYER_1
 10
941.1072576493973
 20
492.84449855660449
 30
0.0
  0
VERTEX
  5
59D
  8
LAYER_1
 10
941.1072576493973
 20
492.7575143698221
 30
0.0
  0
VERTEX
  5
59E
  8
LAYER_1
 10
941.1942418361798
 20
492.6705301830396
 30
0.0
  0
VERTEX
  5
59F
  8
LAYER_1
 10
941.2812260229623
 20
492.5835459962571
 30
0.0
  0
VERTEX
  5
5A0
  8
LAYER_1
 10
941.3682102097448
 20
492.4965618094746
 30
0.0
  0
VERTEX
  5
5A1
  8
LAYER_1
 10
941.45519439652708
 20
492.4965618094746
 30
0.0
  0
VERTEX
  5
5A2
  8
LAYER_1
 10
941.54217858330958
 20
492.4965618094746
 30
0.0
  0
VERTEX
  5
5A3
  8
LAYER_1
 10
941.54217858330958
 20
492.4095776226921
 30
0.0
  0
VERTEX
  5
5A4
  8
LAYER_1
 10
941.62916277009208
 20
492.4095776226921
 30
0.0
  0
VERTEX
  5
5A5
  8
LAYER_1
 10
941.62916277009208
 20
492.32259343590971
 30
0.0
  0
VERTEX
  5
5A6
  8
LAYER_1
 10
941.71614695687458
 20
492.32259343590971
 30
0.0
  0
VERTEX
  5
5A7
  8
LAYER_1
 10
941.71614695687458
 20
492.23560924912721
 30
0.0
  0
VERTEX
  5
5A8
  8
LAYER_1
 10
941.80313114365708
 20
492.23560924912721
 30
0.0
  0
VERTEX
  5
5A9
  8
LAYER_1
 10
941.89011533043958
 20
492.23560924912721
 30
0.0
  0
VERTEX
  5
5AA
  8
LAYER_1
 10
941.89011533043958
 20
492.14862506234482
 30
0.0
  0
VERTEX
  5
5AB
  8
LAYER_1
 10
941.97709951722209
 20
492.14862506234482
 30
0.0
  0
VERTEX
  5
5AC
  8
LAYER_1
 10
942.06408370400459
 20
492.14862506234482
 30
0.0
  0
VERTEX
  5
5AD
  8
LAYER_1
 10
942.15106789078709
 20
492.14862506234482
 30
0.0
  0
VERTEX
  5
5AE
  8
LAYER_1
 10
942.15106789078709
 20
492.06164087556232
 30
0.0
  0
VERTEX
  5
5AF
  8
LAYER_1
 10
942.23805207756936
 20
492.06164087556232
 30
0.0
  0
VERTEX
  5
5B0
  8
LAYER_1
 10
942.32503626435198
 20
491.9746566887797
 30
0.0
  0
VERTEX
  5
5B1
  8
LAYER_1
 10
942.41202045113448
 20
491.9746566887797
 30
0.0
  0
VERTEX
  5
5B2
  8
LAYER_1
 10
942.49900463791698
 20
491.9746566887797
 30
0.0
  0
VERTEX
  5
5B3
  8
LAYER_1
 10
942.58598882469926
 20
491.9746566887797
 30
0.0
  0
VERTEX
  5
5B4
  8
LAYER_1
 10
942.67297301148176
 20
491.9746566887797
 30
0.0
  0
VERTEX
  5
5B5
  8
LAYER_1
 10
942.75995719826426
 20
491.9746566887797
 30
0.0
  0
VERTEX
  5
5B6
  8
LAYER_1
 10
942.93392557182926
 20
491.8876725019972
 30
0.0
  0
VERTEX
  5
5B7
  8
LAYER_1
 10
943.02090975861177
 20
491.8876725019972
 30
0.0
  0
VERTEX
  5
5B8
  8
LAYER_1
 10
943.19487813217677
 20
491.8876725019972
 30
0.0
  0
VERTEX
  5
5B9
  8
LAYER_1
 10
943.28186231895927
 20
491.8876725019972
 30
0.0
  0
VERTEX
  5
5BA
  8
LAYER_1
 10
943.36884650574154
 20
491.8876725019972
 30
0.0
  0
VERTEX
  5
5BB
  8
LAYER_1
 10
943.54281487930655
 20
491.8876725019972
 30
0.0
  0
VERTEX
  5
5BC
  8
LAYER_1
 10
943.62979906608905
 20
491.8876725019972
 30
0.0
  0
VERTEX
  5
5BD
  8
LAYER_1
 10
943.71678325287155
 20
491.8876725019972
 30
0.0
  0
VERTEX
  5
5BE
  8
LAYER_1
 10
943.80376743965394
 20
491.8876725019972
 30
0.0
  0
VERTEX
  5
5BF
  8
LAYER_1
 10
943.89075162643644
 20
491.8876725019972
 30
0.0
  0
VERTEX
  5
5C0
  8
LAYER_1
 10
944.06472000000144
 20
491.80068831521481
 30
0.0
  0
VERTEX
  5
5C1
  8
LAYER_1
 10
944.15170418678395
 20
491.80068831521481
 30
0.0
  0
VERTEX
  5
5C2
  8
LAYER_1
 10
944.23868837356645
 20
491.80068831521481
 30
0.0
  0
VERTEX
  5
5C3
  8
LAYER_1
 10
944.32567256034895
 20
491.80068831521481
 30
0.0
  0
VERTEX
  5
5C4
  8
LAYER_1
 10
944.41265674713145
 20
491.80068831521481
 30
0.0
  0
VERTEX
  5
5C5
  8
LAYER_1
 10
944.49964093391395
 20
491.80068831521481
 30
0.0
  0
VERTEX
  5
5C6
  8
LAYER_1
 10
944.67360930747884
 20
491.80068831521481
 30
0.0
  0
VERTEX
  5
5C7
  8
LAYER_1
 10
944.84757768104384
 20
491.80068831521481
 30
0.0
  0
VERTEX
  5
5C8
  8
LAYER_1
 10
944.93456186782635
 20
491.80068831521481
 30
0.0
  0
VERTEX
  5
5C9
  8
LAYER_1
 10
945.02154605460885
 20
491.80068831521481
 30
0.0
  0
VERTEX
  5
5CA
  8
LAYER_1
 10
945.10853024139135
 20
491.80068831521481
 30
0.0
  0
VERTEX
  5
5CB
  8
LAYER_1
 10
945.45646698852113
 20
491.80068831521481
 30
0.0
  0
VERTEX
  5
5CC
  8
LAYER_1
 10
945.63043536208613
 20
491.80068831521481
 30
0.0
  0
VERTEX
  5
5CD
  8
LAYER_1
 10
945.89138792243352
 20
491.80068831521481
 30
0.0
  0
VERTEX
  5
5CE
  8
LAYER_1
 10
945.97837210921602
 20
491.80068831521481
 30
0.0
  0
VERTEX
  5
5CF
  8
LAYER_1
 10
946.06535629599853
 20
491.80068831521481
 30
0.0
  0
VERTEX
  5
5D0
  8
LAYER_1
 10
946.41329304312853
 20
491.80068831521481
 30
0.0
  0
VERTEX
  5
5D1
  8
LAYER_1
 10
946.50027722991103
 20
491.80068831521481
 30
0.0
  0
VERTEX
  5
5D2
  8
LAYER_1
 10
946.50027722991103
 20
491.8876725019972
 30
0.0
  0
VERTEX
  5
5D3
  8
LAYER_1
 10
946.58726141669331
 20
491.8876725019972
 30
0.0
  0
VERTEX
  5
5D4
  8
LAYER_1
 10
946.67424560347581
 20
491.8876725019972
 30
0.0
  0
VERTEX
  5
5D5
  8
LAYER_1
 10
946.76122979025831
 20
491.8876725019972
 30
0.0
  0
VERTEX
  5
5D6
  8
LAYER_1
 10
946.84821397704081
 20
491.8876725019972
 30
0.0
  0
VERTEX
  5
5D7
  8
LAYER_1
 10
946.93519816382332
 20
491.9746566887797
 30
0.0
  0
VERTEX
  5
5D8
  8
LAYER_1
 10
947.02218235060559
 20
491.9746566887797
 30
0.0
  0
VERTEX
  5
5D9
  8
LAYER_1
 10
947.10916653738809
 20
491.9746566887797
 30
0.0
  0
VERTEX
  5
5DA
  8
LAYER_1
 10
947.19615072417059
 20
491.9746566887797
 30
0.0
  0
VERTEX
  5
5DB
  8
LAYER_1
 10
947.28313491095309
 20
491.9746566887797
 30
0.0
  0
VERTEX
  5
5DC
  8
LAYER_1
 10
947.28313491095309
 20
491.8876725019972
 30
0.0
  0
VERTEX
  5
5DD
  8
LAYER_1
 10
947.3701190977356
 20
491.8876725019972
 30
0.0
  0
VERTEX
  5
5DE
  8
LAYER_1
 10
947.3701190977356
 20
491.80068831521481
 30
0.0
  0
VERTEX
  5
5DF
  8
LAYER_1
 10
947.3701190977356
 20
491.71370412843231
 30
0.0
  0
VERTEX
  5
5E0
  8
LAYER_1
 10
947.3701190977356
 20
491.62671994164981
 30
0.0
  0
VERTEX
  5
5E1
  8
LAYER_1
 10
947.3701190977356
 20
491.53973575486742
 30
0.0
  0
VERTEX
  5
5E2
  8
LAYER_1
 10
947.3701190977356
 20
491.45275156808492
 30
0.0
  0
VERTEX
  5
5E3
  8
LAYER_1
 10
947.4571032845181
 20
491.45275156808492
 30
0.0
  0
VERTEX
  5
5E4
  8
LAYER_1
 10
947.4571032845181
 20
491.36576738130242
 30
0.0
  0
VERTEX
  5
5E5
  8
LAYER_1
 10
947.4571032845181
 20
491.27878319451992
 30
0.0
  0
VERTEX
  5
5E6
  8
LAYER_1
 10
947.4571032845181
 20
491.19179900773747
 30
0.0
  0
VERTEX
  5
5E7
  8
LAYER_1
 10
947.4571032845181
 20
491.10481482095503
 30
0.0
  0
VERTEX
  5
5E8
  8
LAYER_1
 10
947.4571032845181
 20
491.01783063417258
 30
0.0
  0
VERTEX
  5
5E9
  8
LAYER_1
 10
947.5440874713006
 20
491.01783063417258
 30
0.0
  0
VERTEX
  5
5EA
  8
LAYER_1
 10
947.5440874713006
 20
490.93084644739008
 30
0.0
  0
VERTEX
  5
5EB
  8
LAYER_1
 10
947.6310716580831
 20
490.93084644739008
 30
0.0
  0
VERTEX
  5
5EC
  8
LAYER_1
 10
947.6310716580831
 20
490.84386226060758
 30
0.0
  0
SEQEND
  5
5ED
  8
LAYER_1
  0
CIRCLE
  5
22A
  8
LAYER_1
 62
   240
 10
912.14152345083255
 20
525.81150534716312
 30
0.0
 40
1.5389073587500659
  0
CIRCLE
  5
22B
  8
LAYER_1
 62
   240
 10
947.3701190977356
 20
490.75687807382508
 30
0.0
 40
2.28323134808852
  0
VIEWPORT
  5
20A
 67
     1
  8
0
 10
5.2499996395561652
 20
3.9999998836066779
 30
0.0
 40
19.354102901133331
 41
8.9929997457669497
 68
     1
 69
     1
1001
ACAD
1000
MVIEW
1002
{
1070
    16
1010
0.0
1020
0.0
1030
0.0
1010
0.0
1020
0.0
1030
1.0
1040
0.0
1040
8.9929997457669497
1040
5.2499996395561652
1040
3.9999998836066779
1040
50.0
1040
0.0
1040
0.0
1070
     0
1070
  1000
1070
     1
1070
     1
1070
     0
1070
     0
1070
     0
1070
     0
1040
0.0
1040
0.0
1040
0.0
1040
0.5
1040
0.5
1040
0.5
1040
0.5
1070
     0
1002
{
1002
}
1002
}
  0
VIEWPORT
  5
20E
 67
     1
  8
LAYER_1
 10
5.2499997615814209
 20
3.9999997615814209
 30
0.0
 40
8.3999996185302752
 41
6.3999996185302743
 68
     2
 69
     2
1001
ACAD
1000
MVIEW
1002
{
1070
    16
1010
0.0
1020
0.0
1030
0.0
1010
0.0
1020
0.0
1030
1.0
1040
0.0
1040
9.202549224290113
1040
6.0
1040
4.5
1040
50.0
1040
0.0
1040
0.0
1070
     0
1070
  1000
1070
     1
1070
     2
1070
     0
1070
     0
1070
     0
1070
     0
1040
0.0
1040
0.0
1040
0.0
1040
0.5
1040
0.5
1040
0.5
1040
0.5
1070
     0
1002
{
1002
}
1002
}
  0
ENDSEC
  0
EOF
