  0
SECTION
  2
HEADER
  9
$ACADVER
  1
AC1009
  9
$INSBASE
 10
0.0
 20
0.0
 30
0.0
  9
$EXTMIN
 10
1.0000000000000000E+020
 20
1.0000000000000000E+020
 30
1.0000000000000000E+020
  9
$EXTMAX
 10
-1.0000000000000000E+020
 20
-1.0000000000000000E+020
 30
-1.0000000000000000E+020
  9
$LIMMIN
 10
0.0
 20
0.0
  9
$LIMMAX
 10
12.0
 20
9.0
  9
$ORTHOMODE
 70
     0
  9
$REGENMODE
 70
     1
  9
$FILLMODE
 70
     1
  9
$QTEXTMODE
 70
     0
  9
$MIRRTEXT
 70
     0
  9
$DRAGMODE
 70
     2
  9
$LTSCALE
 40
1.0
  9
$OSMODE
 70
     0
  9
$ATTMODE
 70
     1
  9
$TEXTSIZE
 40
0.2
  9
$TRACEWID
 40
0.05
  9
$TEXTSTYLE
  7
Standard
  9
$CLAYER
  8
LAYER_1
  9
$CELTYPE
  6
BYLAYER
  9
$CECOLOR
 62
   256
  9
$DIMSCALE
 40
1.0
  9
$DIMASZ
 40
0.18
  9
$DIMEXO
 40
0.0625
  9
$DIMDLI
 40
0.38
  9
$DIMRND
 40
0.0
  9
$DIMDLE
 40
0.0
  9
$DIMEXE
 40
0.18
  9
$DIMTP
 40
0.0
  9
$DIMTM
 40
0.0
  9
$DIMTXT
 40
0.18
  9
$DIMCEN
 40
0.09
  9
$DIMTSZ
 40
0.0
  9
$DIMTOL
 70
     0
  9
$DIMLIM
 70
     0
  9
$DIMTIH
 70
     1
  9
$DIMTOH
 70
     1
  9
$DIMSE1
 70
     0
  9
$DIMSE2
 70
     0
  9
$DIMTAD
 70
     0
  9
$DIMZIN
 70
     0
  9
$DIMBLK
  1

  9
$DIMASO
 70
     1
  9
$DIMSHO
 70
     1
  9
$DIMPOST
  1

  9
$DIMAPOST
  1

  9
$DIMALT
 70
     0
  9
$DIMALTD
 70
     2
  9
$DIMALTF
 40
25.399999999999999
  9
$DIMLFAC
 40
1.0
  9
$DIMTOFL
 70
     0
  9
$DIMTVP
 40
0.0
  9
$DIMTIX
 70
     0
  9
$DIMSOXD
 70
     0
  9
$DIMSAH
 70
     0
  9
$DIMBLK1
  1

  9
$DIMBLK2
  1

  9
$DIMSTYLE
  2
STANDARD
  9
$DIMCLRD
 70
     0
  9
$DIMCLRE
 70
     0
  9
$DIMCLRT
 70
     0
  9
$DIMTFAC
 40
1.0
  9
$DIMGAP
 40
0.09
  9
$LUNITS
 70
     2
  9
$LUPREC
 70
     4
  9
$SKETCHINC
 40
0.1
  9
$FILLETRAD
 40
0.0
  9
$AUNITS
 70
     0
  9
$AUPREC
 70
     0
  9
$MENU
  1
.
  9
$ELEVATION
 40
0.0
  9
$PELEVATION
 40
0.0
  9
$THICKNESS
 40
0.0
  9
$LIMCHECK
 70
     0
  9
$BLIPMODE
 70
     0
  9
$CHAMFERA
 40
0.0
  9
$CHAMFERB
 40
0.0
  9
$SKPOLY
 70
     0
  9
$TDCREATE
 40
2456393.8727359502
  9
$TDUPDATE
 40
2456420.5745427432
  9
$TDINDWG
 40
0.0121123843
  9
$TDUSRTIMER
 40
0.0121123611
  9
$USRTIMER
 70
     1
  9
$ANGBASE
 50
0.0
  9
$ANGDIR
 70
     0
  9
$PDMODE
 70
     0
  9
$PDSIZE
 40
0.0
  9
$PLINEWID
 40
0.0
  9
$COORDS
 70
     0
  9
$SPLFRAME
 70
     0
  9
$SPLINETYPE
 70
     6
  9
$SPLINESEGS
 70
     8
  9
$ATTDIA
 70
     1
  9
$ATTREQ
 70
     1
  9
$HANDLING
 70
     1
  9
$HANDSEED
  5
B12
  9
$SURFTAB1
 70
     6
  9
$SURFTAB2
 70
     6
  9
$SURFTYPE
 70
     6
  9
$SURFU
 70
     6
  9
$SURFV
 70
     6
  9
$UCSNAME
  2

  9
$UCSORG
 10
0.0
 20
0.0
 30
0.0
  9
$UCSXDIR
 10
1.0
 20
0.0
 30
0.0
  9
$UCSYDIR
 10
0.0
 20
1.0
 30
0.0
  9
$PUCSNAME
  2

  9
$PUCSORG
 10
0.0
 20
0.0
 30
0.0
  9
$PUCSXDIR
 10
1.0
 20
0.0
 30
0.0
  9
$PUCSYDIR
 10
0.0
 20
1.0
 30
0.0
  9
$USERI1
 70
     0
  9
$USERI2
 70
     0
  9
$USERI3
 70
     0
  9
$USERI4
 70
     0
  9
$USERI5
 70
     0
  9
$USERR1
 40
0.0
  9
$USERR2
 40
0.0
  9
$USERR3
 40
0.0
  9
$USERR4
 40
0.0
  9
$USERR5
 40
0.0
  9
$WORLDVIEW
 70
     1
  9
$SHADEDGE
 70
     3
  9
$SHADEDIF
 70
    70
  9
$TILEMODE
 70
     1
  9
$MAXACTVP
 70
    64
  9
$PLIMCHECK
 70
     0
  9
$PEXTMIN
 10
1.049999952316284
 20
0.7999999523162842
 30
0.0
  9
$PEXTMAX
 10
9.4499995708465594
 20
7.1999995708465576
 30
0.0
  9
$PLIMMIN
 10
-0.2500002402958907
 20
-0.2499999962453767
  9
$PLIMMAX
 10
10.74999951940822
 20
8.2499997634587334
  9
$UNITMODE
 70
     0
  9
$VISRETAIN
 70
     1
  9
$PLINEGEN
 70
     0
  9
$PSLTSCALE
 70
     1
  0
ENDSEC
  0
SECTION
  2
TABLES
  0
TABLE
  2
VPORT
 70
     1
  0
VPORT
  2
*ACTIVE
 70
     0
 10
0.0
 20
0.0
 11
1.0
 21
1.0
 12
23.348421554903009
 22
8.6802838350983347
 13
0.0
 23
0.0
 14
0.5
 24
0.5
 15
0.5
 25
0.5
 16
0.0
 26
0.0
 36
1.0
 17
0.0
 27
0.0
 37
0.0
 40
37.365623147774834
 41
2.1521298174442181
 42
50.0
 43
0.0
 44
0.0
 50
0.0
 51
0.0
 71
     0
 72
  1000
 73
     1
 74
     2
 75
     0
 76
     0
 77
     0
 78
     0
  0
ENDTAB
  0
TABLE
  2
LTYPE
 70
    10
  0
LTYPE
  2
CONTINUOUS
 70
     0
  3
Solid line
 72
    65
 73
     0
 40
0.0
  0
LTYPE
  2
PHANTOM2
 70
     0
  3
Phantom (.5x) ___ _ _ ___ _ _ ___ _ _ ___ _ _
 72
    65
 73
     6
 40
1.25
 49
0.625
 49
-0.125
 49
0.125
 49
-0.125
 49
0.125
 49
-0.125
  0
LTYPE
  2
CENTER1
 70
     0
  3
Center (.5x) ___ _ ___ _ ___ _ ___ _ ___ _ ___
 72
    65
 73
     4
 40
1.125
 49
0.75
 49
-0.125
 49
0.125
 49
-0.125
  0
LTYPE
  2
CENTER2
 70
     0
  3
Center (2x) ________  __  ________  __  _____
 72
    65
 73
     4
 40
4.0
 49
2.5
 49
-0.5
 49
0.5
 49
-0.5
  0
LTYPE
  2
DASHDOT1
 70
     0
  3
Dash dot (.5x) _._._._._._._._._._._._._._._.
 72
    65
 73
     4
 40
0.5
 49
0.25
 49
-0.125
 49
0.0
 49
-0.125
  0
LTYPE
  2
DASHDOT2
 70
     0
  3
Dash dot (2x) ____  .  ____  .  ____  .  ___
 72
    65
 73
     4
 40
2.0
 49
1.0
 49
-0.5
 49
0.0
 49
-0.5
  0
LTYPE
  2
DASHED1
 70
     0
  3
Dashed (.5x) _ _ _ _ _ _ _ _ _ _ _ _ _ _ _ _ _
 72
    65
 73
     2
 40
0.375
 49
0.25
 49
-0.125
  0
LTYPE
  2
DASHED2
 70
     0
  3
Dashed (2x) ____  ____  ____  ____  ____  ___
 72
    65
 73
     2
 40
1.5
 49
1.0
 49
-0.5
  0
LTYPE
  2
DOT1
 70
     0
  3
Dot (.5x) .....................................
 72
    65
 73
     2
 40
0.125
 49
0.0
 49
-0.125
  0
LTYPE
  2
DOT2
 70
     0
  3
Dot (2x) .  .  .  .  .  .  .  .  .  .  .  .  . 
 72
    65
 73
     2
 40
0.5
 49
0.0
 49
-0.5
  0
ENDTAB
  0
TABLE
  2
LAYER
 70
     4
  0
LAYER
  2
0
 70
     0
 62
     7
  6
CONTINUOUS
  0
LAYER
  2
LAYER_1
 70
     0
 62
     7
  6
CONTINUOUS
  0
ENDTAB
  0
TABLE
  2
STYLE
 70
     2
  0
STYLE
  2
Standard
 70
     0
 40
0.0
 41
1.0
 50
0.0
 71
     0
 42
0.2
  3
txt
  4

  0
STYLE
  2
STANDARD_360
 70
     0
 40
0.0
 41
1.0
 50
0.0
 71
     0
 42
0.2
  3
txt
  4

  0
ENDTAB
  0
TABLE
  2
VIEW
 70
     0
  0
ENDTAB
  0
TABLE
  2
UCS
 70
     0
  0
ENDTAB
  0
TABLE
  2
APPID
 70
    12
  0
APPID
  2
ACAD
 70
     0
  0
APPID
  2
ACADANNOPO
 70
     0
  0
APPID
  2
ACADANNOTATIVE
 70
     0
  0
APPID
  2
ACAD_DSTYLE_DIMJAG
 70
     0
  0
APPID
  2
ACAD_DSTYLE_DIMTALN
 70
     0
  0
APPID
  2
ACAD_MLEADERVER
 70
     0
  0
APPID
  2
ACAD_NAV_VCDISPLAY
 70
     0
  0
APPID
  2
ACAECLAYERSTANDARD
 70
     0
  0
APPID
  2
ACCMTRANSPARENCY
 70
     0
  0
APPID
  2
ACAD_EXEMPT_FROM_CAD_STANDARDS
 70
     0
  0
APPID
  2
ACAD_PSEXT
 70
     0
  0
APPID
  2
ADE_PROJECTION
 70
     0
  0
ENDTAB
  0
TABLE
  2
DIMSTYLE
 70
     2
  0
DIMSTYLE
  2
STANDARD
 70
     0
  3

  4

  5

  6

  7

 40
1.0
 41
0.18
 42
0.0625
 43
0.38
 44
0.18
 45
0.0
 46
0.0
 47
0.0
 48
0.0
140
0.18
141
0.09
142
0.0
143
25.399999999999999
144
1.0
145
0.0
146
1.0
147
0.09
 71
     0
 72
     0
 73
     1
 74
     1
 75
     0
 76
     0
 77
     0
 78
     0
170
     0
171
     2
172
     0
173
     0
174
     0
175
     0
176
     0
177
     0
178
     0
  0
DIMSTYLE
  2
STANDARD_360
 70
     0
  3

  4

  5

  6

  7

 40
1.0
 41
1.0
 42
0.0625
 43
0.38
 44
0.18
 45
0.0
 46
0.0
 47
0.0
 48
0.0
140
1.0
141
0.09
142
0.0
143
25.399999999999999
144
1.0
145
0.0
146
1.0
147
0.09
 71
     0
 72
     0
 73
     0
 74
     1
 75
     0
 76
     0
 77
     1
 78
     0
170
     0
171
     2
172
     0
173
     0
174
     0
175
     0
176
     0
177
     0
178
     0
  0
ENDTAB
  0
ENDSEC
  0
SECTION
  2
BLOCKS
  0
BLOCK
  8
0
  2
$MODEL_SPACE
 70
     0
 10
0.0
 20
0.0
 30
0.0
  3
$MODEL_SPACE
  1

  0
ENDBLK
  5
21
  8
0
  0
BLOCK
 67
     1
  8
0
  2
$PAPER_SPACE
 70
     0
 10
0.0
 20
0.0
 30
0.0
  3
$PAPER_SPACE
  1

  0
ENDBLK
  5
60
 67
     1
  8
0
  0
ENDSEC
  0
SECTION
  2
ENTITIES
  0
POLYLINE
  5
228
  8
LAYER_1
 66
     1
 10
0.0
 20
0.0
 30
0.0
 70
     1
  0
VERTEX
  5
283
  8
LAYER_1
 10
24.750294887780061
 20
0.1633157946523838
 30
0.0
  0
VERTEX
  5
284
  8
LAYER_1
 10
73.982654255972989
 20
0.1633157946523838
 30
0.0
  0
VERTEX
  5
285
  8
LAYER_1
 10
73.982654255972989
 20
50.326539100479231
 30
0.0
  0
VERTEX
  5
286
  8
LAYER_1
 10
24.750294887780061
 20
50.326539100479231
 30
0.0
  0
SEQEND
  5
287
  8
LAYER_1
  0
POLYLINE
  5
229
  8
LAYER_1
 66
     1
 10
0.0
 20
0.0
 30
0.0
  0
VERTEX
  5
288
  8
LAYER_1
 10
30.64576649279477
 20
46.396224697136091
 30
0.0
  0
VERTEX
  5
289
  8
LAYER_1
 10
30.542337166391
 20
46.396224697136091
 30
0.0
  0
VERTEX
  5
28A
  8
LAYER_1
 10
30.43890783998723
 20
46.396224697136091
 30
0.0
  0
VERTEX
  5
28B
  8
LAYER_1
 10
30.33547851358346
 20
46.396224697136091
 30
0.0
  0
VERTEX
  5
28C
  8
LAYER_1
 10
30.23204918717969
 20
46.396224697136091
 30
0.0
  0
VERTEX
  5
28D
  8
LAYER_1
 10
30.128619860775931
 20
46.396224697136091
 30
0.0
  0
VERTEX
  5
28E
  8
LAYER_1
 10
30.025190534372161
 20
46.396224697136091
 30
0.0
  0
VERTEX
  5
28F
  8
LAYER_1
 10
29.921761207968391
 20
46.396224697136091
 30
0.0
  0
VERTEX
  5
290
  8
LAYER_1
 10
29.818331881564621
 20
46.396224697136091
 30
0.0
  0
VERTEX
  5
291
  8
LAYER_1
 10
29.714902555160862
 20
46.396224697136091
 30
0.0
  0
VERTEX
  5
292
  8
LAYER_1
 10
29.611473228757092
 20
46.396224697136091
 30
0.0
  0
VERTEX
  5
293
  8
LAYER_1
 10
29.508043902353322
 20
46.396224697136091
 30
0.0
  0
VERTEX
  5
294
  8
LAYER_1
 10
29.404614575949552
 20
46.396224697136091
 30
0.0
  0
VERTEX
  5
295
  8
LAYER_1
 10
29.404614575949552
 20
46.292795370732321
 30
0.0
  0
VERTEX
  5
296
  8
LAYER_1
 10
29.301185249545789
 20
46.292795370732321
 30
0.0
  0
VERTEX
  5
297
  8
LAYER_1
 10
29.301185249545789
 20
46.189366044328551
 30
0.0
  0
VERTEX
  5
298
  8
LAYER_1
 10
29.197755923142019
 20
46.189366044328551
 30
0.0
  0
VERTEX
  5
299
  8
LAYER_1
 10
29.094326596738249
 20
46.085936717924788
 30
0.0
  0
VERTEX
  5
29A
  8
LAYER_1
 10
28.990897270334479
 20
45.982507391521018
 30
0.0
  0
VERTEX
  5
29B
  8
LAYER_1
 10
28.990897270334479
 20
45.879078065117248
 30
0.0
  0
VERTEX
  5
29C
  8
LAYER_1
 10
28.887467943930709
 20
45.879078065117248
 30
0.0
  0
VERTEX
  5
29D
  8
LAYER_1
 10
28.78403861752696
 20
45.879078065117248
 30
0.0
  0
VERTEX
  5
29E
  8
LAYER_1
 10
28.78403861752696
 20
45.775648738713478
 30
0.0
  0
VERTEX
  5
29F
  8
LAYER_1
 10
28.57717996471942
 20
45.56879008590596
 30
0.0
  0
VERTEX
  5
2A0
  8
LAYER_1
 10
28.57717996471942
 20
45.46536075950219
 30
0.0
  0
VERTEX
  5
2A1
  8
LAYER_1
 10
28.57717996471942
 20
45.36193143309842
 30
0.0
  0
VERTEX
  5
2A2
  8
LAYER_1
 10
28.47375063831565
 20
45.36193143309842
 30
0.0
  0
VERTEX
  5
2A3
  8
LAYER_1
 10
28.370321311911901
 20
45.155072780290887
 30
0.0
  0
VERTEX
  5
2A4
  8
LAYER_1
 10
28.370321311911901
 20
45.051643453887117
 30
0.0
  0
VERTEX
  5
2A5
  8
LAYER_1
 10
28.266891985508131
 20
44.948214127483347
 30
0.0
  0
VERTEX
  5
2A6
  8
LAYER_1
 10
28.266891985508131
 20
44.844784801079577
 30
0.0
  0
VERTEX
  5
2A7
  8
LAYER_1
 10
28.266891985508131
 20
44.741355474675807
 30
0.0
  0
VERTEX
  5
2A8
  8
LAYER_1
 10
28.163462659104361
 20
44.637926148272051
 30
0.0
  0
VERTEX
  5
2A9
  8
LAYER_1
 10
28.060033332700591
 20
44.534496821868281
 30
0.0
  0
VERTEX
  5
2AA
  8
LAYER_1
 10
28.060033332700591
 20
44.431067495464511
 30
0.0
  0
VERTEX
  5
2AB
  8
LAYER_1
 10
28.060033332700591
 20
44.327638169060748
 30
0.0
  0
VERTEX
  5
2AC
  8
LAYER_1
 10
28.060033332700591
 20
44.224208842656992
 30
0.0
  0
VERTEX
  5
2AD
  8
LAYER_1
 10
28.060033332700591
 20
44.120779516253222
 30
0.0
  0
VERTEX
  5
2AE
  8
LAYER_1
 10
28.060033332700591
 20
43.913920863445689
 30
0.0
  0
VERTEX
  5
2AF
  8
LAYER_1
 10
28.060033332700591
 20
43.810491537041919
 30
0.0
  0
VERTEX
  5
2B0
  8
LAYER_1
 10
28.060033332700591
 20
43.707062210638149
 30
0.0
  0
VERTEX
  5
2B1
  8
LAYER_1
 10
28.060033332700591
 20
43.603632884234379
 30
0.0
  0
VERTEX
  5
2B2
  8
LAYER_1
 10
28.060033332700591
 20
43.396774231426853
 30
0.0
  0
VERTEX
  5
2B3
  8
LAYER_1
 10
28.060033332700591
 20
43.293344905023091
 30
0.0
  0
VERTEX
  5
2B4
  8
LAYER_1
 10
28.060033332700591
 20
43.189915578619321
 30
0.0
  0
VERTEX
  5
2B5
  8
LAYER_1
 10
28.060033332700591
 20
43.086486252215551
 30
0.0
  0
VERTEX
  5
2B6
  8
LAYER_1
 10
28.060033332700591
 20
42.983056925811788
 30
0.0
  0
VERTEX
  5
2B7
  8
LAYER_1
 10
28.060033332700591
 20
42.879627599408032
 30
0.0
  0
VERTEX
  5
2B8
  8
LAYER_1
 10
28.060033332700591
 20
42.776198273004262
 30
0.0
  0
VERTEX
  5
2B9
  8
LAYER_1
 10
28.060033332700591
 20
42.672768946600492
 30
0.0
  0
VERTEX
  5
2BA
  8
LAYER_1
 10
28.060033332700591
 20
42.569339620196722
 30
0.0
  0
VERTEX
  5
2BB
  8
LAYER_1
 10
28.060033332700591
 20
42.465910293792952
 30
0.0
  0
VERTEX
  5
2BC
  8
LAYER_1
 10
28.060033332700591
 20
42.362480967389182
 30
0.0
  0
VERTEX
  5
2BD
  8
LAYER_1
 10
28.163462659104361
 20
42.362480967389182
 30
0.0
  0
VERTEX
  5
2BE
  8
LAYER_1
 10
28.163462659104361
 20
42.259051640985412
 30
0.0
  0
VERTEX
  5
2BF
  8
LAYER_1
 10
28.163462659104361
 20
42.155622314581649
 30
0.0
  0
VERTEX
  5
2C0
  8
LAYER_1
 10
28.163462659104361
 20
42.052192988177893
 30
0.0
  0
VERTEX
  5
2C1
  8
LAYER_1
 10
28.163462659104361
 20
41.948763661774123
 30
0.0
  0
VERTEX
  5
2C2
  8
LAYER_1
 10
28.266891985508131
 20
41.948763661774123
 30
0.0
  0
VERTEX
  5
2C3
  8
LAYER_1
 10
28.266891985508131
 20
41.845334335370353
 30
0.0
  0
VERTEX
  5
2C4
  8
LAYER_1
 10
28.266891985508131
 20
41.741905008966583
 30
0.0
  0
VERTEX
  5
2C5
  8
LAYER_1
 10
28.370321311911901
 20
41.741905008966583
 30
0.0
  0
VERTEX
  5
2C6
  8
LAYER_1
 10
28.47375063831565
 20
41.63847568256282
 30
0.0
  0
VERTEX
  5
2C7
  8
LAYER_1
 10
28.57717996471942
 20
41.53504635615905
 30
0.0
  0
VERTEX
  5
2C8
  8
LAYER_1
 10
28.68060929112319
 20
41.53504635615905
 30
0.0
  0
VERTEX
  5
2C9
  8
LAYER_1
 10
28.68060929112319
 20
41.43161702975528
 30
0.0
  0
VERTEX
  5
2CA
  8
LAYER_1
 10
28.78403861752696
 20
41.43161702975528
 30
0.0
  0
VERTEX
  5
2CB
  8
LAYER_1
 10
28.887467943930709
 20
41.32818770335151
 30
0.0
  0
VERTEX
  5
2CC
  8
LAYER_1
 10
28.990897270334479
 20
41.32818770335151
 30
0.0
  0
VERTEX
  5
2CD
  8
LAYER_1
 10
29.094326596738249
 20
41.32818770335151
 30
0.0
  0
VERTEX
  5
2CE
  8
LAYER_1
 10
29.197755923142019
 20
41.224758376947747
 30
0.0
  0
VERTEX
  5
2CF
  8
LAYER_1
 10
29.508043902353322
 20
41.121329050543991
 30
0.0
  0
VERTEX
  5
2D0
  8
LAYER_1
 10
29.611473228757092
 20
41.121329050543991
 30
0.0
  0
VERTEX
  5
2D1
  8
LAYER_1
 10
29.714902555160862
 20
41.121329050543991
 30
0.0
  0
VERTEX
  5
2D2
  8
LAYER_1
 10
29.921761207968391
 20
41.017899724140221
 30
0.0
  0
VERTEX
  5
2D3
  8
LAYER_1
 10
30.025190534372161
 20
41.017899724140221
 30
0.0
  0
VERTEX
  5
2D4
  8
LAYER_1
 10
30.025190534372161
 20
40.914470397736451
 30
0.0
  0
VERTEX
  5
2D5
  8
LAYER_1
 10
30.64576649279477
 20
40.914470397736451
 30
0.0
  0
VERTEX
  5
2D6
  8
LAYER_1
 10
30.64576649279477
 20
40.811041071332689
 30
0.0
  0
VERTEX
  5
2D7
  8
LAYER_1
 10
30.852625145602289
 20
40.811041071332689
 30
0.0
  0
VERTEX
  5
2D8
  8
LAYER_1
 10
30.956054472006059
 20
40.811041071332689
 30
0.0
  0
VERTEX
  5
2D9
  8
LAYER_1
 10
31.059483798409829
 20
40.811041071332689
 30
0.0
  0
VERTEX
  5
2DA
  8
LAYER_1
 10
31.162913124813581
 20
40.811041071332689
 30
0.0
  0
VERTEX
  5
2DB
  8
LAYER_1
 10
31.266342451217351
 20
40.811041071332689
 30
0.0
  0
VERTEX
  5
2DC
  8
LAYER_1
 10
31.266342451217351
 20
40.707611744928933
 30
0.0
  0
VERTEX
  5
2DD
  8
LAYER_1
 10
31.99034773604372
 20
40.604182418525163
 30
0.0
  0
VERTEX
  5
2DE
  8
LAYER_1
 10
32.093777062447487
 20
40.604182418525163
 30
0.0
  0
VERTEX
  5
2DF
  8
LAYER_1
 10
32.197206388851257
 20
40.604182418525163
 30
0.0
  0
VERTEX
  5
2E0
  8
LAYER_1
 10
32.404065041658797
 20
40.604182418525163
 30
0.0
  0
VERTEX
  5
2E1
  8
LAYER_1
 10
32.610923694466322
 20
40.604182418525163
 30
0.0
  0
VERTEX
  5
2E2
  8
LAYER_1
 10
32.714353020870092
 20
40.500753092121393
 30
0.0
  0
VERTEX
  5
2E3
  8
LAYER_1
 10
32.817782347273862
 20
40.500753092121393
 30
0.0
  0
VERTEX
  5
2E4
  8
LAYER_1
 10
32.921211673677618
 20
40.500753092121393
 30
0.0
  0
VERTEX
  5
2E5
  8
LAYER_1
 10
33.438358305696447
 20
40.500753092121393
 30
0.0
  0
VERTEX
  5
2E6
  8
LAYER_1
 10
33.541787632100217
 20
40.500753092121393
 30
0.0
  0
VERTEX
  5
2E7
  8
LAYER_1
 10
33.645216958503987
 20
40.500753092121393
 30
0.0
  0
VERTEX
  5
2E8
  8
LAYER_1
 10
33.85207561131152
 20
40.500753092121393
 30
0.0
  0
VERTEX
  5
2E9
  8
LAYER_1
 10
33.95550493771529
 20
40.500753092121393
 30
0.0
  0
VERTEX
  5
2EA
  8
LAYER_1
 10
34.16236359052283
 20
40.500753092121393
 30
0.0
  0
VERTEX
  5
2EB
  8
LAYER_1
 10
34.265792916926593
 20
40.500753092121393
 30
0.0
  0
VERTEX
  5
2EC
  8
LAYER_1
 10
34.472651569734133
 20
40.500753092121393
 30
0.0
  0
VERTEX
  5
2ED
  8
LAYER_1
 10
34.782939548945421
 20
40.500753092121393
 30
0.0
  0
VERTEX
  5
2EE
  8
LAYER_1
 10
34.886368875349191
 20
40.500753092121393
 30
0.0
  0
VERTEX
  5
2EF
  8
LAYER_1
 10
34.989798201752961
 20
40.500753092121393
 30
0.0
  0
VERTEX
  5
2F0
  8
LAYER_1
 10
35.093227528156717
 20
40.500753092121393
 30
0.0
  0
VERTEX
  5
2F1
  8
LAYER_1
 10
35.196656854560487
 20
40.500753092121393
 30
0.0
  0
VERTEX
  5
2F2
  8
LAYER_1
 10
35.300086180964257
 20
40.500753092121393
 30
0.0
  0
VERTEX
  5
2F3
  8
LAYER_1
 10
35.403515507368027
 20
40.500753092121393
 30
0.0
  0
VERTEX
  5
2F4
  8
LAYER_1
 10
35.506944833771797
 20
40.500753092121393
 30
0.0
  0
VERTEX
  5
2F5
  8
LAYER_1
 10
35.610374160175553
 20
40.500753092121393
 30
0.0
  0
VERTEX
  5
2F6
  8
LAYER_1
 10
35.713803486579323
 20
40.500753092121393
 30
0.0
  0
VERTEX
  5
2F7
  8
LAYER_1
 10
35.817232812983093
 20
40.500753092121393
 30
0.0
  0
VERTEX
  5
2F8
  8
LAYER_1
 10
35.920662139386863
 20
40.500753092121393
 30
0.0
  0
VERTEX
  5
2F9
  8
LAYER_1
 10
36.024091465790619
 20
40.500753092121393
 30
0.0
  0
VERTEX
  5
2FA
  8
LAYER_1
 10
36.127520792194389
 20
40.500753092121393
 30
0.0
  0
VERTEX
  5
2FB
  8
LAYER_1
 10
36.230950118598159
 20
40.500753092121393
 30
0.0
  0
VERTEX
  5
2FC
  8
LAYER_1
 10
36.334379445001929
 20
40.500753092121393
 30
0.0
  0
VERTEX
  5
2FD
  8
LAYER_1
 10
36.437808771405692
 20
40.500753092121393
 30
0.0
  0
VERTEX
  5
2FE
  8
LAYER_1
 10
36.541238097809462
 20
40.500753092121393
 30
0.0
  0
VERTEX
  5
2FF
  8
LAYER_1
 10
36.644667424213232
 20
40.500753092121393
 30
0.0
  0
VERTEX
  5
300
  8
LAYER_1
 10
36.644667424213232
 20
40.397323765717623
 30
0.0
  0
VERTEX
  5
301
  8
LAYER_1
 10
36.748096750617002
 20
40.397323765717623
 30
0.0
  0
VERTEX
  5
302
  8
LAYER_1
 10
36.85152607702075
 20
40.293894439313853
 30
0.0
  0
VERTEX
  5
303
  8
LAYER_1
 10
36.95495540342452
 20
40.293894439313853
 30
0.0
  0
VERTEX
  5
304
  8
LAYER_1
 10
37.05838472982829
 20
40.293894439313853
 30
0.0
  0
VERTEX
  5
305
  8
LAYER_1
 10
37.05838472982829
 20
40.190465112910083
 30
0.0
  0
VERTEX
  5
306
  8
LAYER_1
 10
37.16181405623206
 20
40.190465112910083
 30
0.0
  0
VERTEX
  5
307
  8
LAYER_1
 10
37.26524338263583
 20
40.190465112910083
 30
0.0
  0
VERTEX
  5
308
  8
LAYER_1
 10
37.26524338263583
 20
40.087035786506313
 30
0.0
  0
VERTEX
  5
309
  8
LAYER_1
 10
37.472102035443363
 20
39.880177133698787
 30
0.0
  0
VERTEX
  5
30A
  8
LAYER_1
 10
37.575531361847133
 20
39.880177133698787
 30
0.0
  0
VERTEX
  5
30B
  8
LAYER_1
 10
37.575531361847133
 20
39.776747807295031
 30
0.0
  0
VERTEX
  5
30C
  8
LAYER_1
 10
37.678960688250903
 20
39.776747807295031
 30
0.0
  0
VERTEX
  5
30D
  8
LAYER_1
 10
37.782390014654652
 20
39.776747807295031
 30
0.0
  0
VERTEX
  5
30E
  8
LAYER_1
 10
37.782390014654652
 20
39.673318480891261
 30
0.0
  0
VERTEX
  5
30F
  8
LAYER_1
 10
37.782390014654652
 20
39.569889154487491
 30
0.0
  0
VERTEX
  5
310
  8
LAYER_1
 10
37.885819341058422
 20
39.569889154487491
 30
0.0
  0
VERTEX
  5
311
  8
LAYER_1
 10
37.885819341058422
 20
39.466459828083721
 30
0.0
  0
VERTEX
  5
312
  8
LAYER_1
 10
37.989248667462192
 20
39.466459828083721
 30
0.0
  0
VERTEX
  5
313
  8
LAYER_1
 10
37.989248667462192
 20
39.363030501679958
 30
0.0
  0
VERTEX
  5
314
  8
LAYER_1
 10
38.092677993865962
 20
39.363030501679958
 30
0.0
  0
VERTEX
  5
315
  8
LAYER_1
 10
38.092677993865962
 20
39.259601175276188
 30
0.0
  0
VERTEX
  5
316
  8
LAYER_1
 10
38.196107320269718
 20
39.156171848872418
 30
0.0
  0
VERTEX
  5
317
  8
LAYER_1
 10
38.196107320269718
 20
39.052742522468648
 30
0.0
  0
VERTEX
  5
318
  8
LAYER_1
 10
38.299536646673488
 20
39.052742522468648
 30
0.0
  0
VERTEX
  5
319
  8
LAYER_1
 10
38.299536646673488
 20
38.949313196064892
 30
0.0
  0
VERTEX
  5
31A
  8
LAYER_1
 10
38.299536646673488
 20
38.845883869661122
 30
0.0
  0
VERTEX
  5
31B
  8
LAYER_1
 10
38.299536646673488
 20
38.742454543257352
 30
0.0
  0
VERTEX
  5
31C
  8
LAYER_1
 10
38.402965973077258
 20
38.742454543257352
 30
0.0
  0
VERTEX
  5
31D
  8
LAYER_1
 10
38.506395299481028
 20
38.639025216853589
 30
0.0
  0
VERTEX
  5
31E
  8
LAYER_1
 10
38.506395299481028
 20
38.535595890449819
 30
0.0
  0
VERTEX
  5
31F
  8
LAYER_1
 10
38.506395299481028
 20
38.432166564046057
 30
0.0
  0
VERTEX
  5
320
  8
LAYER_1
 10
38.506395299481028
 20
38.328737237642287
 30
0.0
  0
VERTEX
  5
321
  8
LAYER_1
 10
38.609824625884791
 20
38.121878584834761
 30
0.0
  0
VERTEX
  5
322
  8
LAYER_1
 10
38.609824625884791
 20
38.018449258430991
 30
0.0
  0
VERTEX
  5
323
  8
LAYER_1
 10
38.713253952288561
 20
37.915019932027221
 30
0.0
  0
VERTEX
  5
324
  8
LAYER_1
 10
38.713253952288561
 20
37.811590605623451
 30
0.0
  0
VERTEX
  5
325
  8
LAYER_1
 10
38.816683278692331
 20
37.708161279219688
 30
0.0
  0
VERTEX
  5
326
  8
LAYER_1
 10
38.816683278692331
 20
37.604731952815932
 30
0.0
  0
VERTEX
  5
327
  8
LAYER_1
 10
38.816683278692331
 20
37.397873300008392
 30
0.0
  0
VERTEX
  5
328
  8
LAYER_1
 10
38.920112605096101
 20
37.294443973604622
 30
0.0
  0
VERTEX
  5
329
  8
LAYER_1
 10
38.920112605096101
 20
37.191014647200859
 30
0.0
  0
VERTEX
  5
32A
  8
LAYER_1
 10
38.920112605096101
 20
37.087585320797089
 30
0.0
  0
VERTEX
  5
32B
  8
LAYER_1
 10
38.920112605096101
 20
36.984155994393319
 30
0.0
  0
VERTEX
  5
32C
  8
LAYER_1
 10
38.920112605096101
 20
36.880726667989549
 30
0.0
  0
VERTEX
  5
32D
  8
LAYER_1
 10
38.920112605096101
 20
36.777297341585793
 30
0.0
  0
VERTEX
  5
32E
  8
LAYER_1
 10
38.920112605096101
 20
36.570438688778253
 30
0.0
  0
VERTEX
  5
32F
  8
LAYER_1
 10
38.920112605096101
 20
36.467009362374483
 30
0.0
  0
VERTEX
  5
330
  8
LAYER_1
 10
38.920112605096101
 20
36.36358003597072
 30
0.0
  0
VERTEX
  5
331
  8
LAYER_1
 10
38.920112605096101
 20
36.260150709566958
 30
0.0
  0
VERTEX
  5
332
  8
LAYER_1
 10
38.920112605096101
 20
36.156721383163188
 30
0.0
  0
VERTEX
  5
333
  8
LAYER_1
 10
38.920112605096101
 20
36.053292056759418
 30
0.0
  0
VERTEX
  5
334
  8
LAYER_1
 10
38.920112605096101
 20
35.846433403951892
 30
0.0
  0
VERTEX
  5
335
  8
LAYER_1
 10
38.920112605096101
 20
35.743004077548122
 30
0.0
  0
VERTEX
  5
336
  8
LAYER_1
 10
38.920112605096101
 20
35.639574751144352
 30
0.0
  0
VERTEX
  5
337
  8
LAYER_1
 10
38.920112605096101
 20
35.536145424740589
 30
0.0
  0
VERTEX
  5
338
  8
LAYER_1
 10
38.920112605096101
 20
35.432716098336833
 30
0.0
  0
VERTEX
  5
339
  8
LAYER_1
 10
38.920112605096101
 20
35.329286771933063
 30
0.0
  0
VERTEX
  5
33A
  8
LAYER_1
 10
38.920112605096101
 20
35.225857445529293
 30
0.0
  0
VERTEX
  5
33B
  8
LAYER_1
 10
38.920112605096101
 20
35.122428119125523
 30
0.0
  0
VERTEX
  5
33C
  8
LAYER_1
 10
38.920112605096101
 20
35.018998792721753
 30
0.0
  0
VERTEX
  5
33D
  8
LAYER_1
 10
38.920112605096101
 20
34.91556946631799
 30
0.0
  0
VERTEX
  5
33E
  8
LAYER_1
 10
38.816683278692331
 20
34.81214013991422
 30
0.0
  0
VERTEX
  5
33F
  8
LAYER_1
 10
38.816683278692331
 20
34.70871081351045
 30
0.0
  0
VERTEX
  5
340
  8
LAYER_1
 10
38.713253952288561
 20
34.70871081351045
 30
0.0
  0
VERTEX
  5
341
  8
LAYER_1
 10
38.713253952288561
 20
34.605281487106687
 30
0.0
  0
VERTEX
  5
342
  8
LAYER_1
 10
38.713253952288561
 20
34.501852160702931
 30
0.0
  0
VERTEX
  5
343
  8
LAYER_1
 10
38.609824625884791
 20
34.398422834299161
 30
0.0
  0
VERTEX
  5
344
  8
LAYER_1
 10
38.609824625884791
 20
34.294993507895391
 30
0.0
  0
VERTEX
  5
345
  8
LAYER_1
 10
38.609824625884791
 20
34.191564181491621
 30
0.0
  0
VERTEX
  5
346
  8
LAYER_1
 10
38.506395299481028
 20
34.191564181491621
 30
0.0
  0
VERTEX
  5
347
  8
LAYER_1
 10
38.506395299481028
 20
34.088134855087858
 30
0.0
  0
VERTEX
  5
348
  8
LAYER_1
 10
38.402965973077258
 20
34.088134855087858
 30
0.0
  0
VERTEX
  5
349
  8
LAYER_1
 10
38.402965973077258
 20
33.984705528684088
 30
0.0
  0
VERTEX
  5
34A
  8
LAYER_1
 10
38.299536646673488
 20
33.984705528684088
 30
0.0
  0
VERTEX
  5
34B
  8
LAYER_1
 10
38.299536646673488
 20
33.881276202280318
 30
0.0
  0
VERTEX
  5
34C
  8
LAYER_1
 10
38.196107320269718
 20
33.881276202280318
 30
0.0
  0
VERTEX
  5
34D
  8
LAYER_1
 10
38.196107320269718
 20
33.777846875876563
 30
0.0
  0
VERTEX
  5
34E
  8
LAYER_1
 10
38.092677993865962
 20
33.674417549472793
 30
0.0
  0
VERTEX
  5
34F
  8
LAYER_1
 10
37.989248667462192
 20
33.674417549472793
 30
0.0
  0
VERTEX
  5
350
  8
LAYER_1
 10
37.885819341058422
 20
33.674417549472793
 30
0.0
  0
VERTEX
  5
351
  8
LAYER_1
 10
37.885819341058422
 20
33.570988223069023
 30
0.0
  0
VERTEX
  5
352
  8
LAYER_1
 10
37.678960688250903
 20
33.570988223069023
 30
0.0
  0
VERTEX
  5
353
  8
LAYER_1
 10
37.575531361847133
 20
33.570988223069023
 30
0.0
  0
VERTEX
  5
354
  8
LAYER_1
 10
37.575531361847133
 20
33.467558896665253
 30
0.0
  0
VERTEX
  5
355
  8
LAYER_1
 10
37.472102035443363
 20
33.467558896665253
 30
0.0
  0
VERTEX
  5
356
  8
LAYER_1
 10
37.368672709039593
 20
33.467558896665253
 30
0.0
  0
VERTEX
  5
357
  8
LAYER_1
 10
37.26524338263583
 20
33.467558896665253
 30
0.0
  0
VERTEX
  5
358
  8
LAYER_1
 10
37.26524338263583
 20
33.364129570261483
 30
0.0
  0
VERTEX
  5
359
  8
LAYER_1
 10
37.16181405623206
 20
33.364129570261483
 30
0.0
  0
VERTEX
  5
35A
  8
LAYER_1
 10
37.05838472982829
 20
33.364129570261483
 30
0.0
  0
VERTEX
  5
35B
  8
LAYER_1
 10
36.95495540342452
 20
33.364129570261483
 30
0.0
  0
VERTEX
  5
35C
  8
LAYER_1
 10
36.85152607702075
 20
33.364129570261483
 30
0.0
  0
VERTEX
  5
35D
  8
LAYER_1
 10
36.85152607702075
 20
33.26070024385772
 30
0.0
  0
VERTEX
  5
35E
  8
LAYER_1
 10
36.748096750617002
 20
33.26070024385772
 30
0.0
  0
VERTEX
  5
35F
  8
LAYER_1
 10
36.644667424213232
 20
33.26070024385772
 30
0.0
  0
VERTEX
  5
360
  8
LAYER_1
 10
36.541238097809462
 20
33.26070024385772
 30
0.0
  0
VERTEX
  5
361
  8
LAYER_1
 10
36.437808771405692
 20
33.26070024385772
 30
0.0
  0
VERTEX
  5
362
  8
LAYER_1
 10
36.334379445001929
 20
33.26070024385772
 30
0.0
  0
VERTEX
  5
363
  8
LAYER_1
 10
36.230950118598159
 20
33.26070024385772
 30
0.0
  0
VERTEX
  5
364
  8
LAYER_1
 10
36.127520792194389
 20
33.26070024385772
 30
0.0
  0
VERTEX
  5
365
  8
LAYER_1
 10
36.024091465790619
 20
33.26070024385772
 30
0.0
  0
VERTEX
  5
366
  8
LAYER_1
 10
35.920662139386863
 20
33.26070024385772
 30
0.0
  0
VERTEX
  5
367
  8
LAYER_1
 10
35.817232812983093
 20
33.26070024385772
 30
0.0
  0
VERTEX
  5
368
  8
LAYER_1
 10
35.713803486579323
 20
33.26070024385772
 30
0.0
  0
VERTEX
  5
369
  8
LAYER_1
 10
35.610374160175553
 20
33.26070024385772
 30
0.0
  0
VERTEX
  5
36A
  8
LAYER_1
 10
35.506944833771797
 20
33.26070024385772
 30
0.0
  0
VERTEX
  5
36B
  8
LAYER_1
 10
35.403515507368027
 20
33.26070024385772
 30
0.0
  0
VERTEX
  5
36C
  8
LAYER_1
 10
35.300086180964257
 20
33.26070024385772
 30
0.0
  0
VERTEX
  5
36D
  8
LAYER_1
 10
35.196656854560487
 20
33.26070024385772
 30
0.0
  0
VERTEX
  5
36E
  8
LAYER_1
 10
35.093227528156717
 20
33.26070024385772
 30
0.0
  0
VERTEX
  5
36F
  8
LAYER_1
 10
34.989798201752961
 20
33.26070024385772
 30
0.0
  0
VERTEX
  5
370
  8
LAYER_1
 10
34.886368875349191
 20
33.26070024385772
 30
0.0
  0
VERTEX
  5
371
  8
LAYER_1
 10
34.782939548945421
 20
33.364129570261483
 30
0.0
  0
VERTEX
  5
372
  8
LAYER_1
 10
34.679510222541651
 20
33.364129570261483
 30
0.0
  0
VERTEX
  5
373
  8
LAYER_1
 10
34.576080896137903
 20
33.364129570261483
 30
0.0
  0
VERTEX
  5
374
  8
LAYER_1
 10
34.576080896137903
 20
33.467558896665253
 30
0.0
  0
VERTEX
  5
375
  8
LAYER_1
 10
34.472651569734133
 20
33.467558896665253
 30
0.0
  0
VERTEX
  5
376
  8
LAYER_1
 10
34.369222243330363
 20
33.364129570261483
 30
0.0
  0
VERTEX
  5
377
  8
LAYER_1
 10
34.265792916926593
 20
33.26070024385772
 30
0.0
  0
VERTEX
  5
378
  8
LAYER_1
 10
34.265792916926593
 20
33.157270917453957
 30
0.0
  0
VERTEX
  5
379
  8
LAYER_1
 10
34.16236359052283
 20
33.157270917453957
 30
0.0
  0
VERTEX
  5
37A
  8
LAYER_1
 10
34.16236359052283
 20
33.053841591050187
 30
0.0
  0
VERTEX
  5
37B
  8
LAYER_1
 10
34.05893426411906
 20
32.950412264646417
 30
0.0
  0
VERTEX
  5
37C
  8
LAYER_1
 10
33.95550493771529
 20
32.846982938242647
 30
0.0
  0
VERTEX
  5
37D
  8
LAYER_1
 10
33.85207561131152
 20
32.743553611838891
 30
0.0
  0
VERTEX
  5
37E
  8
LAYER_1
 10
33.85207561131152
 20
32.640124285435121
 30
0.0
  0
VERTEX
  5
37F
  8
LAYER_1
 10
33.74864628490775
 20
32.640124285435121
 30
0.0
  0
VERTEX
  5
380
  8
LAYER_1
 10
33.645216958503987
 20
32.536694959031351
 30
0.0
  0
VERTEX
  5
381
  8
LAYER_1
 10
33.645216958503987
 20
32.433265632627588
 30
0.0
  0
VERTEX
  5
382
  8
LAYER_1
 10
33.541787632100217
 20
32.433265632627588
 30
0.0
  0
VERTEX
  5
383
  8
LAYER_1
 10
33.438358305696447
 20
32.226406979820062
 30
0.0
  0
VERTEX
  5
384
  8
LAYER_1
 10
33.334928979292677
 20
32.122977653416292
 30
0.0
  0
VERTEX
  5
385
  8
LAYER_1
 10
33.231499652888928
 20
32.019548327012529
 30
0.0
  0
VERTEX
  5
386
  8
LAYER_1
 10
33.231499652888928
 20
31.916119000608759
 30
0.0
  0
VERTEX
  5
387
  8
LAYER_1
 10
33.128070326485158
 20
31.812689674204989
 30
0.0
  0
VERTEX
  5
388
  8
LAYER_1
 10
33.128070326485158
 20
31.709260347801219
 30
0.0
  0
VERTEX
  5
389
  8
LAYER_1
 10
33.024641000081388
 20
31.709260347801219
 30
0.0
  0
VERTEX
  5
38A
  8
LAYER_1
 10
32.921211673677618
 20
31.605831021397449
 30
0.0
  0
VERTEX
  5
38B
  8
LAYER_1
 10
32.714353020870092
 20
30.985255062974861
 30
0.0
  0
VERTEX
  5
38C
  8
LAYER_1
 10
32.507494368062552
 20
30.778396410167321
 30
0.0
  0
VERTEX
  5
38D
  8
LAYER_1
 10
32.300635715255027
 20
30.05439112534096
 30
0.0
  0
VERTEX
  5
38E
  8
LAYER_1
 10
32.300635715255027
 20
29.95096179893719
 30
0.0
  0
VERTEX
  5
38F
  8
LAYER_1
 10
32.300635715255027
 20
29.84753247253343
 30
0.0
  0
VERTEX
  5
390
  8
LAYER_1
 10
32.300635715255027
 20
29.74410314612966
 30
0.0
  0
VERTEX
  5
391
  8
LAYER_1
 10
32.300635715255027
 20
29.53724449332212
 30
0.0
  0
VERTEX
  5
392
  8
LAYER_1
 10
32.300635715255027
 20
29.43381516691835
 30
0.0
  0
VERTEX
  5
393
  8
LAYER_1
 10
32.300635715255027
 20
29.330385840514591
 30
0.0
  0
VERTEX
  5
394
  8
LAYER_1
 10
32.300635715255027
 20
29.226956514110821
 30
0.0
  0
VERTEX
  5
395
  8
LAYER_1
 10
32.300635715255027
 20
29.123527187707051
 30
0.0
  0
VERTEX
  5
396
  8
LAYER_1
 10
32.300635715255027
 20
29.020097861303281
 30
0.0
  0
VERTEX
  5
397
  8
LAYER_1
 10
32.300635715255027
 20
28.916668534899522
 30
0.0
  0
VERTEX
  5
398
  8
LAYER_1
 10
32.300635715255027
 20
28.813239208495752
 30
0.0
  0
VERTEX
  5
399
  8
LAYER_1
 10
32.300635715255027
 20
28.606380555688219
 30
0.0
  0
VERTEX
  5
39A
  8
LAYER_1
 10
32.404065041658797
 20
28.606380555688219
 30
0.0
  0
VERTEX
  5
39B
  8
LAYER_1
 10
32.404065041658797
 20
28.502951229284459
 30
0.0
  0
VERTEX
  5
39C
  8
LAYER_1
 10
32.404065041658797
 20
28.399521902880689
 30
0.0
  0
VERTEX
  5
39D
  8
LAYER_1
 10
32.507494368062552
 20
28.296092576476919
 30
0.0
  0
VERTEX
  5
39E
  8
LAYER_1
 10
32.507494368062552
 20
28.192663250073149
 30
0.0
  0
VERTEX
  5
39F
  8
LAYER_1
 10
32.610923694466322
 20
28.192663250073149
 30
0.0
  0
VERTEX
  5
3A0
  8
LAYER_1
 10
32.610923694466322
 20
28.08923392366939
 30
0.0
  0
VERTEX
  5
3A1
  8
LAYER_1
 10
32.714353020870092
 20
27.882375270861861
 30
0.0
  0
VERTEX
  5
3A2
  8
LAYER_1
 10
32.714353020870092
 20
27.778945944458091
 30
0.0
  0
VERTEX
  5
3A3
  8
LAYER_1
 10
32.817782347273862
 20
27.778945944458091
 30
0.0
  0
VERTEX
  5
3A4
  8
LAYER_1
 10
32.817782347273862
 20
27.675516618054321
 30
0.0
  0
VERTEX
  5
3A5
  8
LAYER_1
 10
32.921211673677618
 20
27.675516618054321
 30
0.0
  0
VERTEX
  5
3A6
  8
LAYER_1
 10
32.921211673677618
 20
27.572087291650561
 30
0.0
  0
VERTEX
  5
3A7
  8
LAYER_1
 10
33.024641000081388
 20
27.468657965246791
 30
0.0
  0
VERTEX
  5
3A8
  8
LAYER_1
 10
33.128070326485158
 20
27.365228638843021
 30
0.0
  0
VERTEX
  5
3A9
  8
LAYER_1
 10
33.128070326485158
 20
27.261799312439251
 30
0.0
  0
VERTEX
  5
3AA
  8
LAYER_1
 10
33.231499652888928
 20
27.158369986035488
 30
0.0
  0
VERTEX
  5
3AB
  8
LAYER_1
 10
33.334928979292677
 20
27.158369986035488
 30
0.0
  0
VERTEX
  5
3AC
  8
LAYER_1
 10
33.334928979292677
 20
27.054940659631718
 30
0.0
  0
VERTEX
  5
3AD
  8
LAYER_1
 10
33.438358305696447
 20
27.054940659631718
 30
0.0
  0
VERTEX
  5
3AE
  8
LAYER_1
 10
33.438358305696447
 20
26.951511333227948
 30
0.0
  0
VERTEX
  5
3AF
  8
LAYER_1
 10
33.541787632100217
 20
26.951511333227948
 30
0.0
  0
VERTEX
  5
3B0
  8
LAYER_1
 10
33.645216958503987
 20
26.848082006824178
 30
0.0
  0
VERTEX
  5
3B1
  8
LAYER_1
 10
33.74864628490775
 20
26.848082006824178
 30
0.0
  0
VERTEX
  5
3B2
  8
LAYER_1
 10
33.74864628490775
 20
26.744652680420419
 30
0.0
  0
VERTEX
  5
3B3
  8
LAYER_1
 10
33.85207561131152
 20
26.744652680420419
 30
0.0
  0
VERTEX
  5
3B4
  8
LAYER_1
 10
33.85207561131152
 20
26.641223354016649
 30
0.0
  0
VERTEX
  5
3B5
  8
LAYER_1
 10
33.95550493771529
 20
26.641223354016649
 30
0.0
  0
VERTEX
  5
3B6
  8
LAYER_1
 10
34.05893426411906
 20
26.641223354016649
 30
0.0
  0
VERTEX
  5
3B7
  8
LAYER_1
 10
34.05893426411906
 20
26.53779402761289
 30
0.0
  0
VERTEX
  5
3B8
  8
LAYER_1
 10
34.16236359052283
 20
26.43436470120912
 30
0.0
  0
VERTEX
  5
3B9
  8
LAYER_1
 10
34.265792916926593
 20
26.43436470120912
 30
0.0
  0
VERTEX
  5
3BA
  8
LAYER_1
 10
34.369222243330363
 20
26.33093537480536
 30
0.0
  0
VERTEX
  5
3BB
  8
LAYER_1
 10
34.472651569734133
 20
26.33093537480536
 30
0.0
  0
VERTEX
  5
3BC
  8
LAYER_1
 10
34.576080896137903
 20
26.22750604840159
 30
0.0
  0
VERTEX
  5
3BD
  8
LAYER_1
 10
34.679510222541651
 20
26.22750604840159
 30
0.0
  0
VERTEX
  5
3BE
  8
LAYER_1
 10
34.782939548945421
 20
26.22750604840159
 30
0.0
  0
VERTEX
  5
3BF
  8
LAYER_1
 10
34.782939548945421
 20
26.12407672199782
 30
0.0
  0
VERTEX
  5
3C0
  8
LAYER_1
 10
34.886368875349191
 20
26.12407672199782
 30
0.0
  0
VERTEX
  5
3C1
  8
LAYER_1
 10
34.989798201752961
 20
26.12407672199782
 30
0.0
  0
VERTEX
  5
3C2
  8
LAYER_1
 10
34.989798201752961
 20
26.020647395594061
 30
0.0
  0
VERTEX
  5
3C3
  8
LAYER_1
 10
35.093227528156717
 20
26.020647395594061
 30
0.0
  0
VERTEX
  5
3C4
  8
LAYER_1
 10
35.196656854560487
 20
26.020647395594061
 30
0.0
  0
VERTEX
  5
3C5
  8
LAYER_1
 10
35.300086180964257
 20
26.020647395594061
 30
0.0
  0
VERTEX
  5
3C6
  8
LAYER_1
 10
35.403515507368027
 20
26.020647395594061
 30
0.0
  0
VERTEX
  5
3C7
  8
LAYER_1
 10
35.506944833771797
 20
26.020647395594061
 30
0.0
  0
VERTEX
  5
3C8
  8
LAYER_1
 10
35.610374160175553
 20
26.020647395594061
 30
0.0
  0
VERTEX
  5
3C9
  8
LAYER_1
 10
35.713803486579323
 20
26.020647395594061
 30
0.0
  0
VERTEX
  5
3CA
  8
LAYER_1
 10
35.817232812983093
 20
26.020647395594061
 30
0.0
  0
VERTEX
  5
3CB
  8
LAYER_1
 10
35.920662139386863
 20
26.020647395594061
 30
0.0
  0
VERTEX
  5
3CC
  8
LAYER_1
 10
36.024091465790619
 20
26.020647395594061
 30
0.0
  0
VERTEX
  5
3CD
  8
LAYER_1
 10
36.127520792194389
 20
26.020647395594061
 30
0.0
  0
VERTEX
  5
3CE
  8
LAYER_1
 10
36.230950118598159
 20
26.020647395594061
 30
0.0
  0
VERTEX
  5
3CF
  8
LAYER_1
 10
36.334379445001929
 20
26.020647395594061
 30
0.0
  0
VERTEX
  5
3D0
  8
LAYER_1
 10
36.437808771405692
 20
26.020647395594061
 30
0.0
  0
VERTEX
  5
3D1
  8
LAYER_1
 10
36.541238097809462
 20
26.020647395594061
 30
0.0
  0
VERTEX
  5
3D2
  8
LAYER_1
 10
36.644667424213232
 20
26.020647395594061
 30
0.0
  0
VERTEX
  5
3D3
  8
LAYER_1
 10
36.748096750617002
 20
26.020647395594061
 30
0.0
  0
VERTEX
  5
3D4
  8
LAYER_1
 10
36.85152607702075
 20
26.020647395594061
 30
0.0
  0
VERTEX
  5
3D5
  8
LAYER_1
 10
36.95495540342452
 20
26.020647395594061
 30
0.0
  0
VERTEX
  5
3D6
  8
LAYER_1
 10
37.05838472982829
 20
26.020647395594061
 30
0.0
  0
VERTEX
  5
3D7
  8
LAYER_1
 10
37.16181405623206
 20
26.020647395594061
 30
0.0
  0
VERTEX
  5
3D8
  8
LAYER_1
 10
37.26524338263583
 20
26.020647395594061
 30
0.0
  0
VERTEX
  5
3D9
  8
LAYER_1
 10
37.575531361847133
 20
26.020647395594061
 30
0.0
  0
VERTEX
  5
3DA
  8
LAYER_1
 10
37.989248667462192
 20
26.020647395594061
 30
0.0
  0
VERTEX
  5
3DB
  8
LAYER_1
 10
38.092677993865962
 20
26.020647395594061
 30
0.0
  0
VERTEX
  5
3DC
  8
LAYER_1
 10
38.196107320269718
 20
26.020647395594061
 30
0.0
  0
VERTEX
  5
3DD
  8
LAYER_1
 10
38.299536646673488
 20
26.020647395594061
 30
0.0
  0
VERTEX
  5
3DE
  8
LAYER_1
 10
38.609824625884791
 20
26.020647395594061
 30
0.0
  0
VERTEX
  5
3DF
  8
LAYER_1
 10
38.713253952288561
 20
26.020647395594061
 30
0.0
  0
VERTEX
  5
3E0
  8
LAYER_1
 10
38.816683278692331
 20
26.020647395594061
 30
0.0
  0
VERTEX
  5
3E1
  8
LAYER_1
 10
38.920112605096101
 20
26.020647395594061
 30
0.0
  0
VERTEX
  5
3E2
  8
LAYER_1
 10
39.023541931499871
 20
26.020647395594061
 30
0.0
  0
VERTEX
  5
3E3
  8
LAYER_1
 10
39.12697125790362
 20
26.020647395594061
 30
0.0
  0
VERTEX
  5
3E4
  8
LAYER_1
 10
39.23040058430739
 20
26.020647395594061
 30
0.0
  0
VERTEX
  5
3E5
  8
LAYER_1
 10
39.33382991071116
 20
26.020647395594061
 30
0.0
  0
VERTEX
  5
3E6
  8
LAYER_1
 10
39.644117889922462
 20
26.020647395594061
 30
0.0
  0
VERTEX
  5
3E7
  8
LAYER_1
 10
39.747547216326232
 20
26.020647395594061
 30
0.0
  0
VERTEX
  5
3E8
  8
LAYER_1
 10
40.057835195537521
 20
25.917218069190291
 30
0.0
  0
VERTEX
  5
3E9
  8
LAYER_1
 10
40.161264521941291
 20
25.917218069190291
 30
0.0
  0
VERTEX
  5
3EA
  8
LAYER_1
 10
40.264693848345061
 20
25.917218069190291
 30
0.0
  0
VERTEX
  5
3EB
  8
LAYER_1
 10
40.368123174748817
 20
25.813788742786521
 30
0.0
  0
VERTEX
  5
3EC
  8
LAYER_1
 10
40.678411153960127
 20
25.710359416382751
 30
0.0
  0
VERTEX
  5
3ED
  8
LAYER_1
 10
40.781840480363897
 20
25.710359416382751
 30
0.0
  0
VERTEX
  5
3EE
  8
LAYER_1
 10
40.885269806767653
 20
25.606930089978992
 30
0.0
  0
VERTEX
  5
3EF
  8
LAYER_1
 10
40.988699133171423
 20
25.606930089978992
 30
0.0
  0
VERTEX
  5
3F0
  8
LAYER_1
 10
41.092128459575193
 20
25.606930089978992
 30
0.0
  0
VERTEX
  5
3F1
  8
LAYER_1
 10
41.195557785978963
 20
25.503500763575222
 30
0.0
  0
VERTEX
  5
3F2
  8
LAYER_1
 10
41.298987112382711
 20
25.503500763575222
 30
0.0
  0
VERTEX
  5
3F3
  8
LAYER_1
 10
41.402416438786481
 20
25.400071437171459
 30
0.0
  0
VERTEX
  5
3F4
  8
LAYER_1
 10
41.609275091594021
 20
25.296642110767689
 30
0.0
  0
VERTEX
  5
3F5
  8
LAYER_1
 10
41.712704417997777
 20
25.193212784363919
 30
0.0
  0
VERTEX
  5
3F6
  8
LAYER_1
 10
41.816133744401547
 20
25.193212784363919
 30
0.0
  0
VERTEX
  5
3F7
  8
LAYER_1
 10
41.919563070805317
 20
25.089783457960149
 30
0.0
  0
VERTEX
  5
3F8
  8
LAYER_1
 10
41.919563070805317
 20
24.986354131556389
 30
0.0
  0
VERTEX
  5
3F9
  8
LAYER_1
 10
42.022992397209087
 20
24.986354131556389
 30
0.0
  0
VERTEX
  5
3FA
  8
LAYER_1
 10
42.12642172361285
 20
24.882924805152619
 30
0.0
  0
VERTEX
  5
3FB
  8
LAYER_1
 10
42.22985105001662
 20
24.882924805152619
 30
0.0
  0
VERTEX
  5
3FC
  8
LAYER_1
 10
42.33328037642039
 20
24.77949547874886
 30
0.0
  0
VERTEX
  5
3FD
  8
LAYER_1
 10
42.43670970282416
 20
24.67606615234509
 30
0.0
  0
VERTEX
  5
3FE
  8
LAYER_1
 10
42.43670970282416
 20
24.57263682594132
 30
0.0
  0
VERTEX
  5
3FF
  8
LAYER_1
 10
42.54013902922793
 20
24.57263682594132
 30
0.0
  0
VERTEX
  5
400
  8
LAYER_1
 10
42.643568355631693
 20
24.46920749953755
 30
0.0
  0
VERTEX
  5
401
  8
LAYER_1
 10
42.746997682035463
 20
24.36577817313378
 30
0.0
  0
VERTEX
  5
402
  8
LAYER_1
 10
42.746997682035463
 20
24.262348846730021
 30
0.0
  0
VERTEX
  5
403
  8
LAYER_1
 10
42.746997682035463
 20
24.158919520326251
 30
0.0
  0
VERTEX
  5
404
  8
LAYER_1
 10
42.850427008439233
 20
24.158919520326251
 30
0.0
  0
VERTEX
  5
405
  8
LAYER_1
 10
42.850427008439233
 20
24.055490193922491
 30
0.0
  0
VERTEX
  5
406
  8
LAYER_1
 10
42.953856334843003
 20
24.055490193922491
 30
0.0
  0
VERTEX
  5
407
  8
LAYER_1
 10
42.953856334843003
 20
23.952060867518721
 30
0.0
  0
VERTEX
  5
408
  8
LAYER_1
 10
43.057285661246752
 20
23.848631541114958
 30
0.0
  0
VERTEX
  5
409
  8
LAYER_1
 10
43.057285661246752
 20
23.745202214711188
 30
0.0
  0
VERTEX
  5
40A
  8
LAYER_1
 10
43.057285661246752
 20
23.641772888307418
 30
0.0
  0
VERTEX
  5
40B
  8
LAYER_1
 10
43.057285661246752
 20
23.538343561903648
 30
0.0
  0
VERTEX
  5
40C
  8
LAYER_1
 10
43.160714987650522
 20
23.434914235499889
 30
0.0
  0
VERTEX
  5
40D
  8
LAYER_1
 10
43.160714987650522
 20
23.331484909096119
 30
0.0
  0
VERTEX
  5
40E
  8
LAYER_1
 10
43.160714987650522
 20
23.228055582692349
 30
0.0
  0
VERTEX
  5
40F
  8
LAYER_1
 10
43.160714987650522
 20
23.124626256288579
 30
0.0
  0
VERTEX
  5
410
  8
LAYER_1
 10
43.160714987650522
 20
23.02119692988482
 30
0.0
  0
VERTEX
  5
411
  8
LAYER_1
 10
43.160714987650522
 20
22.91776760348105
 30
0.0
  0
VERTEX
  5
412
  8
LAYER_1
 10
43.160714987650522
 20
22.81433827707728
 30
0.0
  0
VERTEX
  5
413
  8
LAYER_1
 10
43.160714987650522
 20
22.71090895067352
 30
0.0
  0
VERTEX
  5
414
  8
LAYER_1
 10
43.160714987650522
 20
22.60747962426975
 30
0.0
  0
VERTEX
  5
415
  8
LAYER_1
 10
43.057285661246752
 20
22.60747962426975
 30
0.0
  0
VERTEX
  5
416
  8
LAYER_1
 10
43.057285661246752
 20
22.504050297865991
 30
0.0
  0
VERTEX
  5
417
  8
LAYER_1
 10
42.953856334843003
 20
22.400620971462221
 30
0.0
  0
VERTEX
  5
418
  8
LAYER_1
 10
42.953856334843003
 20
22.297191645058462
 30
0.0
  0
VERTEX
  5
419
  8
LAYER_1
 10
42.850427008439233
 20
22.193762318654692
 30
0.0
  0
VERTEX
  5
41A
  8
LAYER_1
 10
42.850427008439233
 20
22.090332992250922
 30
0.0
  0
VERTEX
  5
41B
  8
LAYER_1
 10
42.850427008439233
 20
21.986903665847152
 30
0.0
  0
VERTEX
  5
41C
  8
LAYER_1
 10
42.746997682035463
 20
21.986903665847152
 30
0.0
  0
VERTEX
  5
41D
  8
LAYER_1
 10
42.746997682035463
 20
21.883474339443389
 30
0.0
  0
VERTEX
  5
41E
  8
LAYER_1
 10
42.643568355631693
 20
21.883474339443389
 30
0.0
  0
VERTEX
  5
41F
  8
LAYER_1
 10
42.643568355631693
 20
21.780045013039619
 30
0.0
  0
VERTEX
  5
420
  8
LAYER_1
 10
42.54013902922793
 20
21.676615686635859
 30
0.0
  0
VERTEX
  5
421
  8
LAYER_1
 10
42.54013902922793
 20
21.573186360232089
 30
0.0
  0
VERTEX
  5
422
  8
LAYER_1
 10
42.43670970282416
 20
21.469757033828319
 30
0.0
  0
VERTEX
  5
423
  8
LAYER_1
 10
42.43670970282416
 20
21.366327707424549
 30
0.0
  0
VERTEX
  5
424
  8
LAYER_1
 10
42.33328037642039
 20
21.366327707424549
 30
0.0
  0
VERTEX
  5
425
  8
LAYER_1
 10
42.22985105001662
 20
21.26289838102079
 30
0.0
  0
VERTEX
  5
426
  8
LAYER_1
 10
42.22985105001662
 20
21.15946905461702
 30
0.0
  0
VERTEX
  5
427
  8
LAYER_1
 10
42.12642172361285
 20
21.15946905461702
 30
0.0
  0
VERTEX
  5
428
  8
LAYER_1
 10
42.12642172361285
 20
21.05603972821325
 30
0.0
  0
VERTEX
  5
429
  8
LAYER_1
 10
42.022992397209087
 20
20.952610401809491
 30
0.0
  0
VERTEX
  5
42A
  8
LAYER_1
 10
41.919563070805317
 20
20.849181075405721
 30
0.0
  0
VERTEX
  5
42B
  8
LAYER_1
 10
41.816133744401547
 20
20.745751749001951
 30
0.0
  0
VERTEX
  5
42C
  8
LAYER_1
 10
41.816133744401547
 20
20.642322422598181
 30
0.0
  0
VERTEX
  5
42D
  8
LAYER_1
 10
41.712704417997777
 20
20.642322422598181
 30
0.0
  0
VERTEX
  5
42E
  8
LAYER_1
 10
41.712704417997777
 20
20.538893096194421
 30
0.0
  0
VERTEX
  5
42F
  8
LAYER_1
 10
41.609275091594021
 20
20.538893096194421
 30
0.0
  0
VERTEX
  5
430
  8
LAYER_1
 10
41.505845765190251
 20
20.435463769790651
 30
0.0
  0
VERTEX
  5
431
  8
LAYER_1
 10
41.298987112382711
 20
20.228605116983118
 30
0.0
  0
VERTEX
  5
432
  8
LAYER_1
 10
41.195557785978963
 20
20.228605116983118
 30
0.0
  0
VERTEX
  5
433
  8
LAYER_1
 10
41.092128459575193
 20
20.228605116983118
 30
0.0
  0
VERTEX
  5
434
  8
LAYER_1
 10
41.092128459575193
 20
20.125175790579359
 30
0.0
  0
VERTEX
  5
435
  8
LAYER_1
 10
40.988699133171423
 20
20.125175790579359
 30
0.0
  0
VERTEX
  5
436
  8
LAYER_1
 10
40.988699133171423
 20
20.021746464175589
 30
0.0
  0
VERTEX
  5
437
  8
LAYER_1
 10
40.885269806767653
 20
20.021746464175589
 30
0.0
  0
VERTEX
  5
438
  8
LAYER_1
 10
40.781840480363897
 20
19.918317137771819
 30
0.0
  0
VERTEX
  5
439
  8
LAYER_1
 10
40.678411153960127
 20
19.918317137771819
 30
0.0
  0
VERTEX
  5
43A
  8
LAYER_1
 10
40.368123174748817
 20
19.71145848496429
 30
0.0
  0
VERTEX
  5
43B
  8
LAYER_1
 10
40.057835195537521
 20
19.50459983215675
 30
0.0
  0
VERTEX
  5
43C
  8
LAYER_1
 10
39.954405869133751
 20
19.40117050575299
 30
0.0
  0
VERTEX
  5
43D
  8
LAYER_1
 10
39.850976542730002
 20
19.40117050575299
 30
0.0
  0
VERTEX
  5
43E
  8
LAYER_1
 10
39.850976542730002
 20
19.29774117934922
 30
0.0
  0
VERTEX
  5
43F
  8
LAYER_1
 10
39.644117889922462
 20
19.19431185294545
 30
0.0
  0
VERTEX
  5
440
  8
LAYER_1
 10
39.540688563518692
 20
19.09088252654168
 30
0.0
  0
VERTEX
  5
441
  8
LAYER_1
 10
39.43725923711493
 20
19.09088252654168
 30
0.0
  0
VERTEX
  5
442
  8
LAYER_1
 10
39.33382991071116
 20
19.09088252654168
 30
0.0
  0
VERTEX
  5
443
  8
LAYER_1
 10
39.33382991071116
 20
18.987453200137921
 30
0.0
  0
VERTEX
  5
444
  8
LAYER_1
 10
39.23040058430739
 20
18.987453200137921
 30
0.0
  0
VERTEX
  5
445
  8
LAYER_1
 10
39.12697125790362
 20
18.780594547330391
 30
0.0
  0
VERTEX
  5
446
  8
LAYER_1
 10
39.023541931499871
 20
18.780594547330391
 30
0.0
  0
VERTEX
  5
447
  8
LAYER_1
 10
38.920112605096101
 20
18.780594547330391
 30
0.0
  0
VERTEX
  5
448
  8
LAYER_1
 10
38.920112605096101
 20
18.677165220926621
 30
0.0
  0
VERTEX
  5
449
  8
LAYER_1
 10
38.816683278692331
 20
18.677165220926621
 30
0.0
  0
VERTEX
  5
44A
  8
LAYER_1
 10
38.713253952288561
 20
18.573735894522851
 30
0.0
  0
VERTEX
  5
44B
  8
LAYER_1
 10
38.609824625884791
 20
18.573735894522851
 30
0.0
  0
VERTEX
  5
44C
  8
LAYER_1
 10
38.506395299481028
 20
18.573735894522851
 30
0.0
  0
VERTEX
  5
44D
  8
LAYER_1
 10
38.402965973077258
 20
18.366877241715319
 30
0.0
  0
VERTEX
  5
44E
  8
LAYER_1
 10
38.299536646673488
 20
18.366877241715319
 30
0.0
  0
VERTEX
  5
44F
  8
LAYER_1
 10
38.196107320269718
 20
18.366877241715319
 30
0.0
  0
VERTEX
  5
450
  8
LAYER_1
 10
38.196107320269718
 20
18.263447915311549
 30
0.0
  0
VERTEX
  5
451
  8
LAYER_1
 10
38.092677993865962
 20
18.263447915311549
 30
0.0
  0
VERTEX
  5
452
  8
LAYER_1
 10
37.989248667462192
 20
18.263447915311549
 30
0.0
  0
VERTEX
  5
453
  8
LAYER_1
 10
37.885819341058422
 20
18.263447915311549
 30
0.0
  0
VERTEX
  5
454
  8
LAYER_1
 10
37.782390014654652
 20
18.056589262504019
 30
0.0
  0
VERTEX
  5
455
  8
LAYER_1
 10
37.678960688250903
 20
18.056589262504019
 30
0.0
  0
VERTEX
  5
456
  8
LAYER_1
 10
37.575531361847133
 20
17.953159936100249
 30
0.0
  0
VERTEX
  5
457
  8
LAYER_1
 10
37.472102035443363
 20
17.953159936100249
 30
0.0
  0
VERTEX
  5
458
  8
LAYER_1
 10
37.368672709039593
 20
17.953159936100249
 30
0.0
  0
VERTEX
  5
459
  8
LAYER_1
 10
37.368672709039593
 20
17.849730609696479
 30
0.0
  0
VERTEX
  5
45A
  8
LAYER_1
 10
37.16181405623206
 20
17.849730609696479
 30
0.0
  0
VERTEX
  5
45B
  8
LAYER_1
 10
37.05838472982829
 20
17.746301283292709
 30
0.0
  0
VERTEX
  5
45C
  8
LAYER_1
 10
37.05838472982829
 20
17.64287195688895
 30
0.0
  0
VERTEX
  5
45D
  8
LAYER_1
 10
36.95495540342452
 20
17.64287195688895
 30
0.0
  0
VERTEX
  5
45E
  8
LAYER_1
 10
36.85152607702075
 20
17.64287195688895
 30
0.0
  0
VERTEX
  5
45F
  8
LAYER_1
 10
36.748096750617002
 20
17.53944263048518
 30
0.0
  0
VERTEX
  5
460
  8
LAYER_1
 10
36.644667424213232
 20
17.53944263048518
 30
0.0
  0
VERTEX
  5
461
  8
LAYER_1
 10
36.644667424213232
 20
17.43601330408142
 30
0.0
  0
VERTEX
  5
462
  8
LAYER_1
 10
36.541238097809462
 20
17.43601330408142
 30
0.0
  0
VERTEX
  5
463
  8
LAYER_1
 10
36.437808771405692
 20
17.33258397767765
 30
0.0
  0
VERTEX
  5
464
  8
LAYER_1
 10
36.334379445001929
 20
17.33258397767765
 30
0.0
  0
VERTEX
  5
465
  8
LAYER_1
 10
36.334379445001929
 20
17.229154651273891
 30
0.0
  0
VERTEX
  5
466
  8
LAYER_1
 10
36.230950118598159
 20
17.229154651273891
 30
0.0
  0
VERTEX
  5
467
  8
LAYER_1
 10
36.230950118598159
 20
17.125725324870121
 30
0.0
  0
VERTEX
  5
468
  8
LAYER_1
 10
36.127520792194389
 20
17.125725324870121
 30
0.0
  0
VERTEX
  5
469
  8
LAYER_1
 10
36.024091465790619
 20
17.022295998466351
 30
0.0
  0
VERTEX
  5
46A
  8
LAYER_1
 10
35.920662139386863
 20
16.918866672062581
 30
0.0
  0
VERTEX
  5
46B
  8
LAYER_1
 10
35.920662139386863
 20
16.815437345658822
 30
0.0
  0
VERTEX
  5
46C
  8
LAYER_1
 10
35.817232812983093
 20
16.815437345658822
 30
0.0
  0
VERTEX
  5
46D
  8
LAYER_1
 10
35.817232812983093
 20
16.712008019255052
 30
0.0
  0
VERTEX
  5
46E
  8
LAYER_1
 10
35.817232812983093
 20
16.608578692851289
 30
0.0
  0
VERTEX
  5
46F
  8
LAYER_1
 10
35.713803486579323
 20
16.608578692851289
 30
0.0
  0
VERTEX
  5
470
  8
LAYER_1
 10
35.610374160175553
 20
16.505149366447519
 30
0.0
  0
VERTEX
  5
471
  8
LAYER_1
 10
35.506944833771797
 20
16.298290713639979
 30
0.0
  0
VERTEX
  5
472
  8
LAYER_1
 10
35.506944833771797
 20
16.194861387236209
 30
0.0
  0
VERTEX
  5
473
  8
LAYER_1
 10
35.403515507368027
 20
16.194861387236209
 30
0.0
  0
VERTEX
  5
474
  8
LAYER_1
 10
35.403515507368027
 20
16.091432060832449
 30
0.0
  0
VERTEX
  5
475
  8
LAYER_1
 10
35.300086180964257
 20
16.091432060832449
 30
0.0
  0
VERTEX
  5
476
  8
LAYER_1
 10
35.300086180964257
 20
15.988002734428679
 30
0.0
  0
VERTEX
  5
477
  8
LAYER_1
 10
35.300086180964257
 20
15.88457340802492
 30
0.0
  0
VERTEX
  5
478
  8
LAYER_1
 10
35.300086180964257
 20
15.78114408162115
 30
0.0
  0
VERTEX
  5
479
  8
LAYER_1
 10
35.196656854560487
 20
15.677714755217391
 30
0.0
  0
VERTEX
  5
47A
  8
LAYER_1
 10
35.196656854560487
 20
15.574285428813621
 30
0.0
  0
VERTEX
  5
47B
  8
LAYER_1
 10
35.093227528156717
 20
15.470856102409851
 30
0.0
  0
VERTEX
  5
47C
  8
LAYER_1
 10
35.093227528156717
 20
15.367426776006081
 30
0.0
  0
VERTEX
  5
47D
  8
LAYER_1
 10
35.093227528156717
 20
15.26399744960232
 30
0.0
  0
VERTEX
  5
47E
  8
LAYER_1
 10
35.093227528156717
 20
15.16056812319855
 30
0.0
  0
VERTEX
  5
47F
  8
LAYER_1
 10
35.093227528156717
 20
15.05713879679479
 30
0.0
  0
VERTEX
  5
480
  8
LAYER_1
 10
34.989798201752961
 20
14.95370947039102
 30
0.0
  0
VERTEX
  5
481
  8
LAYER_1
 10
34.886368875349191
 20
14.643421491179719
 30
0.0
  0
VERTEX
  5
482
  8
LAYER_1
 10
34.886368875349191
 20
14.539992164775949
 30
0.0
  0
VERTEX
  5
483
  8
LAYER_1
 10
34.886368875349191
 20
14.436562838372179
 30
0.0
  0
VERTEX
  5
484
  8
LAYER_1
 10
34.886368875349191
 20
14.33313351196842
 30
0.0
  0
VERTEX
  5
485
  8
LAYER_1
 10
34.886368875349191
 20
14.22970418556465
 30
0.0
  0
VERTEX
  5
486
  8
LAYER_1
 10
34.886368875349191
 20
14.12627485916089
 30
0.0
  0
VERTEX
  5
487
  8
LAYER_1
 10
34.886368875349191
 20
14.02284553275712
 30
0.0
  0
VERTEX
  5
488
  8
LAYER_1
 10
34.886368875349191
 20
13.609128227142049
 30
0.0
  0
VERTEX
  5
489
  8
LAYER_1
 10
34.886368875349191
 20
13.40226957433452
 30
0.0
  0
VERTEX
  5
48A
  8
LAYER_1
 10
34.886368875349191
 20
13.29884024793075
 30
0.0
  0
VERTEX
  5
48B
  8
LAYER_1
 10
34.886368875349191
 20
13.091981595123221
 30
0.0
  0
VERTEX
  5
48C
  8
LAYER_1
 10
34.886368875349191
 20
12.988552268719451
 30
0.0
  0
VERTEX
  5
48D
  8
LAYER_1
 10
34.886368875349191
 20
12.885122942315681
 30
0.0
  0
VERTEX
  5
48E
  8
LAYER_1
 10
34.886368875349191
 20
12.781693615911919
 30
0.0
  0
VERTEX
  5
48F
  8
LAYER_1
 10
34.989798201752961
 20
12.161117657489321
 30
0.0
  0
VERTEX
  5
490
  8
LAYER_1
 10
35.093227528156717
 20
12.057688331085551
 30
0.0
  0
VERTEX
  5
491
  8
LAYER_1
 10
35.093227528156717
 20
11.95425900468179
 30
0.0
  0
VERTEX
  5
492
  8
LAYER_1
 10
35.093227528156717
 20
11.85082967827802
 30
0.0
  0
VERTEX
  5
493
  8
LAYER_1
 10
35.093227528156717
 20
11.74740035187425
 30
0.0
  0
VERTEX
  5
494
  8
LAYER_1
 10
35.196656854560487
 20
11.64397102547048
 30
0.0
  0
VERTEX
  5
495
  8
LAYER_1
 10
35.196656854560487
 20
11.54054169906672
 30
0.0
  0
VERTEX
  5
496
  8
LAYER_1
 10
35.300086180964257
 20
11.43711237266295
 30
0.0
  0
VERTEX
  5
497
  8
LAYER_1
 10
35.403515507368027
 20
11.023395067047881
 30
0.0
  0
VERTEX
  5
498
  8
LAYER_1
 10
35.403515507368027
 20
10.919965740644111
 30
0.0
  0
VERTEX
  5
499
  8
LAYER_1
 10
35.403515507368027
 20
10.81653641424035
 30
0.0
  0
VERTEX
  5
49A
  8
LAYER_1
 10
35.506944833771797
 20
10.81653641424035
 30
0.0
  0
VERTEX
  5
49B
  8
LAYER_1
 10
35.506944833771797
 20
10.71310708783658
 30
0.0
  0
VERTEX
  5
49C
  8
LAYER_1
 10
35.610374160175553
 20
10.71310708783658
 30
0.0
  0
VERTEX
  5
49D
  8
LAYER_1
 10
35.610374160175553
 20
10.60967776143282
 30
0.0
  0
VERTEX
  5
49E
  8
LAYER_1
 10
35.610374160175553
 20
10.50624843502905
 30
0.0
  0
VERTEX
  5
49F
  8
LAYER_1
 10
35.817232812983093
 20
10.092531129413979
 30
0.0
  0
VERTEX
  5
4A0
  8
LAYER_1
 10
35.920662139386863
 20
10.092531129413979
 30
0.0
  0
VERTEX
  5
4A1
  8
LAYER_1
 10
35.920662139386863
 20
9.9891018030102217
 30
0.0
  0
VERTEX
  5
4A2
  8
LAYER_1
 10
36.024091465790619
 20
9.9891018030102217
 30
0.0
  0
VERTEX
  5
4A3
  8
LAYER_1
 10
36.024091465790619
 20
9.7822431502026888
 30
0.0
  0
VERTEX
  5
4A4
  8
LAYER_1
 10
36.127520792194389
 20
9.6788138237989187
 30
0.0
  0
VERTEX
  5
4A5
  8
LAYER_1
 10
36.127520792194389
 20
9.5753844973951487
 30
0.0
  0
VERTEX
  5
4A6
  8
LAYER_1
 10
36.127520792194389
 20
9.4719551709913858
 30
0.0
  0
VERTEX
  5
4A7
  8
LAYER_1
 10
36.437808771405692
 20
9.2650965181838512
 30
0.0
  0
VERTEX
  5
4A8
  8
LAYER_1
 10
36.437808771405692
 20
9.1616671917800812
 30
0.0
  0
VERTEX
  5
4A9
  8
LAYER_1
 10
36.437808771405692
 20
9.05823786537632
 30
0.0
  0
VERTEX
  5
4AA
  8
LAYER_1
 10
36.541238097809462
 20
8.95480853897255
 30
0.0
  0
VERTEX
  5
4AB
  8
LAYER_1
 10
36.644667424213232
 20
8.95480853897255
 30
0.0
  0
VERTEX
  5
4AC
  8
LAYER_1
 10
36.644667424213232
 20
8.8513792125687871
 30
0.0
  0
VERTEX
  5
4AD
  8
LAYER_1
 10
36.748096750617002
 20
8.7479498861650171
 30
0.0
  0
VERTEX
  5
4AE
  8
LAYER_1
 10
36.748096750617002
 20
8.6445205597612542
 30
0.0
  0
VERTEX
  5
4AF
  8
LAYER_1
 10
37.05838472982829
 20
8.3342325805499513
 30
0.0
  0
VERTEX
  5
4B0
  8
LAYER_1
 10
37.16181405623206
 20
8.3342325805499513
 30
0.0
  0
VERTEX
  5
4B1
  8
LAYER_1
 10
37.16181405623206
 20
8.2308032541461884
 30
0.0
  0
VERTEX
  5
4B2
  8
LAYER_1
 10
37.26524338263583
 20
8.2308032541461884
 30
0.0
  0
VERTEX
  5
4B3
  8
LAYER_1
 10
37.26524338263583
 20
8.1273739277424184
 30
0.0
  0
VERTEX
  5
4B4
  8
LAYER_1
 10
37.368672709039593
 20
8.0239446013386555
 30
0.0
  0
VERTEX
  5
4B5
  8
LAYER_1
 10
37.472102035443363
 20
7.9205152749348846
 30
0.0
  0
VERTEX
  5
4B6
  8
LAYER_1
 10
37.885819341058422
 20
7.5067979693198188
 30
0.0
  0
VERTEX
  5
4B7
  8
LAYER_1
 10
37.885819341058422
 20
7.4033686429160488
 30
0.0
  0
VERTEX
  5
4B8
  8
LAYER_1
 10
37.989248667462192
 20
7.4033686429160488
 30
0.0
  0
VERTEX
  5
4B9
  8
LAYER_1
 10
37.989248667462192
 20
7.2999393165122859
 30
0.0
  0
VERTEX
  5
4BA
  8
LAYER_1
 10
38.092677993865962
 20
7.2999393165122859
 30
0.0
  0
VERTEX
  5
4BB
  8
LAYER_1
 10
38.196107320269718
 20
7.1965099901085159
 30
0.0
  0
VERTEX
  5
4BC
  8
LAYER_1
 10
38.299536646673488
 20
7.093080663704753
 30
0.0
  0
VERTEX
  5
4BD
  8
LAYER_1
 10
38.402965973077258
 20
7.093080663704753
 30
0.0
  0
VERTEX
  5
4BE
  8
LAYER_1
 10
38.816683278692331
 20
6.7827926844934501
 30
0.0
  0
VERTEX
  5
4BF
  8
LAYER_1
 10
38.920112605096101
 20
6.6793633580896881
 30
0.0
  0
VERTEX
  5
4C0
  8
LAYER_1
 10
38.920112605096101
 20
6.5759340316859181
 30
0.0
  0
VERTEX
  5
4C1
  8
LAYER_1
 10
39.023541931499871
 20
6.5759340316859181
 30
0.0
  0
VERTEX
  5
4C2
  8
LAYER_1
 10
39.12697125790362
 20
6.4725047052821552
 30
0.0
  0
VERTEX
  5
4C3
  8
LAYER_1
 10
39.23040058430739
 20
6.4725047052821552
 30
0.0
  0
VERTEX
  5
4C4
  8
LAYER_1
 10
39.33382991071116
 20
6.4725047052821552
 30
0.0
  0
VERTEX
  5
4C5
  8
LAYER_1
 10
39.33382991071116
 20
6.3690753788783852
 30
0.0
  0
VERTEX
  5
4C6
  8
LAYER_1
 10
39.644117889922462
 20
6.1622167260708522
 30
0.0
  0
VERTEX
  5
4C7
  8
LAYER_1
 10
39.747547216326232
 20
6.1622167260708522
 30
0.0
  0
VERTEX
  5
4C8
  8
LAYER_1
 10
39.850976542730002
 20
6.1622167260708522
 30
0.0
  0
VERTEX
  5
4C9
  8
LAYER_1
 10
39.850976542730002
 20
6.0587873996670822
 30
0.0
  0
VERTEX
  5
4CA
  8
LAYER_1
 10
39.954405869133751
 20
6.0587873996670822
 30
0.0
  0
VERTEX
  5
4CB
  8
LAYER_1
 10
40.057835195537521
 20
6.0587873996670822
 30
0.0
  0
VERTEX
  5
4CC
  8
LAYER_1
 10
40.161264521941291
 20
6.0587873996670822
 30
0.0
  0
VERTEX
  5
4CD
  8
LAYER_1
 10
40.161264521941291
 20
5.9553580732633193
 30
0.0
  0
VERTEX
  5
4CE
  8
LAYER_1
 10
40.574981827556357
 20
5.7484994204557864
 30
0.0
  0
VERTEX
  5
4CF
  8
LAYER_1
 10
40.678411153960127
 20
5.7484994204557864
 30
0.0
  0
VERTEX
  5
4D0
  8
LAYER_1
 10
40.781840480363897
 20
5.7484994204557864
 30
0.0
  0
VERTEX
  5
4D1
  8
LAYER_1
 10
40.781840480363897
 20
5.6450700940520164
 30
0.0
  0
VERTEX
  5
4D2
  8
LAYER_1
 10
40.885269806767653
 20
5.6450700940520164
 30
0.0
  0
VERTEX
  5
4D3
  8
LAYER_1
 10
40.988699133171423
 20
5.6450700940520164
 30
0.0
  0
VERTEX
  5
4D4
  8
LAYER_1
 10
41.092128459575193
 20
5.6450700940520164
 30
0.0
  0
VERTEX
  5
4D5
  8
LAYER_1
 10
41.298987112382711
 20
5.5416407676482526
 30
0.0
  0
VERTEX
  5
4D6
  8
LAYER_1
 10
41.298987112382711
 20
5.4382114412444826
 30
0.0
  0
VERTEX
  5
4D7
  8
LAYER_1
 10
41.402416438786481
 20
5.4382114412444826
 30
0.0
  0
VERTEX
  5
4D8
  8
LAYER_1
 10
41.505845765190251
 20
5.4382114412444826
 30
0.0
  0
VERTEX
  5
4D9
  8
LAYER_1
 10
41.609275091594021
 20
5.4382114412444826
 30
0.0
  0
VERTEX
  5
4DA
  8
LAYER_1
 10
41.712704417997777
 20
5.4382114412444826
 30
0.0
  0
VERTEX
  5
4DB
  8
LAYER_1
 10
41.816133744401547
 20
5.4382114412444826
 30
0.0
  0
VERTEX
  5
4DC
  8
LAYER_1
 10
41.919563070805317
 20
5.4382114412444826
 30
0.0
  0
VERTEX
  5
4DD
  8
LAYER_1
 10
42.022992397209087
 20
5.4382114412444826
 30
0.0
  0
VERTEX
  5
4DE
  8
LAYER_1
 10
42.022992397209087
 20
5.5416407676482526
 30
0.0
  0
VERTEX
  5
4DF
  8
LAYER_1
 10
42.12642172361285
 20
5.5416407676482526
 30
0.0
  0
VERTEX
  5
4E0
  8
LAYER_1
 10
42.22985105001662
 20
5.5416407676482526
 30
0.0
  0
VERTEX
  5
4E1
  8
LAYER_1
 10
42.22985105001662
 20
5.6450700940520164
 30
0.0
  0
VERTEX
  5
4E2
  8
LAYER_1
 10
42.33328037642039
 20
5.6450700940520164
 30
0.0
  0
VERTEX
  5
4E3
  8
LAYER_1
 10
42.43670970282416
 20
5.6450700940520164
 30
0.0
  0
VERTEX
  5
4E4
  8
LAYER_1
 10
42.643568355631693
 20
5.7484994204557864
 30
0.0
  0
VERTEX
  5
4E5
  8
LAYER_1
 10
42.643568355631693
 20
5.8519287468595493
 30
0.0
  0
VERTEX
  5
4E6
  8
LAYER_1
 10
42.746997682035463
 20
5.8519287468595493
 30
0.0
  0
VERTEX
  5
4E7
  8
LAYER_1
 10
42.850427008439233
 20
5.9553580732633193
 30
0.0
  0
VERTEX
  5
4E8
  8
LAYER_1
 10
42.953856334843003
 20
5.9553580732633193
 30
0.0
  0
VERTEX
  5
4E9
  8
LAYER_1
 10
43.057285661246752
 20
6.0587873996670822
 30
0.0
  0
VERTEX
  5
4EA
  8
LAYER_1
 10
43.160714987650522
 20
6.0587873996670822
 30
0.0
  0
VERTEX
  5
4EB
  8
LAYER_1
 10
43.264144314054292
 20
6.1622167260708522
 30
0.0
  0
VERTEX
  5
4EC
  8
LAYER_1
 10
43.367573640458062
 20
6.2656460524746151
 30
0.0
  0
VERTEX
  5
4ED
  8
LAYER_1
 10
43.471002966861811
 20
6.3690753788783852
 30
0.0
  0
VERTEX
  5
4EE
  8
LAYER_1
 10
43.574432293265581
 20
6.3690753788783852
 30
0.0
  0
VERTEX
  5
4EF
  8
LAYER_1
 10
43.677861619669351
 20
6.3690753788783852
 30
0.0
  0
VERTEX
  5
4F0
  8
LAYER_1
 10
43.781290946073121
 20
6.4725047052821552
 30
0.0
  0
VERTEX
  5
4F1
  8
LAYER_1
 10
43.988149598880653
 20
6.5759340316859181
 30
0.0
  0
VERTEX
  5
4F2
  8
LAYER_1
 10
44.091578925284423
 20
6.6793633580896881
 30
0.0
  0
VERTEX
  5
4F3
  8
LAYER_1
 10
44.505296230899482
 20
6.989651337300983
 30
0.0
  0
VERTEX
  5
4F4
  8
LAYER_1
 10
44.608725557303252
 20
6.989651337300983
 30
0.0
  0
VERTEX
  5
4F5
  8
LAYER_1
 10
44.712154883707022
 20
7.093080663704753
 30
0.0
  0
VERTEX
  5
4F6
  8
LAYER_1
 10
44.815584210110792
 20
7.093080663704753
 30
0.0
  0
VERTEX
  5
4F7
  8
LAYER_1
 10
44.919013536514562
 20
7.1965099901085159
 30
0.0
  0
VERTEX
  5
4F8
  8
LAYER_1
 10
45.022442862918332
 20
7.2999393165122859
 30
0.0
  0
VERTEX
  5
4F9
  8
LAYER_1
 10
45.125872189322102
 20
7.2999393165122859
 30
0.0
  0
VERTEX
  5
4FA
  8
LAYER_1
 10
45.125872189322102
 20
7.4033686429160488
 30
0.0
  0
VERTEX
  5
4FB
  8
LAYER_1
 10
45.539589494937161
 20
7.7136566221273517
 30
0.0
  0
VERTEX
  5
4FC
  8
LAYER_1
 10
45.643018821340931
 20
7.8170859485311146
 30
0.0
  0
VERTEX
  5
4FD
  8
LAYER_1
 10
45.74644814774468
 20
7.8170859485311146
 30
0.0
  0
VERTEX
  5
4FE
  8
LAYER_1
 10
45.74644814774468
 20
7.9205152749348846
 30
0.0
  0
VERTEX
  5
4FF
  8
LAYER_1
 10
45.74644814774468
 20
8.0239446013386555
 30
0.0
  0
VERTEX
  5
500
  8
LAYER_1
 10
45.84987747414845
 20
8.0239446013386555
 30
0.0
  0
VERTEX
  5
501
  8
LAYER_1
 10
46.05673612695599
 20
8.1273739277424184
 30
0.0
  0
VERTEX
  5
502
  8
LAYER_1
 10
46.263594779763523
 20
8.4376619069537213
 30
0.0
  0
VERTEX
  5
503
  8
LAYER_1
 10
46.367024106167293
 20
8.5410912333574842
 30
0.0
  0
VERTEX
  5
504
  8
LAYER_1
 10
46.470453432571063
 20
8.5410912333574842
 30
0.0
  0
VERTEX
  5
505
  8
LAYER_1
 10
46.470453432571063
 20
8.6445205597612542
 30
0.0
  0
VERTEX
  5
506
  8
LAYER_1
 10
46.470453432571063
 20
8.7479498861650171
 30
0.0
  0
VERTEX
  5
507
  8
LAYER_1
 10
46.573882758974811
 20
8.8513792125687871
 30
0.0
  0
VERTEX
  5
508
  8
LAYER_1
 10
46.677312085378581
 20
8.8513792125687871
 30
0.0
  0
VERTEX
  5
509
  8
LAYER_1
 10
46.884170738186121
 20
9.2650965181838512
 30
0.0
  0
VERTEX
  5
50A
  8
LAYER_1
 10
46.987600064589877
 20
9.2650965181838512
 30
0.0
  0
VERTEX
  5
50B
  8
LAYER_1
 10
46.987600064589877
 20
9.3685258445876158
 30
0.0
  0
VERTEX
  5
50C
  8
LAYER_1
 10
47.091029390993647
 20
9.4719551709913858
 30
0.0
  0
VERTEX
  5
50D
  8
LAYER_1
 10
47.194458717397417
 20
9.4719551709913858
 30
0.0
  0
VERTEX
  5
50E
  8
LAYER_1
 10
47.194458717397417
 20
9.6788138237989187
 30
0.0
  0
VERTEX
  5
50F
  8
LAYER_1
 10
47.297888043801187
 20
9.6788138237989187
 30
0.0
  0
VERTEX
  5
510
  8
LAYER_1
 10
47.60817602301249
 20
10.195960455817749
 30
0.0
  0
VERTEX
  5
511
  8
LAYER_1
 10
47.71160534941626
 20
10.29938978222151
 30
0.0
  0
VERTEX
  5
512
  8
LAYER_1
 10
47.71160534941626
 20
10.40281910862528
 30
0.0
  0
VERTEX
  5
513
  8
LAYER_1
 10
47.81503467582003
 20
10.40281910862528
 30
0.0
  0
VERTEX
  5
514
  8
LAYER_1
 10
47.918464002223779
 20
10.50624843502905
 30
0.0
  0
VERTEX
  5
515
  8
LAYER_1
 10
47.918464002223779
 20
10.60967776143282
 30
0.0
  0
VERTEX
  5
516
  8
LAYER_1
 10
47.918464002223779
 20
10.71310708783658
 30
0.0
  0
VERTEX
  5
517
  8
LAYER_1
 10
48.021893328627563
 20
10.81653641424035
 30
0.0
  0
VERTEX
  5
518
  8
LAYER_1
 10
48.125322655031333
 20
11.023395067047881
 30
0.0
  0
VERTEX
  5
519
  8
LAYER_1
 10
48.332181307838852
 20
11.33368304625918
 30
0.0
  0
VERTEX
  5
51A
  8
LAYER_1
 10
48.332181307838852
 20
11.43711237266295
 30
0.0
  0
VERTEX
  5
51B
  8
LAYER_1
 10
48.435610634242622
 20
11.54054169906672
 30
0.0
  0
VERTEX
  5
51C
  8
LAYER_1
 10
48.435610634242622
 20
11.64397102547048
 30
0.0
  0
VERTEX
  5
51D
  8
LAYER_1
 10
48.435610634242622
 20
11.74740035187425
 30
0.0
  0
VERTEX
  5
51E
  8
LAYER_1
 10
48.539039960646392
 20
11.85082967827802
 30
0.0
  0
VERTEX
  5
51F
  8
LAYER_1
 10
48.642469287050162
 20
11.95425900468179
 30
0.0
  0
VERTEX
  5
520
  8
LAYER_1
 10
48.642469287050162
 20
12.057688331085551
 30
0.0
  0
VERTEX
  5
521
  8
LAYER_1
 10
48.642469287050162
 20
12.161117657489321
 30
0.0
  0
VERTEX
  5
522
  8
LAYER_1
 10
48.745898613453932
 20
12.26454698389308
 30
0.0
  0
VERTEX
  5
523
  8
LAYER_1
 10
48.745898613453932
 20
12.36797631029685
 30
0.0
  0
VERTEX
  5
524
  8
LAYER_1
 10
48.745898613453932
 20
12.574834963104379
 30
0.0
  0
VERTEX
  5
525
  8
LAYER_1
 10
48.745898613453932
 20
12.678264289508149
 30
0.0
  0
VERTEX
  5
526
  8
LAYER_1
 10
48.84932793985768
 20
12.678264289508149
 30
0.0
  0
VERTEX
  5
527
  8
LAYER_1
 10
48.84932793985768
 20
12.781693615911919
 30
0.0
  0
VERTEX
  5
528
  8
LAYER_1
 10
48.84932793985768
 20
12.885122942315681
 30
0.0
  0
VERTEX
  5
529
  8
LAYER_1
 10
48.84932793985768
 20
12.988552268719451
 30
0.0
  0
VERTEX
  5
52A
  8
LAYER_1
 10
48.84932793985768
 20
13.091981595123221
 30
0.0
  0
VERTEX
  5
52B
  8
LAYER_1
 10
48.84932793985768
 20
13.29884024793075
 30
0.0
  0
VERTEX
  5
52C
  8
LAYER_1
 10
48.95275726626145
 20
13.40226957433452
 30
0.0
  0
VERTEX
  5
52D
  8
LAYER_1
 10
48.95275726626145
 20
13.50569890073829
 30
0.0
  0
VERTEX
  5
52E
  8
LAYER_1
 10
48.95275726626145
 20
13.609128227142049
 30
0.0
  0
VERTEX
  5
52F
  8
LAYER_1
 10
48.95275726626145
 20
13.712557553545819
 30
0.0
  0
VERTEX
  5
530
  8
LAYER_1
 10
48.95275726626145
 20
13.81598687994958
 30
0.0
  0
VERTEX
  5
531
  8
LAYER_1
 10
48.95275726626145
 20
13.91941620635335
 30
0.0
  0
VERTEX
  5
532
  8
LAYER_1
 10
48.95275726626145
 20
14.02284553275712
 30
0.0
  0
VERTEX
  5
533
  8
LAYER_1
 10
48.95275726626145
 20
14.12627485916089
 30
0.0
  0
VERTEX
  5
534
  8
LAYER_1
 10
48.95275726626145
 20
14.22970418556465
 30
0.0
  0
VERTEX
  5
535
  8
LAYER_1
 10
48.95275726626145
 20
14.33313351196842
 30
0.0
  0
VERTEX
  5
536
  8
LAYER_1
 10
48.95275726626145
 20
14.436562838372179
 30
0.0
  0
VERTEX
  5
537
  8
LAYER_1
 10
48.95275726626145
 20
14.539992164775949
 30
0.0
  0
VERTEX
  5
538
  8
LAYER_1
 10
49.05618659266522
 20
14.643421491179719
 30
0.0
  0
VERTEX
  5
539
  8
LAYER_1
 10
49.05618659266522
 20
14.74685081758348
 30
0.0
  0
VERTEX
  5
53A
  8
LAYER_1
 10
49.05618659266522
 20
14.85028014398725
 30
0.0
  0
VERTEX
  5
53B
  8
LAYER_1
 10
49.05618659266522
 20
14.95370947039102
 30
0.0
  0
VERTEX
  5
53C
  8
LAYER_1
 10
49.05618659266522
 20
15.05713879679479
 30
0.0
  0
VERTEX
  5
53D
  8
LAYER_1
 10
49.05618659266522
 20
15.16056812319855
 30
0.0
  0
VERTEX
  5
53E
  8
LAYER_1
 10
49.05618659266522
 20
15.26399744960232
 30
0.0
  0
VERTEX
  5
53F
  8
LAYER_1
 10
49.05618659266522
 20
15.367426776006081
 30
0.0
  0
VERTEX
  5
540
  8
LAYER_1
 10
49.05618659266522
 20
15.470856102409851
 30
0.0
  0
VERTEX
  5
541
  8
LAYER_1
 10
49.05618659266522
 20
15.574285428813621
 30
0.0
  0
VERTEX
  5
542
  8
LAYER_1
 10
49.05618659266522
 20
15.677714755217391
 30
0.0
  0
VERTEX
  5
543
  8
LAYER_1
 10
49.05618659266522
 20
15.78114408162115
 30
0.0
  0
VERTEX
  5
544
  8
LAYER_1
 10
49.05618659266522
 20
15.88457340802492
 30
0.0
  0
VERTEX
  5
545
  8
LAYER_1
 10
49.05618659266522
 20
15.988002734428679
 30
0.0
  0
VERTEX
  5
546
  8
LAYER_1
 10
49.05618659266522
 20
16.091432060832449
 30
0.0
  0
VERTEX
  5
547
  8
LAYER_1
 10
49.05618659266522
 20
16.298290713639979
 30
0.0
  0
VERTEX
  5
548
  8
LAYER_1
 10
49.05618659266522
 20
16.401720040043749
 30
0.0
  0
VERTEX
  5
549
  8
LAYER_1
 10
49.05618659266522
 20
16.505149366447519
 30
0.0
  0
VERTEX
  5
54A
  8
LAYER_1
 10
49.05618659266522
 20
16.608578692851289
 30
0.0
  0
VERTEX
  5
54B
  8
LAYER_1
 10
49.05618659266522
 20
16.712008019255052
 30
0.0
  0
VERTEX
  5
54C
  8
LAYER_1
 10
49.05618659266522
 20
16.815437345658822
 30
0.0
  0
VERTEX
  5
54D
  8
LAYER_1
 10
49.05618659266522
 20
16.918866672062581
 30
0.0
  0
VERTEX
  5
54E
  8
LAYER_1
 10
49.05618659266522
 20
17.125725324870121
 30
0.0
  0
VERTEX
  5
54F
  8
LAYER_1
 10
49.05618659266522
 20
17.229154651273891
 30
0.0
  0
VERTEX
  5
550
  8
LAYER_1
 10
48.95275726626145
 20
17.33258397767765
 30
0.0
  0
VERTEX
  5
551
  8
LAYER_1
 10
48.95275726626145
 20
17.43601330408142
 30
0.0
  0
VERTEX
  5
552
  8
LAYER_1
 10
48.95275726626145
 20
17.53944263048518
 30
0.0
  0
VERTEX
  5
553
  8
LAYER_1
 10
48.95275726626145
 20
17.849730609696479
 30
0.0
  0
VERTEX
  5
554
  8
LAYER_1
 10
48.95275726626145
 20
17.953159936100249
 30
0.0
  0
VERTEX
  5
555
  8
LAYER_1
 10
48.95275726626145
 20
18.056589262504019
 30
0.0
  0
VERTEX
  5
556
  8
LAYER_1
 10
48.95275726626145
 20
18.160018588907789
 30
0.0
  0
VERTEX
  5
557
  8
LAYER_1
 10
48.95275726626145
 20
18.263447915311549
 30
0.0
  0
VERTEX
  5
558
  8
LAYER_1
 10
48.84932793985768
 20
18.366877241715319
 30
0.0
  0
VERTEX
  5
559
  8
LAYER_1
 10
48.84932793985768
 20
18.470306568119081
 30
0.0
  0
VERTEX
  5
55A
  8
LAYER_1
 10
48.84932793985768
 20
18.677165220926621
 30
0.0
  0
VERTEX
  5
55B
  8
LAYER_1
 10
48.84932793985768
 20
18.780594547330391
 30
0.0
  0
VERTEX
  5
55C
  8
LAYER_1
 10
48.745898613453932
 20
18.780594547330391
 30
0.0
  0
VERTEX
  5
55D
  8
LAYER_1
 10
48.745898613453932
 20
18.884023873734151
 30
0.0
  0
VERTEX
  5
55E
  8
LAYER_1
 10
48.745898613453932
 20
18.987453200137921
 30
0.0
  0
VERTEX
  5
55F
  8
LAYER_1
 10
48.745898613453932
 20
19.09088252654168
 30
0.0
  0
VERTEX
  5
560
  8
LAYER_1
 10
48.745898613453932
 20
19.19431185294545
 30
0.0
  0
VERTEX
  5
561
  8
LAYER_1
 10
48.539039960646392
 20
19.50459983215675
 30
0.0
  0
VERTEX
  5
562
  8
LAYER_1
 10
48.539039960646392
 20
19.60802915856052
 30
0.0
  0
VERTEX
  5
563
  8
LAYER_1
 10
48.539039960646392
 20
19.71145848496429
 30
0.0
  0
VERTEX
  5
564
  8
LAYER_1
 10
48.435610634242622
 20
19.814887811368049
 30
0.0
  0
VERTEX
  5
565
  8
LAYER_1
 10
48.435610634242622
 20
19.918317137771819
 30
0.0
  0
VERTEX
  5
566
  8
LAYER_1
 10
48.435610634242622
 20
20.021746464175589
 30
0.0
  0
VERTEX
  5
567
  8
LAYER_1
 10
48.332181307838852
 20
20.125175790579359
 30
0.0
  0
VERTEX
  5
568
  8
LAYER_1
 10
48.332181307838852
 20
20.228605116983118
 30
0.0
  0
VERTEX
  5
569
  8
LAYER_1
 10
48.332181307838852
 20
20.332034443386888
 30
0.0
  0
VERTEX
  5
56A
  8
LAYER_1
 10
48.332181307838852
 20
20.435463769790651
 30
0.0
  0
VERTEX
  5
56B
  8
LAYER_1
 10
48.228751981435103
 20
20.435463769790651
 30
0.0
  0
VERTEX
  5
56C
  8
LAYER_1
 10
48.228751981435103
 20
20.538893096194421
 30
0.0
  0
VERTEX
  5
56D
  8
LAYER_1
 10
48.125322655031333
 20
20.538893096194421
 30
0.0
  0
VERTEX
  5
56E
  8
LAYER_1
 10
48.125322655031333
 20
20.745751749001951
 30
0.0
  0
VERTEX
  5
56F
  8
LAYER_1
 10
48.021893328627563
 20
20.849181075405721
 30
0.0
  0
VERTEX
  5
570
  8
LAYER_1
 10
48.021893328627563
 20
20.952610401809491
 30
0.0
  0
VERTEX
  5
571
  8
LAYER_1
 10
48.021893328627563
 20
21.05603972821325
 30
0.0
  0
VERTEX
  5
572
  8
LAYER_1
 10
47.918464002223779
 20
21.05603972821325
 30
0.0
  0
VERTEX
  5
573
  8
LAYER_1
 10
47.918464002223779
 20
21.15946905461702
 30
0.0
  0
VERTEX
  5
574
  8
LAYER_1
 10
47.81503467582003
 20
21.15946905461702
 30
0.0
  0
VERTEX
  5
575
  8
LAYER_1
 10
47.71160534941626
 20
21.366327707424549
 30
0.0
  0
VERTEX
  5
576
  8
LAYER_1
 10
47.71160534941626
 20
21.469757033828319
 30
0.0
  0
VERTEX
  5
577
  8
LAYER_1
 10
47.71160534941626
 20
21.573186360232089
 30
0.0
  0
VERTEX
  5
578
  8
LAYER_1
 10
47.71160534941626
 20
21.676615686635859
 30
0.0
  0
VERTEX
  5
579
  8
LAYER_1
 10
47.60817602301249
 20
21.676615686635859
 30
0.0
  0
VERTEX
  5
57A
  8
LAYER_1
 10
47.60817602301249
 20
21.780045013039619
 30
0.0
  0
VERTEX
  5
57B
  8
LAYER_1
 10
47.60817602301249
 20
21.883474339443389
 30
0.0
  0
VERTEX
  5
57C
  8
LAYER_1
 10
47.401317370204957
 20
22.090332992250922
 30
0.0
  0
VERTEX
  5
57D
  8
LAYER_1
 10
47.401317370204957
 20
22.297191645058462
 30
0.0
  0
VERTEX
  5
57E
  8
LAYER_1
 10
47.297888043801187
 20
22.297191645058462
 30
0.0
  0
VERTEX
  5
57F
  8
LAYER_1
 10
47.297888043801187
 20
22.400620971462221
 30
0.0
  0
VERTEX
  5
580
  8
LAYER_1
 10
47.297888043801187
 20
22.504050297865991
 30
0.0
  0
VERTEX
  5
581
  8
LAYER_1
 10
47.297888043801187
 20
22.60747962426975
 30
0.0
  0
VERTEX
  5
582
  8
LAYER_1
 10
47.194458717397417
 20
22.60747962426975
 30
0.0
  0
VERTEX
  5
583
  8
LAYER_1
 10
47.091029390993647
 20
22.81433827707728
 30
0.0
  0
VERTEX
  5
584
  8
LAYER_1
 10
47.091029390993647
 20
23.02119692988482
 30
0.0
  0
VERTEX
  5
585
  8
LAYER_1
 10
46.987600064589877
 20
23.02119692988482
 30
0.0
  0
VERTEX
  5
586
  8
LAYER_1
 10
46.987600064589877
 20
23.124626256288579
 30
0.0
  0
VERTEX
  5
587
  8
LAYER_1
 10
46.987600064589877
 20
23.228055582692349
 30
0.0
  0
VERTEX
  5
588
  8
LAYER_1
 10
46.884170738186121
 20
23.434914235499889
 30
0.0
  0
VERTEX
  5
589
  8
LAYER_1
 10
46.884170738186121
 20
23.538343561903648
 30
0.0
  0
VERTEX
  5
58A
  8
LAYER_1
 10
46.780741411782351
 20
23.538343561903648
 30
0.0
  0
VERTEX
  5
58B
  8
LAYER_1
 10
46.780741411782351
 20
23.641772888307418
 30
0.0
  0
VERTEX
  5
58C
  8
LAYER_1
 10
46.677312085378581
 20
23.745202214711188
 30
0.0
  0
VERTEX
  5
58D
  8
LAYER_1
 10
46.677312085378581
 20
23.848631541114958
 30
0.0
  0
VERTEX
  5
58E
  8
LAYER_1
 10
46.573882758974811
 20
23.952060867518721
 30
0.0
  0
VERTEX
  5
58F
  8
LAYER_1
 10
46.573882758974811
 20
24.055490193922491
 30
0.0
  0
VERTEX
  5
590
  8
LAYER_1
 10
46.573882758974811
 20
24.158919520326251
 30
0.0
  0
VERTEX
  5
591
  8
LAYER_1
 10
46.470453432571063
 20
24.158919520326251
 30
0.0
  0
VERTEX
  5
592
  8
LAYER_1
 10
46.367024106167293
 20
24.262348846730021
 30
0.0
  0
VERTEX
  5
593
  8
LAYER_1
 10
46.367024106167293
 20
24.36577817313378
 30
0.0
  0
VERTEX
  5
594
  8
LAYER_1
 10
46.367024106167293
 20
24.46920749953755
 30
0.0
  0
VERTEX
  5
595
  8
LAYER_1
 10
46.263594779763523
 20
24.57263682594132
 30
0.0
  0
VERTEX
  5
596
  8
LAYER_1
 10
46.160165453359753
 20
24.67606615234509
 30
0.0
  0
VERTEX
  5
597
  8
LAYER_1
 10
46.160165453359753
 20
24.77949547874886
 30
0.0
  0
VERTEX
  5
598
  8
LAYER_1
 10
46.160165453359753
 20
24.882924805152619
 30
0.0
  0
VERTEX
  5
599
  8
LAYER_1
 10
46.05673612695599
 20
24.882924805152619
 30
0.0
  0
VERTEX
  5
59A
  8
LAYER_1
 10
46.05673612695599
 20
24.986354131556389
 30
0.0
  0
VERTEX
  5
59B
  8
LAYER_1
 10
45.95330680055222
 20
24.986354131556389
 30
0.0
  0
VERTEX
  5
59C
  8
LAYER_1
 10
45.95330680055222
 20
25.089783457960149
 30
0.0
  0
VERTEX
  5
59D
  8
LAYER_1
 10
45.84987747414845
 20
25.296642110767689
 30
0.0
  0
VERTEX
  5
59E
  8
LAYER_1
 10
45.84987747414845
 20
25.400071437171459
 30
0.0
  0
VERTEX
  5
59F
  8
LAYER_1
 10
45.74644814774468
 20
25.503500763575222
 30
0.0
  0
VERTEX
  5
5A0
  8
LAYER_1
 10
45.643018821340931
 20
25.606930089978992
 30
0.0
  0
VERTEX
  5
5A1
  8
LAYER_1
 10
45.643018821340931
 20
25.710359416382751
 30
0.0
  0
VERTEX
  5
5A2
  8
LAYER_1
 10
45.643018821340931
 20
25.813788742786521
 30
0.0
  0
VERTEX
  5
5A3
  8
LAYER_1
 10
45.539589494937161
 20
25.813788742786521
 30
0.0
  0
VERTEX
  5
5A4
  8
LAYER_1
 10
45.539589494937161
 20
25.917218069190291
 30
0.0
  0
VERTEX
  5
5A5
  8
LAYER_1
 10
45.539589494937161
 20
26.020647395594061
 30
0.0
  0
VERTEX
  5
5A6
  8
LAYER_1
 10
45.539589494937161
 20
26.12407672199782
 30
0.0
  0
VERTEX
  5
5A7
  8
LAYER_1
 10
45.436160168533391
 20
26.22750604840159
 30
0.0
  0
VERTEX
  5
5A8
  8
LAYER_1
 10
45.436160168533391
 20
26.33093537480536
 30
0.0
  0
VERTEX
  5
5A9
  8
LAYER_1
 10
45.436160168533391
 20
26.43436470120912
 30
0.0
  0
VERTEX
  5
5AA
  8
LAYER_1
 10
45.436160168533391
 20
26.53779402761289
 30
0.0
  0
VERTEX
  5
5AB
  8
LAYER_1
 10
45.436160168533391
 20
26.641223354016649
 30
0.0
  0
VERTEX
  5
5AC
  8
LAYER_1
 10
45.436160168533391
 20
26.744652680420419
 30
0.0
  0
VERTEX
  5
5AD
  8
LAYER_1
 10
45.436160168533391
 20
26.848082006824178
 30
0.0
  0
VERTEX
  5
5AE
  8
LAYER_1
 10
45.436160168533391
 20
26.951511333227948
 30
0.0
  0
VERTEX
  5
5AF
  8
LAYER_1
 10
45.436160168533391
 20
27.054940659631718
 30
0.0
  0
VERTEX
  5
5B0
  8
LAYER_1
 10
45.436160168533391
 20
27.158369986035488
 30
0.0
  0
VERTEX
  5
5B1
  8
LAYER_1
 10
45.436160168533391
 20
27.261799312439251
 30
0.0
  0
VERTEX
  5
5B2
  8
LAYER_1
 10
45.436160168533391
 20
27.365228638843021
 30
0.0
  0
VERTEX
  5
5B3
  8
LAYER_1
 10
45.436160168533391
 20
27.468657965246791
 30
0.0
  0
VERTEX
  5
5B4
  8
LAYER_1
 10
45.436160168533391
 20
27.572087291650561
 30
0.0
  0
VERTEX
  5
5B5
  8
LAYER_1
 10
45.436160168533391
 20
27.675516618054321
 30
0.0
  0
VERTEX
  5
5B6
  8
LAYER_1
 10
45.436160168533391
 20
27.778945944458091
 30
0.0
  0
VERTEX
  5
5B7
  8
LAYER_1
 10
45.436160168533391
 20
27.882375270861861
 30
0.0
  0
VERTEX
  5
5B8
  8
LAYER_1
 10
45.436160168533391
 20
27.98580459726562
 30
0.0
  0
VERTEX
  5
5B9
  8
LAYER_1
 10
45.436160168533391
 20
28.08923392366939
 30
0.0
  0
VERTEX
  5
5BA
  8
LAYER_1
 10
45.436160168533391
 20
28.192663250073149
 30
0.0
  0
VERTEX
  5
5BB
  8
LAYER_1
 10
45.436160168533391
 20
28.296092576476919
 30
0.0
  0
VERTEX
  5
5BC
  8
LAYER_1
 10
45.436160168533391
 20
28.399521902880689
 30
0.0
  0
VERTEX
  5
5BD
  8
LAYER_1
 10
45.436160168533391
 20
28.502951229284459
 30
0.0
  0
VERTEX
  5
5BE
  8
LAYER_1
 10
45.436160168533391
 20
28.606380555688219
 30
0.0
  0
VERTEX
  5
5BF
  8
LAYER_1
 10
45.436160168533391
 20
28.916668534899522
 30
0.0
  0
VERTEX
  5
5C0
  8
LAYER_1
 10
45.436160168533391
 20
29.020097861303281
 30
0.0
  0
VERTEX
  5
5C1
  8
LAYER_1
 10
45.436160168533391
 20
29.226956514110821
 30
0.0
  0
VERTEX
  5
5C2
  8
LAYER_1
 10
45.436160168533391
 20
29.330385840514591
 30
0.0
  0
VERTEX
  5
5C3
  8
LAYER_1
 10
45.436160168533391
 20
29.43381516691835
 30
0.0
  0
VERTEX
  5
5C4
  8
LAYER_1
 10
45.539589494937161
 20
29.74410314612966
 30
0.0
  0
VERTEX
  5
5C5
  8
LAYER_1
 10
45.539589494937161
 20
29.84753247253343
 30
0.0
  0
VERTEX
  5
5C6
  8
LAYER_1
 10
45.643018821340931
 20
29.95096179893719
 30
0.0
  0
VERTEX
  5
5C7
  8
LAYER_1
 10
45.74644814774468
 20
30.05439112534096
 30
0.0
  0
VERTEX
  5
5C8
  8
LAYER_1
 10
45.74644814774468
 20
30.157820451744719
 30
0.0
  0
VERTEX
  5
5C9
  8
LAYER_1
 10
45.84987747414845
 20
30.261249778148489
 30
0.0
  0
VERTEX
  5
5CA
  8
LAYER_1
 10
45.84987747414845
 20
30.364679104552248
 30
0.0
  0
VERTEX
  5
5CB
  8
LAYER_1
 10
46.05673612695599
 20
30.571537757359788
 30
0.0
  0
VERTEX
  5
5CC
  8
LAYER_1
 10
46.160165453359753
 20
30.674967083763558
 30
0.0
  0
VERTEX
  5
5CD
  8
LAYER_1
 10
46.160165453359753
 20
30.778396410167321
 30
0.0
  0
VERTEX
  5
5CE
  8
LAYER_1
 10
46.263594779763523
 20
30.778396410167321
 30
0.0
  0
VERTEX
  5
5CF
  8
LAYER_1
 10
46.263594779763523
 20
30.881825736571091
 30
0.0
  0
VERTEX
  5
5D0
  8
LAYER_1
 10
46.367024106167293
 20
30.985255062974861
 30
0.0
  0
VERTEX
  5
5D1
  8
LAYER_1
 10
46.470453432571063
 20
31.088684389378621
 30
0.0
  0
VERTEX
  5
5D2
  8
LAYER_1
 10
46.573882758974811
 20
31.29554304218615
 30
0.0
  0
VERTEX
  5
5D3
  8
LAYER_1
 10
46.677312085378581
 20
31.39897236858992
 30
0.0
  0
VERTEX
  5
5D4
  8
LAYER_1
 10
46.780741411782351
 20
31.50240169499369
 30
0.0
  0
VERTEX
  5
5D5
  8
LAYER_1
 10
46.780741411782351
 20
31.605831021397449
 30
0.0
  0
VERTEX
  5
5D6
  8
LAYER_1
 10
46.884170738186121
 20
31.605831021397449
 30
0.0
  0
VERTEX
  5
5D7
  8
LAYER_1
 10
46.884170738186121
 20
31.709260347801219
 30
0.0
  0
VERTEX
  5
5D8
  8
LAYER_1
 10
46.987600064589877
 20
31.812689674204989
 30
0.0
  0
VERTEX
  5
5D9
  8
LAYER_1
 10
47.091029390993647
 20
31.916119000608759
 30
0.0
  0
VERTEX
  5
5DA
  8
LAYER_1
 10
47.194458717397417
 20
32.019548327012529
 30
0.0
  0
VERTEX
  5
5DB
  8
LAYER_1
 10
47.194458717397417
 20
32.122977653416292
 30
0.0
  0
VERTEX
  5
5DC
  8
LAYER_1
 10
47.297888043801187
 20
32.122977653416292
 30
0.0
  0
VERTEX
  5
5DD
  8
LAYER_1
 10
47.297888043801187
 20
32.226406979820062
 30
0.0
  0
VERTEX
  5
5DE
  8
LAYER_1
 10
47.401317370204957
 20
32.226406979820062
 30
0.0
  0
VERTEX
  5
5DF
  8
LAYER_1
 10
47.401317370204957
 20
32.329836306223832
 30
0.0
  0
VERTEX
  5
5E0
  8
LAYER_1
 10
47.60817602301249
 20
32.536694959031351
 30
0.0
  0
VERTEX
  5
5E1
  8
LAYER_1
 10
47.71160534941626
 20
32.536694959031351
 30
0.0
  0
VERTEX
  5
5E2
  8
LAYER_1
 10
47.71160534941626
 20
32.640124285435121
 30
0.0
  0
VERTEX
  5
5E3
  8
LAYER_1
 10
47.81503467582003
 20
32.640124285435121
 30
0.0
  0
VERTEX
  5
5E4
  8
LAYER_1
 10
47.918464002223779
 20
32.743553611838891
 30
0.0
  0
VERTEX
  5
5E5
  8
LAYER_1
 10
47.918464002223779
 20
32.846982938242647
 30
0.0
  0
VERTEX
  5
5E6
  8
LAYER_1
 10
48.021893328627563
 20
32.846982938242647
 30
0.0
  0
VERTEX
  5
5E7
  8
LAYER_1
 10
48.125322655031333
 20
32.846982938242647
 30
0.0
  0
VERTEX
  5
5E8
  8
LAYER_1
 10
48.125322655031333
 20
32.950412264646417
 30
0.0
  0
VERTEX
  5
5E9
  8
LAYER_1
 10
48.228751981435103
 20
32.950412264646417
 30
0.0
  0
VERTEX
  5
5EA
  8
LAYER_1
 10
48.332181307838852
 20
32.950412264646417
 30
0.0
  0
VERTEX
  5
5EB
  8
LAYER_1
 10
48.435610634242622
 20
32.950412264646417
 30
0.0
  0
VERTEX
  5
5EC
  8
LAYER_1
 10
48.539039960646392
 20
32.950412264646417
 30
0.0
  0
VERTEX
  5
5ED
  8
LAYER_1
 10
48.642469287050162
 20
32.950412264646417
 30
0.0
  0
VERTEX
  5
5EE
  8
LAYER_1
 10
48.745898613453932
 20
32.950412264646417
 30
0.0
  0
VERTEX
  5
5EF
  8
LAYER_1
 10
48.84932793985768
 20
32.950412264646417
 30
0.0
  0
VERTEX
  5
5F0
  8
LAYER_1
 10
48.95275726626145
 20
32.950412264646417
 30
0.0
  0
VERTEX
  5
5F1
  8
LAYER_1
 10
49.05618659266522
 20
32.950412264646417
 30
0.0
  0
VERTEX
  5
5F2
  8
LAYER_1
 10
49.15961591906899
 20
32.950412264646417
 30
0.0
  0
VERTEX
  5
5F3
  8
LAYER_1
 10
49.263045245472753
 20
32.846982938242647
 30
0.0
  0
VERTEX
  5
5F4
  8
LAYER_1
 10
49.366474571876523
 20
32.846982938242647
 30
0.0
  0
VERTEX
  5
5F5
  8
LAYER_1
 10
49.366474571876523
 20
32.743553611838891
 30
0.0
  0
VERTEX
  5
5F6
  8
LAYER_1
 10
49.469903898280293
 20
32.743553611838891
 30
0.0
  0
VERTEX
  5
5F7
  8
LAYER_1
 10
49.573333224684063
 20
32.640124285435121
 30
0.0
  0
VERTEX
  5
5F8
  8
LAYER_1
 10
49.676762551087819
 20
32.640124285435121
 30
0.0
  0
VERTEX
  5
5F9
  8
LAYER_1
 10
49.780191877491589
 20
32.536694959031351
 30
0.0
  0
VERTEX
  5
5FA
  8
LAYER_1
 10
49.883621203895359
 20
32.536694959031351
 30
0.0
  0
VERTEX
  5
5FB
  8
LAYER_1
 10
49.883621203895359
 20
32.433265632627588
 30
0.0
  0
VERTEX
  5
5FC
  8
LAYER_1
 10
50.193909183106662
 20
32.226406979820062
 30
0.0
  0
VERTEX
  5
5FD
  8
LAYER_1
 10
50.297338509510432
 20
32.226406979820062
 30
0.0
  0
VERTEX
  5
5FE
  8
LAYER_1
 10
50.297338509510432
 20
32.122977653416292
 30
0.0
  0
VERTEX
  5
5FF
  8
LAYER_1
 10
50.400767835914202
 20
32.122977653416292
 30
0.0
  0
VERTEX
  5
600
  8
LAYER_1
 10
50.504197162317972
 20
32.019548327012529
 30
0.0
  0
VERTEX
  5
601
  8
LAYER_1
 10
50.504197162317972
 20
31.916119000608759
 30
0.0
  0
VERTEX
  5
602
  8
LAYER_1
 10
50.814485141529261
 20
31.709260347801219
 30
0.0
  0
VERTEX
  5
603
  8
LAYER_1
 10
50.917914467933031
 20
31.605831021397449
 30
0.0
  0
VERTEX
  5
604
  8
LAYER_1
 10
50.917914467933031
 20
31.50240169499369
 30
0.0
  0
VERTEX
  5
605
  8
LAYER_1
 10
51.021343794336779
 20
31.50240169499369
 30
0.0
  0
VERTEX
  5
606
  8
LAYER_1
 10
51.021343794336779
 20
31.39897236858992
 30
0.0
  0
VERTEX
  5
607
  8
LAYER_1
 10
51.021343794336779
 20
31.29554304218615
 30
0.0
  0
VERTEX
  5
608
  8
LAYER_1
 10
51.124773120740549
 20
31.192113715782391
 30
0.0
  0
VERTEX
  5
609
  8
LAYER_1
 10
51.228202447144319
 20
31.192113715782391
 30
0.0
  0
VERTEX
  5
60A
  8
LAYER_1
 10
51.228202447144319
 20
31.088684389378621
 30
0.0
  0
VERTEX
  5
60B
  8
LAYER_1
 10
51.228202447144319
 20
30.985255062974861
 30
0.0
  0
VERTEX
  5
60C
  8
LAYER_1
 10
51.331631773548089
 20
30.881825736571091
 30
0.0
  0
VERTEX
  5
60D
  8
LAYER_1
 10
51.331631773548089
 20
30.778396410167321
 30
0.0
  0
VERTEX
  5
60E
  8
LAYER_1
 10
51.331631773548089
 20
30.571537757359788
 30
0.0
  0
VERTEX
  5
60F
  8
LAYER_1
 10
51.331631773548089
 20
30.468108430956018
 30
0.0
  0
VERTEX
  5
610
  8
LAYER_1
 10
51.331631773548089
 20
30.364679104552248
 30
0.0
  0
VERTEX
  5
611
  8
LAYER_1
 10
51.435061099951852
 20
30.364679104552248
 30
0.0
  0
VERTEX
  5
612
  8
LAYER_1
 10
51.435061099951852
 20
30.261249778148489
 30
0.0
  0
VERTEX
  5
613
  8
LAYER_1
 10
51.435061099951852
 20
30.157820451744719
 30
0.0
  0
VERTEX
  5
614
  8
LAYER_1
 10
51.435061099951852
 20
29.84753247253343
 30
0.0
  0
VERTEX
  5
615
  8
LAYER_1
 10
51.538490426355622
 20
29.84753247253343
 30
0.0
  0
VERTEX
  5
616
  8
LAYER_1
 10
51.538490426355622
 20
29.64067381972589
 30
0.0
  0
VERTEX
  5
617
  8
LAYER_1
 10
51.538490426355622
 20
29.53724449332212
 30
0.0
  0
VERTEX
  5
618
  8
LAYER_1
 10
51.538490426355622
 20
29.43381516691835
 30
0.0
  0
VERTEX
  5
619
  8
LAYER_1
 10
51.538490426355622
 20
29.330385840514591
 30
0.0
  0
VERTEX
  5
61A
  8
LAYER_1
 10
51.538490426355622
 20
29.123527187707051
 30
0.0
  0
VERTEX
  5
61B
  8
LAYER_1
 10
51.538490426355622
 20
29.020097861303281
 30
0.0
  0
VERTEX
  5
61C
  8
LAYER_1
 10
51.538490426355622
 20
28.916668534899522
 30
0.0
  0
VERTEX
  5
61D
  8
LAYER_1
 10
51.538490426355622
 20
28.813239208495752
 30
0.0
  0
VERTEX
  5
61E
  8
LAYER_1
 10
51.538490426355622
 20
28.709809882091989
 30
0.0
  0
VERTEX
  5
61F
  8
LAYER_1
 10
51.538490426355622
 20
28.606380555688219
 30
0.0
  0
VERTEX
  5
620
  8
LAYER_1
 10
51.538490426355622
 20
28.296092576476919
 30
0.0
  0
VERTEX
  5
621
  8
LAYER_1
 10
51.538490426355622
 20
28.192663250073149
 30
0.0
  0
VERTEX
  5
622
  8
LAYER_1
 10
51.538490426355622
 20
27.98580459726562
 30
0.0
  0
VERTEX
  5
623
  8
LAYER_1
 10
51.538490426355622
 20
27.882375270861861
 30
0.0
  0
VERTEX
  5
624
  8
LAYER_1
 10
51.538490426355622
 20
27.778945944458091
 30
0.0
  0
VERTEX
  5
625
  8
LAYER_1
 10
51.538490426355622
 20
27.468657965246791
 30
0.0
  0
VERTEX
  5
626
  8
LAYER_1
 10
51.538490426355622
 20
27.365228638843021
 30
0.0
  0
VERTEX
  5
627
  8
LAYER_1
 10
51.538490426355622
 20
27.261799312439251
 30
0.0
  0
VERTEX
  5
628
  8
LAYER_1
 10
51.538490426355622
 20
27.158369986035488
 30
0.0
  0
VERTEX
  5
629
  8
LAYER_1
 10
51.538490426355622
 20
26.951511333227948
 30
0.0
  0
VERTEX
  5
62A
  8
LAYER_1
 10
51.538490426355622
 20
26.848082006824178
 30
0.0
  0
VERTEX
  5
62B
  8
LAYER_1
 10
51.538490426355622
 20
26.744652680420419
 30
0.0
  0
VERTEX
  5
62C
  8
LAYER_1
 10
51.435061099951852
 20
26.43436470120912
 30
0.0
  0
VERTEX
  5
62D
  8
LAYER_1
 10
51.435061099951852
 20
26.33093537480536
 30
0.0
  0
VERTEX
  5
62E
  8
LAYER_1
 10
51.331631773548089
 20
26.22750604840159
 30
0.0
  0
VERTEX
  5
62F
  8
LAYER_1
 10
51.331631773548089
 20
26.12407672199782
 30
0.0
  0
VERTEX
  5
630
  8
LAYER_1
 10
51.331631773548089
 20
26.020647395594061
 30
0.0
  0
VERTEX
  5
631
  8
LAYER_1
 10
51.331631773548089
 20
25.917218069190291
 30
0.0
  0
VERTEX
  5
632
  8
LAYER_1
 10
51.124773120740549
 20
25.400071437171459
 30
0.0
  0
VERTEX
  5
633
  8
LAYER_1
 10
51.021343794336779
 20
25.193212784363919
 30
0.0
  0
VERTEX
  5
634
  8
LAYER_1
 10
51.021343794336779
 20
24.882924805152619
 30
0.0
  0
VERTEX
  5
635
  8
LAYER_1
 10
50.917914467933031
 20
24.77949547874886
 30
0.0
  0
VERTEX
  5
636
  8
LAYER_1
 10
50.917914467933031
 20
24.67606615234509
 30
0.0
  0
VERTEX
  5
637
  8
LAYER_1
 10
50.917914467933031
 20
24.57263682594132
 30
0.0
  0
VERTEX
  5
638
  8
LAYER_1
 10
50.917914467933031
 20
24.46920749953755
 30
0.0
  0
VERTEX
  5
639
  8
LAYER_1
 10
50.917914467933031
 20
24.36577817313378
 30
0.0
  0
VERTEX
  5
63A
  8
LAYER_1
 10
50.917914467933031
 20
24.262348846730021
 30
0.0
  0
VERTEX
  5
63B
  8
LAYER_1
 10
50.917914467933031
 20
24.158919520326251
 30
0.0
  0
VERTEX
  5
63C
  8
LAYER_1
 10
50.917914467933031
 20
24.055490193922491
 30
0.0
  0
VERTEX
  5
63D
  8
LAYER_1
 10
50.917914467933031
 20
23.952060867518721
 30
0.0
  0
VERTEX
  5
63E
  8
LAYER_1
 10
50.917914467933031
 20
23.848631541114958
 30
0.0
  0
VERTEX
  5
63F
  8
LAYER_1
 10
50.917914467933031
 20
23.745202214711188
 30
0.0
  0
VERTEX
  5
640
  8
LAYER_1
 10
50.917914467933031
 20
23.641772888307418
 30
0.0
  0
VERTEX
  5
641
  8
LAYER_1
 10
50.917914467933031
 20
23.538343561903648
 30
0.0
  0
VERTEX
  5
642
  8
LAYER_1
 10
50.917914467933031
 20
23.434914235499889
 30
0.0
  0
VERTEX
  5
643
  8
LAYER_1
 10
51.021343794336779
 20
23.434914235499889
 30
0.0
  0
VERTEX
  5
644
  8
LAYER_1
 10
51.021343794336779
 20
23.228055582692349
 30
0.0
  0
VERTEX
  5
645
  8
LAYER_1
 10
51.124773120740549
 20
23.124626256288579
 30
0.0
  0
VERTEX
  5
646
  8
LAYER_1
 10
51.124773120740549
 20
23.02119692988482
 30
0.0
  0
VERTEX
  5
647
  8
LAYER_1
 10
51.228202447144319
 20
23.02119692988482
 30
0.0
  0
VERTEX
  5
648
  8
LAYER_1
 10
51.228202447144319
 20
22.91776760348105
 30
0.0
  0
VERTEX
  5
649
  8
LAYER_1
 10
51.228202447144319
 20
22.81433827707728
 30
0.0
  0
VERTEX
  5
64A
  8
LAYER_1
 10
51.331631773548089
 20
22.71090895067352
 30
0.0
  0
VERTEX
  5
64B
  8
LAYER_1
 10
51.331631773548089
 20
22.60747962426975
 30
0.0
  0
VERTEX
  5
64C
  8
LAYER_1
 10
51.331631773548089
 20
22.504050297865991
 30
0.0
  0
VERTEX
  5
64D
  8
LAYER_1
 10
51.435061099951852
 20
22.504050297865991
 30
0.0
  0
VERTEX
  5
64E
  8
LAYER_1
 10
51.538490426355622
 20
22.400620971462221
 30
0.0
  0
VERTEX
  5
64F
  8
LAYER_1
 10
51.538490426355622
 20
22.297191645058462
 30
0.0
  0
VERTEX
  5
650
  8
LAYER_1
 10
51.538490426355622
 20
22.193762318654692
 30
0.0
  0
VERTEX
  5
651
  8
LAYER_1
 10
51.641919752759392
 20
22.193762318654692
 30
0.0
  0
VERTEX
  5
652
  8
LAYER_1
 10
51.641919752759392
 20
22.090332992250922
 30
0.0
  0
VERTEX
  5
653
  8
LAYER_1
 10
51.745349079163162
 20
21.986903665847152
 30
0.0
  0
VERTEX
  5
654
  8
LAYER_1
 10
51.745349079163162
 20
21.883474339443389
 30
0.0
  0
VERTEX
  5
655
  8
LAYER_1
 10
51.848778405566911
 20
21.780045013039619
 30
0.0
  0
VERTEX
  5
656
  8
LAYER_1
 10
51.952207731970681
 20
21.780045013039619
 30
0.0
  0
VERTEX
  5
657
  8
LAYER_1
 10
51.952207731970681
 20
21.676615686635859
 30
0.0
  0
VERTEX
  5
658
  8
LAYER_1
 10
52.055637058374451
 20
21.676615686635859
 30
0.0
  0
VERTEX
  5
659
  8
LAYER_1
 10
52.159066384778221
 20
21.573186360232089
 30
0.0
  0
VERTEX
  5
65A
  8
LAYER_1
 10
52.262495711181991
 20
21.469757033828319
 30
0.0
  0
VERTEX
  5
65B
  8
LAYER_1
 10
52.365925037585761
 20
21.469757033828319
 30
0.0
  0
VERTEX
  5
65C
  8
LAYER_1
 10
52.365925037585761
 20
21.366327707424549
 30
0.0
  0
VERTEX
  5
65D
  8
LAYER_1
 10
52.469354363989531
 20
21.366327707424549
 30
0.0
  0
VERTEX
  5
65E
  8
LAYER_1
 10
52.572783690393301
 20
21.26289838102079
 30
0.0
  0
VERTEX
  5
65F
  8
LAYER_1
 10
52.676213016797071
 20
21.15946905461702
 30
0.0
  0
VERTEX
  5
660
  8
LAYER_1
 10
52.98650099600836
 20
20.952610401809491
 30
0.0
  0
VERTEX
  5
661
  8
LAYER_1
 10
53.08993032241213
 20
20.849181075405721
 30
0.0
  0
VERTEX
  5
662
  8
LAYER_1
 10
53.08993032241213
 20
20.745751749001951
 30
0.0
  0
VERTEX
  5
663
  8
LAYER_1
 10
53.193359648815878
 20
20.745751749001951
 30
0.0
  0
VERTEX
  5
664
  8
LAYER_1
 10
53.400218301623418
 20
20.642322422598181
 30
0.0
  0
VERTEX
  5
665
  8
LAYER_1
 10
53.503647628027188
 20
20.538893096194421
 30
0.0
  0
VERTEX
  5
666
  8
LAYER_1
 10
53.813935607238491
 20
20.332034443386888
 30
0.0
  0
VERTEX
  5
667
  8
LAYER_1
 10
53.917364933642261
 20
20.332034443386888
 30
0.0
  0
VERTEX
  5
668
  8
LAYER_1
 10
54.020794260046031
 20
20.228605116983118
 30
0.0
  0
VERTEX
  5
669
  8
LAYER_1
 10
54.22765291285355
 20
20.125175790579359
 30
0.0
  0
VERTEX
  5
66A
  8
LAYER_1
 10
54.43451156566109
 20
20.021746464175589
 30
0.0
  0
VERTEX
  5
66B
  8
LAYER_1
 10
54.53794089206486
 20
20.021746464175589
 30
0.0
  0
VERTEX
  5
66C
  8
LAYER_1
 10
54.64137021846863
 20
19.918317137771819
 30
0.0
  0
VERTEX
  5
66D
  8
LAYER_1
 10
54.84822887127617
 20
19.814887811368049
 30
0.0
  0
VERTEX
  5
66E
  8
LAYER_1
 10
54.951658197679919
 20
19.71145848496429
 30
0.0
  0
VERTEX
  5
66F
  8
LAYER_1
 10
55.055087524083689
 20
19.71145848496429
 30
0.0
  0
VERTEX
  5
670
  8
LAYER_1
 10
55.055087524083689
 20
19.60802915856052
 30
0.0
  0
VERTEX
  5
671
  8
LAYER_1
 10
55.158516850487459
 20
19.60802915856052
 30
0.0
  0
VERTEX
  5
672
  8
LAYER_1
 10
55.365375503294977
 20
19.50459983215675
 30
0.0
  0
VERTEX
  5
673
  8
LAYER_1
 10
55.468804829698747
 20
19.50459983215675
 30
0.0
  0
VERTEX
  5
674
  8
LAYER_1
 10
55.572234156102517
 20
19.50459983215675
 30
0.0
  0
VERTEX
  5
675
  8
LAYER_1
 10
55.675663482506287
 20
19.50459983215675
 30
0.0
  0
VERTEX
  5
676
  8
LAYER_1
 10
55.779092808910057
 20
19.50459983215675
 30
0.0
  0
VERTEX
  5
677
  8
LAYER_1
 10
55.88252213531382
 20
19.50459983215675
 30
0.0
  0
VERTEX
  5
678
  8
LAYER_1
 10
55.98595146171759
 20
19.50459983215675
 30
0.0
  0
VERTEX
  5
679
  8
LAYER_1
 10
56.08938078812136
 20
19.50459983215675
 30
0.0
  0
VERTEX
  5
67A
  8
LAYER_1
 10
56.19281011452513
 20
19.50459983215675
 30
0.0
  0
VERTEX
  5
67B
  8
LAYER_1
 10
56.296239440928879
 20
19.50459983215675
 30
0.0
  0
VERTEX
  5
67C
  8
LAYER_1
 10
56.399668767332649
 20
19.50459983215675
 30
0.0
  0
VERTEX
  5
67D
  8
LAYER_1
 10
56.503098093736419
 20
19.50459983215675
 30
0.0
  0
VERTEX
  5
67E
  8
LAYER_1
 10
56.606527420140189
 20
19.50459983215675
 30
0.0
  0
VERTEX
  5
67F
  8
LAYER_1
 10
56.709956746543952
 20
19.50459983215675
 30
0.0
  0
VERTEX
  5
680
  8
LAYER_1
 10
56.813386072947722
 20
19.50459983215675
 30
0.0
  0
VERTEX
  5
681
  8
LAYER_1
 10
56.916815399351492
 20
19.50459983215675
 30
0.0
  0
VERTEX
  5
682
  8
LAYER_1
 10
57.020244725755262
 20
19.60802915856052
 30
0.0
  0
VERTEX
  5
683
  8
LAYER_1
 10
57.123674052159032
 20
19.71145848496429
 30
0.0
  0
VERTEX
  5
684
  8
LAYER_1
 10
57.227103378562788
 20
19.71145848496429
 30
0.0
  0
VERTEX
  5
685
  8
LAYER_1
 10
57.330532704966558
 20
19.71145848496429
 30
0.0
  0
VERTEX
  5
686
  8
LAYER_1
 10
57.433962031370328
 20
19.814887811368049
 30
0.0
  0
VERTEX
  5
687
  8
LAYER_1
 10
57.744250010581617
 20
19.918317137771819
 30
0.0
  0
VERTEX
  5
688
  8
LAYER_1
 10
57.744250010581617
 20
20.021746464175589
 30
0.0
  0
VERTEX
  5
689
  8
LAYER_1
 10
57.847679336985387
 20
20.021746464175589
 30
0.0
  0
VERTEX
  5
68A
  8
LAYER_1
 10
57.847679336985387
 20
20.125175790579359
 30
0.0
  0
VERTEX
  5
68B
  8
LAYER_1
 10
57.951108663389157
 20
20.125175790579359
 30
0.0
  0
VERTEX
  5
68C
  8
LAYER_1
 10
57.951108663389157
 20
20.228605116983118
 30
0.0
  0
VERTEX
  5
68D
  8
LAYER_1
 10
58.054537989792919
 20
20.228605116983118
 30
0.0
  0
VERTEX
  5
68E
  8
LAYER_1
 10
58.157967316196689
 20
20.332034443386888
 30
0.0
  0
VERTEX
  5
68F
  8
LAYER_1
 10
58.157967316196689
 20
20.435463769790651
 30
0.0
  0
VERTEX
  5
690
  8
LAYER_1
 10
58.261396642600459
 20
20.538893096194421
 30
0.0
  0
VERTEX
  5
691
  8
LAYER_1
 10
58.261396642600459
 20
20.642322422598181
 30
0.0
  0
VERTEX
  5
692
  8
LAYER_1
 10
58.364825969004229
 20
20.745751749001951
 30
0.0
  0
VERTEX
  5
693
  8
LAYER_1
 10
58.364825969004229
 20
20.849181075405721
 30
0.0
  0
VERTEX
  5
694
  8
LAYER_1
 10
58.468255295407978
 20
20.849181075405721
 30
0.0
  0
VERTEX
  5
695
  8
LAYER_1
 10
58.468255295407978
 20
20.952610401809491
 30
0.0
  0
VERTEX
  5
696
  8
LAYER_1
 10
58.468255295407978
 20
21.15946905461702
 30
0.0
  0
VERTEX
  5
697
  8
LAYER_1
 10
58.468255295407978
 20
21.26289838102079
 30
0.0
  0
VERTEX
  5
698
  8
LAYER_1
 10
58.571684621811748
 20
21.26289838102079
 30
0.0
  0
VERTEX
  5
699
  8
LAYER_1
 10
58.571684621811748
 20
21.366327707424549
 30
0.0
  0
VERTEX
  5
69A
  8
LAYER_1
 10
58.571684621811748
 20
21.469757033828319
 30
0.0
  0
VERTEX
  5
69B
  8
LAYER_1
 10
58.571684621811748
 20
21.573186360232089
 30
0.0
  0
VERTEX
  5
69C
  8
LAYER_1
 10
58.571684621811748
 20
21.883474339443389
 30
0.0
  0
VERTEX
  5
69D
  8
LAYER_1
 10
58.675113948215518
 20
21.986903665847152
 30
0.0
  0
VERTEX
  5
69E
  8
LAYER_1
 10
58.675113948215518
 20
22.090332992250922
 30
0.0
  0
VERTEX
  5
69F
  8
LAYER_1
 10
58.675113948215518
 20
22.193762318654692
 30
0.0
  0
VERTEX
  5
6A0
  8
LAYER_1
 10
58.675113948215518
 20
22.297191645058462
 30
0.0
  0
VERTEX
  5
6A1
  8
LAYER_1
 10
58.675113948215518
 20
22.400620971462221
 30
0.0
  0
VERTEX
  5
6A2
  8
LAYER_1
 10
58.778543274619288
 20
22.60747962426975
 30
0.0
  0
VERTEX
  5
6A3
  8
LAYER_1
 10
58.778543274619288
 20
22.71090895067352
 30
0.0
  0
VERTEX
  5
6A4
  8
LAYER_1
 10
58.881972601023058
 20
22.81433827707728
 30
0.0
  0
VERTEX
  5
6A5
  8
LAYER_1
 10
58.881972601023058
 20
23.02119692988482
 30
0.0
  0
VERTEX
  5
6A6
  8
LAYER_1
 10
58.881972601023058
 20
23.124626256288579
 30
0.0
  0
VERTEX
  5
6A7
  8
LAYER_1
 10
58.881972601023058
 20
23.228055582692349
 30
0.0
  0
VERTEX
  5
6A8
  8
LAYER_1
 10
58.881972601023058
 20
23.434914235499889
 30
0.0
  0
VERTEX
  5
6A9
  8
LAYER_1
 10
58.881972601023058
 20
23.538343561903648
 30
0.0
  0
VERTEX
  5
6AA
  8
LAYER_1
 10
58.881972601023058
 20
23.641772888307418
 30
0.0
  0
VERTEX
  5
6AB
  8
LAYER_1
 10
58.881972601023058
 20
23.745202214711188
 30
0.0
  0
VERTEX
  5
6AC
  8
LAYER_1
 10
58.881972601023058
 20
23.848631541114958
 30
0.0
  0
VERTEX
  5
6AD
  8
LAYER_1
 10
58.881972601023058
 20
23.952060867518721
 30
0.0
  0
VERTEX
  5
6AE
  8
LAYER_1
 10
58.881972601023058
 20
24.158919520326251
 30
0.0
  0
VERTEX
  5
6AF
  8
LAYER_1
 10
58.881972601023058
 20
24.36577817313378
 30
0.0
  0
VERTEX
  5
6B0
  8
LAYER_1
 10
58.881972601023058
 20
24.46920749953755
 30
0.0
  0
VERTEX
  5
6B1
  8
LAYER_1
 10
58.881972601023058
 20
24.57263682594132
 30
0.0
  0
VERTEX
  5
6B2
  8
LAYER_1
 10
58.881972601023058
 20
24.67606615234509
 30
0.0
  0
VERTEX
  5
6B3
  8
LAYER_1
 10
58.881972601023058
 20
24.77949547874886
 30
0.0
  0
VERTEX
  5
6B4
  8
LAYER_1
 10
58.881972601023058
 20
25.089783457960149
 30
0.0
  0
VERTEX
  5
6B5
  8
LAYER_1
 10
58.778543274619288
 20
25.193212784363919
 30
0.0
  0
VERTEX
  5
6B6
  8
LAYER_1
 10
58.778543274619288
 20
25.296642110767689
 30
0.0
  0
VERTEX
  5
6B7
  8
LAYER_1
 10
58.675113948215518
 20
25.606930089978992
 30
0.0
  0
VERTEX
  5
6B8
  8
LAYER_1
 10
58.675113948215518
 20
25.710359416382751
 30
0.0
  0
VERTEX
  5
6B9
  8
LAYER_1
 10
58.675113948215518
 20
25.813788742786521
 30
0.0
  0
VERTEX
  5
6BA
  8
LAYER_1
 10
58.571684621811748
 20
26.12407672199782
 30
0.0
  0
VERTEX
  5
6BB
  8
LAYER_1
 10
58.468255295407978
 20
26.33093537480536
 30
0.0
  0
VERTEX
  5
6BC
  8
LAYER_1
 10
58.468255295407978
 20
26.43436470120912
 30
0.0
  0
VERTEX
  5
6BD
  8
LAYER_1
 10
58.364825969004229
 20
26.641223354016649
 30
0.0
  0
VERTEX
  5
6BE
  8
LAYER_1
 10
58.364825969004229
 20
26.744652680420419
 30
0.0
  0
VERTEX
  5
6BF
  8
LAYER_1
 10
58.261396642600459
 20
26.848082006824178
 30
0.0
  0
VERTEX
  5
6C0
  8
LAYER_1
 10
58.261396642600459
 20
27.054940659631718
 30
0.0
  0
VERTEX
  5
6C1
  8
LAYER_1
 10
58.261396642600459
 20
27.158369986035488
 30
0.0
  0
VERTEX
  5
6C2
  8
LAYER_1
 10
58.157967316196689
 20
27.261799312439251
 30
0.0
  0
VERTEX
  5
6C3
  8
LAYER_1
 10
58.054537989792919
 20
27.468657965246791
 30
0.0
  0
VERTEX
  5
6C4
  8
LAYER_1
 10
58.054537989792919
 20
27.572087291650561
 30
0.0
  0
VERTEX
  5
6C5
  8
LAYER_1
 10
57.951108663389157
 20
27.675516618054321
 30
0.0
  0
VERTEX
  5
6C6
  8
LAYER_1
 10
57.847679336985387
 20
27.98580459726562
 30
0.0
  0
VERTEX
  5
6C7
  8
LAYER_1
 10
57.744250010581617
 20
28.08923392366939
 30
0.0
  0
VERTEX
  5
6C8
  8
LAYER_1
 10
57.744250010581617
 20
28.192663250073149
 30
0.0
  0
VERTEX
  5
6C9
  8
LAYER_1
 10
57.640820684177847
 20
28.399521902880689
 30
0.0
  0
VERTEX
  5
6CA
  8
LAYER_1
 10
57.640820684177847
 20
28.502951229284459
 30
0.0
  0
VERTEX
  5
6CB
  8
LAYER_1
 10
57.537391357774098
 20
28.606380555688219
 30
0.0
  0
VERTEX
  5
6CC
  8
LAYER_1
 10
57.330532704966558
 20
28.813239208495752
 30
0.0
  0
VERTEX
  5
6CD
  8
LAYER_1
 10
57.330532704966558
 20
28.916668534899522
 30
0.0
  0
VERTEX
  5
6CE
  8
LAYER_1
 10
57.227103378562788
 20
29.020097861303281
 30
0.0
  0
VERTEX
  5
6CF
  8
LAYER_1
 10
57.227103378562788
 20
29.123527187707051
 30
0.0
  0
VERTEX
  5
6D0
  8
LAYER_1
 10
57.227103378562788
 20
29.226956514110821
 30
0.0
  0
VERTEX
  5
6D1
  8
LAYER_1
 10
57.123674052159032
 20
29.226956514110821
 30
0.0
  0
VERTEX
  5
6D2
  8
LAYER_1
 10
57.020244725755262
 20
29.53724449332212
 30
0.0
  0
VERTEX
  5
6D3
  8
LAYER_1
 10
57.020244725755262
 20
29.64067381972589
 30
0.0
  0
VERTEX
  5
6D4
  8
LAYER_1
 10
56.916815399351492
 20
29.64067381972589
 30
0.0
  0
VERTEX
  5
6D5
  8
LAYER_1
 10
56.813386072947722
 20
29.84753247253343
 30
0.0
  0
VERTEX
  5
6D6
  8
LAYER_1
 10
56.813386072947722
 20
29.95096179893719
 30
0.0
  0
VERTEX
  5
6D7
  8
LAYER_1
 10
56.709956746543952
 20
30.05439112534096
 30
0.0
  0
VERTEX
  5
6D8
  8
LAYER_1
 10
56.606527420140189
 20
30.261249778148489
 30
0.0
  0
VERTEX
  5
6D9
  8
LAYER_1
 10
56.606527420140189
 20
30.364679104552248
 30
0.0
  0
VERTEX
  5
6DA
  8
LAYER_1
 10
56.503098093736419
 20
30.468108430956018
 30
0.0
  0
VERTEX
  5
6DB
  8
LAYER_1
 10
56.503098093736419
 20
30.674967083763558
 30
0.0
  0
VERTEX
  5
6DC
  8
LAYER_1
 10
56.399668767332649
 20
30.881825736571091
 30
0.0
  0
VERTEX
  5
6DD
  8
LAYER_1
 10
56.399668767332649
 20
30.985255062974861
 30
0.0
  0
VERTEX
  5
6DE
  8
LAYER_1
 10
56.296239440928879
 20
31.192113715782391
 30
0.0
  0
VERTEX
  5
6DF
  8
LAYER_1
 10
56.19281011452513
 20
31.39897236858992
 30
0.0
  0
VERTEX
  5
6E0
  8
LAYER_1
 10
56.19281011452513
 20
31.50240169499369
 30
0.0
  0
VERTEX
  5
6E1
  8
LAYER_1
 10
56.08938078812136
 20
31.605831021397449
 30
0.0
  0
VERTEX
  5
6E2
  8
LAYER_1
 10
56.08938078812136
 20
31.709260347801219
 30
0.0
  0
VERTEX
  5
6E3
  8
LAYER_1
 10
55.88252213531382
 20
32.122977653416292
 30
0.0
  0
VERTEX
  5
6E4
  8
LAYER_1
 10
55.88252213531382
 20
32.226406979820062
 30
0.0
  0
VERTEX
  5
6E5
  8
LAYER_1
 10
55.779092808910057
 20
32.329836306223832
 30
0.0
  0
VERTEX
  5
6E6
  8
LAYER_1
 10
55.779092808910057
 20
32.433265632627588
 30
0.0
  0
VERTEX
  5
6E7
  8
LAYER_1
 10
55.779092808910057
 20
32.536694959031351
 30
0.0
  0
VERTEX
  5
6E8
  8
LAYER_1
 10
55.675663482506287
 20
32.640124285435121
 30
0.0
  0
VERTEX
  5
6E9
  8
LAYER_1
 10
55.572234156102517
 20
32.950412264646417
 30
0.0
  0
VERTEX
  5
6EA
  8
LAYER_1
 10
55.468804829698747
 20
32.950412264646417
 30
0.0
  0
VERTEX
  5
6EB
  8
LAYER_1
 10
55.468804829698747
 20
33.157270917453957
 30
0.0
  0
VERTEX
  5
6EC
  8
LAYER_1
 10
55.365375503294977
 20
33.26070024385772
 30
0.0
  0
VERTEX
  5
6ED
  8
LAYER_1
 10
55.365375503294977
 20
33.364129570261483
 30
0.0
  0
VERTEX
  5
6EE
  8
LAYER_1
 10
55.365375503294977
 20
33.467558896665253
 30
0.0
  0
VERTEX
  5
6EF
  8
LAYER_1
 10
55.158516850487459
 20
33.674417549472793
 30
0.0
  0
VERTEX
  5
6F0
  8
LAYER_1
 10
55.055087524083689
 20
33.881276202280318
 30
0.0
  0
VERTEX
  5
6F1
  8
LAYER_1
 10
55.055087524083689
 20
33.984705528684088
 30
0.0
  0
VERTEX
  5
6F2
  8
LAYER_1
 10
54.951658197679919
 20
34.191564181491621
 30
0.0
  0
VERTEX
  5
6F3
  8
LAYER_1
 10
54.951658197679919
 20
34.294993507895391
 30
0.0
  0
VERTEX
  5
6F4
  8
LAYER_1
 10
54.7447995448724
 20
34.398422834299161
 30
0.0
  0
VERTEX
  5
6F5
  8
LAYER_1
 10
54.7447995448724
 20
34.501852160702931
 30
0.0
  0
VERTEX
  5
6F6
  8
LAYER_1
 10
54.7447995448724
 20
34.70871081351045
 30
0.0
  0
VERTEX
  5
6F7
  8
LAYER_1
 10
54.64137021846863
 20
34.70871081351045
 30
0.0
  0
VERTEX
  5
6F8
  8
LAYER_1
 10
54.64137021846863
 20
35.018998792721753
 30
0.0
  0
VERTEX
  5
6F9
  8
LAYER_1
 10
54.53794089206486
 20
35.018998792721753
 30
0.0
  0
VERTEX
  5
6FA
  8
LAYER_1
 10
54.53794089206486
 20
35.122428119125523
 30
0.0
  0
VERTEX
  5
6FB
  8
LAYER_1
 10
54.43451156566109
 20
35.329286771933063
 30
0.0
  0
VERTEX
  5
6FC
  8
LAYER_1
 10
54.43451156566109
 20
35.432716098336833
 30
0.0
  0
VERTEX
  5
6FD
  8
LAYER_1
 10
54.43451156566109
 20
35.536145424740589
 30
0.0
  0
VERTEX
  5
6FE
  8
LAYER_1
 10
54.33108223925732
 20
35.743004077548122
 30
0.0
  0
VERTEX
  5
6FF
  8
LAYER_1
 10
54.33108223925732
 20
35.846433403951892
 30
0.0
  0
VERTEX
  5
700
  8
LAYER_1
 10
54.22765291285355
 20
36.053292056759418
 30
0.0
  0
VERTEX
  5
701
  8
LAYER_1
 10
54.22765291285355
 20
36.156721383163188
 30
0.0
  0
VERTEX
  5
702
  8
LAYER_1
 10
54.12422358644978
 20
36.467009362374483
 30
0.0
  0
VERTEX
  5
703
  8
LAYER_1
 10
54.020794260046031
 20
36.570438688778253
 30
0.0
  0
VERTEX
  5
704
  8
LAYER_1
 10
54.020794260046031
 20
36.673868015182023
 30
0.0
  0
VERTEX
  5
705
  8
LAYER_1
 10
54.020794260046031
 20
36.880726667989549
 30
0.0
  0
VERTEX
  5
706
  8
LAYER_1
 10
53.917364933642261
 20
37.191014647200859
 30
0.0
  0
VERTEX
  5
707
  8
LAYER_1
 10
53.813935607238491
 20
37.294443973604622
 30
0.0
  0
VERTEX
  5
708
  8
LAYER_1
 10
53.813935607238491
 20
37.397873300008392
 30
0.0
  0
VERTEX
  5
709
  8
LAYER_1
 10
53.813935607238491
 20
37.501302626412162
 30
0.0
  0
VERTEX
  5
70A
  8
LAYER_1
 10
53.710506280834721
 20
37.604731952815932
 30
0.0
  0
VERTEX
  5
70B
  8
LAYER_1
 10
53.710506280834721
 20
37.708161279219688
 30
0.0
  0
VERTEX
  5
70C
  8
LAYER_1
 10
53.710506280834721
 20
37.811590605623451
 30
0.0
  0
VERTEX
  5
70D
  8
LAYER_1
 10
53.710506280834721
 20
37.915019932027221
 30
0.0
  0
VERTEX
  5
70E
  8
LAYER_1
 10
53.607076954430951
 20
38.018449258430991
 30
0.0
  0
VERTEX
  5
70F
  8
LAYER_1
 10
53.607076954430951
 20
38.328737237642287
 30
0.0
  0
VERTEX
  5
710
  8
LAYER_1
 10
53.607076954430951
 20
38.432166564046057
 30
0.0
  0
VERTEX
  5
711
  8
LAYER_1
 10
53.607076954430951
 20
38.535595890449819
 30
0.0
  0
VERTEX
  5
712
  8
LAYER_1
 10
53.503647628027188
 20
38.639025216853589
 30
0.0
  0
VERTEX
  5
713
  8
LAYER_1
 10
53.503647628027188
 20
38.742454543257352
 30
0.0
  0
VERTEX
  5
714
  8
LAYER_1
 10
53.503647628027188
 20
38.845883869661122
 30
0.0
  0
VERTEX
  5
715
  8
LAYER_1
 10
53.503647628027188
 20
39.052742522468648
 30
0.0
  0
VERTEX
  5
716
  8
LAYER_1
 10
53.503647628027188
 20
39.156171848872418
 30
0.0
  0
VERTEX
  5
717
  8
LAYER_1
 10
53.400218301623418
 20
39.259601175276188
 30
0.0
  0
VERTEX
  5
718
  8
LAYER_1
 10
53.400218301623418
 20
39.363030501679958
 30
0.0
  0
VERTEX
  5
719
  8
LAYER_1
 10
53.400218301623418
 20
39.466459828083721
 30
0.0
  0
VERTEX
  5
71A
  8
LAYER_1
 10
53.400218301623418
 20
39.569889154487491
 30
0.0
  0
VERTEX
  5
71B
  8
LAYER_1
 10
53.400218301623418
 20
39.673318480891261
 30
0.0
  0
VERTEX
  5
71C
  8
LAYER_1
 10
53.296788975219648
 20
39.673318480891261
 30
0.0
  0
VERTEX
  5
71D
  8
LAYER_1
 10
53.296788975219648
 20
39.776747807295031
 30
0.0
  0
VERTEX
  5
71E
  8
LAYER_1
 10
53.296788975219648
 20
39.880177133698787
 30
0.0
  0
VERTEX
  5
71F
  8
LAYER_1
 10
53.296788975219648
 20
39.98360646010255
 30
0.0
  0
VERTEX
  5
720
  8
LAYER_1
 10
53.296788975219648
 20
40.087035786506313
 30
0.0
  0
VERTEX
  5
721
  8
LAYER_1
 10
53.296788975219648
 20
40.190465112910083
 30
0.0
  0
VERTEX
  5
722
  8
LAYER_1
 10
53.296788975219648
 20
40.293894439313853
 30
0.0
  0
VERTEX
  5
723
  8
LAYER_1
 10
53.296788975219648
 20
40.397323765717623
 30
0.0
  0
VERTEX
  5
724
  8
LAYER_1
 10
53.296788975219648
 20
40.500753092121393
 30
0.0
  0
VERTEX
  5
725
  8
LAYER_1
 10
53.296788975219648
 20
40.604182418525163
 30
0.0
  0
VERTEX
  5
726
  8
LAYER_1
 10
53.296788975219648
 20
40.707611744928933
 30
0.0
  0
VERTEX
  5
727
  8
LAYER_1
 10
53.296788975219648
 20
40.811041071332689
 30
0.0
  0
VERTEX
  5
728
  8
LAYER_1
 10
53.296788975219648
 20
40.914470397736451
 30
0.0
  0
VERTEX
  5
729
  8
LAYER_1
 10
53.296788975219648
 20
41.017899724140221
 30
0.0
  0
VERTEX
  5
72A
  8
LAYER_1
 10
53.296788975219648
 20
41.121329050543991
 30
0.0
  0
VERTEX
  5
72B
  8
LAYER_1
 10
53.296788975219648
 20
41.224758376947747
 30
0.0
  0
VERTEX
  5
72C
  8
LAYER_1
 10
53.296788975219648
 20
41.32818770335151
 30
0.0
  0
VERTEX
  5
72D
  8
LAYER_1
 10
53.296788975219648
 20
41.43161702975528
 30
0.0
  0
VERTEX
  5
72E
  8
LAYER_1
 10
53.296788975219648
 20
41.53504635615905
 30
0.0
  0
VERTEX
  5
72F
  8
LAYER_1
 10
53.400218301623418
 20
41.53504635615905
 30
0.0
  0
VERTEX
  5
730
  8
LAYER_1
 10
53.400218301623418
 20
41.63847568256282
 30
0.0
  0
VERTEX
  5
731
  8
LAYER_1
 10
53.400218301623418
 20
41.845334335370353
 30
0.0
  0
VERTEX
  5
732
  8
LAYER_1
 10
53.503647628027188
 20
41.948763661774123
 30
0.0
  0
VERTEX
  5
733
  8
LAYER_1
 10
53.607076954430951
 20
42.052192988177893
 30
0.0
  0
VERTEX
  5
734
  8
LAYER_1
 10
53.607076954430951
 20
42.155622314581649
 30
0.0
  0
VERTEX
  5
735
  8
LAYER_1
 10
53.710506280834721
 20
42.259051640985412
 30
0.0
  0
VERTEX
  5
736
  8
LAYER_1
 10
53.813935607238491
 20
42.259051640985412
 30
0.0
  0
VERTEX
  5
737
  8
LAYER_1
 10
53.917364933642261
 20
42.465910293792952
 30
0.0
  0
VERTEX
  5
738
  8
LAYER_1
 10
54.020794260046031
 20
42.569339620196722
 30
0.0
  0
VERTEX
  5
739
  8
LAYER_1
 10
54.12422358644978
 20
42.672768946600492
 30
0.0
  0
VERTEX
  5
73A
  8
LAYER_1
 10
54.22765291285355
 20
42.776198273004262
 30
0.0
  0
VERTEX
  5
73B
  8
LAYER_1
 10
54.22765291285355
 20
42.879627599408032
 30
0.0
  0
VERTEX
  5
73C
  8
LAYER_1
 10
54.33108223925732
 20
42.983056925811788
 30
0.0
  0
VERTEX
  5
73D
  8
LAYER_1
 10
54.43451156566109
 20
43.086486252215551
 30
0.0
  0
VERTEX
  5
73E
  8
LAYER_1
 10
54.53794089206486
 20
43.189915578619321
 30
0.0
  0
VERTEX
  5
73F
  8
LAYER_1
 10
54.64137021846863
 20
43.293344905023091
 30
0.0
  0
VERTEX
  5
740
  8
LAYER_1
 10
54.64137021846863
 20
43.396774231426853
 30
0.0
  0
VERTEX
  5
741
  8
LAYER_1
 10
54.7447995448724
 20
43.396774231426853
 30
0.0
  0
VERTEX
  5
742
  8
LAYER_1
 10
54.7447995448724
 20
43.500203557830609
 30
0.0
  0
VERTEX
  5
743
  8
LAYER_1
 10
54.951658197679919
 20
43.707062210638149
 30
0.0
  0
VERTEX
  5
744
  8
LAYER_1
 10
55.055087524083689
 20
43.810491537041919
 30
0.0
  0
VERTEX
  5
745
  8
LAYER_1
 10
55.055087524083689
 20
43.913920863445689
 30
0.0
  0
VERTEX
  5
746
  8
LAYER_1
 10
55.158516850487459
 20
43.913920863445689
 30
0.0
  0
VERTEX
  5
747
  8
LAYER_1
 10
55.261946176891229
 20
44.017350189849452
 30
0.0
  0
VERTEX
  5
748
  8
LAYER_1
 10
55.365375503294977
 20
44.224208842656992
 30
0.0
  0
VERTEX
  5
749
  8
LAYER_1
 10
55.468804829698747
 20
44.224208842656992
 30
0.0
  0
VERTEX
  5
74A
  8
LAYER_1
 10
55.675663482506287
 20
44.431067495464511
 30
0.0
  0
VERTEX
  5
74B
  8
LAYER_1
 10
55.779092808910057
 20
44.534496821868281
 30
0.0
  0
VERTEX
  5
74C
  8
LAYER_1
 10
55.88252213531382
 20
44.534496821868281
 30
0.0
  0
VERTEX
  5
74D
  8
LAYER_1
 10
55.88252213531382
 20
44.637926148272051
 30
0.0
  0
VERTEX
  5
74E
  8
LAYER_1
 10
55.98595146171759
 20
44.637926148272051
 30
0.0
  0
VERTEX
  5
74F
  8
LAYER_1
 10
56.08938078812136
 20
44.637926148272051
 30
0.0
  0
VERTEX
  5
750
  8
LAYER_1
 10
56.296239440928879
 20
44.844784801079577
 30
0.0
  0
VERTEX
  5
751
  8
LAYER_1
 10
56.399668767332649
 20
44.844784801079577
 30
0.0
  0
VERTEX
  5
752
  8
LAYER_1
 10
56.399668767332649
 20
44.948214127483347
 30
0.0
  0
VERTEX
  5
753
  8
LAYER_1
 10
56.503098093736419
 20
44.948214127483347
 30
0.0
  0
VERTEX
  5
754
  8
LAYER_1
 10
56.709956746543952
 20
44.948214127483347
 30
0.0
  0
VERTEX
  5
755
  8
LAYER_1
 10
56.813386072947722
 20
45.051643453887117
 30
0.0
  0
VERTEX
  5
756
  8
LAYER_1
 10
57.020244725755262
 20
45.155072780290887
 30
0.0
  0
VERTEX
  5
757
  8
LAYER_1
 10
57.123674052159032
 20
45.155072780290887
 30
0.0
  0
VERTEX
  5
758
  8
LAYER_1
 10
57.227103378562788
 20
45.155072780290887
 30
0.0
  0
VERTEX
  5
759
  8
LAYER_1
 10
57.330532704966558
 20
45.155072780290887
 30
0.0
  0
VERTEX
  5
75A
  8
LAYER_1
 10
57.330532704966558
 20
45.258502106694657
 30
0.0
  0
VERTEX
  5
75B
  8
LAYER_1
 10
57.433962031370328
 20
45.258502106694657
 30
0.0
  0
VERTEX
  5
75C
  8
LAYER_1
 10
57.640820684177847
 20
45.258502106694657
 30
0.0
  0
VERTEX
  5
75D
  8
LAYER_1
 10
57.744250010581617
 20
45.258502106694657
 30
0.0
  0
VERTEX
  5
75E
  8
LAYER_1
 10
57.847679336985387
 20
45.258502106694657
 30
0.0
  0
VERTEX
  5
75F
  8
LAYER_1
 10
57.951108663389157
 20
45.258502106694657
 30
0.0
  0
VERTEX
  5
760
  8
LAYER_1
 10
58.054537989792919
 20
45.258502106694657
 30
0.0
  0
VERTEX
  5
761
  8
LAYER_1
 10
58.157967316196689
 20
45.36193143309842
 30
0.0
  0
VERTEX
  5
762
  8
LAYER_1
 10
58.261396642600459
 20
45.36193143309842
 30
0.0
  0
VERTEX
  5
763
  8
LAYER_1
 10
58.364825969004229
 20
45.36193143309842
 30
0.0
  0
VERTEX
  5
764
  8
LAYER_1
 10
58.468255295407978
 20
45.36193143309842
 30
0.0
  0
VERTEX
  5
765
  8
LAYER_1
 10
58.675113948215518
 20
45.36193143309842
 30
0.0
  0
VERTEX
  5
766
  8
LAYER_1
 10
58.881972601023058
 20
45.36193143309842
 30
0.0
  0
VERTEX
  5
767
  8
LAYER_1
 10
58.985401927426821
 20
45.36193143309842
 30
0.0
  0
VERTEX
  5
768
  8
LAYER_1
 10
59.088831253830591
 20
45.36193143309842
 30
0.0
  0
VERTEX
  5
769
  8
LAYER_1
 10
59.192260580234361
 20
45.36193143309842
 30
0.0
  0
VERTEX
  5
76A
  8
LAYER_1
 10
59.295689906638131
 20
45.36193143309842
 30
0.0
  0
VERTEX
  5
76B
  8
LAYER_1
 10
59.399119233041887
 20
45.36193143309842
 30
0.0
  0
VERTEX
  5
76C
  8
LAYER_1
 10
59.502548559445657
 20
45.36193143309842
 30
0.0
  0
VERTEX
  5
76D
  8
LAYER_1
 10
59.605977885849427
 20
45.36193143309842
 30
0.0
  0
VERTEX
  5
76E
  8
LAYER_1
 10
59.605977885849427
 20
45.258502106694657
 30
0.0
  0
VERTEX
  5
76F
  8
LAYER_1
 10
59.709407212253197
 20
45.258502106694657
 30
0.0
  0
VERTEX
  5
770
  8
LAYER_1
 10
59.812836538656953
 20
45.258502106694657
 30
0.0
  0
VERTEX
  5
771
  8
LAYER_1
 10
59.812836538656953
 20
45.155072780290887
 30
0.0
  0
VERTEX
  5
772
  8
LAYER_1
 10
59.916265865060723
 20
45.051643453887117
 30
0.0
  0
VERTEX
  5
773
  8
LAYER_1
 10
60.019695191464493
 20
45.051643453887117
 30
0.0
  0
VERTEX
  5
774
  8
LAYER_1
 10
60.123124517868263
 20
44.948214127483347
 30
0.0
  0
VERTEX
  5
775
  8
LAYER_1
 10
60.123124517868263
 20
44.844784801079577
 30
0.0
  0
VERTEX
  5
776
  8
LAYER_1
 10
60.226553844272019
 20
44.844784801079577
 30
0.0
  0
VERTEX
  5
777
  8
LAYER_1
 10
60.329983170675789
 20
44.741355474675807
 30
0.0
  0
VERTEX
  5
778
  8
LAYER_1
 10
60.433412497079559
 20
44.637926148272051
 30
0.0
  0
VERTEX
  5
779
  8
LAYER_1
 10
60.536841823483329
 20
44.637926148272051
 30
0.0
  0
VERTEX
  5
77A
  8
LAYER_1
 10
60.536841823483329
 20
44.534496821868281
 30
0.0
  0
VERTEX
  5
77B
  8
LAYER_1
 10
60.640271149887099
 20
44.431067495464511
 30
0.0
  0
VERTEX
  5
77C
  8
LAYER_1
 10
60.743700476290847
 20
44.327638169060748
 30
0.0
  0
VERTEX
  5
77D
  8
LAYER_1
 10
60.743700476290847
 20
44.224208842656992
 30
0.0
  0
VERTEX
  5
77E
  8
LAYER_1
 10
60.847129802694617
 20
44.224208842656992
 30
0.0
  0
VERTEX
  5
77F
  8
LAYER_1
 10
60.847129802694617
 20
44.120779516253222
 30
0.0
  0
VERTEX
  5
780
  8
LAYER_1
 10
60.950559129098387
 20
44.120779516253222
 30
0.0
  0
VERTEX
  5
781
  8
LAYER_1
 10
61.053988455502157
 20
43.913920863445689
 30
0.0
  0
VERTEX
  5
782
  8
LAYER_1
 10
61.26084710830969
 20
43.810491537041919
 30
0.0
  0
VERTEX
  5
783
  8
LAYER_1
 10
61.26084710830969
 20
43.707062210638149
 30
0.0
  0
VERTEX
  5
784
  8
LAYER_1
 10
61.26084710830969
 20
43.603632884234379
 30
0.0
  0
VERTEX
  5
785
  8
LAYER_1
 10
61.46770576111723
 20
43.500203557830609
 30
0.0
  0
VERTEX
  5
786
  8
LAYER_1
 10
61.46770576111723
 20
43.396774231426853
 30
0.0
  0
VERTEX
  5
787
  8
LAYER_1
 10
61.571135087520979
 20
43.293344905023091
 30
0.0
  0
VERTEX
  5
788
  8
LAYER_1
 10
61.571135087520979
 20
43.189915578619321
 30
0.0
  0
VERTEX
  5
789
  8
LAYER_1
 10
61.674564413924749
 20
43.189915578619321
 30
0.0
  0
VERTEX
  5
78A
  8
LAYER_1
 10
61.777993740328519
 20
43.086486252215551
 30
0.0
  0
VERTEX
  5
78B
  8
LAYER_1
 10
61.777993740328519
 20
42.983056925811788
 30
0.0
  0
VERTEX
  5
78C
  8
LAYER_1
 10
61.881423066732289
 20
42.776198273004262
 30
0.0
  0
VERTEX
  5
78D
  8
LAYER_1
 10
61.881423066732289
 20
42.672768946600492
 30
0.0
  0
VERTEX
  5
78E
  8
LAYER_1
 10
61.881423066732289
 20
42.569339620196722
 30
0.0
  0
VERTEX
  5
78F
  8
LAYER_1
 10
61.984852393136059
 20
42.465910293792952
 30
0.0
  0
VERTEX
  5
790
  8
LAYER_1
 10
61.984852393136059
 20
42.362480967389182
 30
0.0
  0
VERTEX
  5
791
  8
LAYER_1
 10
62.088281719539822
 20
42.362480967389182
 30
0.0
  0
VERTEX
  5
792
  8
LAYER_1
 10
62.191711045943592
 20
42.052192988177893
 30
0.0
  0
VERTEX
  5
793
  8
LAYER_1
 10
62.295140372347362
 20
41.948763661774123
 30
0.0
  0
VERTEX
  5
794
  8
LAYER_1
 10
62.295140372347362
 20
41.845334335370353
 30
0.0
  0
VERTEX
  5
795
  8
LAYER_1
 10
62.398569698751132
 20
41.741905008966583
 30
0.0
  0
VERTEX
  5
796
  8
LAYER_1
 10
62.501999025154888
 20
41.63847568256282
 30
0.0
  0
VERTEX
  5
797
  8
LAYER_1
 10
62.501999025154888
 20
41.53504635615905
 30
0.0
  0
VERTEX
  5
798
  8
LAYER_1
 10
62.605428351558658
 20
41.32818770335151
 30
0.0
  0
VERTEX
  5
799
  8
LAYER_1
 10
62.605428351558658
 20
41.224758376947747
 30
0.0
  0
VERTEX
  5
79A
  8
LAYER_1
 10
62.708857677962428
 20
41.224758376947747
 30
0.0
  0
VERTEX
  5
79B
  8
LAYER_1
 10
62.708857677962428
 20
41.017899724140221
 30
0.0
  0
VERTEX
  5
79C
  8
LAYER_1
 10
62.812287004366198
 20
40.914470397736451
 30
0.0
  0
VERTEX
  5
79D
  8
LAYER_1
 10
62.915716330769953
 20
40.707611744928933
 30
0.0
  0
VERTEX
  5
79E
  8
LAYER_1
 10
62.915716330769953
 20
40.604182418525163
 30
0.0
  0
VERTEX
  5
79F
  8
LAYER_1
 10
63.019145657173723
 20
40.500753092121393
 30
0.0
  0
VERTEX
  5
7A0
  8
LAYER_1
 10
63.019145657173723
 20
40.397323765717623
 30
0.0
  0
VERTEX
  5
7A1
  8
LAYER_1
 10
63.226004309981263
 20
40.190465112910083
 30
0.0
  0
VERTEX
  5
7A2
  8
LAYER_1
 10
63.226004309981263
 20
40.087035786506313
 30
0.0
  0
VERTEX
  5
7A3
  8
LAYER_1
 10
63.329433636385019
 20
39.880177133698787
 30
0.0
  0
VERTEX
  5
7A4
  8
LAYER_1
 10
63.432862962788789
 20
39.880177133698787
 30
0.0
  0
VERTEX
  5
7A5
  8
LAYER_1
 10
63.432862962788789
 20
39.776747807295031
 30
0.0
  0
VERTEX
  5
7A6
  8
LAYER_1
 10
63.536292289192559
 20
39.569889154487491
 30
0.0
  0
VERTEX
  5
7A7
  8
LAYER_1
 10
63.639721615596329
 20
39.466459828083721
 30
0.0
  0
VERTEX
  5
7A8
  8
LAYER_1
 10
63.743150942000099
 20
39.259601175276188
 30
0.0
  0
VERTEX
  5
7A9
  8
LAYER_1
 10
63.743150942000099
 20
39.156171848872418
 30
0.0
  0
VERTEX
  5
7AA
  8
LAYER_1
 10
63.743150942000099
 20
39.052742522468648
 30
0.0
  0
VERTEX
  5
7AB
  8
LAYER_1
 10
63.846580268403848
 20
39.052742522468648
 30
0.0
  0
VERTEX
  5
7AC
  8
LAYER_1
 10
63.846580268403848
 20
38.845883869661122
 30
0.0
  0
VERTEX
  5
7AD
  8
LAYER_1
 10
63.846580268403848
 20
38.742454543257352
 30
0.0
  0
VERTEX
  5
7AE
  8
LAYER_1
 10
63.846580268403848
 20
38.639025216853589
 30
0.0
  0
VERTEX
  5
7AF
  8
LAYER_1
 10
63.846580268403848
 20
38.535595890449819
 30
0.0
  0
VERTEX
  5
7B0
  8
LAYER_1
 10
63.846580268403848
 20
38.432166564046057
 30
0.0
  0
VERTEX
  5
7B1
  8
LAYER_1
 10
63.846580268403848
 20
38.328737237642287
 30
0.0
  0
VERTEX
  5
7B2
  8
LAYER_1
 10
63.846580268403848
 20
38.225307911238517
 30
0.0
  0
VERTEX
  5
7B3
  8
LAYER_1
 10
63.846580268403848
 20
38.121878584834761
 30
0.0
  0
VERTEX
  5
7B4
  8
LAYER_1
 10
63.846580268403848
 20
38.018449258430991
 30
0.0
  0
VERTEX
  5
7B5
  8
LAYER_1
 10
63.846580268403848
 20
37.915019932027221
 30
0.0
  0
VERTEX
  5
7B6
  8
LAYER_1
 10
63.846580268403848
 20
37.811590605623451
 30
0.0
  0
VERTEX
  5
7B7
  8
LAYER_1
 10
63.846580268403848
 20
37.708161279219688
 30
0.0
  0
VERTEX
  5
7B8
  8
LAYER_1
 10
63.846580268403848
 20
37.604731952815932
 30
0.0
  0
VERTEX
  5
7B9
  8
LAYER_1
 10
63.846580268403848
 20
37.501302626412162
 30
0.0
  0
VERTEX
  5
7BA
  8
LAYER_1
 10
63.846580268403848
 20
37.397873300008392
 30
0.0
  0
VERTEX
  5
7BB
  8
LAYER_1
 10
63.846580268403848
 20
37.294443973604622
 30
0.0
  0
VERTEX
  5
7BC
  8
LAYER_1
 10
63.846580268403848
 20
37.191014647200859
 30
0.0
  0
VERTEX
  5
7BD
  8
LAYER_1
 10
63.846580268403848
 20
37.087585320797089
 30
0.0
  0
VERTEX
  5
7BE
  8
LAYER_1
 10
63.846580268403848
 20
36.984155994393319
 30
0.0
  0
VERTEX
  5
7BF
  8
LAYER_1
 10
63.846580268403848
 20
36.880726667989549
 30
0.0
  0
VERTEX
  5
7C0
  8
LAYER_1
 10
63.846580268403848
 20
36.777297341585793
 30
0.0
  0
VERTEX
  5
7C1
  8
LAYER_1
 10
63.846580268403848
 20
36.673868015182023
 30
0.0
  0
VERTEX
  5
7C2
  8
LAYER_1
 10
63.743150942000099
 20
36.570438688778253
 30
0.0
  0
VERTEX
  5
7C3
  8
LAYER_1
 10
63.743150942000099
 20
36.36358003597072
 30
0.0
  0
VERTEX
  5
7C4
  8
LAYER_1
 10
63.536292289192559
 20
36.156721383163188
 30
0.0
  0
VERTEX
  5
7C5
  8
LAYER_1
 10
63.432862962788789
 20
36.156721383163188
 30
0.0
  0
VERTEX
  5
7C6
  8
LAYER_1
 10
63.432862962788789
 20
36.053292056759418
 30
0.0
  0
VERTEX
  5
7C7
  8
LAYER_1
 10
63.329433636385019
 20
35.949862730355662
 30
0.0
  0
VERTEX
  5
7C8
  8
LAYER_1
 10
63.226004309981263
 20
35.743004077548122
 30
0.0
  0
VERTEX
  5
7C9
  8
LAYER_1
 10
63.122574983577493
 20
35.639574751144352
 30
0.0
  0
VERTEX
  5
7CA
  8
LAYER_1
 10
62.915716330769953
 20
35.432716098336833
 30
0.0
  0
VERTEX
  5
7CB
  8
LAYER_1
 10
62.812287004366198
 20
35.432716098336833
 30
0.0
  0
VERTEX
  5
7CC
  8
LAYER_1
 10
62.812287004366198
 20
35.329286771933063
 30
0.0
  0
VERTEX
  5
7CD
  8
LAYER_1
 10
62.605428351558658
 20
35.122428119125523
 30
0.0
  0
VERTEX
  5
7CE
  8
LAYER_1
 10
62.501999025154888
 20
35.018998792721753
 30
0.0
  0
VERTEX
  5
7CF
  8
LAYER_1
 10
62.398569698751132
 20
34.91556946631799
 30
0.0
  0
VERTEX
  5
7D0
  8
LAYER_1
 10
62.191711045943592
 20
34.81214013991422
 30
0.0
  0
VERTEX
  5
7D1
  8
LAYER_1
 10
62.088281719539822
 20
34.70871081351045
 30
0.0
  0
VERTEX
  5
7D2
  8
LAYER_1
 10
61.984852393136059
 20
34.70871081351045
 30
0.0
  0
VERTEX
  5
7D3
  8
LAYER_1
 10
61.881423066732289
 20
34.501852160702931
 30
0.0
  0
VERTEX
  5
7D4
  8
LAYER_1
 10
61.881423066732289
 20
34.398422834299161
 30
0.0
  0
VERTEX
  5
7D5
  8
LAYER_1
 10
61.674564413924749
 20
34.294993507895391
 30
0.0
  0
VERTEX
  5
7D6
  8
LAYER_1
 10
61.674564413924749
 20
34.191564181491621
 30
0.0
  0
VERTEX
  5
7D7
  8
LAYER_1
 10
61.571135087520979
 20
34.088134855087858
 30
0.0
  0
VERTEX
  5
7D8
  8
LAYER_1
 10
61.46770576111723
 20
33.984705528684088
 30
0.0
  0
VERTEX
  5
7D9
  8
LAYER_1
 10
61.36427643471346
 20
33.881276202280318
 30
0.0
  0
VERTEX
  5
7DA
  8
LAYER_1
 10
61.26084710830969
 20
33.777846875876563
 30
0.0
  0
VERTEX
  5
7DB
  8
LAYER_1
 10
61.15741778190592
 20
33.570988223069023
 30
0.0
  0
VERTEX
  5
7DC
  8
LAYER_1
 10
61.15741778190592
 20
33.467558896665253
 30
0.0
  0
VERTEX
  5
7DD
  8
LAYER_1
 10
61.15741778190592
 20
33.364129570261483
 30
0.0
  0
VERTEX
  5
7DE
  8
LAYER_1
 10
60.950559129098387
 20
33.157270917453957
 30
0.0
  0
VERTEX
  5
7DF
  8
LAYER_1
 10
60.950559129098387
 20
33.053841591050187
 30
0.0
  0
VERTEX
  5
7E0
  8
LAYER_1
 10
60.950559129098387
 20
32.950412264646417
 30
0.0
  0
VERTEX
  5
7E1
  8
LAYER_1
 10
60.950559129098387
 20
32.846982938242647
 30
0.0
  0
VERTEX
  5
7E2
  8
LAYER_1
 10
60.847129802694617
 20
32.743553611838891
 30
0.0
  0
VERTEX
  5
7E3
  8
LAYER_1
 10
60.847129802694617
 20
32.640124285435121
 30
0.0
  0
VERTEX
  5
7E4
  8
LAYER_1
 10
60.847129802694617
 20
32.329836306223832
 30
0.0
  0
VERTEX
  5
7E5
  8
LAYER_1
 10
60.847129802694617
 20
32.226406979820062
 30
0.0
  0
VERTEX
  5
7E6
  8
LAYER_1
 10
60.847129802694617
 20
32.122977653416292
 30
0.0
  0
VERTEX
  5
7E7
  8
LAYER_1
 10
60.847129802694617
 20
32.019548327012529
 30
0.0
  0
VERTEX
  5
7E8
  8
LAYER_1
 10
60.847129802694617
 20
31.916119000608759
 30
0.0
  0
VERTEX
  5
7E9
  8
LAYER_1
 10
60.847129802694617
 20
31.812689674204989
 30
0.0
  0
VERTEX
  5
7EA
  8
LAYER_1
 10
60.847129802694617
 20
31.709260347801219
 30
0.0
  0
VERTEX
  5
7EB
  8
LAYER_1
 10
60.847129802694617
 20
31.605831021397449
 30
0.0
  0
VERTEX
  5
7EC
  8
LAYER_1
 10
60.847129802694617
 20
31.50240169499369
 30
0.0
  0
VERTEX
  5
7ED
  8
LAYER_1
 10
60.847129802694617
 20
31.39897236858992
 30
0.0
  0
VERTEX
  5
7EE
  8
LAYER_1
 10
60.950559129098387
 20
31.39897236858992
 30
0.0
  0
VERTEX
  5
7EF
  8
LAYER_1
 10
60.950559129098387
 20
31.29554304218615
 30
0.0
  0
VERTEX
  5
7F0
  8
LAYER_1
 10
61.053988455502157
 20
31.29554304218615
 30
0.0
  0
VERTEX
  5
7F1
  8
LAYER_1
 10
61.053988455502157
 20
31.192113715782391
 30
0.0
  0
VERTEX
  5
7F2
  8
LAYER_1
 10
61.053988455502157
 20
31.088684389378621
 30
0.0
  0
VERTEX
  5
7F3
  8
LAYER_1
 10
61.15741778190592
 20
31.088684389378621
 30
0.0
  0
VERTEX
  5
7F4
  8
LAYER_1
 10
61.15741778190592
 20
30.985255062974861
 30
0.0
  0
VERTEX
  5
7F5
  8
LAYER_1
 10
61.15741778190592
 20
30.881825736571091
 30
0.0
  0
VERTEX
  5
7F6
  8
LAYER_1
 10
61.26084710830969
 20
30.881825736571091
 30
0.0
  0
VERTEX
  5
7F7
  8
LAYER_1
 10
61.26084710830969
 20
30.778396410167321
 30
0.0
  0
VERTEX
  5
7F8
  8
LAYER_1
 10
61.46770576111723
 20
30.674967083763558
 30
0.0
  0
VERTEX
  5
7F9
  8
LAYER_1
 10
61.571135087520979
 20
30.571537757359788
 30
0.0
  0
VERTEX
  5
7FA
  8
LAYER_1
 10
61.571135087520979
 20
30.468108430956018
 30
0.0
  0
VERTEX
  5
7FB
  8
LAYER_1
 10
61.777993740328519
 20
30.364679104552248
 30
0.0
  0
VERTEX
  5
7FC
  8
LAYER_1
 10
61.881423066732289
 20
30.261249778148489
 30
0.0
  0
VERTEX
  5
7FD
  8
LAYER_1
 10
61.984852393136059
 20
30.157820451744719
 30
0.0
  0
VERTEX
  5
7FE
  8
LAYER_1
 10
62.191711045943592
 20
29.95096179893719
 30
0.0
  0
VERTEX
  5
7FF
  8
LAYER_1
 10
62.398569698751132
 20
29.74410314612966
 30
0.0
  0
VERTEX
  5
800
  8
LAYER_1
 10
63.226004309981263
 20
29.123527187707051
 30
0.0
  0
VERTEX
  5
801
  8
LAYER_1
 10
63.226004309981263
 20
29.020097861303281
 30
0.0
  0
VERTEX
  5
802
  8
LAYER_1
 10
63.329433636385019
 20
29.020097861303281
 30
0.0
  0
VERTEX
  5
803
  8
LAYER_1
 10
63.432862962788789
 20
28.916668534899522
 30
0.0
  0
VERTEX
  5
804
  8
LAYER_1
 10
64.777444206037757
 20
27.882375270861861
 30
0.0
  0
VERTEX
  5
805
  8
LAYER_1
 10
64.880873532441527
 20
27.778945944458091
 30
0.0
  0
VERTEX
  5
806
  8
LAYER_1
 10
65.087732185249052
 20
27.572087291650561
 30
0.0
  0
VERTEX
  5
807
  8
LAYER_1
 10
65.398020164460362
 20
27.365228638843021
 30
0.0
  0
VERTEX
  5
808
  8
LAYER_1
 10
65.604878817267888
 20
27.158369986035488
 30
0.0
  0
VERTEX
  5
809
  8
LAYER_1
 10
66.018596122882954
 20
26.744652680420419
 30
0.0
  0
VERTEX
  5
80A
  8
LAYER_1
 10
66.225454775690494
 20
26.641223354016649
 30
0.0
  0
VERTEX
  5
80B
  8
LAYER_1
 10
66.328884102094264
 20
26.641223354016649
 30
0.0
  0
VERTEX
  5
80C
  8
LAYER_1
 10
66.639172081305546
 20
26.22750604840159
 30
0.0
  0
VERTEX
  5
80D
  8
LAYER_1
 10
66.639172081305546
 20
26.12407672199782
 30
0.0
  0
VERTEX
  5
80E
  8
LAYER_1
 10
67.052889386920626
 20
25.710359416382751
 30
0.0
  0
VERTEX
  5
80F
  8
LAYER_1
 10
67.259748039728166
 20
25.606930089978992
 30
0.0
  0
VERTEX
  5
810
  8
LAYER_1
 10
67.363177366131922
 20
25.606930089978992
 30
0.0
  0
VERTEX
  5
811
  8
LAYER_1
 10
67.570036018939462
 20
25.296642110767689
 30
0.0
  0
VERTEX
  5
812
  8
LAYER_1
 10
67.673465345343232
 20
25.296642110767689
 30
0.0
  0
VERTEX
  5
813
  8
LAYER_1
 10
67.983753324554527
 20
24.986354131556389
 30
0.0
  0
VERTEX
  5
814
  8
LAYER_1
 10
68.087182650958297
 20
24.882924805152619
 30
0.0
  0
VERTEX
  5
815
  8
LAYER_1
 10
68.087182650958297
 20
24.77949547874886
 30
0.0
  0
VERTEX
  5
816
  8
LAYER_1
 10
68.294041303765823
 20
24.57263682594132
 30
0.0
  0
VERTEX
  5
817
  8
LAYER_1
 10
68.397470630169593
 20
24.57263682594132
 30
0.0
  0
VERTEX
  5
818
  8
LAYER_1
 10
68.500899956573363
 20
24.262348846730021
 30
0.0
  0
VERTEX
  5
819
  8
LAYER_1
 10
68.604329282977105
 20
24.158919520326251
 30
0.0
  0
VERTEX
  5
81A
  8
LAYER_1
 10
68.707758609380875
 20
24.055490193922491
 30
0.0
  0
VERTEX
  5
81B
  8
LAYER_1
 10
68.811187935784645
 20
23.745202214711188
 30
0.0
  0
VERTEX
  5
81C
  8
LAYER_1
 10
68.811187935784645
 20
23.641772888307418
 30
0.0
  0
VERTEX
  5
81D
  8
LAYER_1
 10
69.121475914995955
 20
23.02119692988482
 30
0.0
  0
VERTEX
  5
81E
  8
LAYER_1
 10
69.224905241399725
 20
23.02119692988482
 30
0.0
  0
VERTEX
  5
81F
  8
LAYER_1
 10
69.224905241399725
 20
22.91776760348105
 30
0.0
  0
VERTEX
  5
820
  8
LAYER_1
 10
69.328334567803495
 20
22.60747962426975
 30
0.0
  0
VERTEX
  5
821
  8
LAYER_1
 10
69.431763894207265
 20
22.504050297865991
 30
0.0
  0
VERTEX
  5
822
  8
LAYER_1
 10
69.431763894207265
 20
21.986903665847152
 30
0.0
  0
VERTEX
  5
823
  8
LAYER_1
 10
69.431763894207265
 20
21.780045013039619
 30
0.0
  0
VERTEX
  5
824
  8
LAYER_1
 10
69.431763894207265
 20
21.676615686635859
 30
0.0
  0
VERTEX
  5
825
  8
LAYER_1
 10
69.535193220611021
 20
21.26289838102079
 30
0.0
  0
VERTEX
  5
826
  8
LAYER_1
 10
69.535193220611021
 20
21.15946905461702
 30
0.0
  0
VERTEX
  5
827
  8
LAYER_1
 10
69.535193220611021
 20
20.435463769790651
 30
0.0
  0
VERTEX
  5
828
  8
LAYER_1
 10
69.535193220611021
 20
20.228605116983118
 30
0.0
  0
VERTEX
  5
829
  8
LAYER_1
 10
69.535193220611021
 20
20.125175790579359
 30
0.0
  0
VERTEX
  5
82A
  8
LAYER_1
 10
69.535193220611021
 20
19.60802915856052
 30
0.0
  0
VERTEX
  5
82B
  8
LAYER_1
 10
69.535193220611021
 20
19.40117050575299
 30
0.0
  0
VERTEX
  5
82C
  8
LAYER_1
 10
69.535193220611021
 20
18.780594547330391
 30
0.0
  0
VERTEX
  5
82D
  8
LAYER_1
 10
69.535193220611021
 20
18.677165220926621
 30
0.0
  0
VERTEX
  5
82E
  8
LAYER_1
 10
69.535193220611021
 20
18.470306568119081
 30
0.0
  0
VERTEX
  5
82F
  8
LAYER_1
 10
69.535193220611021
 20
18.056589262504019
 30
0.0
  0
VERTEX
  5
830
  8
LAYER_1
 10
69.431763894207265
 20
17.849730609696479
 30
0.0
  0
VERTEX
  5
831
  8
LAYER_1
 10
69.224905241399725
 20
17.229154651273891
 30
0.0
  0
VERTEX
  5
832
  8
LAYER_1
 10
69.224905241399725
 20
17.022295998466351
 30
0.0
  0
VERTEX
  5
833
  8
LAYER_1
 10
69.121475914995955
 20
16.918866672062581
 30
0.0
  0
VERTEX
  5
834
  8
LAYER_1
 10
69.018046588592185
 20
16.712008019255052
 30
0.0
  0
VERTEX
  5
835
  8
LAYER_1
 10
69.018046588592185
 20
16.608578692851289
 30
0.0
  0
VERTEX
  5
836
  8
LAYER_1
 10
68.811187935784645
 20
15.988002734428679
 30
0.0
  0
VERTEX
  5
837
  8
LAYER_1
 10
68.811187935784645
 20
15.88457340802492
 30
0.0
  0
VERTEX
  5
838
  8
LAYER_1
 10
68.707758609380875
 20
15.88457340802492
 30
0.0
  0
VERTEX
  5
839
  8
LAYER_1
 10
68.604329282977105
 20
15.78114408162115
 30
0.0
  0
VERTEX
  5
83A
  8
LAYER_1
 10
68.604329282977105
 20
15.677714755217391
 30
0.0
  0
VERTEX
  5
83B
  8
LAYER_1
 10
68.500899956573363
 20
15.574285428813621
 30
0.0
  0
VERTEX
  5
83C
  8
LAYER_1
 10
68.500899956573363
 20
15.470856102409851
 30
0.0
  0
VERTEX
  5
83D
  8
LAYER_1
 10
68.397470630169593
 20
15.367426776006081
 30
0.0
  0
VERTEX
  5
83E
  8
LAYER_1
 10
68.294041303765823
 20
15.367426776006081
 30
0.0
  0
VERTEX
  5
83F
  8
LAYER_1
 10
68.190611977362053
 20
15.16056812319855
 30
0.0
  0
VERTEX
  5
840
  8
LAYER_1
 10
68.087182650958297
 20
15.16056812319855
 30
0.0
  0
VERTEX
  5
841
  8
LAYER_1
 10
67.983753324554527
 20
15.05713879679479
 30
0.0
  0
VERTEX
  5
842
  8
LAYER_1
 10
67.880323998150757
 20
15.05713879679479
 30
0.0
  0
VERTEX
  5
843
  8
LAYER_1
 10
67.776894671746987
 20
14.95370947039102
 30
0.0
  0
VERTEX
  5
844
  8
LAYER_1
 10
67.466606692535692
 20
14.85028014398725
 30
0.0
  0
VERTEX
  5
845
  8
LAYER_1
 10
67.466606692535692
 20
14.74685081758348
 30
0.0
  0
VERTEX
  5
846
  8
LAYER_1
 10
67.259748039728166
 20
14.74685081758348
 30
0.0
  0
VERTEX
  5
847
  8
LAYER_1
 10
67.156318713324396
 20
14.643421491179719
 30
0.0
  0
VERTEX
  5
848
  8
LAYER_1
 10
66.846030734113086
 20
14.643421491179719
 30
0.0
  0
VERTEX
  5
849
  8
LAYER_1
 10
66.639172081305546
 20
14.436562838372179
 30
0.0
  0
VERTEX
  5
84A
  8
LAYER_1
 10
66.535742754901776
 20
14.436562838372179
 30
0.0
  0
VERTEX
  5
84B
  8
LAYER_1
 10
66.432313428498006
 20
14.436562838372179
 30
0.0
  0
VERTEX
  5
84C
  8
LAYER_1
 10
66.328884102094264
 20
14.33313351196842
 30
0.0
  0
VERTEX
  5
84D
  8
LAYER_1
 10
66.122025449286724
 20
14.33313351196842
 30
0.0
  0
VERTEX
  5
84E
  8
LAYER_1
 10
66.018596122882954
 20
14.33313351196842
 30
0.0
  0
VERTEX
  5
84F
  8
LAYER_1
 10
65.811737470075428
 20
14.22970418556465
 30
0.0
  0
VERTEX
  5
850
  8
LAYER_1
 10
65.708308143671658
 20
14.22970418556465
 30
0.0
  0
VERTEX
  5
851
  8
LAYER_1
 10
65.604878817267888
 20
14.22970418556465
 30
0.0
  0
VERTEX
  5
852
  8
LAYER_1
 10
65.501449490864132
 20
14.12627485916089
 30
0.0
  0
VERTEX
  5
853
  8
LAYER_1
 10
65.398020164460362
 20
14.12627485916089
 30
0.0
  0
VERTEX
  5
854
  8
LAYER_1
 10
65.191161511652822
 20
14.02284553275712
 30
0.0
  0
VERTEX
  5
855
  8
LAYER_1
 10
65.087732185249052
 20
14.02284553275712
 30
0.0
  0
VERTEX
  5
856
  8
LAYER_1
 10
64.880873532441527
 20
14.02284553275712
 30
0.0
  0
VERTEX
  5
857
  8
LAYER_1
 10
64.674014879633987
 20
13.91941620635335
 30
0.0
  0
VERTEX
  5
858
  8
LAYER_1
 10
64.467156226826461
 20
13.91941620635335
 30
0.0
  0
VERTEX
  5
859
  8
LAYER_1
 10
64.363726900422691
 20
13.81598687994958
 30
0.0
  0
VERTEX
  5
85A
  8
LAYER_1
 10
64.260297574018921
 20
13.81598687994958
 30
0.0
  0
VERTEX
  5
85B
  8
LAYER_1
 10
64.156868247615165
 20
13.81598687994958
 30
0.0
  0
VERTEX
  5
85C
  8
LAYER_1
 10
63.846580268403848
 20
13.712557553545819
 30
0.0
  0
VERTEX
  5
85D
  8
LAYER_1
 10
63.536292289192559
 20
13.712557553545819
 30
0.0
  0
VERTEX
  5
85E
  8
LAYER_1
 10
63.432862962788789
 20
13.712557553545819
 30
0.0
  0
VERTEX
  5
85F
  8
LAYER_1
 10
63.226004309981263
 20
13.609128227142049
 30
0.0
  0
VERTEX
  5
860
  8
LAYER_1
 10
62.915716330769953
 20
13.609128227142049
 30
0.0
  0
VERTEX
  5
861
  8
LAYER_1
 10
62.708857677962428
 20
13.609128227142049
 30
0.0
  0
VERTEX
  5
862
  8
LAYER_1
 10
62.191711045943592
 20
13.609128227142049
 30
0.0
  0
VERTEX
  5
863
  8
LAYER_1
 10
62.088281719539822
 20
13.609128227142049
 30
0.0
  0
VERTEX
  5
864
  8
LAYER_1
 10
61.881423066732289
 20
13.609128227142049
 30
0.0
  0
VERTEX
  5
865
  8
LAYER_1
 10
61.46770576111723
 20
13.50569890073829
 30
0.0
  0
VERTEX
  5
866
  8
LAYER_1
 10
61.053988455502157
 20
13.50569890073829
 30
0.0
  0
VERTEX
  5
867
  8
LAYER_1
 10
60.536841823483329
 20
13.40226957433452
 30
0.0
  0
VERTEX
  5
868
  8
LAYER_1
 10
60.433412497079559
 20
13.40226957433452
 30
0.0
  0
VERTEX
  5
869
  8
LAYER_1
 10
60.226553844272019
 20
13.29884024793075
 30
0.0
  0
VERTEX
  5
86A
  8
LAYER_1
 10
59.916265865060723
 20
13.29884024793075
 30
0.0
  0
VERTEX
  5
86B
  8
LAYER_1
 10
59.812836538656953
 20
13.29884024793075
 30
0.0
  0
VERTEX
  5
86C
  8
LAYER_1
 10
59.399119233041887
 20
13.19541092152698
 30
0.0
  0
VERTEX
  5
86D
  8
LAYER_1
 10
59.295689906638131
 20
13.19541092152698
 30
0.0
  0
VERTEX
  5
86E
  8
LAYER_1
 10
59.088831253830591
 20
13.091981595123221
 30
0.0
  0
VERTEX
  5
86F
  8
LAYER_1
 10
58.881972601023058
 20
13.091981595123221
 30
0.0
  0
VERTEX
  5
870
  8
LAYER_1
 10
58.675113948215518
 20
13.091981595123221
 30
0.0
  0
VERTEX
  5
871
  8
LAYER_1
 10
58.571684621811748
 20
12.988552268719451
 30
0.0
  0
VERTEX
  5
872
  8
LAYER_1
 10
58.364825969004229
 20
12.988552268719451
 30
0.0
  0
VERTEX
  5
873
  8
LAYER_1
 10
58.261396642600459
 20
12.885122942315681
 30
0.0
  0
VERTEX
  5
874
  8
LAYER_1
 10
58.054537989792919
 20
12.885122942315681
 30
0.0
  0
VERTEX
  5
875
  8
LAYER_1
 10
57.951108663389157
 20
12.885122942315681
 30
0.0
  0
VERTEX
  5
876
  8
LAYER_1
 10
57.847679336985387
 20
12.885122942315681
 30
0.0
  0
VERTEX
  5
877
  8
LAYER_1
 10
57.847679336985387
 20
12.781693615911919
 30
0.0
  0
VERTEX
  5
878
  8
LAYER_1
 10
57.744250010581617
 20
12.781693615911919
 30
0.0
  0
VERTEX
  5
879
  8
LAYER_1
 10
57.537391357774098
 20
12.678264289508149
 30
0.0
  0
VERTEX
  5
87A
  8
LAYER_1
 10
57.433962031370328
 20
12.678264289508149
 30
0.0
  0
VERTEX
  5
87B
  8
LAYER_1
 10
57.330532704966558
 20
12.678264289508149
 30
0.0
  0
VERTEX
  5
87C
  8
LAYER_1
 10
57.330532704966558
 20
12.574834963104379
 30
0.0
  0
VERTEX
  5
87D
  8
LAYER_1
 10
57.227103378562788
 20
12.574834963104379
 30
0.0
  0
VERTEX
  5
87E
  8
LAYER_1
 10
57.123674052159032
 20
12.471405636700609
 30
0.0
  0
VERTEX
  5
87F
  8
LAYER_1
 10
57.020244725755262
 20
12.36797631029685
 30
0.0
  0
VERTEX
  5
880
  8
LAYER_1
 10
56.916815399351492
 20
12.36797631029685
 30
0.0
  0
VERTEX
  5
881
  8
LAYER_1
 10
56.813386072947722
 20
12.26454698389308
 30
0.0
  0
VERTEX
  5
882
  8
LAYER_1
 10
56.709956746543952
 20
12.161117657489321
 30
0.0
  0
VERTEX
  5
883
  8
LAYER_1
 10
56.606527420140189
 20
12.161117657489321
 30
0.0
  0
VERTEX
  5
884
  8
LAYER_1
 10
56.606527420140189
 20
12.057688331085551
 30
0.0
  0
VERTEX
  5
885
  8
LAYER_1
 10
56.503098093736419
 20
11.95425900468179
 30
0.0
  0
VERTEX
  5
886
  8
LAYER_1
 10
56.503098093736419
 20
11.85082967827802
 30
0.0
  0
VERTEX
  5
887
  8
LAYER_1
 10
56.399668767332649
 20
11.64397102547048
 30
0.0
  0
VERTEX
  5
888
  8
LAYER_1
 10
56.296239440928879
 20
11.64397102547048
 30
0.0
  0
VERTEX
  5
889
  8
LAYER_1
 10
56.19281011452513
 20
11.54054169906672
 30
0.0
  0
VERTEX
  5
88A
  8
LAYER_1
 10
56.19281011452513
 20
11.43711237266295
 30
0.0
  0
VERTEX
  5
88B
  8
LAYER_1
 10
56.08938078812136
 20
11.230253719855421
 30
0.0
  0
VERTEX
  5
88C
  8
LAYER_1
 10
55.88252213531382
 20
10.919965740644111
 30
0.0
  0
VERTEX
  5
88D
  8
LAYER_1
 10
55.88252213531382
 20
10.81653641424035
 30
0.0
  0
VERTEX
  5
88E
  8
LAYER_1
 10
55.779092808910057
 20
10.71310708783658
 30
0.0
  0
VERTEX
  5
88F
  8
LAYER_1
 10
55.779092808910057
 20
10.50624843502905
 30
0.0
  0
VERTEX
  5
890
  8
LAYER_1
 10
55.675663482506287
 20
10.40281910862528
 30
0.0
  0
VERTEX
  5
891
  8
LAYER_1
 10
55.572234156102517
 20
10.092531129413979
 30
0.0
  0
VERTEX
  5
892
  8
LAYER_1
 10
55.572234156102517
 20
9.9891018030102217
 30
0.0
  0
VERTEX
  5
893
  8
LAYER_1
 10
55.468804829698747
 20
9.7822431502026888
 30
0.0
  0
VERTEX
  5
894
  8
LAYER_1
 10
55.468804829698747
 20
9.5753844973951487
 30
0.0
  0
VERTEX
  5
895
  8
LAYER_1
 10
55.468804829698747
 20
9.2650965181838512
 30
0.0
  0
VERTEX
  5
896
  8
LAYER_1
 10
55.365375503294977
 20
9.1616671917800812
 30
0.0
  0
VERTEX
  5
897
  8
LAYER_1
 10
55.365375503294977
 20
9.05823786537632
 30
0.0
  0
VERTEX
  5
898
  8
LAYER_1
 10
55.365375503294977
 20
8.95480853897255
 30
0.0
  0
VERTEX
  5
899
  8
LAYER_1
 10
55.365375503294977
 20
8.7479498861650171
 30
0.0
  0
VERTEX
  5
89A
  8
LAYER_1
 10
55.365375503294977
 20
8.6445205597612542
 30
0.0
  0
VERTEX
  5
89B
  8
LAYER_1
 10
55.365375503294977
 20
8.4376619069537213
 30
0.0
  0
VERTEX
  5
89C
  8
LAYER_1
 10
55.365375503294977
 20
8.2308032541461884
 30
0.0
  0
VERTEX
  5
89D
  8
LAYER_1
 10
55.365375503294977
 20
8.1273739277424184
 30
0.0
  0
VERTEX
  5
89E
  8
LAYER_1
 10
55.365375503294977
 20
7.9205152749348846
 30
0.0
  0
VERTEX
  5
89F
  8
LAYER_1
 10
55.365375503294977
 20
7.8170859485311146
 30
0.0
  0
VERTEX
  5
8A0
  8
LAYER_1
 10
55.365375503294977
 20
7.7136566221273517
 30
0.0
  0
VERTEX
  5
8A1
  8
LAYER_1
 10
55.468804829698747
 20
7.6102272957235817
 30
0.0
  0
VERTEX
  5
8A2
  8
LAYER_1
 10
55.572234156102517
 20
7.5067979693198188
 30
0.0
  0
VERTEX
  5
8A3
  8
LAYER_1
 10
55.572234156102517
 20
7.1965099901085159
 30
0.0
  0
VERTEX
  5
8A4
  8
LAYER_1
 10
55.675663482506287
 20
7.1965099901085159
 30
0.0
  0
VERTEX
  5
8A5
  8
LAYER_1
 10
55.675663482506287
 20
6.989651337300983
 30
0.0
  0
VERTEX
  5
8A6
  8
LAYER_1
 10
55.98595146171759
 20
6.4725047052821552
 30
0.0
  0
VERTEX
  5
8A7
  8
LAYER_1
 10
55.98595146171759
 20
6.3690753788783852
 30
0.0
  0
VERTEX
  5
8A8
  8
LAYER_1
 10
56.08938078812136
 20
6.2656460524746151
 30
0.0
  0
VERTEX
  5
8A9
  8
LAYER_1
 10
56.08938078812136
 20
6.1622167260708522
 30
0.0
  0
VERTEX
  5
8AA
  8
LAYER_1
 10
56.19281011452513
 20
6.0587873996670822
 30
0.0
  0
VERTEX
  5
8AB
  8
LAYER_1
 10
56.296239440928879
 20
5.9553580732633193
 30
0.0
  0
VERTEX
  5
8AC
  8
LAYER_1
 10
56.399668767332649
 20
5.9553580732633193
 30
0.0
  0
VERTEX
  5
8AD
  8
LAYER_1
 10
56.503098093736419
 20
5.7484994204557864
 30
0.0
  0
VERTEX
  5
8AE
  8
LAYER_1
 10
56.503098093736419
 20
5.6450700940520164
 30
0.0
  0
VERTEX
  5
8AF
  8
LAYER_1
 10
56.709956746543952
 20
5.5416407676482526
 30
0.0
  0
VERTEX
  5
8B0
  8
LAYER_1
 10
56.709956746543952
 20
5.4382114412444826
 30
0.0
  0
VERTEX
  5
8B1
  8
LAYER_1
 10
56.813386072947722
 20
5.4382114412444826
 30
0.0
  0
VERTEX
  5
8B2
  8
LAYER_1
 10
56.813386072947722
 20
5.3347821148407197
 30
0.0
  0
VERTEX
  5
8B3
  8
LAYER_1
 10
56.916815399351492
 20
5.3347821148407197
 30
0.0
  0
VERTEX
  5
8B4
  8
LAYER_1
 10
57.020244725755262
 20
5.3347821148407197
 30
0.0
  0
VERTEX
  5
8B5
  8
LAYER_1
 10
57.020244725755262
 20
5.2313527884369497
 30
0.0
  0
VERTEX
  5
8B6
  8
LAYER_1
 10
57.123674052159032
 20
5.2313527884369497
 30
0.0
  0
VERTEX
  5
8B7
  8
LAYER_1
 10
57.123674052159032
 20
5.1279234620331868
 30
0.0
  0
VERTEX
  5
8B8
  8
LAYER_1
 10
57.227103378562788
 20
5.1279234620331868
 30
0.0
  0
VERTEX
  5
8B9
  8
LAYER_1
 10
57.227103378562788
 20
5.0244941356294168
 30
0.0
  0
VERTEX
  5
8BA
  8
LAYER_1
 10
57.330532704966558
 20
5.0244941356294168
 30
0.0
  0
VERTEX
  5
8BB
  8
LAYER_1
 10
57.433962031370328
 20
4.9210648092256539
 30
0.0
  0
VERTEX
  5
8BC
  8
LAYER_1
 10
57.537391357774098
 20
4.9210648092256539
 30
0.0
  0
VERTEX
  5
8BD
  8
LAYER_1
 10
57.640820684177847
 20
4.9210648092256539
 30
0.0
  0
VERTEX
  5
8BE
  8
LAYER_1
 10
57.744250010581617
 20
4.9210648092256539
 30
0.0
  0
VERTEX
  5
8BF
  8
LAYER_1
 10
57.847679336985387
 20
4.7142061564181139
 30
0.0
  0
VERTEX
  5
8C0
  8
LAYER_1
 10
57.951108663389157
 20
4.7142061564181139
 30
0.0
  0
VERTEX
  5
8C1
  8
LAYER_1
 10
57.951108663389157
 20
4.610776830014351
 30
0.0
  0
VERTEX
  5
8C2
  8
LAYER_1
 10
58.054537989792919
 20
4.610776830014351
 30
0.0
  0
VERTEX
  5
8C3
  8
LAYER_1
 10
58.157967316196689
 20
4.610776830014351
 30
0.0
  0
VERTEX
  5
8C4
  8
LAYER_1
 10
58.364825969004229
 20
4.507347503610581
 30
0.0
  0
VERTEX
  5
8C5
  8
LAYER_1
 10
58.468255295407978
 20
4.507347503610581
 30
0.0
  0
VERTEX
  5
8C6
  8
LAYER_1
 10
58.571684621811748
 20
4.4039181772068181
 30
0.0
  0
VERTEX
  5
8C7
  8
LAYER_1
 10
58.778543274619288
 20
4.3004888508030481
 30
0.0
  0
VERTEX
  5
8C8
  8
LAYER_1
 10
58.881972601023058
 20
4.3004888508030481
 30
0.0
  0
VERTEX
  5
8C9
  8
LAYER_1
 10
59.295689906638131
 20
4.1970595243992861
 30
0.0
  0
VERTEX
  5
8CA
  8
LAYER_1
 10
59.399119233041887
 20
4.0936301979955161
 30
0.0
  0
VERTEX
  5
8CB
  8
LAYER_1
 10
59.502548559445657
 20
4.0936301979955161
 30
0.0
  0
VERTEX
  5
8CC
  8
LAYER_1
 10
59.709407212253197
 20
3.9902008715917532
 30
0.0
  0
VERTEX
  5
8CD
  8
LAYER_1
 10
59.812836538656953
 20
3.9902008715917532
 30
0.0
  0
VERTEX
  5
8CE
  8
LAYER_1
 10
60.019695191464493
 20
3.8867715451879832
 30
0.0
  0
VERTEX
  5
8CF
  8
LAYER_1
 10
60.123124517868263
 20
3.8867715451879832
 30
0.0
  0
VERTEX
  5
8D0
  8
LAYER_1
 10
60.433412497079559
 20
3.8867715451879832
 30
0.0
  0
VERTEX
  5
8D1
  8
LAYER_1
 10
60.536841823483329
 20
3.8867715451879832
 30
0.0
  0
VERTEX
  5
8D2
  8
LAYER_1
 10
60.743700476290847
 20
3.7833422187842198
 30
0.0
  0
VERTEX
  5
8D3
  8
LAYER_1
 10
60.847129802694617
 20
3.7833422187842198
 30
0.0
  0
VERTEX
  5
8D4
  8
LAYER_1
 10
61.053988455502157
 20
3.7833422187842198
 30
0.0
  0
VERTEX
  5
8D5
  8
LAYER_1
 10
61.15741778190592
 20
3.7833422187842198
 30
0.0
  0
VERTEX
  5
8D6
  8
LAYER_1
 10
61.26084710830969
 20
3.7833422187842198
 30
0.0
  0
VERTEX
  5
8D7
  8
LAYER_1
 10
61.36427643471346
 20
3.7833422187842198
 30
0.0
  0
VERTEX
  5
8D8
  8
LAYER_1
 10
61.571135087520979
 20
3.7833422187842198
 30
0.0
  0
VERTEX
  5
8D9
  8
LAYER_1
 10
61.674564413924749
 20
3.7833422187842198
 30
0.0
  0
VERTEX
  5
8DA
  8
LAYER_1
 10
61.777993740328519
 20
3.7833422187842198
 30
0.0
  0
VERTEX
  5
8DB
  8
LAYER_1
 10
61.881423066732289
 20
3.7833422187842198
 30
0.0
  0
VERTEX
  5
8DC
  8
LAYER_1
 10
61.984852393136059
 20
3.7833422187842198
 30
0.0
  0
VERTEX
  5
8DD
  8
LAYER_1
 10
62.295140372347362
 20
3.7833422187842198
 30
0.0
  0
VERTEX
  5
8DE
  8
LAYER_1
 10
62.398569698751132
 20
3.7833422187842198
 30
0.0
  0
VERTEX
  5
8DF
  8
LAYER_1
 10
62.501999025154888
 20
3.8867715451879832
 30
0.0
  0
VERTEX
  5
8E0
  8
LAYER_1
 10
62.605428351558658
 20
3.8867715451879832
 30
0.0
  0
VERTEX
  5
8E1
  8
LAYER_1
 10
62.812287004366198
 20
3.8867715451879832
 30
0.0
  0
VERTEX
  5
8E2
  8
LAYER_1
 10
62.915716330769953
 20
3.9902008715917532
 30
0.0
  0
VERTEX
  5
8E3
  8
LAYER_1
 10
63.019145657173723
 20
3.9902008715917532
 30
0.0
  0
VERTEX
  5
8E4
  8
LAYER_1
 10
63.122574983577493
 20
4.0936301979955161
 30
0.0
  0
VERTEX
  5
8E5
  8
LAYER_1
 10
63.226004309981263
 20
4.0936301979955161
 30
0.0
  0
VERTEX
  5
8E6
  8
LAYER_1
 10
63.329433636385019
 20
4.0936301979955161
 30
0.0
  0
VERTEX
  5
8E7
  8
LAYER_1
 10
63.432862962788789
 20
4.1970595243992861
 30
0.0
  0
VERTEX
  5
8E8
  8
LAYER_1
 10
63.639721615596329
 20
4.1970595243992861
 30
0.0
  0
VERTEX
  5
8E9
  8
LAYER_1
 10
63.743150942000099
 20
4.1970595243992861
 30
0.0
  0
VERTEX
  5
8EA
  8
LAYER_1
 10
63.950009594807618
 20
4.4039181772068181
 30
0.0
  0
VERTEX
  5
8EB
  8
LAYER_1
 10
64.053438921211395
 20
4.4039181772068181
 30
0.0
  0
VERTEX
  5
8EC
  8
LAYER_1
 10
64.156868247615165
 20
4.4039181772068181
 30
0.0
  0
VERTEX
  5
8ED
  8
LAYER_1
 10
64.156868247615165
 20
4.507347503610581
 30
0.0
  0
VERTEX
  5
8EE
  8
LAYER_1
 10
64.363726900422691
 20
4.507347503610581
 30
0.0
  0
VERTEX
  5
8EF
  8
LAYER_1
 10
64.467156226826461
 20
4.610776830014351
 30
0.0
  0
VERTEX
  5
8F0
  8
LAYER_1
 10
64.674014879633987
 20
4.8176354828218839
 30
0.0
  0
VERTEX
  5
8F1
  8
LAYER_1
 10
64.777444206037757
 20
4.8176354828218839
 30
0.0
  0
VERTEX
  5
8F2
  8
LAYER_1
 10
64.880873532441527
 20
4.9210648092256539
 30
0.0
  0
VERTEX
  5
8F3
  8
LAYER_1
 10
64.984302858845297
 20
4.9210648092256539
 30
0.0
  0
VERTEX
  5
8F4
  8
LAYER_1
 10
65.191161511652822
 20
5.1279234620331868
 30
0.0
  0
VERTEX
  5
8F5
  8
LAYER_1
 10
65.398020164460362
 20
5.2313527884369497
 30
0.0
  0
VERTEX
  5
8F6
  8
LAYER_1
 10
65.501449490864132
 20
5.2313527884369497
 30
0.0
  0
VERTEX
  5
8F7
  8
LAYER_1
 10
65.604878817267888
 20
5.3347821148407197
 30
0.0
  0
VERTEX
  5
8F8
  8
LAYER_1
 10
65.708308143671658
 20
5.3347821148407197
 30
0.0
  0
VERTEX
  5
8F9
  8
LAYER_1
 10
65.915166796479198
 20
5.4382114412444826
 30
0.0
  0
VERTEX
  5
8FA
  8
LAYER_1
 10
66.122025449286724
 20
5.5416407676482526
 30
0.0
  0
VERTEX
  5
8FB
  8
LAYER_1
 10
66.225454775690494
 20
5.6450700940520164
 30
0.0
  0
VERTEX
  5
8FC
  8
LAYER_1
 10
66.328884102094264
 20
5.6450700940520164
 30
0.0
  0
VERTEX
  5
8FD
  8
LAYER_1
 10
66.432313428498006
 20
5.7484994204557864
 30
0.0
  0
VERTEX
  5
8FE
  8
LAYER_1
 10
66.535742754901776
 20
5.7484994204557864
 30
0.0
  0
VERTEX
  5
8FF
  8
LAYER_1
 10
66.639172081305546
 20
5.8519287468595493
 30
0.0
  0
VERTEX
  5
900
  8
LAYER_1
 10
66.742601407709316
 20
5.8519287468595493
 30
0.0
  0
VERTEX
  5
901
  8
LAYER_1
 10
66.742601407709316
 20
5.9553580732633193
 30
0.0
  0
VERTEX
  5
902
  8
LAYER_1
 10
66.846030734113086
 20
5.9553580732633193
 30
0.0
  0
VERTEX
  5
903
  8
LAYER_1
 10
66.949460060516856
 20
6.0587873996670822
 30
0.0
  0
VERTEX
  5
904
  8
LAYER_1
 10
67.052889386920626
 20
6.0587873996670822
 30
0.0
  0
VERTEX
  5
905
  8
LAYER_1
 10
67.156318713324396
 20
6.1622167260708522
 30
0.0
  0
VERTEX
  5
906
  8
LAYER_1
 10
67.259748039728166
 20
6.2656460524746151
 30
0.0
  0
VERTEX
  5
907
  8
LAYER_1
 10
67.363177366131922
 20
6.2656460524746151
 30
0.0
  0
VERTEX
  5
908
  8
LAYER_1
 10
67.466606692535692
 20
6.3690753788783852
 30
0.0
  0
VERTEX
  5
909
  8
LAYER_1
 10
67.570036018939462
 20
6.4725047052821552
 30
0.0
  0
VERTEX
  5
90A
  8
LAYER_1
 10
67.673465345343232
 20
6.6793633580896881
 30
0.0
  0
VERTEX
  5
90B
  8
LAYER_1
 10
67.880323998150757
 20
6.7827926844934501
 30
0.0
  0
VERTEX
  5
90C
  8
LAYER_1
 10
67.983753324554527
 20
6.989651337300983
 30
0.0
  0
VERTEX
  5
90D
  8
LAYER_1
 10
68.087182650958297
 20
7.093080663704753
 30
0.0
  0
VERTEX
  5
90E
  8
LAYER_1
 10
68.190611977362053
 20
7.2999393165122859
 30
0.0
  0
VERTEX
  5
90F
  8
LAYER_1
 10
68.294041303765823
 20
7.2999393165122859
 30
0.0
  0
VERTEX
  5
910
  8
LAYER_1
 10
68.397470630169593
 20
7.4033686429160488
 30
0.0
  0
VERTEX
  5
911
  8
LAYER_1
 10
68.397470630169593
 20
7.5067979693198188
 30
0.0
  0
VERTEX
  5
912
  8
LAYER_1
 10
68.604329282977105
 20
7.7136566221273517
 30
0.0
  0
VERTEX
  5
913
  8
LAYER_1
 10
68.707758609380875
 20
7.7136566221273517
 30
0.0
  0
VERTEX
  5
914
  8
LAYER_1
 10
68.707758609380875
 20
7.8170859485311146
 30
0.0
  0
VERTEX
  5
915
  8
LAYER_1
 10
68.811187935784645
 20
7.8170859485311146
 30
0.0
  0
VERTEX
  5
916
  8
LAYER_1
 10
68.811187935784645
 20
7.9205152749348846
 30
0.0
  0
VERTEX
  5
917
  8
LAYER_1
 10
68.914617262188415
 20
8.1273739277424184
 30
0.0
  0
VERTEX
  5
918
  8
LAYER_1
 10
69.018046588592185
 20
8.1273739277424184
 30
0.0
  0
VERTEX
  5
919
  8
LAYER_1
 10
69.018046588592185
 20
8.2308032541461884
 30
0.0
  0
VERTEX
  5
91A
  8
LAYER_1
 10
69.121475914995955
 20
8.3342325805499513
 30
0.0
  0
VERTEX
  5
91B
  8
LAYER_1
 10
69.121475914995955
 20
8.4376619069537213
 30
0.0
  0
VERTEX
  5
91C
  8
LAYER_1
 10
69.224905241399725
 20
8.5410912333574842
 30
0.0
  0
VERTEX
  5
91D
  8
LAYER_1
 10
69.224905241399725
 20
8.6445205597612542
 30
0.0
  0
VERTEX
  5
91E
  8
LAYER_1
 10
69.224905241399725
 20
8.7479498861650171
 30
0.0
  0
VERTEX
  5
91F
  8
LAYER_1
 10
69.328334567803495
 20
8.7479498861650171
 30
0.0
  0
VERTEX
  5
920
  8
LAYER_1
 10
69.431763894207265
 20
8.8513792125687871
 30
0.0
  0
VERTEX
  5
921
  8
LAYER_1
 10
69.535193220611021
 20
9.05823786537632
 30
0.0
  0
VERTEX
  5
922
  8
LAYER_1
 10
69.638622547014791
 20
9.2650965181838512
 30
0.0
  0
VERTEX
  5
923
  8
LAYER_1
 10
69.638622547014791
 20
9.3685258445876158
 30
0.0
  0
VERTEX
  5
924
  8
LAYER_1
 10
69.638622547014791
 20
9.4719551709913858
 30
0.0
  0
VERTEX
  5
925
  8
LAYER_1
 10
69.742051873418561
 20
9.4719551709913858
 30
0.0
  0
VERTEX
  5
926
  8
LAYER_1
 10
69.742051873418561
 20
9.5753844973951487
 30
0.0
  0
VERTEX
  5
927
  8
LAYER_1
 10
69.845481199822331
 20
9.8856724766064517
 30
0.0
  0
VERTEX
  5
928
  8
LAYER_1
 10
69.948910526226086
 20
9.9891018030102217
 30
0.0
  0
VERTEX
  5
929
  8
LAYER_1
 10
69.948910526226086
 20
10.092531129413979
 30
0.0
  0
VERTEX
  5
92A
  8
LAYER_1
 10
69.948910526226086
 20
10.195960455817749
 30
0.0
  0
VERTEX
  5
92B
  8
LAYER_1
 10
70.052339852629856
 20
10.29938978222151
 30
0.0
  0
VERTEX
  5
92C
  8
LAYER_1
 10
70.052339852629856
 20
10.40281910862528
 30
0.0
  0
VERTEX
  5
92D
  8
LAYER_1
 10
70.155769179033626
 20
10.40281910862528
 30
0.0
  0
VERTEX
  5
92E
  8
LAYER_1
 10
70.155769179033626
 20
10.60967776143282
 30
0.0
  0
VERTEX
  5
92F
  8
LAYER_1
 10
70.155769179033626
 20
10.71310708783658
 30
0.0
  0
VERTEX
  5
930
  8
LAYER_1
 10
70.259198505437396
 20
10.71310708783658
 30
0.0
  0
VERTEX
  5
931
  8
LAYER_1
 10
70.259198505437396
 20
10.81653641424035
 30
0.0
  0
VERTEX
  5
932
  8
LAYER_1
 10
70.259198505437396
 20
10.919965740644111
 30
0.0
  0
VERTEX
  5
933
  8
LAYER_1
 10
70.259198505437396
 20
11.023395067047881
 30
0.0
  0
VERTEX
  5
934
  8
LAYER_1
 10
70.259198505437396
 20
11.126824393451651
 30
0.0
  0
VERTEX
  5
935
  8
LAYER_1
 10
70.362627831841166
 20
11.126824393451651
 30
0.0
  0
VERTEX
  5
936
  8
LAYER_1
 10
70.362627831841166
 20
11.230253719855421
 30
0.0
  0
VERTEX
  5
937
  8
LAYER_1
 10
70.362627831841166
 20
11.33368304625918
 30
0.0
  0
VERTEX
  5
938
  8
LAYER_1
 10
70.362627831841166
 20
11.43711237266295
 30
0.0
  0
VERTEX
  5
939
  8
LAYER_1
 10
70.362627831841166
 20
11.54054169906672
 30
0.0
  0
VERTEX
  5
93A
  8
LAYER_1
 10
70.362627831841166
 20
11.64397102547048
 30
0.0
  0
VERTEX
  5
93B
  8
LAYER_1
 10
70.466057158244922
 20
11.74740035187425
 30
0.0
  0
VERTEX
  5
93C
  8
LAYER_1
 10
70.466057158244922
 20
11.85082967827802
 30
0.0
  0
VERTEX
  5
93D
  8
LAYER_1
 10
70.466057158244922
 20
11.95425900468179
 30
0.0
  0
VERTEX
  5
93E
  8
LAYER_1
 10
70.569486484648692
 20
12.057688331085551
 30
0.0
  0
VERTEX
  5
93F
  8
LAYER_1
 10
70.569486484648692
 20
12.161117657489321
 30
0.0
  0
VERTEX
  5
940
  8
LAYER_1
 10
70.569486484648692
 20
12.26454698389308
 30
0.0
  0
VERTEX
  5
941
  8
LAYER_1
 10
70.569486484648692
 20
12.36797631029685
 30
0.0
  0
VERTEX
  5
942
  8
LAYER_1
 10
70.569486484648692
 20
12.471405636700609
 30
0.0
  0
VERTEX
  5
943
  8
LAYER_1
 10
70.569486484648692
 20
12.574834963104379
 30
0.0
  0
VERTEX
  5
944
  8
LAYER_1
 10
70.672915811052462
 20
12.574834963104379
 30
0.0
  0
VERTEX
  5
945
  8
LAYER_1
 10
70.672915811052462
 20
12.781693615911919
 30
0.0
  0
VERTEX
  5
946
  8
LAYER_1
 10
70.672915811052462
 20
12.885122942315681
 30
0.0
  0
VERTEX
  5
947
  8
LAYER_1
 10
70.672915811052462
 20
12.988552268719451
 30
0.0
  0
VERTEX
  5
948
  8
LAYER_1
 10
70.672915811052462
 20
13.091981595123221
 30
0.0
  0
VERTEX
  5
949
  8
LAYER_1
 10
70.672915811052462
 20
13.19541092152698
 30
0.0
  0
VERTEX
  5
94A
  8
LAYER_1
 10
70.672915811052462
 20
13.29884024793075
 30
0.0
  0
VERTEX
  5
94B
  8
LAYER_1
 10
70.672915811052462
 20
13.40226957433452
 30
0.0
  0
VERTEX
  5
94C
  8
LAYER_1
 10
70.672915811052462
 20
13.609128227142049
 30
0.0
  0
VERTEX
  5
94D
  8
LAYER_1
 10
70.672915811052462
 20
13.712557553545819
 30
0.0
  0
VERTEX
  5
94E
  8
LAYER_1
 10
70.672915811052462
 20
13.81598687994958
 30
0.0
  0
VERTEX
  5
94F
  8
LAYER_1
 10
70.672915811052462
 20
13.91941620635335
 30
0.0
  0
VERTEX
  5
950
  8
LAYER_1
 10
70.672915811052462
 20
14.02284553275712
 30
0.0
  0
VERTEX
  5
951
  8
LAYER_1
 10
70.672915811052462
 20
14.33313351196842
 30
0.0
  0
VERTEX
  5
952
  8
LAYER_1
 10
70.672915811052462
 20
14.436562838372179
 30
0.0
  0
VERTEX
  5
953
  8
LAYER_1
 10
70.776345137456232
 20
14.436562838372179
 30
0.0
  0
VERTEX
  5
954
  8
LAYER_1
 10
70.776345137456232
 20
14.539992164775949
 30
0.0
  0
VERTEX
  5
955
  8
LAYER_1
 10
70.776345137456232
 20
14.643421491179719
 30
0.0
  0
VERTEX
  5
956
  8
LAYER_1
 10
70.776345137456232
 20
14.74685081758348
 30
0.0
  0
VERTEX
  5
957
  8
LAYER_1
 10
70.776345137456232
 20
14.85028014398725
 30
0.0
  0
VERTEX
  5
958
  8
LAYER_1
 10
70.776345137456232
 20
14.95370947039102
 30
0.0
  0
VERTEX
  5
959
  8
LAYER_1
 10
70.776345137456232
 20
15.05713879679479
 30
0.0
  0
VERTEX
  5
95A
  8
LAYER_1
 10
70.776345137456232
 20
15.16056812319855
 30
0.0
  0
VERTEX
  5
95B
  8
LAYER_1
 10
70.776345137456232
 20
15.26399744960232
 30
0.0
  0
VERTEX
  5
95C
  8
LAYER_1
 10
70.776345137456232
 20
15.367426776006081
 30
0.0
  0
VERTEX
  5
95D
  8
LAYER_1
 10
70.776345137456232
 20
15.470856102409851
 30
0.0
  0
VERTEX
  5
95E
  8
LAYER_1
 10
70.879774463859974
 20
15.574285428813621
 30
0.0
  0
VERTEX
  5
95F
  8
LAYER_1
 10
70.879774463859974
 20
15.677714755217391
 30
0.0
  0
VERTEX
  5
960
  8
LAYER_1
 10
70.879774463859974
 20
15.78114408162115
 30
0.0
  0
VERTEX
  5
961
  8
LAYER_1
 10
70.879774463859974
 20
15.88457340802492
 30
0.0
  0
VERTEX
  5
962
  8
LAYER_1
 10
70.879774463859974
 20
16.091432060832449
 30
0.0
  0
VERTEX
  5
963
  8
LAYER_1
 10
70.983203790263744
 20
16.298290713639979
 30
0.0
  0
VERTEX
  5
964
  8
LAYER_1
 10
70.983203790263744
 20
16.401720040043749
 30
0.0
  0
VERTEX
  5
965
  8
LAYER_1
 10
70.983203790263744
 20
16.712008019255052
 30
0.0
  0
VERTEX
  5
966
  8
LAYER_1
 10
70.983203790263744
 20
16.815437345658822
 30
0.0
  0
VERTEX
  5
967
  8
LAYER_1
 10
70.983203790263744
 20
16.918866672062581
 30
0.0
  0
VERTEX
  5
968
  8
LAYER_1
 10
71.086633116667514
 20
16.918866672062581
 30
0.0
  0
VERTEX
  5
969
  8
LAYER_1
 10
71.086633116667514
 20
17.022295998466351
 30
0.0
  0
VERTEX
  5
96A
  8
LAYER_1
 10
71.086633116667514
 20
17.229154651273891
 30
0.0
  0
VERTEX
  5
96B
  8
LAYER_1
 10
71.086633116667514
 20
17.33258397767765
 30
0.0
  0
VERTEX
  5
96C
  8
LAYER_1
 10
71.086633116667514
 20
17.43601330408142
 30
0.0
  0
VERTEX
  5
96D
  8
LAYER_1
 10
71.086633116667514
 20
17.53944263048518
 30
0.0
  0
VERTEX
  5
96E
  8
LAYER_1
 10
71.086633116667514
 20
17.64287195688895
 30
0.0
  0
VERTEX
  5
96F
  8
LAYER_1
 10
71.086633116667514
 20
17.746301283292709
 30
0.0
  0
VERTEX
  5
970
  8
LAYER_1
 10
71.086633116667514
 20
17.849730609696479
 30
0.0
  0
VERTEX
  5
971
  8
LAYER_1
 10
71.086633116667514
 20
17.953159936100249
 30
0.0
  0
VERTEX
  5
972
  8
LAYER_1
 10
71.086633116667514
 20
18.056589262504019
 30
0.0
  0
VERTEX
  5
973
  8
LAYER_1
 10
71.086633116667514
 20
18.160018588907789
 30
0.0
  0
VERTEX
  5
974
  8
LAYER_1
 10
71.086633116667514
 20
18.263447915311549
 30
0.0
  0
VERTEX
  5
975
  8
LAYER_1
 10
71.190062443071284
 20
18.263447915311549
 30
0.0
  0
VERTEX
  5
976
  8
LAYER_1
 10
71.190062443071284
 20
18.366877241715319
 30
0.0
  0
VERTEX
  5
977
  8
LAYER_1
 10
71.190062443071284
 20
18.470306568119081
 30
0.0
  0
VERTEX
  5
978
  8
LAYER_1
 10
71.293491769475054
 20
18.677165220926621
 30
0.0
  0
VERTEX
  5
979
  8
LAYER_1
 10
71.293491769475054
 20
18.780594547330391
 30
0.0
  0
VERTEX
  5
97A
  8
LAYER_1
 10
71.293491769475054
 20
18.884023873734151
 30
0.0
  0
VERTEX
  5
97B
  8
LAYER_1
 10
71.293491769475054
 20
18.987453200137921
 30
0.0
  0
VERTEX
  5
97C
  8
LAYER_1
 10
71.293491769475054
 20
19.19431185294545
 30
0.0
  0
VERTEX
  5
97D
  8
LAYER_1
 10
71.293491769475054
 20
19.29774117934922
 30
0.0
  0
VERTEX
  5
97E
  8
LAYER_1
 10
71.293491769475054
 20
19.40117050575299
 30
0.0
  0
VERTEX
  5
97F
  8
LAYER_1
 10
71.293491769475054
 20
19.50459983215675
 30
0.0
  0
VERTEX
  5
980
  8
LAYER_1
 10
71.293491769475054
 20
19.71145848496429
 30
0.0
  0
VERTEX
  5
981
  8
LAYER_1
 10
71.293491769475054
 20
19.918317137771819
 30
0.0
  0
VERTEX
  5
982
  8
LAYER_1
 10
71.396921095878824
 20
19.918317137771819
 30
0.0
  0
VERTEX
  5
983
  8
LAYER_1
 10
71.396921095878824
 20
20.021746464175589
 30
0.0
  0
VERTEX
  5
984
  8
LAYER_1
 10
71.396921095878824
 20
20.125175790579359
 30
0.0
  0
VERTEX
  5
985
  8
LAYER_1
 10
71.396921095878824
 20
20.228605116983118
 30
0.0
  0
VERTEX
  5
986
  8
LAYER_1
 10
71.396921095878824
 20
20.538893096194421
 30
0.0
  0
VERTEX
  5
987
  8
LAYER_1
 10
71.396921095878824
 20
20.642322422598181
 30
0.0
  0
VERTEX
  5
988
  8
LAYER_1
 10
71.396921095878824
 20
20.745751749001951
 30
0.0
  0
VERTEX
  5
989
  8
LAYER_1
 10
71.396921095878824
 20
20.849181075405721
 30
0.0
  0
VERTEX
  5
98A
  8
LAYER_1
 10
71.396921095878824
 20
20.952610401809491
 30
0.0
  0
VERTEX
  5
98B
  8
LAYER_1
 10
71.396921095878824
 20
21.15946905461702
 30
0.0
  0
VERTEX
  5
98C
  8
LAYER_1
 10
71.396921095878824
 20
21.26289838102079
 30
0.0
  0
VERTEX
  5
98D
  8
LAYER_1
 10
71.500350422282594
 20
21.366327707424549
 30
0.0
  0
VERTEX
  5
98E
  8
LAYER_1
 10
71.500350422282594
 20
21.573186360232089
 30
0.0
  0
VERTEX
  5
98F
  8
LAYER_1
 10
71.500350422282594
 20
21.883474339443389
 30
0.0
  0
VERTEX
  5
990
  8
LAYER_1
 10
71.500350422282594
 20
21.986903665847152
 30
0.0
  0
VERTEX
  5
991
  8
LAYER_1
 10
71.500350422282594
 20
22.090332992250922
 30
0.0
  0
VERTEX
  5
992
  8
LAYER_1
 10
71.500350422282594
 20
22.297191645058462
 30
0.0
  0
VERTEX
  5
993
  8
LAYER_1
 10
71.500350422282594
 20
22.60747962426975
 30
0.0
  0
VERTEX
  5
994
  8
LAYER_1
 10
71.500350422282594
 20
22.71090895067352
 30
0.0
  0
VERTEX
  5
995
  8
LAYER_1
 10
71.500350422282594
 20
22.81433827707728
 30
0.0
  0
VERTEX
  5
996
  8
LAYER_1
 10
71.500350422282594
 20
22.91776760348105
 30
0.0
  0
VERTEX
  5
997
  8
LAYER_1
 10
71.500350422282594
 20
23.124626256288579
 30
0.0
  0
VERTEX
  5
998
  8
LAYER_1
 10
71.603779748686364
 20
23.331484909096119
 30
0.0
  0
VERTEX
  5
999
  8
LAYER_1
 10
71.603779748686364
 20
23.434914235499889
 30
0.0
  0
VERTEX
  5
99A
  8
LAYER_1
 10
71.603779748686364
 20
23.538343561903648
 30
0.0
  0
VERTEX
  5
99B
  8
LAYER_1
 10
71.70720907509012
 20
23.745202214711188
 30
0.0
  0
VERTEX
  5
99C
  8
LAYER_1
 10
71.70720907509012
 20
23.848631541114958
 30
0.0
  0
VERTEX
  5
99D
  8
LAYER_1
 10
71.70720907509012
 20
23.952060867518721
 30
0.0
  0
VERTEX
  5
99E
  8
LAYER_1
 10
71.70720907509012
 20
24.055490193922491
 30
0.0
  0
VERTEX
  5
99F
  8
LAYER_1
 10
71.70720907509012
 20
24.158919520326251
 30
0.0
  0
VERTEX
  5
9A0
  8
LAYER_1
 10
71.70720907509012
 20
24.46920749953755
 30
0.0
  0
VERTEX
  5
9A1
  8
LAYER_1
 10
71.70720907509012
 20
24.57263682594132
 30
0.0
  0
VERTEX
  5
9A2
  8
LAYER_1
 10
71.70720907509012
 20
24.67606615234509
 30
0.0
  0
VERTEX
  5
9A3
  8
LAYER_1
 10
71.70720907509012
 20
24.77949547874886
 30
0.0
  0
VERTEX
  5
9A4
  8
LAYER_1
 10
71.70720907509012
 20
25.089783457960149
 30
0.0
  0
VERTEX
  5
9A5
  8
LAYER_1
 10
71.70720907509012
 20
25.193212784363919
 30
0.0
  0
VERTEX
  5
9A6
  8
LAYER_1
 10
71.70720907509012
 20
25.296642110767689
 30
0.0
  0
VERTEX
  5
9A7
  8
LAYER_1
 10
71.70720907509012
 20
25.400071437171459
 30
0.0
  0
VERTEX
  5
9A8
  8
LAYER_1
 10
71.70720907509012
 20
25.503500763575222
 30
0.0
  0
VERTEX
  5
9A9
  8
LAYER_1
 10
71.70720907509012
 20
25.917218069190291
 30
0.0
  0
VERTEX
  5
9AA
  8
LAYER_1
 10
71.70720907509012
 20
26.020647395594061
 30
0.0
  0
VERTEX
  5
9AB
  8
LAYER_1
 10
71.70720907509012
 20
26.12407672199782
 30
0.0
  0
VERTEX
  5
9AC
  8
LAYER_1
 10
71.70720907509012
 20
26.22750604840159
 30
0.0
  0
VERTEX
  5
9AD
  8
LAYER_1
 10
71.70720907509012
 20
26.43436470120912
 30
0.0
  0
VERTEX
  5
9AE
  8
LAYER_1
 10
71.70720907509012
 20
26.641223354016649
 30
0.0
  0
VERTEX
  5
9AF
  8
LAYER_1
 10
71.81063840149389
 20
26.744652680420419
 30
0.0
  0
VERTEX
  5
9B0
  8
LAYER_1
 10
71.81063840149389
 20
26.951511333227948
 30
0.0
  0
VERTEX
  5
9B1
  8
LAYER_1
 10
71.81063840149389
 20
27.158369986035488
 30
0.0
  0
VERTEX
  5
9B2
  8
LAYER_1
 10
71.81063840149389
 20
27.365228638843021
 30
0.0
  0
VERTEX
  5
9B3
  8
LAYER_1
 10
71.81063840149389
 20
27.572087291650561
 30
0.0
  0
VERTEX
  5
9B4
  8
LAYER_1
 10
71.81063840149389
 20
27.778945944458091
 30
0.0
  0
VERTEX
  5
9B5
  8
LAYER_1
 10
71.81063840149389
 20
28.08923392366939
 30
0.0
  0
VERTEX
  5
9B6
  8
LAYER_1
 10
71.81063840149389
 20
28.192663250073149
 30
0.0
  0
VERTEX
  5
9B7
  8
LAYER_1
 10
71.81063840149389
 20
28.296092576476919
 30
0.0
  0
VERTEX
  5
9B8
  8
LAYER_1
 10
71.81063840149389
 20
28.502951229284459
 30
0.0
  0
VERTEX
  5
9B9
  8
LAYER_1
 10
71.81063840149389
 20
28.709809882091989
 30
0.0
  0
VERTEX
  5
9BA
  8
LAYER_1
 10
71.81063840149389
 20
29.020097861303281
 30
0.0
  0
VERTEX
  5
9BB
  8
LAYER_1
 10
71.81063840149389
 20
29.226956514110821
 30
0.0
  0
VERTEX
  5
9BC
  8
LAYER_1
 10
71.81063840149389
 20
29.43381516691835
 30
0.0
  0
VERTEX
  5
9BD
  8
LAYER_1
 10
71.81063840149389
 20
29.74410314612966
 30
0.0
  0
VERTEX
  5
9BE
  8
LAYER_1
 10
71.81063840149389
 20
29.84753247253343
 30
0.0
  0
VERTEX
  5
9BF
  8
LAYER_1
 10
71.81063840149389
 20
30.05439112534096
 30
0.0
  0
VERTEX
  5
9C0
  8
LAYER_1
 10
71.81063840149389
 20
30.468108430956018
 30
0.0
  0
VERTEX
  5
9C1
  8
LAYER_1
 10
71.81063840149389
 20
30.571537757359788
 30
0.0
  0
VERTEX
  5
9C2
  8
LAYER_1
 10
71.70720907509012
 20
30.778396410167321
 30
0.0
  0
VERTEX
  5
9C3
  8
LAYER_1
 10
71.70720907509012
 20
30.881825736571091
 30
0.0
  0
VERTEX
  5
9C4
  8
LAYER_1
 10
71.70720907509012
 20
31.192113715782391
 30
0.0
  0
VERTEX
  5
9C5
  8
LAYER_1
 10
71.603779748686364
 20
31.39897236858992
 30
0.0
  0
VERTEX
  5
9C6
  8
LAYER_1
 10
71.603779748686364
 20
31.50240169499369
 30
0.0
  0
VERTEX
  5
9C7
  8
LAYER_1
 10
71.603779748686364
 20
31.605831021397449
 30
0.0
  0
VERTEX
  5
9C8
  8
LAYER_1
 10
71.603779748686364
 20
31.812689674204989
 30
0.0
  0
VERTEX
  5
9C9
  8
LAYER_1
 10
71.603779748686364
 20
31.916119000608759
 30
0.0
  0
VERTEX
  5
9CA
  8
LAYER_1
 10
71.500350422282594
 20
32.226406979820062
 30
0.0
  0
VERTEX
  5
9CB
  8
LAYER_1
 10
71.500350422282594
 20
32.329836306223832
 30
0.0
  0
VERTEX
  5
9CC
  8
LAYER_1
 10
71.500350422282594
 20
32.433265632627588
 30
0.0
  0
VERTEX
  5
9CD
  8
LAYER_1
 10
71.500350422282594
 20
32.640124285435121
 30
0.0
  0
VERTEX
  5
9CE
  8
LAYER_1
 10
71.500350422282594
 20
32.743553611838891
 30
0.0
  0
VERTEX
  5
9CF
  8
LAYER_1
 10
71.396921095878824
 20
32.950412264646417
 30
0.0
  0
VERTEX
  5
9D0
  8
LAYER_1
 10
71.396921095878824
 20
33.053841591050187
 30
0.0
  0
VERTEX
  5
9D1
  8
LAYER_1
 10
71.396921095878824
 20
33.157270917453957
 30
0.0
  0
VERTEX
  5
9D2
  8
LAYER_1
 10
71.396921095878824
 20
33.364129570261483
 30
0.0
  0
VERTEX
  5
9D3
  8
LAYER_1
 10
71.293491769475054
 20
33.674417549472793
 30
0.0
  0
VERTEX
  5
9D4
  8
LAYER_1
 10
71.293491769475054
 20
33.777846875876563
 30
0.0
  0
VERTEX
  5
9D5
  8
LAYER_1
 10
71.190062443071284
 20
33.984705528684088
 30
0.0
  0
VERTEX
  5
9D6
  8
LAYER_1
 10
71.190062443071284
 20
34.088134855087858
 30
0.0
  0
VERTEX
  5
9D7
  8
LAYER_1
 10
71.190062443071284
 20
34.191564181491621
 30
0.0
  0
VERTEX
  5
9D8
  8
LAYER_1
 10
71.190062443071284
 20
34.294993507895391
 30
0.0
  0
VERTEX
  5
9D9
  8
LAYER_1
 10
71.086633116667514
 20
34.398422834299161
 30
0.0
  0
VERTEX
  5
9DA
  8
LAYER_1
 10
71.086633116667514
 20
34.501852160702931
 30
0.0
  0
VERTEX
  5
9DB
  8
LAYER_1
 10
71.086633116667514
 20
34.81214013991422
 30
0.0
  0
VERTEX
  5
9DC
  8
LAYER_1
 10
71.086633116667514
 20
34.91556946631799
 30
0.0
  0
VERTEX
  5
9DD
  8
LAYER_1
 10
70.983203790263744
 20
34.91556946631799
 30
0.0
  0
VERTEX
  5
9DE
  8
LAYER_1
 10
70.983203790263744
 20
35.122428119125523
 30
0.0
  0
VERTEX
  5
9DF
  8
LAYER_1
 10
70.983203790263744
 20
35.225857445529293
 30
0.0
  0
VERTEX
  5
9E0
  8
LAYER_1
 10
70.983203790263744
 20
35.329286771933063
 30
0.0
  0
VERTEX
  5
9E1
  8
LAYER_1
 10
70.983203790263744
 20
35.432716098336833
 30
0.0
  0
VERTEX
  5
9E2
  8
LAYER_1
 10
70.879774463859974
 20
35.536145424740589
 30
0.0
  0
VERTEX
  5
9E3
  8
LAYER_1
 10
70.879774463859974
 20
35.639574751144352
 30
0.0
  0
VERTEX
  5
9E4
  8
LAYER_1
 10
70.776345137456232
 20
35.949862730355662
 30
0.0
  0
VERTEX
  5
9E5
  8
LAYER_1
 10
70.776345137456232
 20
36.053292056759418
 30
0.0
  0
VERTEX
  5
9E6
  8
LAYER_1
 10
70.776345137456232
 20
36.156721383163188
 30
0.0
  0
VERTEX
  5
9E7
  8
LAYER_1
 10
70.776345137456232
 20
36.260150709566958
 30
0.0
  0
VERTEX
  5
9E8
  8
LAYER_1
 10
70.776345137456232
 20
36.36358003597072
 30
0.0
  0
VERTEX
  5
9E9
  8
LAYER_1
 10
70.672915811052462
 20
36.570438688778253
 30
0.0
  0
VERTEX
  5
9EA
  8
LAYER_1
 10
70.672915811052462
 20
36.673868015182023
 30
0.0
  0
VERTEX
  5
9EB
  8
LAYER_1
 10
70.672915811052462
 20
36.984155994393319
 30
0.0
  0
VERTEX
  5
9EC
  8
LAYER_1
 10
70.569486484648692
 20
36.984155994393319
 30
0.0
  0
VERTEX
  5
9ED
  8
LAYER_1
 10
70.569486484648692
 20
37.087585320797089
 30
0.0
  0
VERTEX
  5
9EE
  8
LAYER_1
 10
70.569486484648692
 20
37.294443973604622
 30
0.0
  0
VERTEX
  5
9EF
  8
LAYER_1
 10
70.466057158244922
 20
37.397873300008392
 30
0.0
  0
VERTEX
  5
9F0
  8
LAYER_1
 10
70.466057158244922
 20
37.604731952815932
 30
0.0
  0
VERTEX
  5
9F1
  8
LAYER_1
 10
70.466057158244922
 20
37.708161279219688
 30
0.0
  0
VERTEX
  5
9F2
  8
LAYER_1
 10
70.466057158244922
 20
37.811590605623451
 30
0.0
  0
VERTEX
  5
9F3
  8
LAYER_1
 10
70.466057158244922
 20
37.915019932027221
 30
0.0
  0
VERTEX
  5
9F4
  8
LAYER_1
 10
70.362627831841166
 20
38.121878584834761
 30
0.0
  0
VERTEX
  5
9F5
  8
LAYER_1
 10
70.362627831841166
 20
38.225307911238517
 30
0.0
  0
VERTEX
  5
9F6
  8
LAYER_1
 10
70.362627831841166
 20
38.328737237642287
 30
0.0
  0
VERTEX
  5
9F7
  8
LAYER_1
 10
70.259198505437396
 20
38.432166564046057
 30
0.0
  0
VERTEX
  5
9F8
  8
LAYER_1
 10
70.259198505437396
 20
38.535595890449819
 30
0.0
  0
VERTEX
  5
9F9
  8
LAYER_1
 10
70.259198505437396
 20
38.742454543257352
 30
0.0
  0
VERTEX
  5
9FA
  8
LAYER_1
 10
70.155769179033626
 20
38.845883869661122
 30
0.0
  0
VERTEX
  5
9FB
  8
LAYER_1
 10
70.155769179033626
 20
38.949313196064892
 30
0.0
  0
VERTEX
  5
9FC
  8
LAYER_1
 10
70.052339852629856
 20
39.052742522468648
 30
0.0
  0
VERTEX
  5
9FD
  8
LAYER_1
 10
70.052339852629856
 20
39.363030501679958
 30
0.0
  0
VERTEX
  5
9FE
  8
LAYER_1
 10
70.052339852629856
 20
39.466459828083721
 30
0.0
  0
VERTEX
  5
9FF
  8
LAYER_1
 10
69.948910526226086
 20
39.569889154487491
 30
0.0
  0
VERTEX
  5
A00
  8
LAYER_1
 10
69.845481199822331
 20
39.880177133698787
 30
0.0
  0
VERTEX
  5
A01
  8
LAYER_1
 10
69.845481199822331
 20
39.98360646010255
 30
0.0
  0
VERTEX
  5
A02
  8
LAYER_1
 10
69.742051873418561
 20
40.087035786506313
 30
0.0
  0
VERTEX
  5
A03
  8
LAYER_1
 10
69.742051873418561
 20
40.293894439313853
 30
0.0
  0
VERTEX
  5
A04
  8
LAYER_1
 10
69.742051873418561
 20
40.397323765717623
 30
0.0
  0
VERTEX
  5
A05
  8
LAYER_1
 10
69.638622547014791
 20
40.500753092121393
 30
0.0
  0
VERTEX
  5
A06
  8
LAYER_1
 10
69.638622547014791
 20
40.604182418525163
 30
0.0
  0
VERTEX
  5
A07
  8
LAYER_1
 10
69.535193220611021
 20
40.707611744928933
 30
0.0
  0
VERTEX
  5
A08
  8
LAYER_1
 10
69.535193220611021
 20
40.914470397736451
 30
0.0
  0
VERTEX
  5
A09
  8
LAYER_1
 10
69.431763894207265
 20
41.121329050543991
 30
0.0
  0
VERTEX
  5
A0A
  8
LAYER_1
 10
69.328334567803495
 20
41.224758376947747
 30
0.0
  0
VERTEX
  5
A0B
  8
LAYER_1
 10
69.328334567803495
 20
41.32818770335151
 30
0.0
  0
VERTEX
  5
A0C
  8
LAYER_1
 10
69.328334567803495
 20
41.43161702975528
 30
0.0
  0
VERTEX
  5
A0D
  8
LAYER_1
 10
69.224905241399725
 20
41.741905008966583
 30
0.0
  0
VERTEX
  5
A0E
  8
LAYER_1
 10
69.121475914995955
 20
41.741905008966583
 30
0.0
  0
VERTEX
  5
A0F
  8
LAYER_1
 10
69.121475914995955
 20
41.845334335370353
 30
0.0
  0
VERTEX
  5
A10
  8
LAYER_1
 10
69.018046588592185
 20
41.948763661774123
 30
0.0
  0
VERTEX
  5
A11
  8
LAYER_1
 10
69.018046588592185
 20
42.052192988177893
 30
0.0
  0
VERTEX
  5
A12
  8
LAYER_1
 10
68.914617262188415
 20
42.362480967389182
 30
0.0
  0
VERTEX
  5
A13
  8
LAYER_1
 10
68.914617262188415
 20
42.465910293792952
 30
0.0
  0
VERTEX
  5
A14
  8
LAYER_1
 10
68.811187935784645
 20
42.569339620196722
 30
0.0
  0
VERTEX
  5
A15
  8
LAYER_1
 10
68.811187935784645
 20
42.672768946600492
 30
0.0
  0
VERTEX
  5
A16
  8
LAYER_1
 10
68.604329282977105
 20
42.879627599408032
 30
0.0
  0
VERTEX
  5
A17
  8
LAYER_1
 10
68.604329282977105
 20
42.983056925811788
 30
0.0
  0
VERTEX
  5
A18
  8
LAYER_1
 10
68.500899956573363
 20
43.086486252215551
 30
0.0
  0
VERTEX
  5
A19
  8
LAYER_1
 10
68.500899956573363
 20
43.293344905023091
 30
0.0
  0
VERTEX
  5
A1A
  8
LAYER_1
 10
68.294041303765823
 20
43.500203557830609
 30
0.0
  0
VERTEX
  5
A1B
  8
LAYER_1
 10
68.294041303765823
 20
43.603632884234379
 30
0.0
  0
VERTEX
  5
A1C
  8
LAYER_1
 10
68.190611977362053
 20
43.707062210638149
 30
0.0
  0
VERTEX
  5
A1D
  8
LAYER_1
 10
68.087182650958297
 20
43.913920863445689
 30
0.0
  0
VERTEX
  5
A1E
  8
LAYER_1
 10
68.087182650958297
 20
44.017350189849452
 30
0.0
  0
VERTEX
  5
A1F
  8
LAYER_1
 10
67.983753324554527
 20
44.224208842656992
 30
0.0
  0
VERTEX
  5
A20
  8
LAYER_1
 10
67.880323998150757
 20
44.327638169060748
 30
0.0
  0
VERTEX
  5
A21
  8
LAYER_1
 10
67.776894671746987
 20
44.534496821868281
 30
0.0
  0
VERTEX
  5
A22
  8
LAYER_1
 10
67.776894671746987
 20
44.637926148272051
 30
0.0
  0
VERTEX
  5
A23
  8
LAYER_1
 10
67.673465345343232
 20
44.637926148272051
 30
0.0
  0
VERTEX
  5
A24
  8
LAYER_1
 10
67.673465345343232
 20
44.741355474675807
 30
0.0
  0
VERTEX
  5
A25
  8
LAYER_1
 10
67.466606692535692
 20
44.948214127483347
 30
0.0
  0
VERTEX
  5
A26
  8
LAYER_1
 10
67.466606692535692
 20
45.051643453887117
 30
0.0
  0
VERTEX
  5
A27
  8
LAYER_1
 10
67.466606692535692
 20
45.155072780290887
 30
0.0
  0
VERTEX
  5
A28
  8
LAYER_1
 10
67.363177366131922
 20
45.258502106694657
 30
0.0
  0
VERTEX
  5
A29
  8
LAYER_1
 10
67.259748039728166
 20
45.36193143309842
 30
0.0
  0
VERTEX
  5
A2A
  8
LAYER_1
 10
67.156318713324396
 20
45.46536075950219
 30
0.0
  0
VERTEX
  5
A2B
  8
LAYER_1
 10
67.156318713324396
 20
45.56879008590596
 30
0.0
  0
VERTEX
  5
A2C
  8
LAYER_1
 10
67.052889386920626
 20
45.672219412309722
 30
0.0
  0
VERTEX
  5
A2D
  8
LAYER_1
 10
66.949460060516856
 20
45.775648738713478
 30
0.0
  0
VERTEX
  5
A2E
  8
LAYER_1
 10
66.846030734113086
 20
45.775648738713478
 30
0.0
  0
VERTEX
  5
A2F
  8
LAYER_1
 10
66.846030734113086
 20
45.879078065117248
 30
0.0
  0
VERTEX
  5
A30
  8
LAYER_1
 10
66.846030734113086
 20
45.982507391521018
 30
0.0
  0
VERTEX
  5
A31
  8
LAYER_1
 10
66.742601407709316
 20
45.982507391521018
 30
0.0
  0
VERTEX
  5
A32
  8
LAYER_1
 10
66.742601407709316
 20
46.085936717924788
 30
0.0
  0
VERTEX
  5
A33
  8
LAYER_1
 10
66.742601407709316
 20
46.189366044328551
 30
0.0
  0
VERTEX
  5
A34
  8
LAYER_1
 10
66.639172081305546
 20
46.189366044328551
 30
0.0
  0
VERTEX
  5
A35
  8
LAYER_1
 10
66.639172081305546
 20
46.292795370732321
 30
0.0
  0
VERTEX
  5
A36
  8
LAYER_1
 10
66.535742754901776
 20
46.292795370732321
 30
0.0
  0
VERTEX
  5
A37
  8
LAYER_1
 10
66.535742754901776
 20
46.396224697136091
 30
0.0
  0
VERTEX
  5
A38
  8
LAYER_1
 10
66.432313428498006
 20
46.396224697136091
 30
0.0
  0
VERTEX
  5
A39
  8
LAYER_1
 10
66.328884102094264
 20
46.499654023539847
 30
0.0
  0
VERTEX
  5
A3A
  8
LAYER_1
 10
66.225454775690494
 20
46.60308334994361
 30
0.0
  0
VERTEX
  5
A3B
  8
LAYER_1
 10
66.122025449286724
 20
46.60308334994361
 30
0.0
  0
VERTEX
  5
A3C
  8
LAYER_1
 10
66.122025449286724
 20
46.70651267634738
 30
0.0
  0
VERTEX
  5
A3D
  8
LAYER_1
 10
66.018596122882954
 20
46.70651267634738
 30
0.0
  0
VERTEX
  5
A3E
  8
LAYER_1
 10
65.915166796479198
 20
46.80994200275115
 30
0.0
  0
VERTEX
  5
A3F
  8
LAYER_1
 10
65.811737470075428
 20
46.80994200275115
 30
0.0
  0
VERTEX
  5
A40
  8
LAYER_1
 10
65.708308143671658
 20
46.913371329154913
 30
0.0
  0
VERTEX
  5
A41
  8
LAYER_1
 10
65.501449490864132
 20
47.016800655558683
 30
0.0
  0
VERTEX
  5
A42
  8
LAYER_1
 10
65.398020164460362
 20
47.120229981962453
 30
0.0
  0
VERTEX
  5
A43
  8
LAYER_1
 10
65.294590838056592
 20
47.120229981962453
 30
0.0
  0
VERTEX
  5
A44
  8
LAYER_1
 10
65.191161511652822
 20
47.120229981962453
 30
0.0
  0
VERTEX
  5
A45
  8
LAYER_1
 10
65.191161511652822
 20
47.223659308366223
 30
0.0
  0
VERTEX
  5
A46
  8
LAYER_1
 10
64.880873532441527
 20
47.430517961173749
 30
0.0
  0
VERTEX
  5
A47
  8
LAYER_1
 10
64.777444206037757
 20
47.430517961173749
 30
0.0
  0
VERTEX
  5
A48
  8
LAYER_1
 10
64.674014879633987
 20
47.430517961173749
 30
0.0
  0
VERTEX
  5
A49
  8
LAYER_1
 10
64.570585553230231
 20
47.533947287577519
 30
0.0
  0
VERTEX
  5
A4A
  8
LAYER_1
 10
64.467156226826461
 20
47.533947287577519
 30
0.0
  0
VERTEX
  5
A4B
  8
LAYER_1
 10
64.363726900422691
 20
47.533947287577519
 30
0.0
  0
VERTEX
  5
A4C
  8
LAYER_1
 10
64.260297574018921
 20
47.637376613981289
 30
0.0
  0
VERTEX
  5
A4D
  8
LAYER_1
 10
64.156868247615165
 20
47.637376613981289
 30
0.0
  0
VERTEX
  5
A4E
  8
LAYER_1
 10
64.053438921211395
 20
47.740805940385059
 30
0.0
  0
VERTEX
  5
A4F
  8
LAYER_1
 10
63.950009594807618
 20
47.740805940385059
 30
0.0
  0
VERTEX
  5
A50
  8
LAYER_1
 10
63.846580268403848
 20
47.844235266788822
 30
0.0
  0
VERTEX
  5
A51
  8
LAYER_1
 10
63.743150942000099
 20
47.844235266788822
 30
0.0
  0
VERTEX
  5
A52
  8
LAYER_1
 10
63.536292289192559
 20
47.844235266788822
 30
0.0
  0
VERTEX
  5
A53
  8
LAYER_1
 10
63.432862962788789
 20
47.844235266788822
 30
0.0
  0
VERTEX
  5
A54
  8
LAYER_1
 10
63.432862962788789
 20
47.947664593192577
 30
0.0
  0
VERTEX
  5
A55
  8
LAYER_1
 10
63.226004309981263
 20
47.947664593192577
 30
0.0
  0
VERTEX
  5
A56
  8
LAYER_1
 10
63.122574983577493
 20
47.947664593192577
 30
0.0
  0
VERTEX
  5
A57
  8
LAYER_1
 10
63.019145657173723
 20
47.947664593192577
 30
0.0
  0
VERTEX
  5
A58
  8
LAYER_1
 10
63.019145657173723
 20
48.051093919596362
 30
0.0
  0
VERTEX
  5
A59
  8
LAYER_1
 10
62.812287004366198
 20
48.051093919596362
 30
0.0
  0
VERTEX
  5
A5A
  8
LAYER_1
 10
62.708857677962428
 20
48.051093919596362
 30
0.0
  0
VERTEX
  5
A5B
  8
LAYER_1
 10
62.605428351558658
 20
48.051093919596362
 30
0.0
  0
VERTEX
  5
A5C
  8
LAYER_1
 10
62.501999025154888
 20
48.051093919596362
 30
0.0
  0
VERTEX
  5
A5D
  8
LAYER_1
 10
62.398569698751132
 20
48.051093919596362
 30
0.0
  0
VERTEX
  5
A5E
  8
LAYER_1
 10
62.295140372347362
 20
48.154523246000132
 30
0.0
  0
VERTEX
  5
A5F
  8
LAYER_1
 10
62.191711045943592
 20
48.154523246000132
 30
0.0
  0
VERTEX
  5
A60
  8
LAYER_1
 10
62.088281719539822
 20
48.257952572403887
 30
0.0
  0
VERTEX
  5
A61
  8
LAYER_1
 10
61.984852393136059
 20
48.257952572403887
 30
0.0
  0
VERTEX
  5
A62
  8
LAYER_1
 10
61.674564413924749
 20
48.257952572403887
 30
0.0
  0
VERTEX
  5
A63
  8
LAYER_1
 10
61.571135087520979
 20
48.257952572403887
 30
0.0
  0
VERTEX
  5
A64
  8
LAYER_1
 10
61.46770576111723
 20
48.257952572403887
 30
0.0
  0
VERTEX
  5
A65
  8
LAYER_1
 10
61.36427643471346
 20
48.257952572403887
 30
0.0
  0
VERTEX
  5
A66
  8
LAYER_1
 10
61.15741778190592
 20
48.361381898807657
 30
0.0
  0
VERTEX
  5
A67
  8
LAYER_1
 10
61.053988455502157
 20
48.361381898807657
 30
0.0
  0
VERTEX
  5
A68
  8
LAYER_1
 10
60.847129802694617
 20
48.361381898807657
 30
0.0
  0
VERTEX
  5
A69
  8
LAYER_1
 10
60.433412497079559
 20
48.361381898807657
 30
0.0
  0
VERTEX
  5
A6A
  8
LAYER_1
 10
60.329983170675789
 20
48.361381898807657
 30
0.0
  0
VERTEX
  5
A6B
  8
LAYER_1
 10
60.226553844272019
 20
48.361381898807657
 30
0.0
  0
VERTEX
  5
A6C
  8
LAYER_1
 10
60.019695191464493
 20
48.361381898807657
 30
0.0
  0
VERTEX
  5
A6D
  8
LAYER_1
 10
59.709407212253197
 20
48.361381898807657
 30
0.0
  0
VERTEX
  5
A6E
  8
LAYER_1
 10
59.605977885849427
 20
48.361381898807657
 30
0.0
  0
VERTEX
  5
A6F
  8
LAYER_1
 10
59.502548559445657
 20
48.361381898807657
 30
0.0
  0
VERTEX
  5
A70
  8
LAYER_1
 10
59.399119233041887
 20
48.361381898807657
 30
0.0
  0
VERTEX
  5
A71
  8
LAYER_1
 10
59.088831253830591
 20
48.361381898807657
 30
0.0
  0
VERTEX
  5
A72
  8
LAYER_1
 10
58.985401927426821
 20
48.361381898807657
 30
0.0
  0
VERTEX
  5
A73
  8
LAYER_1
 10
58.675113948215518
 20
48.361381898807657
 30
0.0
  0
VERTEX
  5
A74
  8
LAYER_1
 10
58.468255295407978
 20
48.361381898807657
 30
0.0
  0
VERTEX
  5
A75
  8
LAYER_1
 10
58.054537989792919
 20
48.361381898807657
 30
0.0
  0
VERTEX
  5
A76
  8
LAYER_1
 10
57.951108663389157
 20
48.361381898807657
 30
0.0
  0
VERTEX
  5
A77
  8
LAYER_1
 10
57.847679336985387
 20
48.361381898807657
 30
0.0
  0
VERTEX
  5
A78
  8
LAYER_1
 10
57.640820684177847
 20
48.361381898807657
 30
0.0
  0
VERTEX
  5
A79
  8
LAYER_1
 10
57.537391357774098
 20
48.361381898807657
 30
0.0
  0
VERTEX
  5
A7A
  8
LAYER_1
 10
57.123674052159032
 20
48.361381898807657
 30
0.0
  0
VERTEX
  5
A7B
  8
LAYER_1
 10
57.020244725755262
 20
48.361381898807657
 30
0.0
  0
VERTEX
  5
A7C
  8
LAYER_1
 10
56.916815399351492
 20
48.361381898807657
 30
0.0
  0
VERTEX
  5
A7D
  8
LAYER_1
 10
56.606527420140189
 20
48.361381898807657
 30
0.0
  0
VERTEX
  5
A7E
  8
LAYER_1
 10
56.19281011452513
 20
48.361381898807657
 30
0.0
  0
VERTEX
  5
A7F
  8
LAYER_1
 10
56.08938078812136
 20
48.361381898807657
 30
0.0
  0
VERTEX
  5
A80
  8
LAYER_1
 10
55.88252213531382
 20
48.361381898807657
 30
0.0
  0
VERTEX
  5
A81
  8
LAYER_1
 10
55.675663482506287
 20
48.361381898807657
 30
0.0
  0
VERTEX
  5
A82
  8
LAYER_1
 10
55.365375503294977
 20
48.361381898807657
 30
0.0
  0
VERTEX
  5
A83
  8
LAYER_1
 10
55.261946176891229
 20
48.361381898807657
 30
0.0
  0
VERTEX
  5
A84
  8
LAYER_1
 10
55.158516850487459
 20
48.361381898807657
 30
0.0
  0
VERTEX
  5
A85
  8
LAYER_1
 10
54.951658197679919
 20
48.361381898807657
 30
0.0
  0
VERTEX
  5
A86
  8
LAYER_1
 10
54.64137021846863
 20
48.257952572403887
 30
0.0
  0
VERTEX
  5
A87
  8
LAYER_1
 10
54.53794089206486
 20
48.257952572403887
 30
0.0
  0
VERTEX
  5
A88
  8
LAYER_1
 10
54.43451156566109
 20
48.257952572403887
 30
0.0
  0
VERTEX
  5
A89
  8
LAYER_1
 10
54.33108223925732
 20
48.257952572403887
 30
0.0
  0
VERTEX
  5
A8A
  8
LAYER_1
 10
54.020794260046031
 20
48.154523246000132
 30
0.0
  0
VERTEX
  5
A8B
  8
LAYER_1
 10
53.917364933642261
 20
48.154523246000132
 30
0.0
  0
VERTEX
  5
A8C
  8
LAYER_1
 10
53.813935607238491
 20
48.154523246000132
 30
0.0
  0
VERTEX
  5
A8D
  8
LAYER_1
 10
53.710506280834721
 20
48.154523246000132
 30
0.0
  0
VERTEX
  5
A8E
  8
LAYER_1
 10
53.607076954430951
 20
48.154523246000132
 30
0.0
  0
VERTEX
  5
A8F
  8
LAYER_1
 10
53.193359648815878
 20
48.051093919596362
 30
0.0
  0
VERTEX
  5
A90
  8
LAYER_1
 10
53.08993032241213
 20
48.051093919596362
 30
0.0
  0
VERTEX
  5
A91
  8
LAYER_1
 10
52.98650099600836
 20
48.051093919596362
 30
0.0
  0
VERTEX
  5
A92
  8
LAYER_1
 10
52.676213016797071
 20
47.947664593192577
 30
0.0
  0
VERTEX
  5
A93
  8
LAYER_1
 10
52.572783690393301
 20
47.947664593192577
 30
0.0
  0
VERTEX
  5
A94
  8
LAYER_1
 10
52.469354363989531
 20
47.740805940385059
 30
0.0
  0
VERTEX
  5
A95
  8
LAYER_1
 10
52.159066384778221
 20
47.637376613981289
 30
0.0
  0
VERTEX
  5
A96
  8
LAYER_1
 10
52.055637058374451
 20
47.637376613981289
 30
0.0
  0
VERTEX
  5
A97
  8
LAYER_1
 10
51.952207731970681
 20
47.533947287577519
 30
0.0
  0
VERTEX
  5
A98
  8
LAYER_1
 10
51.745349079163162
 20
47.533947287577519
 30
0.0
  0
VERTEX
  5
A99
  8
LAYER_1
 10
51.435061099951852
 20
47.327088634769993
 30
0.0
  0
VERTEX
  5
A9A
  8
LAYER_1
 10
51.331631773548089
 20
47.327088634769993
 30
0.0
  0
VERTEX
  5
A9B
  8
LAYER_1
 10
51.228202447144319
 20
47.223659308366223
 30
0.0
  0
VERTEX
  5
A9C
  8
LAYER_1
 10
51.124773120740549
 20
47.223659308366223
 30
0.0
  0
VERTEX
  5
A9D
  8
LAYER_1
 10
50.814485141529261
 20
47.016800655558683
 30
0.0
  0
VERTEX
  5
A9E
  8
LAYER_1
 10
50.711055815125491
 20
46.913371329154913
 30
0.0
  0
VERTEX
  5
A9F
  8
LAYER_1
 10
50.607626488721721
 20
46.913371329154913
 30
0.0
  0
VERTEX
  5
AA0
  8
LAYER_1
 10
50.400767835914202
 20
46.80994200275115
 30
0.0
  0
VERTEX
  5
AA1
  8
LAYER_1
 10
50.297338509510432
 20
46.80994200275115
 30
0.0
  0
VERTEX
  5
AA2
  8
LAYER_1
 10
50.193909183106662
 20
46.60308334994361
 30
0.0
  0
VERTEX
  5
AA3
  8
LAYER_1
 10
49.987050530299129
 20
46.60308334994361
 30
0.0
  0
VERTEX
  5
AA4
  8
LAYER_1
 10
49.883621203895359
 20
46.499654023539847
 30
0.0
  0
VERTEX
  5
AA5
  8
LAYER_1
 10
49.676762551087819
 20
46.292795370732321
 30
0.0
  0
VERTEX
  5
AA6
  8
LAYER_1
 10
49.573333224684063
 20
46.189366044328551
 30
0.0
  0
VERTEX
  5
AA7
  8
LAYER_1
 10
49.469903898280293
 20
46.085936717924788
 30
0.0
  0
VERTEX
  5
AA8
  8
LAYER_1
 10
49.366474571876523
 20
45.982507391521018
 30
0.0
  0
VERTEX
  5
AA9
  8
LAYER_1
 10
49.263045245472753
 20
45.879078065117248
 30
0.0
  0
VERTEX
  5
AAA
  8
LAYER_1
 10
49.15961591906899
 20
45.775648738713478
 30
0.0
  0
VERTEX
  5
AAB
  8
LAYER_1
 10
49.15961591906899
 20
45.672219412309722
 30
0.0
  0
VERTEX
  5
AAC
  8
LAYER_1
 10
48.95275726626145
 20
45.46536075950219
 30
0.0
  0
VERTEX
  5
AAD
  8
LAYER_1
 10
48.84932793985768
 20
45.46536075950219
 30
0.0
  0
VERTEX
  5
AAE
  8
LAYER_1
 10
48.84932793985768
 20
45.36193143309842
 30
0.0
  0
VERTEX
  5
AAF
  8
LAYER_1
 10
48.745898613453932
 20
45.155072780290887
 30
0.0
  0
VERTEX
  5
AB0
  8
LAYER_1
 10
48.435610634242622
 20
45.051643453887117
 30
0.0
  0
VERTEX
  5
AB1
  8
LAYER_1
 10
48.435610634242622
 20
44.948214127483347
 30
0.0
  0
VERTEX
  5
AB2
  8
LAYER_1
 10
48.332181307838852
 20
44.844784801079577
 30
0.0
  0
VERTEX
  5
AB3
  8
LAYER_1
 10
48.228751981435103
 20
44.741355474675807
 30
0.0
  0
VERTEX
  5
AB4
  8
LAYER_1
 10
48.125322655031333
 20
44.431067495464511
 30
0.0
  0
VERTEX
  5
AB5
  8
LAYER_1
 10
48.021893328627563
 20
44.431067495464511
 30
0.0
  0
VERTEX
  5
AB6
  8
LAYER_1
 10
48.021893328627563
 20
44.327638169060748
 30
0.0
  0
VERTEX
  5
AB7
  8
LAYER_1
 10
47.81503467582003
 20
44.120779516253222
 30
0.0
  0
VERTEX
  5
AB8
  8
LAYER_1
 10
47.71160534941626
 20
43.913920863445689
 30
0.0
  0
VERTEX
  5
AB9
  8
LAYER_1
 10
47.71160534941626
 20
43.810491537041919
 30
0.0
  0
VERTEX
  5
ABA
  8
LAYER_1
 10
47.60817602301249
 20
43.603632884234379
 30
0.0
  0
VERTEX
  5
ABB
  8
LAYER_1
 10
47.401317370204957
 20
43.293344905023091
 30
0.0
  0
VERTEX
  5
ABC
  8
LAYER_1
 10
47.297888043801187
 20
43.189915578619321
 30
0.0
  0
VERTEX
  5
ABD
  8
LAYER_1
 10
47.297888043801187
 20
43.086486252215551
 30
0.0
  0
VERTEX
  5
ABE
  8
LAYER_1
 10
47.194458717397417
 20
42.879627599408032
 30
0.0
  0
VERTEX
  5
ABF
  8
LAYER_1
 10
46.987600064589877
 20
42.465910293792952
 30
0.0
  0
VERTEX
  5
AC0
  8
LAYER_1
 10
46.884170738186121
 20
42.362480967389182
 30
0.0
  0
VERTEX
  5
AC1
  8
LAYER_1
 10
46.884170738186121
 20
42.259051640985412
 30
0.0
  0
VERTEX
  5
AC2
  8
LAYER_1
 10
46.780741411782351
 20
42.155622314581649
 30
0.0
  0
VERTEX
  5
AC3
  8
LAYER_1
 10
46.573882758974811
 20
41.741905008966583
 30
0.0
  0
VERTEX
  5
AC4
  8
LAYER_1
 10
46.573882758974811
 20
41.63847568256282
 30
0.0
  0
VERTEX
  5
AC5
  8
LAYER_1
 10
46.470453432571063
 20
41.43161702975528
 30
0.0
  0
VERTEX
  5
AC6
  8
LAYER_1
 10
46.367024106167293
 20
41.32818770335151
 30
0.0
  0
VERTEX
  5
AC7
  8
LAYER_1
 10
46.263594779763523
 20
41.017899724140221
 30
0.0
  0
VERTEX
  5
AC8
  8
LAYER_1
 10
46.263594779763523
 20
40.914470397736451
 30
0.0
  0
VERTEX
  5
AC9
  8
LAYER_1
 10
46.263594779763523
 20
40.811041071332689
 30
0.0
  0
VERTEX
  5
ACA
  8
LAYER_1
 10
46.160165453359753
 20
40.707611744928933
 30
0.0
  0
VERTEX
  5
ACB
  8
LAYER_1
 10
46.05673612695599
 20
40.500753092121393
 30
0.0
  0
VERTEX
  5
ACC
  8
LAYER_1
 10
46.05673612695599
 20
40.397323765717623
 30
0.0
  0
VERTEX
  5
ACD
  8
LAYER_1
 10
46.05673612695599
 20
40.293894439313853
 30
0.0
  0
VERTEX
  5
ACE
  8
LAYER_1
 10
45.95330680055222
 20
40.190465112910083
 30
0.0
  0
VERTEX
  5
ACF
  8
LAYER_1
 10
45.95330680055222
 20
40.087035786506313
 30
0.0
  0
VERTEX
  5
AD0
  8
LAYER_1
 10
45.84987747414845
 20
39.98360646010255
 30
0.0
  0
VERTEX
  5
AD1
  8
LAYER_1
 10
45.74644814774468
 20
39.98360646010255
 30
0.0
  0
VERTEX
  5
AD2
  8
LAYER_1
 10
45.74644814774468
 20
39.880177133698787
 30
0.0
  0
VERTEX
  5
AD3
  8
LAYER_1
 10
45.539589494937161
 20
39.776747807295031
 30
0.0
  0
VERTEX
  5
AD4
  8
LAYER_1
 10
45.539589494937161
 20
39.673318480891261
 30
0.0
  0
VERTEX
  5
AD5
  8
LAYER_1
 10
45.332730842129621
 20
39.673318480891261
 30
0.0
  0
VERTEX
  5
AD6
  8
LAYER_1
 10
45.125872189322102
 20
39.569889154487491
 30
0.0
  0
VERTEX
  5
AD7
  8
LAYER_1
 10
45.022442862918332
 20
39.569889154487491
 30
0.0
  0
VERTEX
  5
AD8
  8
LAYER_1
 10
44.919013536514562
 20
39.466459828083721
 30
0.0
  0
VERTEX
  5
AD9
  8
LAYER_1
 10
44.712154883707022
 20
39.363030501679958
 30
0.0
  0
VERTEX
  5
ADA
  8
LAYER_1
 10
44.505296230899482
 20
39.363030501679958
 30
0.0
  0
VERTEX
  5
ADB
  8
LAYER_1
 10
44.401866904495712
 20
39.259601175276188
 30
0.0
  0
VERTEX
  5
ADC
  8
LAYER_1
 10
44.091578925284423
 20
39.259601175276188
 30
0.0
  0
VERTEX
  5
ADD
  8
LAYER_1
 10
43.988149598880653
 20
39.156171848872418
 30
0.0
  0
VERTEX
  5
ADE
  8
LAYER_1
 10
43.471002966861811
 20
39.156171848872418
 30
0.0
  0
VERTEX
  5
ADF
  8
LAYER_1
 10
43.367573640458062
 20
39.052742522468648
 30
0.0
  0
VERTEX
  5
AE0
  8
LAYER_1
 10
43.264144314054292
 20
39.052742522468648
 30
0.0
  0
VERTEX
  5
AE1
  8
LAYER_1
 10
42.850427008439233
 20
38.949313196064892
 30
0.0
  0
VERTEX
  5
AE2
  8
LAYER_1
 10
42.746997682035463
 20
38.949313196064892
 30
0.0
  0
VERTEX
  5
AE3
  8
LAYER_1
 10
42.643568355631693
 20
38.949313196064892
 30
0.0
  0
VERTEX
  5
AE4
  8
LAYER_1
 10
42.54013902922793
 20
38.949313196064892
 30
0.0
  0
VERTEX
  5
AE5
  8
LAYER_1
 10
42.33328037642039
 20
38.949313196064892
 30
0.0
  0
VERTEX
  5
AE6
  8
LAYER_1
 10
42.22985105001662
 20
38.949313196064892
 30
0.0
  0
VERTEX
  5
AE7
  8
LAYER_1
 10
42.12642172361285
 20
38.949313196064892
 30
0.0
  0
VERTEX
  5
AE8
  8
LAYER_1
 10
42.022992397209087
 20
38.949313196064892
 30
0.0
  0
VERTEX
  5
AE9
  8
LAYER_1
 10
41.919563070805317
 20
39.156171848872418
 30
0.0
  0
VERTEX
  5
AEA
  8
LAYER_1
 10
41.816133744401547
 20
39.259601175276188
 30
0.0
  0
VERTEX
  5
AEB
  8
LAYER_1
 10
41.505845765190251
 20
39.569889154487491
 30
0.0
  0
VERTEX
  5
AEC
  8
LAYER_1
 10
41.402416438786481
 20
39.673318480891261
 30
0.0
  0
VERTEX
  5
AED
  8
LAYER_1
 10
41.092128459575193
 20
39.98360646010255
 30
0.0
  0
VERTEX
  5
AEE
  8
LAYER_1
 10
40.988699133171423
 20
39.98360646010255
 30
0.0
  0
VERTEX
  5
AEF
  8
LAYER_1
 10
40.885269806767653
 20
40.190465112910083
 30
0.0
  0
VERTEX
  5
AF0
  8
LAYER_1
 10
40.781840480363897
 20
40.293894439313853
 30
0.0
  0
VERTEX
  5
AF1
  8
LAYER_1
 10
40.471552501152587
 20
40.604182418525163
 30
0.0
  0
VERTEX
  5
AF2
  8
LAYER_1
 10
40.368123174748817
 20
40.604182418525163
 30
0.0
  0
VERTEX
  5
AF3
  8
LAYER_1
 10
40.368123174748817
 20
40.811041071332689
 30
0.0
  0
VERTEX
  5
AF4
  8
LAYER_1
 10
40.161264521941291
 20
40.914470397736451
 30
0.0
  0
VERTEX
  5
AF5
  8
LAYER_1
 10
40.057835195537521
 20
41.224758376947747
 30
0.0
  0
VERTEX
  5
AF6
  8
LAYER_1
 10
40.057835195537521
 20
41.32818770335151
 30
0.0
  0
VERTEX
  5
AF7
  8
LAYER_1
 10
39.954405869133751
 20
41.43161702975528
 30
0.0
  0
VERTEX
  5
AF8
  8
LAYER_1
 10
39.850976542730002
 20
41.63847568256282
 30
0.0
  0
VERTEX
  5
AF9
  8
LAYER_1
 10
39.747547216326232
 20
41.948763661774123
 30
0.0
  0
VERTEX
  5
AFA
  8
LAYER_1
 10
39.747547216326232
 20
42.052192988177893
 30
0.0
  0
VERTEX
  5
AFB
  8
LAYER_1
 10
39.747547216326232
 20
42.155622314581649
 30
0.0
  0
VERTEX
  5
AFC
  8
LAYER_1
 10
39.747547216326232
 20
42.259051640985412
 30
0.0
  0
VERTEX
  5
AFD
  8
LAYER_1
 10
39.644117889922462
 20
42.569339620196722
 30
0.0
  0
VERTEX
  5
AFE
  8
LAYER_1
 10
39.644117889922462
 20
42.672768946600492
 30
0.0
  0
VERTEX
  5
AFF
  8
LAYER_1
 10
39.644117889922462
 20
42.776198273004262
 30
0.0
  0
VERTEX
  5
B00
  8
LAYER_1
 10
39.540688563518692
 20
42.879627599408032
 30
0.0
  0
VERTEX
  5
B01
  8
LAYER_1
 10
39.43725923711493
 20
43.086486252215551
 30
0.0
  0
VERTEX
  5
B02
  8
LAYER_1
 10
39.43725923711493
 20
43.189915578619321
 30
0.0
  0
VERTEX
  5
B03
  8
LAYER_1
 10
39.43725923711493
 20
43.293344905023091
 30
0.0
  0
VERTEX
  5
B04
  8
LAYER_1
 10
39.43725923711493
 20
43.396774231426853
 30
0.0
  0
VERTEX
  5
B05
  8
LAYER_1
 10
39.33382991071116
 20
43.603632884234379
 30
0.0
  0
VERTEX
  5
B06
  8
LAYER_1
 10
39.33382991071116
 20
43.707062210638149
 30
0.0
  0
VERTEX
  5
B07
  8
LAYER_1
 10
39.33382991071116
 20
43.810491537041919
 30
0.0
  0
VERTEX
  5
B08
  8
LAYER_1
 10
39.33382991071116
 20
43.913920863445689
 30
0.0
  0
VERTEX
  5
B09
  8
LAYER_1
 10
39.23040058430739
 20
44.017350189849452
 30
0.0
  0
VERTEX
  5
B0A
  8
LAYER_1
 10
39.23040058430739
 20
44.120779516253222
 30
0.0
  0
VERTEX
  5
B0B
  8
LAYER_1
 10
39.23040058430739
 20
44.224208842656992
 30
0.0
  0
VERTEX
  5
B0C
  8
LAYER_1
 10
39.23040058430739
 20
44.327638169060748
 30
0.0
  0
VERTEX
  5
B0D
  8
LAYER_1
 10
39.23040058430739
 20
44.431067495464511
 30
0.0
  0
VERTEX
  5
B0E
  8
LAYER_1
 10
39.12697125790362
 20
44.431067495464511
 30
0.0
  0
VERTEX
  5
B0F
  8
LAYER_1
 10
39.12697125790362
 20
44.534496821868281
 30
0.0
  0
VERTEX
  5
B10
  8
LAYER_1
 10
39.12697125790362
 20
44.637926148272051
 30
0.0
  0
SEQEND
  5
B11
  8
LAYER_1
  0
CIRCLE
  5
22A
  8
LAYER_1
 62
   240
 10
30.43890783998723
 20
46.60308334994361
 30
0.0
 40
1.6837074489023529
  0
CIRCLE
  5
22B
  8
LAYER_1
 62
   240
 10
39.12697125790362
 20
44.948214127483347
 30
0.0
 40
1.861727875267803
  0
VIEWPORT
  5
20A
 67
     1
  8
0
 10
5.2499996395561652
 20
3.9999998836066779
 30
0.0
 40
19.354102901133331
 41
8.9929997457669497
 68
     1
 69
     1
1001
ACAD
1000
MVIEW
1002
{
1070
    16
1010
0.0
1020
0.0
1030
0.0
1010
0.0
1020
0.0
1030
1.0
1040
0.0
1040
8.9929997457669497
1040
5.2499996395561652
1040
3.9999998836066779
1040
50.0
1040
0.0
1040
0.0
1070
     0
1070
  1000
1070
     1
1070
     1
1070
     0
1070
     0
1070
     0
1070
     0
1040
0.0
1040
0.0
1040
0.0
1040
0.5
1040
0.5
1040
0.5
1040
0.5
1070
     0
1002
{
1002
}
1002
}
  0
VIEWPORT
  5
20E
 67
     1
  8
LAYER_1
 10
5.2499997615814209
 20
3.9999997615814209
 30
0.0
 40
8.3999996185302752
 41
6.3999996185302743
 68
     2
 69
     2
1001
ACAD
1000
MVIEW
1002
{
1070
    16
1010
0.0
1020
0.0
1030
0.0
1010
0.0
1020
0.0
1030
1.0
1040
0.0
1040
9.202549224290113
1040
6.0
1040
4.5
1040
50.0
1040
0.0
1040
0.0
1070
     0
1070
  1000
1070
     1
1070
     2
1070
     0
1070
     0
1070
     0
1070
     0
1040
0.0
1040
0.0
1040
0.0
1040
0.5
1040
0.5
1040
0.5
1040
0.5
1070
     0
1002
{
1002
}
1002
}
  0
ENDSEC
  0
EOF
