  0
SECTION
  2
HEADER
  9
$ACADVER
  1
AC1009
  9
$INSBASE
 10
0.0
 20
0.0
 30
0.0
  9
$EXTMIN
 10
1.0000000000000000E+020
 20
1.0000000000000000E+020
 30
1.0000000000000000E+020
  9
$EXTMAX
 10
-1.0000000000000000E+020
 20
-1.0000000000000000E+020
 30
-1.0000000000000000E+020
  9
$LIMMIN
 10
0.0
 20
0.0
  9
$LIMMAX
 10
12.0
 20
9.0
  9
$ORTHOMODE
 70
     0
  9
$REGENMODE
 70
     1
  9
$FILLMODE
 70
     1
  9
$QTEXTMODE
 70
     0
  9
$MIRRTEXT
 70
     0
  9
$DRAGMODE
 70
     2
  9
$LTSCALE
 40
1.0
  9
$OSMODE
 70
     0
  9
$ATTMODE
 70
     1
  9
$TEXTSIZE
 40
0.2
  9
$TRACEWID
 40
0.05
  9
$TEXTSTYLE
  7
Standard
  9
$CLAYER
  8
LAYER_1
  9
$CELTYPE
  6
BYLAYER
  9
$CECOLOR
 62
   256
  9
$DIMSCALE
 40
1.0
  9
$DIMASZ
 40
0.18
  9
$DIMEXO
 40
0.0625
  9
$DIMDLI
 40
0.38
  9
$DIMRND
 40
0.0
  9
$DIMDLE
 40
0.0
  9
$DIMEXE
 40
0.18
  9
$DIMTP
 40
0.0
  9
$DIMTM
 40
0.0
  9
$DIMTXT
 40
0.18
  9
$DIMCEN
 40
0.09
  9
$DIMTSZ
 40
0.0
  9
$DIMTOL
 70
     0
  9
$DIMLIM
 70
     0
  9
$DIMTIH
 70
     1
  9
$DIMTOH
 70
     1
  9
$DIMSE1
 70
     0
  9
$DIMSE2
 70
     0
  9
$DIMTAD
 70
     0
  9
$DIMZIN
 70
     0
  9
$DIMBLK
  1

  9
$DIMASO
 70
     1
  9
$DIMSHO
 70
     1
  9
$DIMPOST
  1

  9
$DIMAPOST
  1

  9
$DIMALT
 70
     0
  9
$DIMALTD
 70
     2
  9
$DIMALTF
 40
25.399999999999999
  9
$DIMLFAC
 40
1.0
  9
$DIMTOFL
 70
     0
  9
$DIMTVP
 40
0.0
  9
$DIMTIX
 70
     0
  9
$DIMSOXD
 70
     0
  9
$DIMSAH
 70
     0
  9
$DIMBLK1
  1

  9
$DIMBLK2
  1

  9
$DIMSTYLE
  2
STANDARD
  9
$DIMCLRD
 70
     0
  9
$DIMCLRE
 70
     0
  9
$DIMCLRT
 70
     0
  9
$DIMTFAC
 40
1.0
  9
$DIMGAP
 40
0.09
  9
$LUNITS
 70
     2
  9
$LUPREC
 70
     4
  9
$SKETCHINC
 40
0.1
  9
$FILLETRAD
 40
0.0
  9
$AUNITS
 70
     0
  9
$AUPREC
 70
     0
  9
$MENU
  1
.
  9
$ELEVATION
 40
0.0
  9
$PELEVATION
 40
0.0
  9
$THICKNESS
 40
0.0
  9
$LIMCHECK
 70
     0
  9
$BLIPMODE
 70
     0
  9
$CHAMFERA
 40
0.0
  9
$CHAMFERB
 40
0.0
  9
$SKPOLY
 70
     0
  9
$TDCREATE
 40
2456393.8727359502
  9
$TDUPDATE
 40
2456420.5745427432
  9
$TDINDWG
 40
0.0121156366
  9
$TDUSRTIMER
 40
0.0121156134
  9
$USRTIMER
 70
     1
  9
$ANGBASE
 50
0.0
  9
$ANGDIR
 70
     0
  9
$PDMODE
 70
     0
  9
$PDSIZE
 40
0.0
  9
$PLINEWID
 40
0.0
  9
$COORDS
 70
     0
  9
$SPLFRAME
 70
     0
  9
$SPLINETYPE
 70
     6
  9
$SPLINESEGS
 70
     8
  9
$ATTDIA
 70
     1
  9
$ATTREQ
 70
     1
  9
$HANDLING
 70
     1
  9
$HANDSEED
  5
4B2
  9
$SURFTAB1
 70
     6
  9
$SURFTAB2
 70
     6
  9
$SURFTYPE
 70
     6
  9
$SURFU
 70
     6
  9
$SURFV
 70
     6
  9
$UCSNAME
  2

  9
$UCSORG
 10
0.0
 20
0.0
 30
0.0
  9
$UCSXDIR
 10
1.0
 20
0.0
 30
0.0
  9
$UCSYDIR
 10
0.0
 20
1.0
 30
0.0
  9
$PUCSNAME
  2

  9
$PUCSORG
 10
0.0
 20
0.0
 30
0.0
  9
$PUCSXDIR
 10
1.0
 20
0.0
 30
0.0
  9
$PUCSYDIR
 10
0.0
 20
1.0
 30
0.0
  9
$USERI1
 70
     0
  9
$USERI2
 70
     0
  9
$USERI3
 70
     0
  9
$USERI4
 70
     0
  9
$USERI5
 70
     0
  9
$USERR1
 40
0.0
  9
$USERR2
 40
0.0
  9
$USERR3
 40
0.0
  9
$USERR4
 40
0.0
  9
$USERR5
 40
0.0
  9
$WORLDVIEW
 70
     1
  9
$SHADEDGE
 70
     3
  9
$SHADEDIF
 70
    70
  9
$TILEMODE
 70
     1
  9
$MAXACTVP
 70
    64
  9
$PLIMCHECK
 70
     0
  9
$PEXTMIN
 10
1.049999952316284
 20
0.7999999523162842
 30
0.0
  9
$PEXTMAX
 10
9.4499995708465594
 20
7.1999995708465576
 30
0.0
  9
$PLIMMIN
 10
-0.2500002402958907
 20
-0.2499999962453767
  9
$PLIMMAX
 10
10.74999951940822
 20
8.2499997634587334
  9
$UNITMODE
 70
     0
  9
$VISRETAIN
 70
     1
  9
$PLINEGEN
 70
     0
  9
$PSLTSCALE
 70
     1
  0
ENDSEC
  0
SECTION
  2
TABLES
  0
TABLE
  2
VPORT
 70
     1
  0
VPORT
  2
*ACTIVE
 70
     0
 10
0.0
 20
0.0
 11
1.0
 21
1.0
 12
23.348421554903009
 22
8.6802838350983347
 13
0.0
 23
0.0
 14
0.5
 24
0.5
 15
0.5
 25
0.5
 16
0.0
 26
0.0
 36
1.0
 17
0.0
 27
0.0
 37
0.0
 40
37.365623147774834
 41
2.1521298174442181
 42
50.0
 43
0.0
 44
0.0
 50
0.0
 51
0.0
 71
     0
 72
  1000
 73
     1
 74
     2
 75
     0
 76
     0
 77
     0
 78
     0
  0
ENDTAB
  0
TABLE
  2
LTYPE
 70
    10
  0
LTYPE
  2
CONTINUOUS
 70
     0
  3
Solid line
 72
    65
 73
     0
 40
0.0
  0
LTYPE
  2
PHANTOM2
 70
     0
  3
Phantom (.5x) ___ _ _ ___ _ _ ___ _ _ ___ _ _
 72
    65
 73
     6
 40
1.25
 49
0.625
 49
-0.125
 49
0.125
 49
-0.125
 49
0.125
 49
-0.125
  0
LTYPE
  2
CENTER1
 70
     0
  3
Center (.5x) ___ _ ___ _ ___ _ ___ _ ___ _ ___
 72
    65
 73
     4
 40
1.125
 49
0.75
 49
-0.125
 49
0.125
 49
-0.125
  0
LTYPE
  2
CENTER2
 70
     0
  3
Center (2x) ________  __  ________  __  _____
 72
    65
 73
     4
 40
4.0
 49
2.5
 49
-0.5
 49
0.5
 49
-0.5
  0
LTYPE
  2
DASHDOT1
 70
     0
  3
Dash dot (.5x) _._._._._._._._._._._._._._._.
 72
    65
 73
     4
 40
0.5
 49
0.25
 49
-0.125
 49
0.0
 49
-0.125
  0
LTYPE
  2
DASHDOT2
 70
     0
  3
Dash dot (2x) ____  .  ____  .  ____  .  ___
 72
    65
 73
     4
 40
2.0
 49
1.0
 49
-0.5
 49
0.0
 49
-0.5
  0
LTYPE
  2
DASHED1
 70
     0
  3
Dashed (.5x) _ _ _ _ _ _ _ _ _ _ _ _ _ _ _ _ _
 72
    65
 73
     2
 40
0.375
 49
0.25
 49
-0.125
  0
LTYPE
  2
DASHED2
 70
     0
  3
Dashed (2x) ____  ____  ____  ____  ____  ___
 72
    65
 73
     2
 40
1.5
 49
1.0
 49
-0.5
  0
LTYPE
  2
DOT1
 70
     0
  3
Dot (.5x) .....................................
 72
    65
 73
     2
 40
0.125
 49
0.0
 49
-0.125
  0
LTYPE
  2
DOT2
 70
     0
  3
Dot (2x) .  .  .  .  .  .  .  .  .  .  .  .  . 
 72
    65
 73
     2
 40
0.5
 49
0.0
 49
-0.5
  0
ENDTAB
  0
TABLE
  2
LAYER
 70
     4
  0
LAYER
  2
0
 70
     0
 62
     7
  6
CONTINUOUS
  0
LAYER
  2
LAYER_1
 70
     0
 62
     7
  6
CONTINUOUS
  0
ENDTAB
  0
TABLE
  2
STYLE
 70
     2
  0
STYLE
  2
Standard
 70
     0
 40
0.0
 41
1.0
 50
0.0
 71
     0
 42
0.2
  3
txt
  4

  0
STYLE
  2
STANDARD_360
 70
     0
 40
0.0
 41
1.0
 50
0.0
 71
     0
 42
0.2
  3
txt
  4

  0
ENDTAB
  0
TABLE
  2
VIEW
 70
     0
  0
ENDTAB
  0
TABLE
  2
UCS
 70
     0
  0
ENDTAB
  0
TABLE
  2
APPID
 70
    12
  0
APPID
  2
ACAD
 70
     0
  0
APPID
  2
ACADANNOPO
 70
     0
  0
APPID
  2
ACADANNOTATIVE
 70
     0
  0
APPID
  2
ACAD_DSTYLE_DIMJAG
 70
     0
  0
APPID
  2
ACAD_DSTYLE_DIMTALN
 70
     0
  0
APPID
  2
ACAD_MLEADERVER
 70
     0
  0
APPID
  2
ACAD_NAV_VCDISPLAY
 70
     0
  0
APPID
  2
ACAECLAYERSTANDARD
 70
     0
  0
APPID
  2
ACCMTRANSPARENCY
 70
     0
  0
APPID
  2
ACAD_EXEMPT_FROM_CAD_STANDARDS
 70
     0
  0
APPID
  2
ACAD_PSEXT
 70
     0
  0
APPID
  2
ADE_PROJECTION
 70
     0
  0
ENDTAB
  0
TABLE
  2
DIMSTYLE
 70
     2
  0
DIMSTYLE
  2
STANDARD
 70
     0
  3

  4

  5

  6

  7

 40
1.0
 41
0.18
 42
0.0625
 43
0.38
 44
0.18
 45
0.0
 46
0.0
 47
0.0
 48
0.0
140
0.18
141
0.09
142
0.0
143
25.399999999999999
144
1.0
145
0.0
146
1.0
147
0.09
 71
     0
 72
     0
 73
     1
 74
     1
 75
     0
 76
     0
 77
     0
 78
     0
170
     0
171
     2
172
     0
173
     0
174
     0
175
     0
176
     0
177
     0
178
     0
  0
DIMSTYLE
  2
STANDARD_360
 70
     0
  3

  4

  5

  6

  7

 40
1.0
 41
1.0
 42
0.0625
 43
0.38
 44
0.18
 45
0.0
 46
0.0
 47
0.0
 48
0.0
140
1.0
141
0.09
142
0.0
143
25.399999999999999
144
1.0
145
0.0
146
1.0
147
0.09
 71
     0
 72
     0
 73
     0
 74
     1
 75
     0
 76
     0
 77
     1
 78
     0
170
     0
171
     2
172
     0
173
     0
174
     0
175
     0
176
     0
177
     0
178
     0
  0
ENDTAB
  0
ENDSEC
  0
SECTION
  2
BLOCKS
  0
BLOCK
  8
0
  2
$MODEL_SPACE
 70
     0
 10
0.0
 20
0.0
 30
0.0
  3
$MODEL_SPACE
  1

  0
ENDBLK
  5
21
  8
0
  0
BLOCK
 67
     1
  8
0
  2
$PAPER_SPACE
 70
     0
 10
0.0
 20
0.0
 30
0.0
  3
$PAPER_SPACE
  1

  0
ENDBLK
  5
60
 67
     1
  8
0
  0
ENDSEC
  0
SECTION
  2
ENTITIES
  0
POLYLINE
  5
228
  8
LAYER_1
 62
   240
 66
     1
 10
0.0
 20
0.0
 30
0.0
 70
     1
  0
VERTEX
  5
287
  8
LAYER_1
 62
   240
 10
-0.0368664015274973
 20
0.1226241119118043
 30
0.0
  0
VERTEX
  5
288
  8
LAYER_1
 62
   240
 10
49.96313359847251
 20
0.1226241119118043
 30
0.0
  0
VERTEX
  5
289
  8
LAYER_1
 62
   240
 10
49.96313359847251
 20
50.122624111911797
 30
0.0
  0
VERTEX
  5
28A
  8
LAYER_1
 62
   240
 10
-0.0368664015274973
 20
50.122624111911797
 30
0.0
  0
SEQEND
  5
28B
  8
LAYER_1
 62
   240
  0
POLYLINE
  5
229
  8
LAYER_1
 66
     1
 10
0.0
 20
0.0
 30
0.0
  0
VERTEX
  5
28C
  8
LAYER_1
 10
6.5174163981481206
 20
44.473636420478961
 30
0.0
  0
VERTEX
  5
28D
  8
LAYER_1
 10
37.23592634006679
 20
40.336463364328303
 30
0.0
  0
VERTEX
  5
28E
  8
LAYER_1
 10
42.40739266025512
 20
31.95868792562322
 30
0.0
  0
VERTEX
  5
28F
  8
LAYER_1
 10
42.71768063946643
 20
23.27062450770682
 30
0.0
  0
SEQEND
  5
290
  8
LAYER_1
  0
POLYLINE
  5
22A
  8
LAYER_1
 66
     1
 10
0.0
 20
0.0
 30
0.0
 70
     1
  0
VERTEX
  5
291
  8
LAYER_1
 10
42.71768063946643
 20
23.270624507706842
 30
0.0
  0
VERTEX
  5
292
  8
LAYER_1
 10
32.685035978301073
 20
23.270624507706842
 30
0.0
  0
VERTEX
  5
293
  8
LAYER_1
 10
32.685035978301073
 20
16.54771829146199
 30
0.0
  0
VERTEX
  5
294
  8
LAYER_1
 10
42.71768063946643
 20
16.54771829146199
 30
0.0
  0
SEQEND
  5
295
  8
LAYER_1
  0
POLYLINE
  5
22B
  8
LAYER_1
 66
     1
 10
0.0
 20
0.0
 30
0.0
  0
VERTEX
  5
296
  8
LAYER_1
 10
33.822758568742501
 20
17.788870208307191
 30
0.0
  0
VERTEX
  5
297
  8
LAYER_1
 10
33.822758568742501
 20
17.685440881903421
 30
0.0
  0
VERTEX
  5
298
  8
LAYER_1
 10
33.822758568742501
 20
17.582011555499651
 30
0.0
  0
VERTEX
  5
299
  8
LAYER_1
 10
33.822758568742501
 20
17.478582229095888
 30
0.0
  0
VERTEX
  5
29A
  8
LAYER_1
 10
33.822758568742501
 20
17.375152902692118
 30
0.0
  0
VERTEX
  5
29B
  8
LAYER_1
 10
33.822758568742501
 20
17.271723576288359
 30
0.0
  0
VERTEX
  5
29C
  8
LAYER_1
 10
33.822758568742501
 20
17.168294249884589
 30
0.0
  0
VERTEX
  5
29D
  8
LAYER_1
 10
33.822758568742501
 20
17.064864923480819
 30
0.0
  0
VERTEX
  5
29E
  8
LAYER_1
 10
33.822758568742501
 20
16.961435597077049
 30
0.0
  0
VERTEX
  5
29F
  8
LAYER_1
 10
33.822758568742501
 20
16.85800627067329
 30
0.0
  0
VERTEX
  5
2A0
  8
LAYER_1
 10
33.822758568742501
 20
16.75457694426952
 30
0.0
  0
VERTEX
  5
2A1
  8
LAYER_1
 10
33.822758568742501
 20
16.65114761786576
 30
0.0
  0
VERTEX
  5
2A2
  8
LAYER_1
 10
33.822758568742501
 20
16.54771829146199
 30
0.0
  0
VERTEX
  5
2A3
  8
LAYER_1
 10
33.822758568742501
 20
16.444288965058231
 30
0.0
  0
VERTEX
  5
2A4
  8
LAYER_1
 10
33.822758568742501
 20
16.340859638654461
 30
0.0
  0
VERTEX
  5
2A5
  8
LAYER_1
 10
33.822758568742501
 20
16.237430312250691
 30
0.0
  0
VERTEX
  5
2A6
  8
LAYER_1
 10
33.822758568742501
 20
16.134000985846921
 30
0.0
  0
VERTEX
  5
2A7
  8
LAYER_1
 10
33.822758568742501
 20
16.030571659443162
 30
0.0
  0
VERTEX
  5
2A8
  8
LAYER_1
 10
33.822758568742501
 20
15.92714233303939
 30
0.0
  0
VERTEX
  5
2A9
  8
LAYER_1
 10
33.822758568742501
 20
15.82371300663563
 30
0.0
  0
VERTEX
  5
2AA
  8
LAYER_1
 10
33.822758568742501
 20
15.72028368023186
 30
0.0
  0
VERTEX
  5
2AB
  8
LAYER_1
 10
33.719329242338738
 20
15.72028368023186
 30
0.0
  0
VERTEX
  5
2AC
  8
LAYER_1
 10
33.615899915934968
 20
15.61685435382809
 30
0.0
  0
VERTEX
  5
2AD
  8
LAYER_1
 10
33.615899915934968
 20
15.51342502742432
 30
0.0
  0
VERTEX
  5
2AE
  8
LAYER_1
 10
33.615899915934968
 20
15.40999570102055
 30
0.0
  0
VERTEX
  5
2AF
  8
LAYER_1
 10
33.512470589531198
 20
15.40999570102055
 30
0.0
  0
VERTEX
  5
2B0
  8
LAYER_1
 10
33.512470589531198
 20
15.306566374616789
 30
0.0
  0
VERTEX
  5
2B1
  8
LAYER_1
 10
33.512470589531198
 20
15.203137048213019
 30
0.0
  0
VERTEX
  5
2B2
  8
LAYER_1
 10
33.512470589531198
 20
15.09970772180926
 30
0.0
  0
VERTEX
  5
2B3
  8
LAYER_1
 10
33.409041263127428
 20
15.09970772180926
 30
0.0
  0
VERTEX
  5
2B4
  8
LAYER_1
 10
33.409041263127428
 20
14.99627839540549
 30
0.0
  0
VERTEX
  5
2B5
  8
LAYER_1
 10
33.305611936723672
 20
14.99627839540549
 30
0.0
  0
VERTEX
  5
2B6
  8
LAYER_1
 10
33.305611936723672
 20
14.892849069001731
 30
0.0
  0
VERTEX
  5
2B7
  8
LAYER_1
 10
33.202182610319902
 20
14.892849069001731
 30
0.0
  0
VERTEX
  5
2B8
  8
LAYER_1
 10
33.202182610319902
 20
14.789419742597961
 30
0.0
  0
VERTEX
  5
2B9
  8
LAYER_1
 10
33.098753283916132
 20
14.789419742597961
 30
0.0
  0
VERTEX
  5
2BA
  8
LAYER_1
 10
33.098753283916132
 20
14.685990416194191
 30
0.0
  0
VERTEX
  5
2BB
  8
LAYER_1
 10
32.995323957512362
 20
14.685990416194191
 30
0.0
  0
VERTEX
  5
2BC
  8
LAYER_1
 10
32.891894631108592
 20
14.582561089790421
 30
0.0
  0
VERTEX
  5
2BD
  8
LAYER_1
 10
32.788465304704843
 20
14.582561089790421
 30
0.0
  0
VERTEX
  5
2BE
  8
LAYER_1
 10
32.685035978301073
 20
14.582561089790421
 30
0.0
  0
VERTEX
  5
2BF
  8
LAYER_1
 10
32.685035978301073
 20
14.479131763386659
 30
0.0
  0
VERTEX
  5
2C0
  8
LAYER_1
 10
32.581606651897303
 20
14.479131763386659
 30
0.0
  0
VERTEX
  5
2C1
  8
LAYER_1
 10
32.581606651897303
 20
14.375702436982889
 30
0.0
  0
VERTEX
  5
2C2
  8
LAYER_1
 10
32.478177325493533
 20
14.375702436982889
 30
0.0
  0
VERTEX
  5
2C3
  8
LAYER_1
 10
32.37474799908977
 20
14.375702436982889
 30
0.0
  0
VERTEX
  5
2C4
  8
LAYER_1
 10
32.37474799908977
 20
14.27227311057913
 30
0.0
  0
VERTEX
  5
2C5
  8
LAYER_1
 10
32.271318672686
 20
14.27227311057913
 30
0.0
  0
VERTEX
  5
2C6
  8
LAYER_1
 10
32.16788934628223
 20
14.27227311057913
 30
0.0
  0
VERTEX
  5
2C7
  8
LAYER_1
 10
32.16788934628223
 20
14.16884378417536
 30
0.0
  0
VERTEX
  5
2C8
  8
LAYER_1
 10
32.06446001987846
 20
14.16884378417536
 30
0.0
  0
VERTEX
  5
2C9
  8
LAYER_1
 10
31.961030693474711
 20
14.16884378417536
 30
0.0
  0
VERTEX
  5
2CA
  8
LAYER_1
 10
31.961030693474711
 20
14.06541445777159
 30
0.0
  0
VERTEX
  5
2CB
  8
LAYER_1
 10
31.857601367070941
 20
14.06541445777159
 30
0.0
  0
VERTEX
  5
2CC
  8
LAYER_1
 10
31.754172040667171
 20
14.06541445777159
 30
0.0
  0
VERTEX
  5
2CD
  8
LAYER_1
 10
31.650742714263401
 20
14.06541445777159
 30
0.0
  0
VERTEX
  5
2CE
  8
LAYER_1
 10
31.547313387859639
 20
14.06541445777159
 30
0.0
  0
VERTEX
  5
2CF
  8
LAYER_1
 10
31.443884061455869
 20
14.06541445777159
 30
0.0
  0
VERTEX
  5
2D0
  8
LAYER_1
 10
31.340454735052099
 20
14.06541445777159
 30
0.0
  0
VERTEX
  5
2D1
  8
LAYER_1
 10
31.237025408648329
 20
14.06541445777159
 30
0.0
  0
VERTEX
  5
2D2
  8
LAYER_1
 10
31.133596082244569
 20
14.06541445777159
 30
0.0
  0
VERTEX
  5
2D3
  8
LAYER_1
 10
31.030166755840799
 20
14.06541445777159
 30
0.0
  0
VERTEX
  5
2D4
  8
LAYER_1
 10
30.926737429437029
 20
14.06541445777159
 30
0.0
  0
VERTEX
  5
2D5
  8
LAYER_1
 10
30.823308103033259
 20
14.06541445777159
 30
0.0
  0
VERTEX
  5
2D6
  8
LAYER_1
 10
30.71987877662951
 20
14.06541445777159
 30
0.0
  0
VERTEX
  5
2D7
  8
LAYER_1
 10
30.61644945022574
 20
14.06541445777159
 30
0.0
  0
VERTEX
  5
2D8
  8
LAYER_1
 10
30.51302012382197
 20
14.06541445777159
 30
0.0
  0
VERTEX
  5
2D9
  8
LAYER_1
 10
30.4095907974182
 20
14.06541445777159
 30
0.0
  0
VERTEX
  5
2DA
  8
LAYER_1
 10
30.30616147101443
 20
14.06541445777159
 30
0.0
  0
VERTEX
  5
2DB
  8
LAYER_1
 10
30.202732144610671
 20
14.06541445777159
 30
0.0
  0
VERTEX
  5
2DC
  8
LAYER_1
 10
30.099302818206901
 20
14.06541445777159
 30
0.0
  0
VERTEX
  5
2DD
  8
LAYER_1
 10
29.995873491803131
 20
14.06541445777159
 30
0.0
  0
VERTEX
  5
2DE
  8
LAYER_1
 10
29.892444165399361
 20
14.06541445777159
 30
0.0
  0
VERTEX
  5
2DF
  8
LAYER_1
 10
29.892444165399361
 20
14.16884378417536
 30
0.0
  0
VERTEX
  5
2E0
  8
LAYER_1
 10
29.789014838995609
 20
14.16884378417536
 30
0.0
  0
VERTEX
  5
2E1
  8
LAYER_1
 10
29.685585512591839
 20
14.16884378417536
 30
0.0
  0
VERTEX
  5
2E2
  8
LAYER_1
 10
29.685585512591839
 20
14.27227311057913
 30
0.0
  0
VERTEX
  5
2E3
  8
LAYER_1
 10
29.582156186188069
 20
14.27227311057913
 30
0.0
  0
VERTEX
  5
2E4
  8
LAYER_1
 10
29.478726859784299
 20
14.27227311057913
 30
0.0
  0
VERTEX
  5
2E5
  8
LAYER_1
 10
29.478726859784299
 20
14.375702436982889
 30
0.0
  0
VERTEX
  5
2E6
  8
LAYER_1
 10
29.37529753338054
 20
14.479131763386659
 30
0.0
  0
VERTEX
  5
2E7
  8
LAYER_1
 10
29.271868206976769
 20
14.479131763386659
 30
0.0
  0
VERTEX
  5
2E8
  8
LAYER_1
 10
29.168438880572999
 20
14.479131763386659
 30
0.0
  0
VERTEX
  5
2E9
  8
LAYER_1
 10
29.168438880572999
 20
14.582561089790421
 30
0.0
  0
VERTEX
  5
2EA
  8
LAYER_1
 10
29.065009554169229
 20
14.582561089790421
 30
0.0
  0
VERTEX
  5
2EB
  8
LAYER_1
 10
29.065009554169229
 20
14.685990416194191
 30
0.0
  0
VERTEX
  5
2EC
  8
LAYER_1
 10
28.961580227765481
 20
14.685990416194191
 30
0.0
  0
VERTEX
  5
2ED
  8
LAYER_1
 10
28.858150901361711
 20
14.685990416194191
 30
0.0
  0
VERTEX
  5
2EE
  8
LAYER_1
 10
28.858150901361711
 20
14.789419742597961
 30
0.0
  0
VERTEX
  5
2EF
  8
LAYER_1
 10
28.754721574957941
 20
14.789419742597961
 30
0.0
  0
VERTEX
  5
2F0
  8
LAYER_1
 10
28.754721574957941
 20
14.892849069001731
 30
0.0
  0
VERTEX
  5
2F1
  8
LAYER_1
 10
28.651292248554171
 20
14.892849069001731
 30
0.0
  0
VERTEX
  5
2F2
  8
LAYER_1
 10
28.547862922150411
 20
14.99627839540549
 30
0.0
  0
VERTEX
  5
2F3
  8
LAYER_1
 10
28.547862922150411
 20
15.09970772180926
 30
0.0
  0
VERTEX
  5
2F4
  8
LAYER_1
 10
28.444433595746641
 20
15.09970772180926
 30
0.0
  0
VERTEX
  5
2F5
  8
LAYER_1
 10
28.444433595746641
 20
15.203137048213019
 30
0.0
  0
VERTEX
  5
2F6
  8
LAYER_1
 10
28.341004269342871
 20
15.203137048213019
 30
0.0
  0
VERTEX
  5
2F7
  8
LAYER_1
 10
28.341004269342871
 20
15.306566374616789
 30
0.0
  0
VERTEX
  5
2F8
  8
LAYER_1
 10
28.237574942939101
 20
15.40999570102055
 30
0.0
  0
VERTEX
  5
2F9
  8
LAYER_1
 10
28.134145616535339
 20
15.40999570102055
 30
0.0
  0
VERTEX
  5
2FA
  8
LAYER_1
 10
28.134145616535339
 20
15.51342502742432
 30
0.0
  0
VERTEX
  5
2FB
  8
LAYER_1
 10
28.134145616535339
 20
15.61685435382809
 30
0.0
  0
VERTEX
  5
2FC
  8
LAYER_1
 10
28.030716290131569
 20
15.61685435382809
 30
0.0
  0
VERTEX
  5
2FD
  8
LAYER_1
 10
28.030716290131569
 20
15.72028368023186
 30
0.0
  0
VERTEX
  5
2FE
  8
LAYER_1
 10
27.927286963727799
 20
15.72028368023186
 30
0.0
  0
VERTEX
  5
2FF
  8
LAYER_1
 10
27.927286963727799
 20
15.82371300663563
 30
0.0
  0
VERTEX
  5
300
  8
LAYER_1
 10
27.823857637324029
 20
15.82371300663563
 30
0.0
  0
VERTEX
  5
301
  8
LAYER_1
 10
27.823857637324029
 20
16.030571659443162
 30
0.0
  0
VERTEX
  5
302
  8
LAYER_1
 10
27.720428310920258
 20
16.030571659443162
 30
0.0
  0
VERTEX
  5
303
  8
LAYER_1
 10
27.720428310920258
 20
16.134000985846921
 30
0.0
  0
VERTEX
  5
304
  8
LAYER_1
 10
27.720428310920258
 20
16.237430312250691
 30
0.0
  0
VERTEX
  5
305
  8
LAYER_1
 10
27.61699898451651
 20
16.237430312250691
 30
0.0
  0
VERTEX
  5
306
  8
LAYER_1
 10
27.61699898451651
 20
16.340859638654461
 30
0.0
  0
VERTEX
  5
307
  8
LAYER_1
 10
27.61699898451651
 20
16.444288965058231
 30
0.0
  0
VERTEX
  5
308
  8
LAYER_1
 10
27.51356965811274
 20
16.444288965058231
 30
0.0
  0
VERTEX
  5
309
  8
LAYER_1
 10
27.51356965811274
 20
16.54771829146199
 30
0.0
  0
VERTEX
  5
30A
  8
LAYER_1
 10
27.41014033170897
 20
16.54771829146199
 30
0.0
  0
VERTEX
  5
30B
  8
LAYER_1
 10
27.41014033170897
 20
16.75457694426952
 30
0.0
  0
VERTEX
  5
30C
  8
LAYER_1
 10
27.3067110053052
 20
16.75457694426952
 30
0.0
  0
VERTEX
  5
30D
  8
LAYER_1
 10
27.3067110053052
 20
16.85800627067329
 30
0.0
  0
VERTEX
  5
30E
  8
LAYER_1
 10
27.3067110053052
 20
16.961435597077049
 30
0.0
  0
VERTEX
  5
30F
  8
LAYER_1
 10
27.3067110053052
 20
17.064864923480819
 30
0.0
  0
VERTEX
  5
310
  8
LAYER_1
 10
27.20328167890144
 20
17.064864923480819
 30
0.0
  0
VERTEX
  5
311
  8
LAYER_1
 10
27.09985235249767
 20
17.168294249884589
 30
0.0
  0
VERTEX
  5
312
  8
LAYER_1
 10
27.09985235249767
 20
17.271723576288359
 30
0.0
  0
VERTEX
  5
313
  8
LAYER_1
 10
27.09985235249767
 20
17.375152902692118
 30
0.0
  0
VERTEX
  5
314
  8
LAYER_1
 10
27.09985235249767
 20
17.478582229095888
 30
0.0
  0
VERTEX
  5
315
  8
LAYER_1
 10
26.9964230260939
 20
17.478582229095888
 30
0.0
  0
VERTEX
  5
316
  8
LAYER_1
 10
26.9964230260939
 20
17.582011555499651
 30
0.0
  0
VERTEX
  5
317
  8
LAYER_1
 10
26.9964230260939
 20
17.685440881903421
 30
0.0
  0
VERTEX
  5
318
  8
LAYER_1
 10
26.9964230260939
 20
17.788870208307191
 30
0.0
  0
VERTEX
  5
319
  8
LAYER_1
 10
26.89299369969013
 20
17.788870208307191
 30
0.0
  0
VERTEX
  5
31A
  8
LAYER_1
 10
26.89299369969013
 20
17.892299534710961
 30
0.0
  0
VERTEX
  5
31B
  8
LAYER_1
 10
26.89299369969013
 20
17.995728861114721
 30
0.0
  0
VERTEX
  5
31C
  8
LAYER_1
 10
26.89299369969013
 20
18.099158187518491
 30
0.0
  0
VERTEX
  5
31D
  8
LAYER_1
 10
26.89299369969013
 20
18.20258751392225
 30
0.0
  0
VERTEX
  5
31E
  8
LAYER_1
 10
26.789564373286382
 20
18.20258751392225
 30
0.0
  0
VERTEX
  5
31F
  8
LAYER_1
 10
26.789564373286382
 20
18.30601684032602
 30
0.0
  0
VERTEX
  5
320
  8
LAYER_1
 10
26.789564373286382
 20
18.40944616672979
 30
0.0
  0
VERTEX
  5
321
  8
LAYER_1
 10
26.686135046882612
 20
18.512875493133549
 30
0.0
  0
VERTEX
  5
322
  8
LAYER_1
 10
26.686135046882612
 20
18.616304819537319
 30
0.0
  0
VERTEX
  5
323
  8
LAYER_1
 10
26.686135046882612
 20
18.719734145941089
 30
0.0
  0
VERTEX
  5
324
  8
LAYER_1
 10
26.686135046882612
 20
18.823163472344859
 30
0.0
  0
VERTEX
  5
325
  8
LAYER_1
 10
26.686135046882612
 20
18.926592798748619
 30
0.0
  0
VERTEX
  5
326
  8
LAYER_1
 10
26.686135046882612
 20
19.030022125152389
 30
0.0
  0
VERTEX
  5
327
  8
LAYER_1
 10
26.686135046882612
 20
19.133451451556152
 30
0.0
  0
VERTEX
  5
328
  8
LAYER_1
 10
26.582705720478842
 20
19.133451451556152
 30
0.0
  0
VERTEX
  5
329
  8
LAYER_1
 10
26.582705720478842
 20
19.236880777959922
 30
0.0
  0
VERTEX
  5
32A
  8
LAYER_1
 10
26.582705720478842
 20
19.340310104363692
 30
0.0
  0
VERTEX
  5
32B
  8
LAYER_1
 10
26.582705720478842
 20
19.443739430767462
 30
0.0
  0
VERTEX
  5
32C
  8
LAYER_1
 10
26.582705720478842
 20
19.547168757171221
 30
0.0
  0
VERTEX
  5
32D
  8
LAYER_1
 10
26.582705720478842
 20
19.650598083574991
 30
0.0
  0
VERTEX
  5
32E
  8
LAYER_1
 10
26.582705720478842
 20
19.75402740997875
 30
0.0
  0
VERTEX
  5
32F
  8
LAYER_1
 10
26.582705720478842
 20
19.85745673638252
 30
0.0
  0
VERTEX
  5
330
  8
LAYER_1
 10
26.582705720478842
 20
19.96088606278629
 30
0.0
  0
VERTEX
  5
331
  8
LAYER_1
 10
26.582705720478842
 20
20.06431538919006
 30
0.0
  0
VERTEX
  5
332
  8
LAYER_1
 10
26.582705720478842
 20
20.16774471559382
 30
0.0
  0
VERTEX
  5
333
  8
LAYER_1
 10
26.582705720478842
 20
20.27117404199759
 30
0.0
  0
VERTEX
  5
334
  8
LAYER_1
 10
26.582705720478842
 20
20.374603368401349
 30
0.0
  0
VERTEX
  5
335
  8
LAYER_1
 10
26.582705720478842
 20
20.478032694805119
 30
0.0
  0
VERTEX
  5
336
  8
LAYER_1
 10
26.582705720478842
 20
20.581462021208889
 30
0.0
  0
VERTEX
  5
337
  8
LAYER_1
 10
26.582705720478842
 20
20.684891347612659
 30
0.0
  0
VERTEX
  5
338
  8
LAYER_1
 10
26.582705720478842
 20
20.788320674016418
 30
0.0
  0
VERTEX
  5
339
  8
LAYER_1
 10
26.582705720478842
 20
20.891750000420188
 30
0.0
  0
VERTEX
  5
33A
  8
LAYER_1
 10
26.582705720478842
 20
20.995179326823951
 30
0.0
  0
VERTEX
  5
33B
  8
LAYER_1
 10
26.582705720478842
 20
21.098608653227721
 30
0.0
  0
VERTEX
  5
33C
  8
LAYER_1
 10
26.582705720478842
 20
21.202037979631491
 30
0.0
  0
VERTEX
  5
33D
  8
LAYER_1
 10
26.582705720478842
 20
21.305467306035251
 30
0.0
  0
VERTEX
  5
33E
  8
LAYER_1
 10
26.686135046882612
 20
21.408896632439021
 30
0.0
  0
VERTEX
  5
33F
  8
LAYER_1
 10
26.686135046882612
 20
21.512325958842791
 30
0.0
  0
VERTEX
  5
340
  8
LAYER_1
 10
26.789564373286382
 20
21.512325958842791
 30
0.0
  0
VERTEX
  5
341
  8
LAYER_1
 10
26.789564373286382
 20
21.615755285246561
 30
0.0
  0
VERTEX
  5
342
  8
LAYER_1
 10
26.789564373286382
 20
21.71918461165032
 30
0.0
  0
VERTEX
  5
343
  8
LAYER_1
 10
26.789564373286382
 20
21.82261393805409
 30
0.0
  0
VERTEX
  5
344
  8
LAYER_1
 10
26.789564373286382
 20
21.926043264457849
 30
0.0
  0
VERTEX
  5
345
  8
LAYER_1
 10
26.789564373286382
 20
22.029472590861619
 30
0.0
  0
VERTEX
  5
346
  8
LAYER_1
 10
26.789564373286382
 20
22.132901917265389
 30
0.0
  0
VERTEX
  5
347
  8
LAYER_1
 10
26.89299369969013
 20
22.236331243669159
 30
0.0
  0
VERTEX
  5
348
  8
LAYER_1
 10
26.89299369969013
 20
22.339760570072919
 30
0.0
  0
VERTEX
  5
349
  8
LAYER_1
 10
26.89299369969013
 20
22.443189896476689
 30
0.0
  0
VERTEX
  5
34A
  8
LAYER_1
 10
26.89299369969013
 20
22.546619222880452
 30
0.0
  0
VERTEX
  5
34B
  8
LAYER_1
 10
26.89299369969013
 20
22.650048549284222
 30
0.0
  0
VERTEX
  5
34C
  8
LAYER_1
 10
26.9964230260939
 20
22.650048549284222
 30
0.0
  0
VERTEX
  5
34D
  8
LAYER_1
 10
26.9964230260939
 20
22.753477875687992
 30
0.0
  0
VERTEX
  5
34E
  8
LAYER_1
 10
26.9964230260939
 20
22.856907202091762
 30
0.0
  0
VERTEX
  5
34F
  8
LAYER_1
 10
26.9964230260939
 20
22.960336528495521
 30
0.0
  0
VERTEX
  5
350
  8
LAYER_1
 10
26.9964230260939
 20
23.063765854899291
 30
0.0
  0
VERTEX
  5
351
  8
LAYER_1
 10
26.9964230260939
 20
23.16719518130305
 30
0.0
  0
VERTEX
  5
352
  8
LAYER_1
 10
26.9964230260939
 20
23.27062450770682
 30
0.0
  0
VERTEX
  5
353
  8
LAYER_1
 10
26.9964230260939
 20
23.37405383411058
 30
0.0
  0
VERTEX
  5
354
  8
LAYER_1
 10
27.09985235249767
 20
23.37405383411058
 30
0.0
  0
VERTEX
  5
355
  8
LAYER_1
 10
27.09985235249767
 20
23.47748316051435
 30
0.0
  0
VERTEX
  5
356
  8
LAYER_1
 10
27.09985235249767
 20
23.580912486918109
 30
0.0
  0
VERTEX
  5
357
  8
LAYER_1
 10
27.09985235249767
 20
23.684341813321879
 30
0.0
  0
VERTEX
  5
358
  8
LAYER_1
 10
27.20328167890144
 20
23.684341813321879
 30
0.0
  0
VERTEX
  5
359
  8
LAYER_1
 10
27.20328167890144
 20
23.787771139725649
 30
0.0
  0
VERTEX
  5
35A
  8
LAYER_1
 10
27.20328167890144
 20
23.891200466129419
 30
0.0
  0
VERTEX
  5
35B
  8
LAYER_1
 10
27.20328167890144
 20
23.994629792533189
 30
0.0
  0
VERTEX
  5
35C
  8
LAYER_1
 10
27.20328167890144
 20
24.098059118936948
 30
0.0
  0
VERTEX
  5
35D
  8
LAYER_1
 10
27.20328167890144
 20
24.201488445340718
 30
0.0
  0
VERTEX
  5
35E
  8
LAYER_1
 10
27.20328167890144
 20
24.304917771744488
 30
0.0
  0
VERTEX
  5
35F
  8
LAYER_1
 10
27.3067110053052
 20
24.304917771744488
 30
0.0
  0
VERTEX
  5
360
  8
LAYER_1
 10
27.3067110053052
 20
24.408347098148258
 30
0.0
  0
VERTEX
  5
361
  8
LAYER_1
 10
27.3067110053052
 20
24.511776424552021
 30
0.0
  0
VERTEX
  5
362
  8
LAYER_1
 10
27.3067110053052
 20
24.615205750955791
 30
0.0
  0
VERTEX
  5
363
  8
LAYER_1
 10
27.3067110053052
 20
24.718635077359551
 30
0.0
  0
VERTEX
  5
364
  8
LAYER_1
 10
27.3067110053052
 20
24.822064403763321
 30
0.0
  0
VERTEX
  5
365
  8
LAYER_1
 10
27.3067110053052
 20
24.92549373016708
 30
0.0
  0
VERTEX
  5
366
  8
LAYER_1
 10
27.41014033170897
 20
25.02892305657085
 30
0.0
  0
VERTEX
  5
367
  8
LAYER_1
 10
27.41014033170897
 20
25.13235238297462
 30
0.0
  0
VERTEX
  5
368
  8
LAYER_1
 10
27.41014033170897
 20
25.23578170937839
 30
0.0
  0
VERTEX
  5
369
  8
LAYER_1
 10
27.51356965811274
 20
25.23578170937839
 30
0.0
  0
VERTEX
  5
36A
  8
LAYER_1
 10
27.51356965811274
 20
25.339211035782149
 30
0.0
  0
VERTEX
  5
36B
  8
LAYER_1
 10
27.51356965811274
 20
25.442640362185919
 30
0.0
  0
VERTEX
  5
36C
  8
LAYER_1
 10
27.51356965811274
 20
25.546069688589679
 30
0.0
  0
VERTEX
  5
36D
  8
LAYER_1
 10
27.51356965811274
 20
25.649499014993449
 30
0.0
  0
VERTEX
  5
36E
  8
LAYER_1
 10
27.51356965811274
 20
25.752928341397219
 30
0.0
  0
VERTEX
  5
36F
  8
LAYER_1
 10
27.51356965811274
 20
25.856357667800989
 30
0.0
  0
VERTEX
  5
370
  8
LAYER_1
 10
27.51356965811274
 20
25.959786994204752
 30
0.0
  0
VERTEX
  5
371
  8
LAYER_1
 10
27.51356965811274
 20
26.063216320608522
 30
0.0
  0
VERTEX
  5
372
  8
LAYER_1
 10
27.51356965811274
 20
26.166645647012281
 30
0.0
  0
VERTEX
  5
373
  8
LAYER_1
 10
27.51356965811274
 20
26.270074973416051
 30
0.0
  0
VERTEX
  5
374
  8
LAYER_1
 10
27.61699898451651
 20
26.270074973416051
 30
0.0
  0
VERTEX
  5
375
  8
LAYER_1
 10
27.61699898451651
 20
26.373504299819821
 30
0.0
  0
VERTEX
  5
376
  8
LAYER_1
 10
27.61699898451651
 20
26.476933626223591
 30
0.0
  0
VERTEX
  5
377
  8
LAYER_1
 10
27.61699898451651
 20
26.580362952627361
 30
0.0
  0
VERTEX
  5
378
  8
LAYER_1
 10
27.61699898451651
 20
26.68379227903112
 30
0.0
  0
VERTEX
  5
379
  8
LAYER_1
 10
27.61699898451651
 20
26.78722160543489
 30
0.0
  0
VERTEX
  5
37A
  8
LAYER_1
 10
27.61699898451651
 20
26.89065093183865
 30
0.0
  0
VERTEX
  5
37B
  8
LAYER_1
 10
27.61699898451651
 20
26.99408025824242
 30
0.0
  0
VERTEX
  5
37C
  8
LAYER_1
 10
27.61699898451651
 20
27.097509584646179
 30
0.0
  0
VERTEX
  5
37D
  8
LAYER_1
 10
27.61699898451651
 20
27.200938911049949
 30
0.0
  0
VERTEX
  5
37E
  8
LAYER_1
 10
27.61699898451651
 20
27.304368237453708
 30
0.0
  0
VERTEX
  5
37F
  8
LAYER_1
 10
27.61699898451651
 20
27.407797563857478
 30
0.0
  0
VERTEX
  5
380
  8
LAYER_1
 10
27.61699898451651
 20
27.511226890261248
 30
0.0
  0
VERTEX
  5
381
  8
LAYER_1
 10
27.61699898451651
 20
27.614656216665018
 30
0.0
  0
VERTEX
  5
382
  8
LAYER_1
 10
27.61699898451651
 20
27.718085543068781
 30
0.0
  0
VERTEX
  5
383
  8
LAYER_1
 10
27.61699898451651
 20
27.821514869472551
 30
0.0
  0
VERTEX
  5
384
  8
LAYER_1
 10
27.61699898451651
 20
27.924944195876321
 30
0.0
  0
VERTEX
  5
385
  8
LAYER_1
 10
27.61699898451651
 20
28.028373522280091
 30
0.0
  0
VERTEX
  5
386
  8
LAYER_1
 10
27.61699898451651
 20
28.131802848683851
 30
0.0
  0
VERTEX
  5
387
  8
LAYER_1
 10
27.61699898451651
 20
28.235232175087621
 30
0.0
  0
VERTEX
  5
388
  8
LAYER_1
 10
27.61699898451651
 20
28.33866150149138
 30
0.0
  0
VERTEX
  5
389
  8
LAYER_1
 10
27.61699898451651
 20
28.44209082789515
 30
0.0
  0
VERTEX
  5
38A
  8
LAYER_1
 10
27.61699898451651
 20
28.54552015429892
 30
0.0
  0
VERTEX
  5
38B
  8
LAYER_1
 10
27.61699898451651
 20
28.64894948070269
 30
0.0
  0
VERTEX
  5
38C
  8
LAYER_1
 10
27.61699898451651
 20
28.752378807106449
 30
0.0
  0
VERTEX
  5
38D
  8
LAYER_1
 10
27.61699898451651
 20
28.855808133510219
 30
0.0
  0
VERTEX
  5
38E
  8
LAYER_1
 10
27.61699898451651
 20
28.959237459913979
 30
0.0
  0
VERTEX
  5
38F
  8
LAYER_1
 10
27.61699898451651
 20
29.062666786317749
 30
0.0
  0
VERTEX
  5
390
  8
LAYER_1
 10
27.61699898451651
 20
29.166096112721519
 30
0.0
  0
VERTEX
  5
391
  8
LAYER_1
 10
27.61699898451651
 20
29.269525439125282
 30
0.0
  0
VERTEX
  5
392
  8
LAYER_1
 10
27.61699898451651
 20
29.372954765529052
 30
0.0
  0
VERTEX
  5
393
  8
LAYER_1
 10
27.61699898451651
 20
29.476384091932811
 30
0.0
  0
VERTEX
  5
394
  8
LAYER_1
 10
27.61699898451651
 20
29.579813418336581
 30
0.0
  0
VERTEX
  5
395
  8
LAYER_1
 10
27.51356965811274
 20
29.579813418336581
 30
0.0
  0
VERTEX
  5
396
  8
LAYER_1
 10
27.51356965811274
 20
29.683242744740351
 30
0.0
  0
VERTEX
  5
397
  8
LAYER_1
 10
27.51356965811274
 20
29.786672071144121
 30
0.0
  0
VERTEX
  5
398
  8
LAYER_1
 10
27.51356965811274
 20
29.89010139754788
 30
0.0
  0
VERTEX
  5
399
  8
LAYER_1
 10
27.41014033170897
 20
29.89010139754788
 30
0.0
  0
VERTEX
  5
39A
  8
LAYER_1
 10
27.41014033170897
 20
29.99353072395165
 30
0.0
  0
VERTEX
  5
39B
  8
LAYER_1
 10
27.41014033170897
 20
30.09696005035542
 30
0.0
  0
VERTEX
  5
39C
  8
LAYER_1
 10
27.41014033170897
 20
30.20038937675919
 30
0.0
  0
VERTEX
  5
39D
  8
LAYER_1
 10
27.41014033170897
 20
30.30381870316295
 30
0.0
  0
VERTEX
  5
39E
  8
LAYER_1
 10
27.3067110053052
 20
30.30381870316295
 30
0.0
  0
VERTEX
  5
39F
  8
LAYER_1
 10
27.3067110053052
 20
30.40724802956672
 30
0.0
  0
VERTEX
  5
3A0
  8
LAYER_1
 10
27.3067110053052
 20
30.510677355970479
 30
0.0
  0
VERTEX
  5
3A1
  8
LAYER_1
 10
27.3067110053052
 20
30.614106682374249
 30
0.0
  0
VERTEX
  5
3A2
  8
LAYER_1
 10
27.3067110053052
 20
30.717536008778008
 30
0.0
  0
VERTEX
  5
3A3
  8
LAYER_1
 10
27.20328167890144
 20
30.717536008778008
 30
0.0
  0
VERTEX
  5
3A4
  8
LAYER_1
 10
27.20328167890144
 20
30.820965335181778
 30
0.0
  0
VERTEX
  5
3A5
  8
LAYER_1
 10
27.20328167890144
 20
30.924394661585549
 30
0.0
  0
VERTEX
  5
3A6
  8
LAYER_1
 10
27.09985235249767
 20
30.924394661585549
 30
0.0
  0
VERTEX
  5
3A7
  8
LAYER_1
 10
27.09985235249767
 20
31.027823987989319
 30
0.0
  0
VERTEX
  5
3A8
  8
LAYER_1
 10
27.09985235249767
 20
31.131253314393081
 30
0.0
  0
VERTEX
  5
3A9
  8
LAYER_1
 10
27.09985235249767
 20
31.234682640796851
 30
0.0
  0
VERTEX
  5
3AA
  8
LAYER_1
 10
26.9964230260939
 20
31.338111967200611
 30
0.0
  0
VERTEX
  5
3AB
  8
LAYER_1
 10
26.9964230260939
 20
31.441541293604381
 30
0.0
  0
VERTEX
  5
3AC
  8
LAYER_1
 10
26.9964230260939
 20
31.54497062000814
 30
0.0
  0
VERTEX
  5
3AD
  8
LAYER_1
 10
26.9964230260939
 20
31.64839994641191
 30
0.0
  0
VERTEX
  5
3AE
  8
LAYER_1
 10
26.89299369969013
 20
31.64839994641191
 30
0.0
  0
VERTEX
  5
3AF
  8
LAYER_1
 10
26.89299369969013
 20
31.75182927281568
 30
0.0
  0
VERTEX
  5
3B0
  8
LAYER_1
 10
26.789564373286382
 20
31.85525859921945
 30
0.0
  0
VERTEX
  5
3B1
  8
LAYER_1
 10
26.789564373286382
 20
31.95868792562322
 30
0.0
  0
VERTEX
  5
3B2
  8
LAYER_1
 10
26.686135046882612
 20
31.95868792562322
 30
0.0
  0
VERTEX
  5
3B3
  8
LAYER_1
 10
26.686135046882612
 20
32.062117252026979
 30
0.0
  0
VERTEX
  5
3B4
  8
LAYER_1
 10
26.686135046882612
 20
32.165546578430749
 30
0.0
  0
VERTEX
  5
3B5
  8
LAYER_1
 10
26.582705720478842
 20
32.165546578430749
 30
0.0
  0
VERTEX
  5
3B6
  8
LAYER_1
 10
26.582705720478842
 20
32.268975904834519
 30
0.0
  0
VERTEX
  5
3B7
  8
LAYER_1
 10
26.479276394075072
 20
32.268975904834519
 30
0.0
  0
VERTEX
  5
3B8
  8
LAYER_1
 10
26.479276394075072
 20
32.37240523123829
 30
0.0
  0
VERTEX
  5
3B9
  8
LAYER_1
 10
26.375847067671309
 20
32.37240523123829
 30
0.0
  0
VERTEX
  5
3BA
  8
LAYER_1
 10
26.375847067671309
 20
32.475834557642052
 30
0.0
  0
VERTEX
  5
3BB
  8
LAYER_1
 10
26.272417741267539
 20
32.475834557642052
 30
0.0
  0
VERTEX
  5
3BC
  8
LAYER_1
 10
26.272417741267539
 20
32.579263884045822
 30
0.0
  0
VERTEX
  5
3BD
  8
LAYER_1
 10
26.168988414863769
 20
32.579263884045822
 30
0.0
  0
VERTEX
  5
3BE
  8
LAYER_1
 10
26.168988414863769
 20
32.682693210449578
 30
0.0
  0
VERTEX
  5
3BF
  8
LAYER_1
 10
26.168988414863769
 20
32.786122536853348
 30
0.0
  0
VERTEX
  5
3C0
  8
LAYER_1
 10
26.065559088459999
 20
32.786122536853348
 30
0.0
  0
VERTEX
  5
3C1
  8
LAYER_1
 10
25.962129762056239
 20
32.786122536853348
 30
0.0
  0
VERTEX
  5
3C2
  8
LAYER_1
 10
25.962129762056239
 20
32.889551863257111
 30
0.0
  0
VERTEX
  5
3C3
  8
LAYER_1
 10
25.962129762056239
 20
32.992981189660881
 30
0.0
  0
VERTEX
  5
3C4
  8
LAYER_1
 10
25.858700435652469
 20
32.992981189660881
 30
0.0
  0
VERTEX
  5
3C5
  8
LAYER_1
 10
25.858700435652469
 20
33.096410516064637
 30
0.0
  0
VERTEX
  5
3C6
  8
LAYER_1
 10
25.755271109248699
 20
33.096410516064637
 30
0.0
  0
VERTEX
  5
3C7
  8
LAYER_1
 10
25.651841782844929
 20
33.199839842468407
 30
0.0
  0
VERTEX
  5
3C8
  8
LAYER_1
 10
25.548412456441181
 20
33.199839842468407
 30
0.0
  0
VERTEX
  5
3C9
  8
LAYER_1
 10
25.548412456441181
 20
33.303269168872177
 30
0.0
  0
VERTEX
  5
3CA
  8
LAYER_1
 10
25.444983130037411
 20
33.303269168872177
 30
0.0
  0
VERTEX
  5
3CB
  8
LAYER_1
 10
25.444983130037411
 20
33.406698495275947
 30
0.0
  0
VERTEX
  5
3CC
  8
LAYER_1
 10
25.341553803633641
 20
33.51012782167971
 30
0.0
  0
VERTEX
  5
3CD
  8
LAYER_1
 10
25.238124477229871
 20
33.51012782167971
 30
0.0
  0
VERTEX
  5
3CE
  8
LAYER_1
 10
25.238124477229871
 20
33.61355714808348
 30
0.0
  0
VERTEX
  5
3CF
  8
LAYER_1
 10
25.134695150826101
 20
33.61355714808348
 30
0.0
  0
VERTEX
  5
3D0
  8
LAYER_1
 10
25.031265824422341
 20
33.61355714808348
 30
0.0
  0
VERTEX
  5
3D1
  8
LAYER_1
 10
25.031265824422341
 20
33.716986474487243
 30
0.0
  0
VERTEX
  5
3D2
  8
LAYER_1
 10
24.824407171614801
 20
33.820415800891013
 30
0.0
  0
VERTEX
  5
3D3
  8
LAYER_1
 10
24.720977845211031
 20
33.923845127294783
 30
0.0
  0
VERTEX
  5
3D4
  8
LAYER_1
 10
24.617548518807279
 20
33.923845127294783
 30
0.0
  0
VERTEX
  5
3D5
  8
LAYER_1
 10
24.514119192403509
 20
33.923845127294783
 30
0.0
  0
VERTEX
  5
3D6
  8
LAYER_1
 10
24.514119192403509
 20
34.027274453698553
 30
0.0
  0
VERTEX
  5
3D7
  8
LAYER_1
 10
24.307260539595969
 20
34.130703780102309
 30
0.0
  0
VERTEX
  5
3D8
  8
LAYER_1
 10
24.20383121319221
 20
34.234133106506079
 30
0.0
  0
VERTEX
  5
3D9
  8
LAYER_1
 10
24.10040188678844
 20
34.234133106506079
 30
0.0
  0
VERTEX
  5
3DA
  8
LAYER_1
 10
23.99697256038467
 20
34.234133106506079
 30
0.0
  0
VERTEX
  5
3DB
  8
LAYER_1
 10
23.8935432339809
 20
34.337562432909849
 30
0.0
  0
VERTEX
  5
3DC
  8
LAYER_1
 10
23.5832552547696
 20
34.440991759313611
 30
0.0
  0
VERTEX
  5
3DD
  8
LAYER_1
 10
23.47982592836583
 20
34.544421085717381
 30
0.0
  0
VERTEX
  5
3DE
  8
LAYER_1
 10
23.376396601962082
 20
34.544421085717381
 30
0.0
  0
VERTEX
  5
3DF
  8
LAYER_1
 10
23.272967275558312
 20
34.544421085717381
 30
0.0
  0
VERTEX
  5
3E0
  8
LAYER_1
 10
23.169537949154542
 20
34.544421085717381
 30
0.0
  0
VERTEX
  5
3E1
  8
LAYER_1
 10
22.859249969943239
 20
34.647850412121151
 30
0.0
  0
VERTEX
  5
3E2
  8
LAYER_1
 10
22.755820643539469
 20
34.751279738524921
 30
0.0
  0
VERTEX
  5
3E3
  8
LAYER_1
 10
22.652391317135699
 20
34.751279738524921
 30
0.0
  0
VERTEX
  5
3E4
  8
LAYER_1
 10
22.548961990731929
 20
34.751279738524921
 30
0.0
  0
VERTEX
  5
3E5
  8
LAYER_1
 10
22.44553266432818
 20
34.751279738524921
 30
0.0
  0
VERTEX
  5
3E6
  8
LAYER_1
 10
21.928386032309341
 20
34.958138391332447
 30
0.0
  0
VERTEX
  5
3E7
  8
LAYER_1
 10
21.824956705905571
 20
34.958138391332447
 30
0.0
  0
VERTEX
  5
3E8
  8
LAYER_1
 10
21.721527379501801
 20
34.958138391332447
 30
0.0
  0
VERTEX
  5
3E9
  8
LAYER_1
 10
21.618098053098041
 20
35.06156771773621
 30
0.0
  0
VERTEX
  5
3EA
  8
LAYER_1
 10
21.514668726694271
 20
35.06156771773621
 30
0.0
  0
VERTEX
  5
3EB
  8
LAYER_1
 10
21.411239400290501
 20
35.06156771773621
 30
0.0
  0
VERTEX
  5
3EC
  8
LAYER_1
 10
20.894092768271669
 20
35.06156771773621
 30
0.0
  0
VERTEX
  5
3ED
  8
LAYER_1
 10
20.79066344186792
 20
35.06156771773621
 30
0.0
  0
VERTEX
  5
3EE
  8
LAYER_1
 10
20.68723411546415
 20
35.16499704413998
 30
0.0
  0
VERTEX
  5
3EF
  8
LAYER_1
 10
20.58380478906038
 20
35.16499704413998
 30
0.0
  0
VERTEX
  5
3F0
  8
LAYER_1
 10
20.48037546265661
 20
35.16499704413998
 30
0.0
  0
VERTEX
  5
3F1
  8
LAYER_1
 10
20.376946136252851
 20
35.16499704413998
 30
0.0
  0
VERTEX
  5
3F2
  8
LAYER_1
 10
20.170087483445311
 20
35.268426370543743
 30
0.0
  0
VERTEX
  5
3F3
  8
LAYER_1
 10
20.066658157041541
 20
35.268426370543743
 30
0.0
  0
VERTEX
  5
3F4
  8
LAYER_1
 10
19.963228830637771
 20
35.268426370543743
 30
0.0
  0
VERTEX
  5
3F5
  8
LAYER_1
 10
19.859799504234012
 20
35.268426370543743
 30
0.0
  0
VERTEX
  5
3F6
  8
LAYER_1
 10
19.756370177830242
 20
35.268426370543743
 30
0.0
  0
VERTEX
  5
3F7
  8
LAYER_1
 10
19.652940851426472
 20
35.268426370543743
 30
0.0
  0
VERTEX
  5
3F8
  8
LAYER_1
 10
19.549511525022702
 20
35.268426370543743
 30
0.0
  0
VERTEX
  5
3F9
  8
LAYER_1
 10
19.446082198618939
 20
35.268426370543743
 30
0.0
  0
VERTEX
  5
3FA
  8
LAYER_1
 10
19.342652872215169
 20
35.268426370543743
 30
0.0
  0
VERTEX
  5
3FB
  8
LAYER_1
 10
19.239223545811399
 20
35.268426370543743
 30
0.0
  0
VERTEX
  5
3FC
  8
LAYER_1
 10
19.03236489300388
 20
35.268426370543743
 30
0.0
  0
VERTEX
  5
3FD
  8
LAYER_1
 10
18.92893556660011
 20
35.268426370543743
 30
0.0
  0
VERTEX
  5
3FE
  8
LAYER_1
 10
18.82550624019634
 20
35.268426370543743
 30
0.0
  0
VERTEX
  5
3FF
  8
LAYER_1
 10
18.72207691379257
 20
35.268426370543743
 30
0.0
  0
VERTEX
  5
400
  8
LAYER_1
 10
18.618647587388811
 20
35.268426370543743
 30
0.0
  0
VERTEX
  5
401
  8
LAYER_1
 10
18.308359608177501
 20
35.268426370543743
 30
0.0
  0
VERTEX
  5
402
  8
LAYER_1
 10
18.204930281773748
 20
35.268426370543743
 30
0.0
  0
VERTEX
  5
403
  8
LAYER_1
 10
18.101500955369978
 20
35.268426370543743
 30
0.0
  0
VERTEX
  5
404
  8
LAYER_1
 10
17.998071628966208
 20
35.268426370543743
 30
0.0
  0
VERTEX
  5
405
  8
LAYER_1
 10
17.894642302562438
 20
35.268426370543743
 30
0.0
  0
VERTEX
  5
406
  8
LAYER_1
 10
17.791212976158679
 20
35.268426370543743
 30
0.0
  0
VERTEX
  5
407
  8
LAYER_1
 10
17.687783649754909
 20
35.16499704413998
 30
0.0
  0
VERTEX
  5
408
  8
LAYER_1
 10
17.584354323351139
 20
35.16499704413998
 30
0.0
  0
VERTEX
  5
409
  8
LAYER_1
 10
17.480924996947369
 20
35.16499704413998
 30
0.0
  0
VERTEX
  5
40A
  8
LAYER_1
 10
17.37749567054361
 20
35.16499704413998
 30
0.0
  0
VERTEX
  5
40B
  8
LAYER_1
 10
17.37749567054361
 20
35.06156771773621
 30
0.0
  0
VERTEX
  5
40C
  8
LAYER_1
 10
17.27406634413984
 20
35.06156771773621
 30
0.0
  0
VERTEX
  5
40D
  8
LAYER_1
 10
17.17063701773607
 20
35.06156771773621
 30
0.0
  0
VERTEX
  5
40E
  8
LAYER_1
 10
17.0672076913323
 20
34.958138391332447
 30
0.0
  0
VERTEX
  5
40F
  8
LAYER_1
 10
17.0672076913323
 20
34.854709064928677
 30
0.0
  0
VERTEX
  5
410
  8
LAYER_1
 10
16.96377836492853
 20
34.854709064928677
 30
0.0
  0
VERTEX
  5
411
  8
LAYER_1
 10
16.860349038524781
 20
34.854709064928677
 30
0.0
  0
VERTEX
  5
412
  8
LAYER_1
 10
16.860349038524781
 20
34.751279738524921
 30
0.0
  0
VERTEX
  5
413
  8
LAYER_1
 10
16.756919712121011
 20
34.751279738524921
 30
0.0
  0
VERTEX
  5
414
  8
LAYER_1
 10
16.756919712121011
 20
34.647850412121151
 30
0.0
  0
VERTEX
  5
415
  8
LAYER_1
 10
16.653490385717241
 20
34.647850412121151
 30
0.0
  0
VERTEX
  5
416
  8
LAYER_1
 10
16.550061059313471
 20
34.647850412121151
 30
0.0
  0
VERTEX
  5
417
  8
LAYER_1
 10
16.550061059313471
 20
34.544421085717381
 30
0.0
  0
VERTEX
  5
418
  8
LAYER_1
 10
16.446631732909712
 20
34.440991759313611
 30
0.0
  0
VERTEX
  5
419
  8
LAYER_1
 10
16.446631732909712
 20
34.337562432909849
 30
0.0
  0
VERTEX
  5
41A
  8
LAYER_1
 10
16.343202406505942
 20
34.337562432909849
 30
0.0
  0
VERTEX
  5
41B
  8
LAYER_1
 10
16.343202406505942
 20
34.234133106506079
 30
0.0
  0
VERTEX
  5
41C
  8
LAYER_1
 10
16.239773080102172
 20
34.234133106506079
 30
0.0
  0
VERTEX
  5
41D
  8
LAYER_1
 10
16.136343753698402
 20
34.027274453698553
 30
0.0
  0
VERTEX
  5
41E
  8
LAYER_1
 10
16.032914427294649
 20
34.027274453698553
 30
0.0
  0
VERTEX
  5
41F
  8
LAYER_1
 10
16.032914427294649
 20
33.923845127294783
 30
0.0
  0
VERTEX
  5
420
  8
LAYER_1
 10
15.929485100890879
 20
33.923845127294783
 30
0.0
  0
VERTEX
  5
421
  8
LAYER_1
 10
15.826055774487109
 20
33.923845127294783
 30
0.0
  0
VERTEX
  5
422
  8
LAYER_1
 10
15.722626448083339
 20
33.716986474487243
 30
0.0
  0
VERTEX
  5
423
  8
LAYER_1
 10
15.61919712167958
 20
33.716986474487243
 30
0.0
  0
VERTEX
  5
424
  8
LAYER_1
 10
15.61919712167958
 20
33.61355714808348
 30
0.0
  0
VERTEX
  5
425
  8
LAYER_1
 10
15.51576779527581
 20
33.61355714808348
 30
0.0
  0
VERTEX
  5
426
  8
LAYER_1
 10
15.51576779527581
 20
33.51012782167971
 30
0.0
  0
VERTEX
  5
427
  8
LAYER_1
 10
15.41233846887204
 20
33.406698495275947
 30
0.0
  0
VERTEX
  5
428
  8
LAYER_1
 10
15.41233846887204
 20
33.303269168872177
 30
0.0
  0
VERTEX
  5
429
  8
LAYER_1
 10
15.30890914246827
 20
33.303269168872177
 30
0.0
  0
VERTEX
  5
42A
  8
LAYER_1
 10
15.30890914246827
 20
33.199839842468407
 30
0.0
  0
VERTEX
  5
42B
  8
LAYER_1
 10
15.30890914246827
 20
33.096410516064637
 30
0.0
  0
VERTEX
  5
42C
  8
LAYER_1
 10
15.205479816064511
 20
33.096410516064637
 30
0.0
  0
VERTEX
  5
42D
  8
LAYER_1
 10
15.205479816064511
 20
32.992981189660881
 30
0.0
  0
VERTEX
  5
42E
  8
LAYER_1
 10
15.205479816064511
 20
32.889551863257111
 30
0.0
  0
VERTEX
  5
42F
  8
LAYER_1
 10
15.102050489660741
 20
32.889551863257111
 30
0.0
  0
VERTEX
  5
430
  8
LAYER_1
 10
15.102050489660741
 20
32.786122536853348
 30
0.0
  0
VERTEX
  5
431
  8
LAYER_1
 10
15.102050489660741
 20
32.682693210449578
 30
0.0
  0
VERTEX
  5
432
  8
LAYER_1
 10
14.998621163256971
 20
32.682693210449578
 30
0.0
  0
VERTEX
  5
433
  8
LAYER_1
 10
14.998621163256971
 20
32.579263884045822
 30
0.0
  0
VERTEX
  5
434
  8
LAYER_1
 10
14.998621163256971
 20
32.475834557642052
 30
0.0
  0
VERTEX
  5
435
  8
LAYER_1
 10
14.998621163256971
 20
32.37240523123829
 30
0.0
  0
VERTEX
  5
436
  8
LAYER_1
 10
14.895191836853201
 20
32.268975904834519
 30
0.0
  0
VERTEX
  5
437
  8
LAYER_1
 10
14.895191836853201
 20
32.165546578430749
 30
0.0
  0
VERTEX
  5
438
  8
LAYER_1
 10
14.895191836853201
 20
32.062117252026979
 30
0.0
  0
VERTEX
  5
439
  8
LAYER_1
 10
14.895191836853201
 20
31.95868792562322
 30
0.0
  0
VERTEX
  5
43A
  8
LAYER_1
 10
14.895191836853201
 20
31.85525859921945
 30
0.0
  0
VERTEX
  5
43B
  8
LAYER_1
 10
14.895191836853201
 20
31.75182927281568
 30
0.0
  0
VERTEX
  5
43C
  8
LAYER_1
 10
14.895191836853201
 20
31.64839994641191
 30
0.0
  0
VERTEX
  5
43D
  8
LAYER_1
 10
14.895191836853201
 20
31.54497062000814
 30
0.0
  0
VERTEX
  5
43E
  8
LAYER_1
 10
14.895191836853201
 20
31.441541293604381
 30
0.0
  0
VERTEX
  5
43F
  8
LAYER_1
 10
14.895191836853201
 20
31.338111967200611
 30
0.0
  0
VERTEX
  5
440
  8
LAYER_1
 10
14.895191836853201
 20
31.234682640796851
 30
0.0
  0
VERTEX
  5
441
  8
LAYER_1
 10
14.895191836853201
 20
31.131253314393081
 30
0.0
  0
VERTEX
  5
442
  8
LAYER_1
 10
14.895191836853201
 20
31.027823987989319
 30
0.0
  0
VERTEX
  5
443
  8
LAYER_1
 10
14.895191836853201
 20
30.924394661585549
 30
0.0
  0
VERTEX
  5
444
  8
LAYER_1
 10
14.895191836853201
 20
30.820965335181778
 30
0.0
  0
VERTEX
  5
445
  8
LAYER_1
 10
14.895191836853201
 20
30.717536008778008
 30
0.0
  0
VERTEX
  5
446
  8
LAYER_1
 10
14.895191836853201
 20
30.614106682374249
 30
0.0
  0
VERTEX
  5
447
  8
LAYER_1
 10
14.998621163256971
 20
30.614106682374249
 30
0.0
  0
VERTEX
  5
448
  8
LAYER_1
 10
14.998621163256971
 20
30.510677355970479
 30
0.0
  0
VERTEX
  5
449
  8
LAYER_1
 10
14.998621163256971
 20
30.40724802956672
 30
0.0
  0
VERTEX
  5
44A
  8
LAYER_1
 10
15.205479816064511
 20
30.30381870316295
 30
0.0
  0
VERTEX
  5
44B
  8
LAYER_1
 10
15.205479816064511
 20
30.20038937675919
 30
0.0
  0
VERTEX
  5
44C
  8
LAYER_1
 10
15.205479816064511
 20
30.09696005035542
 30
0.0
  0
VERTEX
  5
44D
  8
LAYER_1
 10
15.30890914246827
 20
30.09696005035542
 30
0.0
  0
VERTEX
  5
44E
  8
LAYER_1
 10
15.30890914246827
 20
29.99353072395165
 30
0.0
  0
VERTEX
  5
44F
  8
LAYER_1
 10
15.41233846887204
 20
29.89010139754788
 30
0.0
  0
VERTEX
  5
450
  8
LAYER_1
 10
15.51576779527581
 20
29.89010139754788
 30
0.0
  0
VERTEX
  5
451
  8
LAYER_1
 10
15.51576779527581
 20
29.786672071144121
 30
0.0
  0
VERTEX
  5
452
  8
LAYER_1
 10
15.51576779527581
 20
29.683242744740351
 30
0.0
  0
VERTEX
  5
453
  8
LAYER_1
 10
15.61919712167958
 20
29.683242744740351
 30
0.0
  0
VERTEX
  5
454
  8
LAYER_1
 10
15.722626448083339
 20
29.683242744740351
 30
0.0
  0
VERTEX
  5
455
  8
LAYER_1
 10
15.722626448083339
 20
29.579813418336581
 30
0.0
  0
VERTEX
  5
456
  8
LAYER_1
 10
15.826055774487109
 20
29.579813418336581
 30
0.0
  0
VERTEX
  5
457
  8
LAYER_1
 10
15.929485100890879
 20
29.476384091932811
 30
0.0
  0
VERTEX
  5
458
  8
LAYER_1
 10
16.032914427294649
 20
29.372954765529052
 30
0.0
  0
VERTEX
  5
459
  8
LAYER_1
 10
16.136343753698402
 20
29.269525439125282
 30
0.0
  0
VERTEX
  5
45A
  8
LAYER_1
 10
16.239773080102172
 20
29.269525439125282
 30
0.0
  0
VERTEX
  5
45B
  8
LAYER_1
 10
16.343202406505942
 20
29.166096112721519
 30
0.0
  0
VERTEX
  5
45C
  8
LAYER_1
 10
16.446631732909712
 20
29.166096112721519
 30
0.0
  0
VERTEX
  5
45D
  8
LAYER_1
 10
16.446631732909712
 20
29.062666786317749
 30
0.0
  0
VERTEX
  5
45E
  8
LAYER_1
 10
16.550061059313471
 20
28.959237459913979
 30
0.0
  0
VERTEX
  5
45F
  8
LAYER_1
 10
16.653490385717241
 20
28.959237459913979
 30
0.0
  0
VERTEX
  5
460
  8
LAYER_1
 10
16.756919712121011
 20
28.959237459913979
 30
0.0
  0
VERTEX
  5
461
  8
LAYER_1
 10
16.756919712121011
 20
28.855808133510219
 30
0.0
  0
VERTEX
  5
462
  8
LAYER_1
 10
16.860349038524781
 20
28.855808133510219
 30
0.0
  0
VERTEX
  5
463
  8
LAYER_1
 10
16.96377836492853
 20
28.855808133510219
 30
0.0
  0
VERTEX
  5
464
  8
LAYER_1
 10
17.17063701773607
 20
28.64894948070269
 30
0.0
  0
VERTEX
  5
465
  8
LAYER_1
 10
17.27406634413984
 20
28.64894948070269
 30
0.0
  0
VERTEX
  5
466
  8
LAYER_1
 10
17.27406634413984
 20
28.54552015429892
 30
0.0
  0
VERTEX
  5
467
  8
LAYER_1
 10
17.37749567054361
 20
28.54552015429892
 30
0.0
  0
VERTEX
  5
468
  8
LAYER_1
 10
17.480924996947369
 20
28.54552015429892
 30
0.0
  0
VERTEX
  5
469
  8
LAYER_1
 10
17.687783649754909
 20
28.44209082789515
 30
0.0
  0
VERTEX
  5
46A
  8
LAYER_1
 10
17.791212976158679
 20
28.44209082789515
 30
0.0
  0
VERTEX
  5
46B
  8
LAYER_1
 10
17.791212976158679
 20
28.33866150149138
 30
0.0
  0
VERTEX
  5
46C
  8
LAYER_1
 10
17.894642302562438
 20
28.33866150149138
 30
0.0
  0
VERTEX
  5
46D
  8
LAYER_1
 10
17.894642302562438
 20
28.235232175087621
 30
0.0
  0
VERTEX
  5
46E
  8
LAYER_1
 10
17.998071628966208
 20
28.235232175087621
 30
0.0
  0
VERTEX
  5
46F
  8
LAYER_1
 10
18.204930281773748
 20
28.235232175087621
 30
0.0
  0
VERTEX
  5
470
  8
LAYER_1
 10
18.204930281773748
 20
28.131802848683851
 30
0.0
  0
VERTEX
  5
471
  8
LAYER_1
 10
18.308359608177501
 20
28.131802848683851
 30
0.0
  0
VERTEX
  5
472
  8
LAYER_1
 10
18.411788934581271
 20
28.131802848683851
 30
0.0
  0
VERTEX
  5
473
  8
LAYER_1
 10
18.411788934581271
 20
28.028373522280091
 30
0.0
  0
VERTEX
  5
474
  8
LAYER_1
 10
18.515218260985041
 20
28.028373522280091
 30
0.0
  0
VERTEX
  5
475
  8
LAYER_1
 10
18.515218260985041
 20
27.924944195876321
 30
0.0
  0
VERTEX
  5
476
  8
LAYER_1
 10
18.618647587388811
 20
27.924944195876321
 30
0.0
  0
VERTEX
  5
477
  8
LAYER_1
 10
18.618647587388811
 20
27.821514869472551
 30
0.0
  0
VERTEX
  5
478
  8
LAYER_1
 10
18.72207691379257
 20
27.821514869472551
 30
0.0
  0
VERTEX
  5
479
  8
LAYER_1
 10
18.82550624019634
 20
27.821514869472551
 30
0.0
  0
VERTEX
  5
47A
  8
LAYER_1
 10
18.92893556660011
 20
27.614656216665018
 30
0.0
  0
VERTEX
  5
47B
  8
LAYER_1
 10
19.03236489300388
 20
27.614656216665018
 30
0.0
  0
VERTEX
  5
47C
  8
LAYER_1
 10
19.03236489300388
 20
27.511226890261248
 30
0.0
  0
VERTEX
  5
47D
  8
LAYER_1
 10
19.135794219407629
 20
27.511226890261248
 30
0.0
  0
VERTEX
  5
47E
  8
LAYER_1
 10
19.239223545811399
 20
27.407797563857478
 30
0.0
  0
VERTEX
  5
47F
  8
LAYER_1
 10
19.342652872215169
 20
27.304368237453708
 30
0.0
  0
VERTEX
  5
480
  8
LAYER_1
 10
19.342652872215169
 20
27.200938911049949
 30
0.0
  0
VERTEX
  5
481
  8
LAYER_1
 10
19.446082198618939
 20
27.200938911049949
 30
0.0
  0
VERTEX
  5
482
  8
LAYER_1
 10
19.549511525022702
 20
27.200938911049949
 30
0.0
  0
VERTEX
  5
483
  8
LAYER_1
 10
19.549511525022702
 20
27.097509584646179
 30
0.0
  0
VERTEX
  5
484
  8
LAYER_1
 10
19.756370177830242
 20
26.99408025824242
 30
0.0
  0
VERTEX
  5
485
  8
LAYER_1
 10
19.756370177830242
 20
26.89065093183865
 30
0.0
  0
VERTEX
  5
486
  8
LAYER_1
 10
19.859799504234012
 20
26.78722160543489
 30
0.0
  0
VERTEX
  5
487
  8
LAYER_1
 10
20.066658157041541
 20
26.580362952627361
 30
0.0
  0
VERTEX
  5
488
  8
LAYER_1
 10
20.170087483445311
 20
26.476933626223591
 30
0.0
  0
VERTEX
  5
489
  8
LAYER_1
 10
20.273516809849081
 20
26.476933626223591
 30
0.0
  0
VERTEX
  5
48A
  8
LAYER_1
 10
20.273516809849081
 20
26.373504299819821
 30
0.0
  0
VERTEX
  5
48B
  8
LAYER_1
 10
20.376946136252851
 20
26.373504299819821
 30
0.0
  0
VERTEX
  5
48C
  8
LAYER_1
 10
20.376946136252851
 20
26.270074973416051
 30
0.0
  0
VERTEX
  5
48D
  8
LAYER_1
 10
20.48037546265661
 20
26.270074973416051
 30
0.0
  0
VERTEX
  5
48E
  8
LAYER_1
 10
20.48037546265661
 20
26.166645647012281
 30
0.0
  0
VERTEX
  5
48F
  8
LAYER_1
 10
20.48037546265661
 20
26.063216320608522
 30
0.0
  0
VERTEX
  5
490
  8
LAYER_1
 10
20.58380478906038
 20
26.063216320608522
 30
0.0
  0
VERTEX
  5
491
  8
LAYER_1
 10
20.58380478906038
 20
25.959786994204752
 30
0.0
  0
VERTEX
  5
492
  8
LAYER_1
 10
20.68723411546415
 20
25.959786994204752
 30
0.0
  0
VERTEX
  5
493
  8
LAYER_1
 10
20.68723411546415
 20
25.856357667800989
 30
0.0
  0
VERTEX
  5
494
  8
LAYER_1
 10
20.68723411546415
 20
25.752928341397219
 30
0.0
  0
VERTEX
  5
495
  8
LAYER_1
 10
20.68723411546415
 20
25.649499014993449
 30
0.0
  0
VERTEX
  5
496
  8
LAYER_1
 10
20.79066344186792
 20
25.649499014993449
 30
0.0
  0
VERTEX
  5
497
  8
LAYER_1
 10
20.79066344186792
 20
25.546069688589679
 30
0.0
  0
VERTEX
  5
498
  8
LAYER_1
 10
20.79066344186792
 20
25.442640362185919
 30
0.0
  0
VERTEX
  5
499
  8
LAYER_1
 10
20.79066344186792
 20
25.339211035782149
 30
0.0
  0
VERTEX
  5
49A
  8
LAYER_1
 10
20.894092768271669
 20
25.339211035782149
 30
0.0
  0
VERTEX
  5
49B
  8
LAYER_1
 10
20.894092768271669
 20
25.23578170937839
 30
0.0
  0
VERTEX
  5
49C
  8
LAYER_1
 10
20.894092768271669
 20
25.13235238297462
 30
0.0
  0
VERTEX
  5
49D
  8
LAYER_1
 10
20.894092768271669
 20
25.02892305657085
 30
0.0
  0
VERTEX
  5
49E
  8
LAYER_1
 10
20.894092768271669
 20
24.92549373016708
 30
0.0
  0
VERTEX
  5
49F
  8
LAYER_1
 10
20.997522094675439
 20
24.92549373016708
 30
0.0
  0
VERTEX
  5
4A0
  8
LAYER_1
 10
20.997522094675439
 20
24.822064403763321
 30
0.0
  0
VERTEX
  5
4A1
  8
LAYER_1
 10
20.997522094675439
 20
24.718635077359551
 30
0.0
  0
VERTEX
  5
4A2
  8
LAYER_1
 10
20.997522094675439
 20
24.615205750955791
 30
0.0
  0
VERTEX
  5
4A3
  8
LAYER_1
 10
20.997522094675439
 20
24.511776424552021
 30
0.0
  0
VERTEX
  5
4A4
  8
LAYER_1
 10
20.997522094675439
 20
24.408347098148258
 30
0.0
  0
VERTEX
  5
4A5
  8
LAYER_1
 10
20.997522094675439
 20
24.304917771744488
 30
0.0
  0
VERTEX
  5
4A6
  8
LAYER_1
 10
20.997522094675439
 20
24.201488445340718
 30
0.0
  0
VERTEX
  5
4A7
  8
LAYER_1
 10
20.997522094675439
 20
24.098059118936948
 30
0.0
  0
VERTEX
  5
4A8
  8
LAYER_1
 10
20.894092768271669
 20
24.098059118936948
 30
0.0
  0
VERTEX
  5
4A9
  8
LAYER_1
 10
20.894092768271669
 20
23.994629792533189
 30
0.0
  0
VERTEX
  5
4AA
  8
LAYER_1
 10
20.894092768271669
 20
23.891200466129419
 30
0.0
  0
VERTEX
  5
4AB
  8
LAYER_1
 10
20.894092768271669
 20
23.787771139725649
 30
0.0
  0
VERTEX
  5
4AC
  8
LAYER_1
 10
20.79066344186792
 20
23.787771139725649
 30
0.0
  0
VERTEX
  5
4AD
  8
LAYER_1
 10
20.79066344186792
 20
23.684341813321879
 30
0.0
  0
SEQEND
  5
4AE
  8
LAYER_1
  0
ARC
  5
22C
  8
LAYER_1
 10
18.58495270165384
 20
17.515160279225562
 30
0.0
 40
6.967468530983921
 50
64.193730735761847
 51
215.74575072045869
  0
POLYLINE
  5
22D
  8
LAYER_1
 66
     1
 10
0.0
 20
0.0
 30
0.0
  0
VERTEX
  5
4AF
  8
LAYER_1
 10
12.930034635149051
 20
13.444838499394301
 30
0.0
  0
VERTEX
  5
4B0
  8
LAYER_1
 10
19.704655514634702
 20
6.6702176199086329
 30
0.0
  0
SEQEND
  5
4B1
  8
LAYER_1
  0
CIRCLE
  5
22E
  8
LAYER_1
 62
   240
 10
6.5174163981481206
 20
44.473636420478982
 30
0.0
 40
2.0477961860624818
  0
CIRCLE
  5
22F
  8
LAYER_1
 62
   240
 10
19.704655514634702
 20
6.67021761990864
 30
0.0
 40
1.6031545592520331
  0
VIEWPORT
  5
20A
 67
     1
  8
0
 10
5.2499996395561652
 20
3.9999998836066779
 30
0.0
 40
19.354102901133331
 41
8.9929997457669497
 68
     1
 69
     1
1001
ACAD
1000
MVIEW
1002
{
1070
    16
1010
0.0
1020
0.0
1030
0.0
1010
0.0
1020
0.0
1030
1.0
1040
0.0
1040
8.9929997457669497
1040
5.2499996395561652
1040
3.9999998836066779
1040
50.0
1040
0.0
1040
0.0
1070
     0
1070
  1000
1070
     1
1070
     1
1070
     0
1070
     0
1070
     0
1070
     0
1040
0.0
1040
0.0
1040
0.0
1040
0.5
1040
0.5
1040
0.5
1040
0.5
1070
     0
1002
{
1002
}
1002
}
  0
VIEWPORT
  5
20E
 67
     1
  8
LAYER_1
 10
5.2499997615814209
 20
3.9999997615814209
 30
0.0
 40
8.3999996185302752
 41
6.3999996185302743
 68
     2
 69
     2
1001
ACAD
1000
MVIEW
1002
{
1070
    16
1010
0.0
1020
0.0
1030
0.0
1010
0.0
1020
0.0
1030
1.0
1040
0.0
1040
9.202549224290113
1040
6.0
1040
4.5
1040
50.0
1040
0.0
1040
0.0
1070
     0
1070
  1000
1070
     1
1070
     2
1070
     0
1070
     0
1070
     0
1070
     0
1040
0.0
1040
0.0
1040
0.0
1040
0.5
1040
0.5
1040
0.5
1040
0.5
1070
     0
1002
{
1002
}
1002
}
  0
ENDSEC
  0
EOF
