  0
SECTION
  2
HEADER
  9
$ACADVER
  1
AC1009
  9
$INSBASE
 10
0.0
 20
0.0
 30
0.0
  9
$EXTMIN
 10
1.0000000000000000E+020
 20
1.0000000000000000E+020
 30
1.0000000000000000E+020
  9
$EXTMAX
 10
-1.0000000000000000E+020
 20
-1.0000000000000000E+020
 30
-1.0000000000000000E+020
  9
$LIMMIN
 10
0.0
 20
0.0
  9
$LIMMAX
 10
12.0
 20
9.0
  9
$ORTHOMODE
 70
     0
  9
$REGENMODE
 70
     1
  9
$FILLMODE
 70
     1
  9
$QTEXTMODE
 70
     0
  9
$MIRRTEXT
 70
     0
  9
$DRAGMODE
 70
     2
  9
$LTSCALE
 40
1.0
  9
$OSMODE
 70
     0
  9
$ATTMODE
 70
     1
  9
$TEXTSIZE
 40
0.2
  9
$TRACEWID
 40
0.05
  9
$TEXTSTYLE
  7
Standard
  9
$CLAYER
  8
LAYER_1
  9
$CELTYPE
  6
BYLAYER
  9
$CECOLOR
 62
   256
  9
$DIMSCALE
 40
1.0
  9
$DIMASZ
 40
0.18
  9
$DIMEXO
 40
0.0625
  9
$DIMDLI
 40
0.38
  9
$DIMRND
 40
0.0
  9
$DIMDLE
 40
0.0
  9
$DIMEXE
 40
0.18
  9
$DIMTP
 40
0.0
  9
$DIMTM
 40
0.0
  9
$DIMTXT
 40
0.18
  9
$DIMCEN
 40
0.09
  9
$DIMTSZ
 40
0.0
  9
$DIMTOL
 70
     0
  9
$DIMLIM
 70
     0
  9
$DIMTIH
 70
     1
  9
$DIMTOH
 70
     1
  9
$DIMSE1
 70
     0
  9
$DIMSE2
 70
     0
  9
$DIMTAD
 70
     0
  9
$DIMZIN
 70
     0
  9
$DIMBLK
  1

  9
$DIMASO
 70
     1
  9
$DIMSHO
 70
     1
  9
$DIMPOST
  1

  9
$DIMAPOST
  1

  9
$DIMALT
 70
     0
  9
$DIMALTD
 70
     2
  9
$DIMALTF
 40
25.399999999999999
  9
$DIMLFAC
 40
1.0
  9
$DIMTOFL
 70
     0
  9
$DIMTVP
 40
0.0
  9
$DIMTIX
 70
     0
  9
$DIMSOXD
 70
     0
  9
$DIMSAH
 70
     0
  9
$DIMBLK1
  1

  9
$DIMBLK2
  1

  9
$DIMSTYLE
  2
STANDARD
  9
$DIMCLRD
 70
     0
  9
$DIMCLRE
 70
     0
  9
$DIMCLRT
 70
     0
  9
$DIMTFAC
 40
1.0
  9
$DIMGAP
 40
0.09
  9
$LUNITS
 70
     2
  9
$LUPREC
 70
     4
  9
$SKETCHINC
 40
0.1
  9
$FILLETRAD
 40
0.0
  9
$AUNITS
 70
     0
  9
$AUPREC
 70
     0
  9
$MENU
  1
.
  9
$ELEVATION
 40
0.0
  9
$PELEVATION
 40
0.0
  9
$THICKNESS
 40
0.0
  9
$LIMCHECK
 70
     0
  9
$BLIPMODE
 70
     0
  9
$CHAMFERA
 40
0.0
  9
$CHAMFERB
 40
0.0
  9
$SKPOLY
 70
     0
  9
$TDCREATE
 40
2456393.8727359502
  9
$TDUPDATE
 40
2456420.5745427432
  9
$TDINDWG
 40
0.0121120255
  9
$TDUSRTIMER
 40
0.0121120023
  9
$USRTIMER
 70
     1
  9
$ANGBASE
 50
0.0
  9
$ANGDIR
 70
     0
  9
$PDMODE
 70
     0
  9
$PDSIZE
 40
0.0
  9
$PLINEWID
 40
0.0
  9
$COORDS
 70
     0
  9
$SPLFRAME
 70
     0
  9
$SPLINETYPE
 70
     6
  9
$SPLINESEGS
 70
     8
  9
$ATTDIA
 70
     1
  9
$ATTREQ
 70
     1
  9
$HANDLING
 70
     1
  9
$HANDSEED
  5
5C2
  9
$SURFTAB1
 70
     6
  9
$SURFTAB2
 70
     6
  9
$SURFTYPE
 70
     6
  9
$SURFU
 70
     6
  9
$SURFV
 70
     6
  9
$UCSNAME
  2

  9
$UCSORG
 10
0.0
 20
0.0
 30
0.0
  9
$UCSXDIR
 10
1.0
 20
0.0
 30
0.0
  9
$UCSYDIR
 10
0.0
 20
1.0
 30
0.0
  9
$PUCSNAME
  2

  9
$PUCSORG
 10
0.0
 20
0.0
 30
0.0
  9
$PUCSXDIR
 10
1.0
 20
0.0
 30
0.0
  9
$PUCSYDIR
 10
0.0
 20
1.0
 30
0.0
  9
$USERI1
 70
     0
  9
$USERI2
 70
     0
  9
$USERI3
 70
     0
  9
$USERI4
 70
     0
  9
$USERI5
 70
     0
  9
$USERR1
 40
0.0
  9
$USERR2
 40
0.0
  9
$USERR3
 40
0.0
  9
$USERR4
 40
0.0
  9
$USERR5
 40
0.0
  9
$WORLDVIEW
 70
     1
  9
$SHADEDGE
 70
     3
  9
$SHADEDIF
 70
    70
  9
$TILEMODE
 70
     1
  9
$MAXACTVP
 70
    64
  9
$PLIMCHECK
 70
     0
  9
$PEXTMIN
 10
1.049999952316284
 20
0.7999999523162842
 30
0.0
  9
$PEXTMAX
 10
9.4499995708465594
 20
7.1999995708465576
 30
0.0
  9
$PLIMMIN
 10
-0.2500002402958907
 20
-0.2499999962453767
  9
$PLIMMAX
 10
10.74999951940822
 20
8.2499997634587334
  9
$UNITMODE
 70
     0
  9
$VISRETAIN
 70
     1
  9
$PLINEGEN
 70
     0
  9
$PSLTSCALE
 70
     1
  0
ENDSEC
  0
SECTION
  2
TABLES
  0
TABLE
  2
VPORT
 70
     1
  0
VPORT
  2
*ACTIVE
 70
     0
 10
0.0
 20
0.0
 11
1.0
 21
1.0
 12
23.348421554903009
 22
8.6802838350983347
 13
0.0
 23
0.0
 14
0.5
 24
0.5
 15
0.5
 25
0.5
 16
0.0
 26
0.0
 36
1.0
 17
0.0
 27
0.0
 37
0.0
 40
37.365623147774834
 41
2.1521298174442181
 42
50.0
 43
0.0
 44
0.0
 50
0.0
 51
0.0
 71
     0
 72
  1000
 73
     1
 74
     2
 75
     0
 76
     0
 77
     0
 78
     0
  0
ENDTAB
  0
TABLE
  2
LTYPE
 70
    10
  0
LTYPE
  2
CONTINUOUS
 70
     0
  3
Solid line
 72
    65
 73
     0
 40
0.0
  0
LTYPE
  2
PHANTOM2
 70
     0
  3
Phantom (.5x) ___ _ _ ___ _ _ ___ _ _ ___ _ _
 72
    65
 73
     6
 40
1.25
 49
0.625
 49
-0.125
 49
0.125
 49
-0.125
 49
0.125
 49
-0.125
  0
LTYPE
  2
CENTER1
 70
     0
  3
Center (.5x) ___ _ ___ _ ___ _ ___ _ ___ _ ___
 72
    65
 73
     4
 40
1.125
 49
0.75
 49
-0.125
 49
0.125
 49
-0.125
  0
LTYPE
  2
CENTER2
 70
     0
  3
Center (2x) ________  __  ________  __  _____
 72
    65
 73
     4
 40
4.0
 49
2.5
 49
-0.5
 49
0.5
 49
-0.5
  0
LTYPE
  2
DASHDOT1
 70
     0
  3
Dash dot (.5x) _._._._._._._._._._._._._._._.
 72
    65
 73
     4
 40
0.5
 49
0.25
 49
-0.125
 49
0.0
 49
-0.125
  0
LTYPE
  2
DASHDOT2
 70
     0
  3
Dash dot (2x) ____  .  ____  .  ____  .  ___
 72
    65
 73
     4
 40
2.0
 49
1.0
 49
-0.5
 49
0.0
 49
-0.5
  0
LTYPE
  2
DASHED1
 70
     0
  3
Dashed (.5x) _ _ _ _ _ _ _ _ _ _ _ _ _ _ _ _ _
 72
    65
 73
     2
 40
0.375
 49
0.25
 49
-0.125
  0
LTYPE
  2
DASHED2
 70
     0
  3
Dashed (2x) ____  ____  ____  ____  ____  ___
 72
    65
 73
     2
 40
1.5
 49
1.0
 49
-0.5
  0
LTYPE
  2
DOT1
 70
     0
  3
Dot (.5x) .....................................
 72
    65
 73
     2
 40
0.125
 49
0.0
 49
-0.125
  0
LTYPE
  2
DOT2
 70
     0
  3
Dot (2x) .  .  .  .  .  .  .  .  .  .  .  .  . 
 72
    65
 73
     2
 40
0.5
 49
0.0
 49
-0.5
  0
ENDTAB
  0
TABLE
  2
LAYER
 70
     4
  0
LAYER
  2
0
 70
     0
 62
     7
  6
CONTINUOUS
  0
LAYER
  2
LAYER_1
 70
     0
 62
     7
  6
CONTINUOUS
  0
ENDTAB
  0
TABLE
  2
STYLE
 70
     2
  0
STYLE
  2
Standard
 70
     0
 40
0.0
 41
1.0
 50
0.0
 71
     0
 42
0.2
  3
txt
  4

  0
STYLE
  2
STANDARD_360
 70
     0
 40
0.0
 41
1.0
 50
0.0
 71
     0
 42
0.2
  3
txt
  4

  0
ENDTAB
  0
TABLE
  2
VIEW
 70
     0
  0
ENDTAB
  0
TABLE
  2
UCS
 70
     0
  0
ENDTAB
  0
TABLE
  2
APPID
 70
    12
  0
APPID
  2
ACAD
 70
     0
  0
APPID
  2
ACADANNOPO
 70
     0
  0
APPID
  2
ACADANNOTATIVE
 70
     0
  0
APPID
  2
ACAD_DSTYLE_DIMJAG
 70
     0
  0
APPID
  2
ACAD_DSTYLE_DIMTALN
 70
     0
  0
APPID
  2
ACAD_MLEADERVER
 70
     0
  0
APPID
  2
ACAD_NAV_VCDISPLAY
 70
     0
  0
APPID
  2
ACAECLAYERSTANDARD
 70
     0
  0
APPID
  2
ACCMTRANSPARENCY
 70
     0
  0
APPID
  2
ACAD_EXEMPT_FROM_CAD_STANDARDS
 70
     0
  0
APPID
  2
ACAD_PSEXT
 70
     0
  0
APPID
  2
ADE_PROJECTION
 70
     0
  0
ENDTAB
  0
TABLE
  2
DIMSTYLE
 70
     2
  0
DIMSTYLE
  2
STANDARD
 70
     0
  3

  4

  5

  6

  7

 40
1.0
 41
0.18
 42
0.0625
 43
0.38
 44
0.18
 45
0.0
 46
0.0
 47
0.0
 48
0.0
140
0.18
141
0.09
142
0.0
143
25.399999999999999
144
1.0
145
0.0
146
1.0
147
0.09
 71
     0
 72
     0
 73
     1
 74
     1
 75
     0
 76
     0
 77
     0
 78
     0
170
     0
171
     2
172
     0
173
     0
174
     0
175
     0
176
     0
177
     0
178
     0
  0
DIMSTYLE
  2
STANDARD_360
 70
     0
  3

  4

  5

  6

  7

 40
1.0
 41
1.0
 42
0.0625
 43
0.38
 44
0.18
 45
0.0
 46
0.0
 47
0.0
 48
0.0
140
1.0
141
0.09
142
0.0
143
25.399999999999999
144
1.0
145
0.0
146
1.0
147
0.09
 71
     0
 72
     0
 73
     0
 74
     1
 75
     0
 76
     0
 77
     1
 78
     0
170
     0
171
     2
172
     0
173
     0
174
     0
175
     0
176
     0
177
     0
178
     0
  0
ENDTAB
  0
ENDSEC
  0
SECTION
  2
BLOCKS
  0
BLOCK
  8
0
  2
$MODEL_SPACE
 70
     0
 10
0.0
 20
0.0
 30
0.0
  3
$MODEL_SPACE
  1

  0
ENDBLK
  5
21
  8
0
  0
BLOCK
 67
     1
  8
0
  2
$PAPER_SPACE
 70
     0
 10
0.0
 20
0.0
 30
0.0
  3
$PAPER_SPACE
  1

  0
ENDBLK
  5
60
 67
     1
  8
0
  0
ENDSEC
  0
SECTION
  2
ENTITIES
  0
POLYLINE
  5
228
  8
LAYER_1
 62
   240
 66
     1
 10
0.0
 20
0.0
 30
0.0
 70
     1
  0
VERTEX
  5
289
  8
LAYER_1
 62
   240
 10
-46.957984575585812
 20
0.5642895254995093
 30
0.0
  0
VERTEX
  5
28A
  8
LAYER_1
 62
   240
 10
53.042015424414188
 20
0.5642895254995058
 30
0.0
  0
VERTEX
  5
28B
  8
LAYER_1
 62
   240
 10
53.042015424414181
 20
100.5642895254995
 30
0.0
  0
VERTEX
  5
28C
  8
LAYER_1
 62
   240
 10
-46.957984575585797
 20
100.5642895254995
 30
0.0
  0
SEQEND
  5
28D
  8
LAYER_1
 62
   240
  0
ARC
  5
22A
  8
LAYER_1
 10
15.572239147326171
 20
46.752273084028289
 30
0.0
 40
15.40581369775817
 50
207.92365310371019
 51
85.085977548807435
  0
POLYLINE
  5
22B
  8
LAYER_1
 66
     1
 10
0.0
 20
0.0
 30
0.0
  0
VERTEX
  5
28E
  8
LAYER_1
 10
2.7261355527756019
 20
39.387367962088291
 30
0.0
  0
VERTEX
  5
28F
  8
LAYER_1
 10
2.6565482033496148
 20
39.387367962088291
 30
0.0
  0
VERTEX
  5
290
  8
LAYER_1
 10
2.5869608539236282
 20
39.387367962088291
 30
0.0
  0
VERTEX
  5
291
  8
LAYER_1
 10
2.5173735044976548
 20
39.387367962088291
 30
0.0
  0
VERTEX
  5
292
  8
LAYER_1
 10
2.4477861550716682
 20
39.387367962088291
 30
0.0
  0
VERTEX
  5
293
  8
LAYER_1
 10
2.3781988056456949
 20
39.387367962088291
 30
0.0
  0
VERTEX
  5
294
  8
LAYER_1
 10
2.3086114562197082
 20
39.387367962088291
 30
0.0
  0
VERTEX
  5
295
  8
LAYER_1
 10
2.2390241067937349
 20
39.387367962088291
 30
0.0
  0
VERTEX
  5
296
  8
LAYER_1
 10
2.1694367573677482
 20
39.387367962088291
 30
0.0
  0
VERTEX
  5
297
  8
LAYER_1
 10
2.0998494079417611
 20
39.387367962088291
 30
0.0
  0
VERTEX
  5
298
  8
LAYER_1
 10
2.0302620585157878
 20
39.387367962088291
 30
0.0
  0
VERTEX
  5
299
  8
LAYER_1
 10
1.9606747090898009
 20
39.387367962088291
 30
0.0
  0
VERTEX
  5
29A
  8
LAYER_1
 10
1.9606747090898009
 20
39.317780612662311
 30
0.0
  0
VERTEX
  5
29B
  8
LAYER_1
 10
1.891087359663828
 20
39.317780612662311
 30
0.0
  0
VERTEX
  5
29C
  8
LAYER_1
 10
1.8215000102378409
 20
39.317780612662311
 30
0.0
  0
VERTEX
  5
29D
  8
LAYER_1
 10
1.751912660811854
 20
39.317780612662311
 30
0.0
  0
VERTEX
  5
29E
  8
LAYER_1
 10
1.751912660811854
 20
39.248193263236331
 30
0.0
  0
VERTEX
  5
29F
  8
LAYER_1
 10
1.6823253113858809
 20
39.248193263236331
 30
0.0
  0
VERTEX
  5
2A0
  8
LAYER_1
 10
1.6127379619598941
 20
39.248193263236331
 30
0.0
  0
VERTEX
  5
2A1
  8
LAYER_1
 10
1.5431506125339209
 20
39.248193263236331
 30
0.0
  0
VERTEX
  5
2A2
  8
LAYER_1
 10
1.5431506125339209
 20
39.178605913810337
 30
0.0
  0
VERTEX
  5
2A3
  8
LAYER_1
 10
1.4735632631079341
 20
39.178605913810337
 30
0.0
  0
VERTEX
  5
2A4
  8
LAYER_1
 10
1.4039759136819461
 20
39.178605913810337
 30
0.0
  0
VERTEX
  5
2A5
  8
LAYER_1
 10
1.4039759136819461
 20
39.109018564384371
 30
0.0
  0
VERTEX
  5
2A6
  8
LAYER_1
 10
1.3343885642559741
 20
39.109018564384371
 30
0.0
  0
VERTEX
  5
2A7
  8
LAYER_1
 10
1.2648012148299861
 20
39.109018564384371
 30
0.0
  0
VERTEX
  5
2A8
  8
LAYER_1
 10
1.1952138654040141
 20
39.039431214958391
 30
0.0
  0
VERTEX
  5
2A9
  8
LAYER_1
 10
1.1256265159780261
 20
39.039431214958391
 30
0.0
  0
VERTEX
  5
2AA
  8
LAYER_1
 10
1.1256265159780261
 20
38.969843865532411
 30
0.0
  0
VERTEX
  5
2AB
  8
LAYER_1
 10
1.0560391665520541
 20
38.969843865532411
 30
0.0
  0
VERTEX
  5
2AC
  8
LAYER_1
 10
0.9864518171260669
 20
38.969843865532411
 30
0.0
  0
VERTEX
  5
2AD
  8
LAYER_1
 10
0.9864518171260669
 20
38.900256516106417
 30
0.0
  0
VERTEX
  5
2AE
  8
LAYER_1
 10
0.916864467700087
 20
38.900256516106417
 30
0.0
  0
VERTEX
  5
2AF
  8
LAYER_1
 10
0.847277118274107
 20
38.900256516106417
 30
0.0
  0
VERTEX
  5
2B0
  8
LAYER_1
 10
0.7776897688481199
 20
38.900256516106417
 30
0.0
  0
VERTEX
  5
2B1
  8
LAYER_1
 10
0.7776897688481199
 20
38.830669166680437
 30
0.0
  0
VERTEX
  5
2B2
  8
LAYER_1
 10
0.70810241942214
 20
38.830669166680437
 30
0.0
  0
VERTEX
  5
2B3
  8
LAYER_1
 10
0.63851506999616
 20
38.830669166680437
 30
0.0
  0
VERTEX
  5
2B4
  8
LAYER_1
 10
0.63851506999616
 20
38.761081817254457
 30
0.0
  0
VERTEX
  5
2B5
  8
LAYER_1
 10
0.56892772057018
 20
38.761081817254457
 30
0.0
  0
VERTEX
  5
2B6
  8
LAYER_1
 10
0.4993403711442
 20
38.761081817254457
 30
0.0
  0
VERTEX
  5
2B7
  8
LAYER_1
 10
0.4993403711442
 20
38.691494467828477
 30
0.0
  0
VERTEX
  5
2B8
  8
LAYER_1
 10
0.42975302171822
 20
38.691494467828477
 30
0.0
  0
VERTEX
  5
2B9
  8
LAYER_1
 10
0.3601656722922328
 20
38.691494467828477
 30
0.0
  0
VERTEX
  5
2BA
  8
LAYER_1
 10
0.2905783228662528
 20
38.691494467828477
 30
0.0
  0
VERTEX
  5
2BB
  8
LAYER_1
 10
0.2209909734402728
 20
38.691494467828477
 30
0.0
  0
VERTEX
  5
2BC
  8
LAYER_1
 10
0.2209909734402728
 20
38.621907118402497
 30
0.0
  0
VERTEX
  5
2BD
  8
LAYER_1
 10
0.1514036240142929
 20
38.621907118402497
 30
0.0
  0
VERTEX
  5
2BE
  8
LAYER_1
 10
0.0818162745883129
 20
38.621907118402497
 30
0.0
  0
VERTEX
  5
2BF
  8
LAYER_1
 10
0.0122289251623258
 20
38.621907118402497
 30
0.0
  0
VERTEX
  5
2C0
  8
LAYER_1
 10
-0.0573584242636542
 20
38.621907118402497
 30
0.0
  0
VERTEX
  5
2C1
  8
LAYER_1
 10
-0.1269457736896342
 20
38.621907118402497
 30
0.0
  0
VERTEX
  5
2C2
  8
LAYER_1
 10
-0.1269457736896342
 20
38.552319768976517
 30
0.0
  0
VERTEX
  5
2C3
  8
LAYER_1
 10
-0.1965331231156142
 20
38.552319768976517
 30
0.0
  0
VERTEX
  5
2C4
  8
LAYER_1
 10
-0.1965331231156142
 20
38.482732419550537
 30
0.0
  0
VERTEX
  5
2C5
  8
LAYER_1
 10
-0.2661204725415942
 20
38.482732419550537
 30
0.0
  0
VERTEX
  5
2C6
  8
LAYER_1
 10
-0.3357078219675742
 20
38.482732419550537
 30
0.0
  0
VERTEX
  5
2C7
  8
LAYER_1
 10
-0.4052951713935613
 20
38.482732419550537
 30
0.0
  0
VERTEX
  5
2C8
  8
LAYER_1
 10
-0.4052951713935613
 20
38.41314507012455
 30
0.0
  0
VERTEX
  5
2C9
  8
LAYER_1
 10
-0.4748825208195413
 20
38.41314507012455
 30
0.0
  0
VERTEX
  5
2CA
  8
LAYER_1
 10
-0.5444698702455213
 20
38.41314507012455
 30
0.0
  0
VERTEX
  5
2CB
  8
LAYER_1
 10
-0.6140572196715013
 20
38.41314507012455
 30
0.0
  0
VERTEX
  5
2CC
  8
LAYER_1
 10
-0.6140572196715013
 20
38.34355772069857
 30
0.0
  0
VERTEX
  5
2CD
  8
LAYER_1
 10
-0.6836445690974813
 20
38.34355772069857
 30
0.0
  0
VERTEX
  5
2CE
  8
LAYER_1
 10
-0.6836445690974813
 20
38.27397037127259
 30
0.0
  0
VERTEX
  5
2CF
  8
LAYER_1
 10
-0.7532319185234613
 20
38.27397037127259
 30
0.0
  0
VERTEX
  5
2D0
  8
LAYER_1
 10
-0.8228192679494483
 20
38.27397037127259
 30
0.0
  0
VERTEX
  5
2D1
  8
LAYER_1
 10
-0.8924066173754283
 20
38.27397037127259
 30
0.0
  0
VERTEX
  5
2D2
  8
LAYER_1
 10
-0.8924066173754283
 20
38.20438302184661
 30
0.0
  0
VERTEX
  5
2D3
  8
LAYER_1
 10
-0.9619939668014083
 20
38.20438302184661
 30
0.0
  0
VERTEX
  5
2D4
  8
LAYER_1
 10
-1.0315813162273879
 20
38.20438302184661
 30
0.0
  0
VERTEX
  5
2D5
  8
LAYER_1
 10
-1.0315813162273879
 20
38.13479567242063
 30
0.0
  0
VERTEX
  5
2D6
  8
LAYER_1
 10
-1.1011686656533679
 20
38.13479567242063
 30
0.0
  0
VERTEX
  5
2D7
  8
LAYER_1
 10
-1.1707560150793479
 20
38.13479567242063
 30
0.0
  0
VERTEX
  5
2D8
  8
LAYER_1
 10
-1.240343364505335
 20
38.13479567242063
 30
0.0
  0
VERTEX
  5
2D9
  8
LAYER_1
 10
-1.240343364505335
 20
38.06520832299465
 30
0.0
  0
VERTEX
  5
2DA
  8
LAYER_1
 10
-1.309930713931315
 20
38.06520832299465
 30
0.0
  0
VERTEX
  5
2DB
  8
LAYER_1
 10
-1.379518063357295
 20
37.995620973568663
 30
0.0
  0
VERTEX
  5
2DC
  8
LAYER_1
 10
-1.449105412783275
 20
37.995620973568663
 30
0.0
  0
VERTEX
  5
2DD
  8
LAYER_1
 10
-1.518692762209255
 20
37.995620973568663
 30
0.0
  0
VERTEX
  5
2DE
  8
LAYER_1
 10
-1.5882801116352421
 20
37.995620973568663
 30
0.0
  0
VERTEX
  5
2DF
  8
LAYER_1
 10
-1.5882801116352421
 20
37.926033624142683
 30
0.0
  0
VERTEX
  5
2E0
  8
LAYER_1
 10
-1.6578674610612221
 20
37.926033624142683
 30
0.0
  0
VERTEX
  5
2E1
  8
LAYER_1
 10
-1.7274548104872021
 20
37.926033624142683
 30
0.0
  0
VERTEX
  5
2E2
  8
LAYER_1
 10
-1.7970421599131821
 20
37.926033624142683
 30
0.0
  0
VERTEX
  5
2E3
  8
LAYER_1
 10
-1.7970421599131821
 20
37.85644627471671
 30
0.0
  0
VERTEX
  5
2E4
  8
LAYER_1
 10
-1.8666295093391621
 20
37.85644627471671
 30
0.0
  0
VERTEX
  5
2E5
  8
LAYER_1
 10
-1.936216858765142
 20
37.85644627471671
 30
0.0
  0
VERTEX
  5
2E6
  8
LAYER_1
 10
-2.0058042081911291
 20
37.85644627471671
 30
0.0
  0
VERTEX
  5
2E7
  8
LAYER_1
 10
-2.0058042081911291
 20
37.786858925290723
 30
0.0
  0
VERTEX
  5
2E8
  8
LAYER_1
 10
-2.0753915576171091
 20
37.786858925290723
 30
0.0
  0
VERTEX
  5
2E9
  8
LAYER_1
 10
-2.1449789070430891
 20
37.786858925290723
 30
0.0
  0
VERTEX
  5
2EA
  8
LAYER_1
 10
-2.2145662564690691
 20
37.786858925290723
 30
0.0
  0
VERTEX
  5
2EB
  8
LAYER_1
 10
-2.2841536058950491
 20
37.786858925290723
 30
0.0
  0
VERTEX
  5
2EC
  8
LAYER_1
 10
-2.3537409553210291
 20
37.786858925290723
 30
0.0
  0
VERTEX
  5
2ED
  8
LAYER_1
 10
-2.4233283047470162
 20
37.786858925290723
 30
0.0
  0
VERTEX
  5
2EE
  8
LAYER_1
 10
-2.4929156541729962
 20
37.786858925290723
 30
0.0
  0
VERTEX
  5
2EF
  8
LAYER_1
 10
-2.5625030035989762
 20
37.786858925290723
 30
0.0
  0
VERTEX
  5
2F0
  8
LAYER_1
 10
-2.6320903530249562
 20
37.786858925290723
 30
0.0
  0
VERTEX
  5
2F1
  8
LAYER_1
 10
-2.6320903530249562
 20
37.717271575864743
 30
0.0
  0
VERTEX
  5
2F2
  8
LAYER_1
 10
-2.7016777024509362
 20
37.717271575864743
 30
0.0
  0
VERTEX
  5
2F3
  8
LAYER_1
 10
-2.7712650518769162
 20
37.717271575864743
 30
0.0
  0
VERTEX
  5
2F4
  8
LAYER_1
 10
-2.8408524013029028
 20
37.717271575864743
 30
0.0
  0
VERTEX
  5
2F5
  8
LAYER_1
 10
-2.9104397507288828
 20
37.717271575864743
 30
0.0
  0
VERTEX
  5
2F6
  8
LAYER_1
 10
-2.9800271001548628
 20
37.717271575864743
 30
0.0
  0
VERTEX
  5
2F7
  8
LAYER_1
 10
-3.0496144495808428
 20
37.717271575864743
 30
0.0
  0
VERTEX
  5
2F8
  8
LAYER_1
 10
-3.1192017990068228
 20
37.717271575864743
 30
0.0
  0
VERTEX
  5
2F9
  8
LAYER_1
 10
-3.1887891484328099
 20
37.717271575864743
 30
0.0
  0
VERTEX
  5
2FA
  8
LAYER_1
 10
-3.2583764978587899
 20
37.717271575864743
 30
0.0
  0
VERTEX
  5
2FB
  8
LAYER_1
 10
-3.3279638472847699
 20
37.717271575864743
 30
0.0
  0
VERTEX
  5
2FC
  8
LAYER_1
 10
-3.3975511967107499
 20
37.717271575864743
 30
0.0
  0
VERTEX
  5
2FD
  8
LAYER_1
 10
-3.4671385461367299
 20
37.717271575864743
 30
0.0
  0
VERTEX
  5
2FE
  8
LAYER_1
 10
-3.5367258955627099
 20
37.717271575864743
 30
0.0
  0
VERTEX
  5
2FF
  8
LAYER_1
 10
-3.606313244988697
 20
37.717271575864743
 30
0.0
  0
VERTEX
  5
300
  8
LAYER_1
 10
-3.675900594414677
 20
37.717271575864743
 30
0.0
  0
VERTEX
  5
301
  8
LAYER_1
 10
-3.745487943840657
 20
37.717271575864743
 30
0.0
  0
VERTEX
  5
302
  8
LAYER_1
 10
-3.815075293266637
 20
37.717271575864743
 30
0.0
  0
VERTEX
  5
303
  8
LAYER_1
 10
-3.884662642692617
 20
37.717271575864743
 30
0.0
  0
VERTEX
  5
304
  8
LAYER_1
 10
-3.954249992118597
 20
37.717271575864743
 30
0.0
  0
VERTEX
  5
305
  8
LAYER_1
 10
-4.0238373415445841
 20
37.717271575864743
 30
0.0
  0
VERTEX
  5
306
  8
LAYER_1
 10
-4.0934246909705641
 20
37.717271575864743
 30
0.0
  0
VERTEX
  5
307
  8
LAYER_1
 10
-4.163012040396544
 20
37.717271575864743
 30
0.0
  0
VERTEX
  5
308
  8
LAYER_1
 10
-4.232599389822524
 20
37.717271575864743
 30
0.0
  0
VERTEX
  5
309
  8
LAYER_1
 10
-4.302186739248504
 20
37.717271575864743
 30
0.0
  0
VERTEX
  5
30A
  8
LAYER_1
 10
-4.371774088674484
 20
37.717271575864743
 30
0.0
  0
VERTEX
  5
30B
  8
LAYER_1
 10
-4.441361438100472
 20
37.717271575864743
 30
0.0
  0
VERTEX
  5
30C
  8
LAYER_1
 10
-4.510948787526452
 20
37.717271575864743
 30
0.0
  0
VERTEX
  5
30D
  8
LAYER_1
 10
-4.580536136952432
 20
37.717271575864743
 30
0.0
  0
VERTEX
  5
30E
  8
LAYER_1
 10
-4.6501234863784111
 20
37.717271575864743
 30
0.0
  0
VERTEX
  5
30F
  8
LAYER_1
 10
-4.6501234863784111
 20
37.786858925290723
 30
0.0
  0
VERTEX
  5
310
  8
LAYER_1
 10
-4.7197108358043911
 20
37.786858925290723
 30
0.0
  0
VERTEX
  5
311
  8
LAYER_1
 10
-4.7892981852303791
 20
37.786858925290723
 30
0.0
  0
VERTEX
  5
312
  8
LAYER_1
 10
-4.8588855346563591
 20
37.786858925290723
 30
0.0
  0
VERTEX
  5
313
  8
LAYER_1
 10
-4.8588855346563591
 20
37.85644627471671
 30
0.0
  0
VERTEX
  5
314
  8
LAYER_1
 10
-4.9284728840823391
 20
37.85644627471671
 30
0.0
  0
VERTEX
  5
315
  8
LAYER_1
 10
-4.9980602335083191
 20
37.85644627471671
 30
0.0
  0
VERTEX
  5
316
  8
LAYER_1
 10
-5.0676475829342991
 20
37.85644627471671
 30
0.0
  0
VERTEX
  5
317
  8
LAYER_1
 10
-5.1372349323602791
 20
37.85644627471671
 30
0.0
  0
VERTEX
  5
318
  8
LAYER_1
 10
-5.2068222817862662
 20
37.926033624142683
 30
0.0
  0
VERTEX
  5
319
  8
LAYER_1
 10
-5.2764096312122462
 20
37.926033624142683
 30
0.0
  0
VERTEX
  5
31A
  8
LAYER_1
 10
-5.3459969806382261
 20
37.926033624142683
 30
0.0
  0
VERTEX
  5
31B
  8
LAYER_1
 10
-5.4155843300642061
 20
37.926033624142683
 30
0.0
  0
VERTEX
  5
31C
  8
LAYER_1
 10
-5.4851716794901861
 20
37.995620973568663
 30
0.0
  0
VERTEX
  5
31D
  8
LAYER_1
 10
-5.5547590289161661
 20
37.995620973568663
 30
0.0
  0
VERTEX
  5
31E
  8
LAYER_1
 10
-5.8331084266200932
 20
38.06520832299465
 30
0.0
  0
VERTEX
  5
31F
  8
LAYER_1
 10
-5.9026957760460732
 20
38.06520832299465
 30
0.0
  0
VERTEX
  5
320
  8
LAYER_1
 10
-5.9026957760460732
 20
38.13479567242063
 30
0.0
  0
VERTEX
  5
321
  8
LAYER_1
 10
-6.1114578243240203
 20
38.13479567242063
 30
0.0
  0
VERTEX
  5
322
  8
LAYER_1
 10
-6.1810451737500003
 20
38.13479567242063
 30
0.0
  0
VERTEX
  5
323
  8
LAYER_1
 10
-6.2506325231759803
 20
38.13479567242063
 30
0.0
  0
VERTEX
  5
324
  8
LAYER_1
 10
-6.2506325231759803
 20
38.20438302184661
 30
0.0
  0
VERTEX
  5
325
  8
LAYER_1
 10
-6.3898072220279474
 20
38.20438302184661
 30
0.0
  0
VERTEX
  5
326
  8
LAYER_1
 10
-6.3898072220279474
 20
38.27397037127259
 30
0.0
  0
VERTEX
  5
327
  8
LAYER_1
 10
-6.4593945714539274
 20
38.27397037127259
 30
0.0
  0
VERTEX
  5
328
  8
LAYER_1
 10
-6.5289819208799074
 20
38.34355772069857
 30
0.0
  0
VERTEX
  5
329
  8
LAYER_1
 10
-6.5985692703058874
 20
38.34355772069857
 30
0.0
  0
VERTEX
  5
32A
  8
LAYER_1
 10
-6.5985692703058874
 20
38.41314507012455
 30
0.0
  0
VERTEX
  5
32B
  8
LAYER_1
 10
-6.6681566197318674
 20
38.41314507012455
 30
0.0
  0
VERTEX
  5
32C
  8
LAYER_1
 10
-6.7377439691578473
 20
38.41314507012455
 30
0.0
  0
VERTEX
  5
32D
  8
LAYER_1
 10
-6.7377439691578473
 20
38.482732419550537
 30
0.0
  0
VERTEX
  5
32E
  8
LAYER_1
 10
-6.8073313185838336
 20
38.482732419550537
 30
0.0
  0
VERTEX
  5
32F
  8
LAYER_1
 10
-6.8073313185838336
 20
38.552319768976517
 30
0.0
  0
VERTEX
  5
330
  8
LAYER_1
 10
-6.8769186680098144
 20
38.552319768976517
 30
0.0
  0
VERTEX
  5
331
  8
LAYER_1
 10
-6.8769186680098144
 20
38.621907118402497
 30
0.0
  0
VERTEX
  5
332
  8
LAYER_1
 10
-6.9465060174357944
 20
38.621907118402497
 30
0.0
  0
VERTEX
  5
333
  8
LAYER_1
 10
-7.0160933668617744
 20
38.621907118402497
 30
0.0
  0
VERTEX
  5
334
  8
LAYER_1
 10
-7.0160933668617744
 20
38.691494467828477
 30
0.0
  0
VERTEX
  5
335
  8
LAYER_1
 10
-7.0856807162877544
 20
38.691494467828477
 30
0.0
  0
VERTEX
  5
336
  8
LAYER_1
 10
-7.1552680657137344
 20
38.761081817254457
 30
0.0
  0
VERTEX
  5
337
  8
LAYER_1
 10
-7.2248554151397206
 20
38.761081817254457
 30
0.0
  0
VERTEX
  5
338
  8
LAYER_1
 10
-7.2248554151397206
 20
38.830669166680437
 30
0.0
  0
VERTEX
  5
339
  8
LAYER_1
 10
-7.2944427645657006
 20
38.830669166680437
 30
0.0
  0
VERTEX
  5
33A
  8
LAYER_1
 10
-7.2944427645657006
 20
38.900256516106417
 30
0.0
  0
VERTEX
  5
33B
  8
LAYER_1
 10
-7.3640301139916806
 20
38.900256516106417
 30
0.0
  0
VERTEX
  5
33C
  8
LAYER_1
 10
-7.3640301139916806
 20
38.969843865532411
 30
0.0
  0
VERTEX
  5
33D
  8
LAYER_1
 10
-7.4336174634176606
 20
39.039431214958391
 30
0.0
  0
VERTEX
  5
33E
  8
LAYER_1
 10
-7.5032048128436406
 20
39.039431214958391
 30
0.0
  0
VERTEX
  5
33F
  8
LAYER_1
 10
-7.5032048128436406
 20
39.109018564384371
 30
0.0
  0
VERTEX
  5
340
  8
LAYER_1
 10
-7.5727921622696206
 20
39.109018564384371
 30
0.0
  0
VERTEX
  5
341
  8
LAYER_1
 10
-7.5727921622696206
 20
39.178605913810337
 30
0.0
  0
VERTEX
  5
342
  8
LAYER_1
 10
-7.5727921622696206
 20
39.248193263236331
 30
0.0
  0
VERTEX
  5
343
  8
LAYER_1
 10
-7.6423795116956077
 20
39.248193263236331
 30
0.0
  0
VERTEX
  5
344
  8
LAYER_1
 10
-7.6423795116956077
 20
39.317780612662311
 30
0.0
  0
VERTEX
  5
345
  8
LAYER_1
 10
-7.7119668611215877
 20
39.387367962088291
 30
0.0
  0
VERTEX
  5
346
  8
LAYER_1
 10
-7.7815542105475677
 20
39.387367962088291
 30
0.0
  0
VERTEX
  5
347
  8
LAYER_1
 10
-7.7815542105475677
 20
39.456955311514271
 30
0.0
  0
VERTEX
  5
348
  8
LAYER_1
 10
-7.7815542105475677
 20
39.526542660940251
 30
0.0
  0
VERTEX
  5
349
  8
LAYER_1
 10
-7.8511415599735477
 20
39.526542660940251
 30
0.0
  0
VERTEX
  5
34A
  8
LAYER_1
 10
-7.8511415599735477
 20
39.596130010366231
 30
0.0
  0
VERTEX
  5
34B
  8
LAYER_1
 10
-7.8511415599735477
 20
39.665717359792218
 30
0.0
  0
VERTEX
  5
34C
  8
LAYER_1
 10
-7.9207289093995277
 20
39.665717359792218
 30
0.0
  0
VERTEX
  5
34D
  8
LAYER_1
 10
-7.9207289093995277
 20
39.735304709218198
 30
0.0
  0
VERTEX
  5
34E
  8
LAYER_1
 10
-7.9903162588255148
 20
39.804892058644178
 30
0.0
  0
VERTEX
  5
34F
  8
LAYER_1
 10
-7.9903162588255148
 20
39.874479408070158
 30
0.0
  0
VERTEX
  5
350
  8
LAYER_1
 10
-8.0599036082514957
 20
39.944066757496138
 30
0.0
  0
VERTEX
  5
351
  8
LAYER_1
 10
-8.0599036082514957
 20
40.013654106922111
 30
0.0
  0
VERTEX
  5
352
  8
LAYER_1
 10
-8.0599036082514957
 20
40.083241456348098
 30
0.0
  0
VERTEX
  5
353
  8
LAYER_1
 10
-8.1294909576774756
 20
40.083241456348098
 30
0.0
  0
VERTEX
  5
354
  8
LAYER_1
 10
-8.1294909576774756
 20
40.152828805774078
 30
0.0
  0
VERTEX
  5
355
  8
LAYER_1
 10
-8.1990783071034556
 20
40.152828805774078
 30
0.0
  0
VERTEX
  5
356
  8
LAYER_1
 10
-8.1990783071034556
 20
40.222416155200058
 30
0.0
  0
VERTEX
  5
357
  8
LAYER_1
 10
-8.1990783071034556
 20
40.292003504626052
 30
0.0
  0
VERTEX
  5
358
  8
LAYER_1
 10
-8.2686656565294356
 20
40.292003504626052
 30
0.0
  0
VERTEX
  5
359
  8
LAYER_1
 10
-8.2686656565294356
 20
40.361590854052018
 30
0.0
  0
VERTEX
  5
35A
  8
LAYER_1
 10
-8.2686656565294356
 20
40.431178203477998
 30
0.0
  0
VERTEX
  5
35B
  8
LAYER_1
 10
-8.3382530059554156
 20
40.431178203477998
 30
0.0
  0
VERTEX
  5
35C
  8
LAYER_1
 10
-8.3382530059554156
 20
40.500765552903992
 30
0.0
  0
VERTEX
  5
35D
  8
LAYER_1
 10
-8.3382530059554156
 20
40.570352902329972
 30
0.0
  0
VERTEX
  5
35E
  8
LAYER_1
 10
-8.4078403553814027
 20
40.570352902329972
 30
0.0
  0
VERTEX
  5
35F
  8
LAYER_1
 10
-8.4078403553814027
 20
40.639940251755952
 30
0.0
  0
VERTEX
  5
360
  8
LAYER_1
 10
-8.4774277048073827
 20
40.639940251755952
 30
0.0
  0
VERTEX
  5
361
  8
LAYER_1
 10
-8.4774277048073827
 20
40.709527601181932
 30
0.0
  0
VERTEX
  5
362
  8
LAYER_1
 10
-8.4774277048073827
 20
40.779114950607912
 30
0.0
  0
VERTEX
  5
363
  8
LAYER_1
 10
-8.5470150542333627
 20
40.779114950607912
 30
0.0
  0
VERTEX
  5
364
  8
LAYER_1
 10
-8.5470150542333627
 20
40.848702300033899
 30
0.0
  0
VERTEX
  5
365
  8
LAYER_1
 10
-8.5470150542333627
 20
40.918289649459879
 30
0.0
  0
VERTEX
  5
366
  8
LAYER_1
 10
-8.6166024036593427
 20
40.918289649459879
 30
0.0
  0
VERTEX
  5
367
  8
LAYER_1
 10
-8.6166024036593427
 20
40.987876998885852
 30
0.0
  0
VERTEX
  5
368
  8
LAYER_1
 10
-8.6166024036593427
 20
41.057464348311839
 30
0.0
  0
VERTEX
  5
369
  8
LAYER_1
 10
-8.6861897530853227
 20
41.057464348311839
 30
0.0
  0
VERTEX
  5
36A
  8
LAYER_1
 10
-8.6861897530853227
 20
41.127051697737812
 30
0.0
  0
VERTEX
  5
36B
  8
LAYER_1
 10
-8.7557771025113027
 20
41.127051697737812
 30
0.0
  0
VERTEX
  5
36C
  8
LAYER_1
 10
-8.7557771025113027
 20
41.196639047163799
 30
0.0
  0
VERTEX
  5
36D
  8
LAYER_1
 10
-8.7557771025113027
 20
41.266226396589779
 30
0.0
  0
VERTEX
  5
36E
  8
LAYER_1
 10
-8.8253644519372898
 20
41.335813746015752
 30
0.0
  0
VERTEX
  5
36F
  8
LAYER_1
 10
-8.8253644519372898
 20
41.405401095441754
 30
0.0
  0
VERTEX
  5
370
  8
LAYER_1
 10
-8.8949518013632698
 20
41.474988444867719
 30
0.0
  0
VERTEX
  5
371
  8
LAYER_1
 10
-8.8949518013632698
 20
41.544575794293699
 30
0.0
  0
VERTEX
  5
372
  8
LAYER_1
 10
-8.9645391507892498
 20
41.544575794293699
 30
0.0
  0
VERTEX
  5
373
  8
LAYER_1
 10
-8.9645391507892498
 20
41.614163143719693
 30
0.0
  0
VERTEX
  5
374
  8
LAYER_1
 10
-8.9645391507892498
 20
41.683750493145659
 30
0.0
  0
VERTEX
  5
375
  8
LAYER_1
 10
-8.9645391507892498
 20
41.753337842571653
 30
0.0
  0
VERTEX
  5
376
  8
LAYER_1
 10
-9.0341265002152298
 20
41.753337842571653
 30
0.0
  0
VERTEX
  5
377
  8
LAYER_1
 10
-9.0341265002152298
 20
41.822925191997633
 30
0.0
  0
VERTEX
  5
378
  8
LAYER_1
 10
-9.0341265002152298
 20
41.892512541423613
 30
0.0
  0
VERTEX
  5
379
  8
LAYER_1
 10
-9.0341265002152298
 20
41.962099890849601
 30
0.0
  0
VERTEX
  5
37A
  8
LAYER_1
 10
-9.0341265002152298
 20
42.031687240275573
 30
0.0
  0
VERTEX
  5
37B
  8
LAYER_1
 10
-9.1037138496412098
 20
42.101274589701561
 30
0.0
  0
VERTEX
  5
37C
  8
LAYER_1
 10
-9.1037138496412098
 20
42.170861939127541
 30
0.0
  0
VERTEX
  5
37D
  8
LAYER_1
 10
-9.1037138496412098
 20
42.240449288553513
 30
0.0
  0
VERTEX
  5
37E
  8
LAYER_1
 10
-9.1037138496412098
 20
42.310036637979501
 30
0.0
  0
VERTEX
  5
37F
  8
LAYER_1
 10
-9.1037138496412098
 20
42.379623987405481
 30
0.0
  0
VERTEX
  5
380
  8
LAYER_1
 10
-9.1733011990671898
 20
42.379623987405481
 30
0.0
  0
VERTEX
  5
381
  8
LAYER_1
 10
-9.1733011990671898
 20
42.449211336831461
 30
0.0
  0
VERTEX
  5
382
  8
LAYER_1
 10
-9.1733011990671898
 20
42.518798686257441
 30
0.0
  0
VERTEX
  5
383
  8
LAYER_1
 10
-9.1733011990671898
 20
42.588386035683421
 30
0.0
  0
VERTEX
  5
384
  8
LAYER_1
 10
-9.2428885484931769
 20
42.657973385109408
 30
0.0
  0
VERTEX
  5
385
  8
LAYER_1
 10
-9.2428885484931769
 20
42.727560734535381
 30
0.0
  0
VERTEX
  5
386
  8
LAYER_1
 10
-9.2428885484931769
 20
42.797148083961368
 30
0.0
  0
VERTEX
  5
387
  8
LAYER_1
 10
-9.2428885484931769
 20
42.866735433387348
 30
0.0
  0
VERTEX
  5
388
  8
LAYER_1
 10
-9.2428885484931769
 20
42.936322782813328
 30
0.0
  0
VERTEX
  5
389
  8
LAYER_1
 10
-9.3124758979191569
 20
43.005910132239322
 30
0.0
  0
VERTEX
  5
38A
  8
LAYER_1
 10
-9.3124758979191569
 20
43.075497481665288
 30
0.0
  0
VERTEX
  5
38B
  8
LAYER_1
 10
-9.3124758979191569
 20
43.145084831091282
 30
0.0
  0
VERTEX
  5
38C
  8
LAYER_1
 10
-9.3124758979191569
 20
43.214672180517248
 30
0.0
  0
VERTEX
  5
38D
  8
LAYER_1
 10
-9.3124758979191569
 20
43.284259529943242
 30
0.0
  0
VERTEX
  5
38E
  8
LAYER_1
 10
-9.3820632473451369
 20
43.284259529943242
 30
0.0
  0
VERTEX
  5
38F
  8
LAYER_1
 10
-9.3820632473451369
 20
43.353846879369208
 30
0.0
  0
VERTEX
  5
390
  8
LAYER_1
 10
-9.3820632473451369
 20
43.423434228795202
 30
0.0
  0
VERTEX
  5
391
  8
LAYER_1
 10
-9.3820632473451369
 20
43.493021578221182
 30
0.0
  0
VERTEX
  5
392
  8
LAYER_1
 10
-9.4516505967711169
 20
43.493021578221182
 30
0.0
  0
VERTEX
  5
393
  8
LAYER_1
 10
-9.4516505967711169
 20
43.562608927647162
 30
0.0
  0
VERTEX
  5
394
  8
LAYER_1
 10
-9.4516505967711169
 20
43.632196277073149
 30
0.0
  0
VERTEX
  5
395
  8
LAYER_1
 10
-9.4516505967711169
 20
43.701783626499108
 30
0.0
  0
VERTEX
  5
396
  8
LAYER_1
 10
-9.4516505967711169
 20
43.771370975925109
 30
0.0
  0
VERTEX
  5
397
  8
LAYER_1
 10
-9.4516505967711169
 20
43.840958325351082
 30
0.0
  0
VERTEX
  5
398
  8
LAYER_1
 10
-9.4516505967711169
 20
43.910545674777069
 30
0.0
  0
VERTEX
  5
399
  8
LAYER_1
 10
-9.4516505967711169
 20
43.980133024203049
 30
0.0
  0
VERTEX
  5
39A
  8
LAYER_1
 10
-9.5212379461970968
 20
43.980133024203049
 30
0.0
  0
VERTEX
  5
39B
  8
LAYER_1
 10
-9.5212379461970968
 20
44.049720373629022
 30
0.0
  0
VERTEX
  5
39C
  8
LAYER_1
 10
-9.5212379461970968
 20
44.119307723055023
 30
0.0
  0
VERTEX
  5
39D
  8
LAYER_1
 10
-9.5212379461970968
 20
44.188895072480989
 30
0.0
  0
VERTEX
  5
39E
  8
LAYER_1
 10
-9.5212379461970968
 20
44.258482421906969
 30
0.0
  0
VERTEX
  5
39F
  8
LAYER_1
 10
-9.5212379461970968
 20
44.328069771332949
 30
0.0
  0
VERTEX
  5
3A0
  8
LAYER_1
 10
-9.5212379461970968
 20
44.397657120758929
 30
0.0
  0
VERTEX
  5
3A1
  8
LAYER_1
 10
-9.5212379461970968
 20
44.467244470184923
 30
0.0
  0
VERTEX
  5
3A2
  8
LAYER_1
 10
-9.5908252956230768
 20
44.536831819610889
 30
0.0
  0
VERTEX
  5
3A3
  8
LAYER_1
 10
-9.5908252956230768
 20
44.606419169036883
 30
0.0
  0
VERTEX
  5
3A4
  8
LAYER_1
 10
-9.5908252956230768
 20
44.676006518462863
 30
0.0
  0
VERTEX
  5
3A5
  8
LAYER_1
 10
-9.5908252956230768
 20
44.745593867888843
 30
0.0
  0
VERTEX
  5
3A6
  8
LAYER_1
 10
-9.5908252956230768
 20
44.81518121731483
 30
0.0
  0
VERTEX
  5
3A7
  8
LAYER_1
 10
-9.5908252956230768
 20
44.884768566740803
 30
0.0
  0
VERTEX
  5
3A8
  8
LAYER_1
 10
-9.5908252956230768
 20
44.954355916166783
 30
0.0
  0
VERTEX
  5
3A9
  8
LAYER_1
 10
-9.6604126450490622
 20
44.954355916166783
 30
0.0
  0
VERTEX
  5
3AA
  8
LAYER_1
 10
-9.6604126450490622
 20
45.02394326559277
 30
0.0
  0
VERTEX
  5
3AB
  8
LAYER_1
 10
-9.6604126450490622
 20
45.09353061501875
 30
0.0
  0
VERTEX
  5
3AC
  8
LAYER_1
 10
-9.7299999944750422
 20
45.16311796444473
 30
0.0
  0
VERTEX
  5
3AD
  8
LAYER_1
 10
-9.7299999944750422
 20
45.23270531387071
 30
0.0
  0
VERTEX
  5
3AE
  8
LAYER_1
 10
-9.7299999944750422
 20
45.371880012722677
 30
0.0
  0
VERTEX
  5
3AF
  8
LAYER_1
 10
-9.7299999944750422
 20
45.44146736214865
 30
0.0
  0
VERTEX
  5
3B0
  8
LAYER_1
 10
-9.7299999944750422
 20
45.51105471157463
 30
0.0
  0
VERTEX
  5
3B1
  8
LAYER_1
 10
-9.7299999944750422
 20
45.580642061000617
 30
0.0
  0
VERTEX
  5
3B2
  8
LAYER_1
 10
-9.7995873439010222
 20
45.580642061000617
 30
0.0
  0
VERTEX
  5
3B3
  8
LAYER_1
 10
-9.7995873439010222
 20
45.650229410426597
 30
0.0
  0
VERTEX
  5
3B4
  8
LAYER_1
 10
-9.7995873439010222
 20
45.719816759852577
 30
0.0
  0
VERTEX
  5
3B5
  8
LAYER_1
 10
-9.7995873439010222
 20
45.789404109278557
 30
0.0
  0
VERTEX
  5
3B6
  8
LAYER_1
 10
-9.7995873439010222
 20
45.858991458704537
 30
0.0
  0
VERTEX
  5
3B7
  8
LAYER_1
 10
-9.7995873439010222
 20
45.928578808130517
 30
0.0
  0
VERTEX
  5
3B8
  8
LAYER_1
 10
-9.7995873439010222
 20
45.998166157556511
 30
0.0
  0
VERTEX
  5
3B9
  8
LAYER_1
 10
-9.7995873439010222
 20
46.067753506982477
 30
0.0
  0
VERTEX
  5
3BA
  8
LAYER_1
 10
-9.7995873439010222
 20
46.137340856408471
 30
0.0
  0
VERTEX
  5
3BB
  8
LAYER_1
 10
-9.7995873439010222
 20
46.206928205834451
 30
0.0
  0
VERTEX
  5
3BC
  8
LAYER_1
 10
-9.8691746933270021
 20
46.206928205834451
 30
0.0
  0
VERTEX
  5
3BD
  8
LAYER_1
 10
-9.8691746933270021
 20
46.276515555260431
 30
0.0
  0
VERTEX
  5
3BE
  8
LAYER_1
 10
-9.8691746933270021
 20
46.346102904686411
 30
0.0
  0
VERTEX
  5
3BF
  8
LAYER_1
 10
-9.8691746933270021
 20
46.415690254112377
 30
0.0
  0
VERTEX
  5
3C0
  8
LAYER_1
 10
-9.9387620427529821
 20
46.485277603538378
 30
0.0
  0
VERTEX
  5
3C1
  8
LAYER_1
 10
-9.9387620427529821
 20
46.554864952964351
 30
0.0
  0
VERTEX
  5
3C2
  8
LAYER_1
 10
-9.9387620427529821
 20
46.833214350668293
 30
0.0
  0
VERTEX
  5
3C3
  8
LAYER_1
 10
-9.9387620427529821
 20
46.902801700094251
 30
0.0
  0
VERTEX
  5
3C4
  8
LAYER_1
 10
-10.008349392178969
 20
46.902801700094251
 30
0.0
  0
VERTEX
  5
3C5
  8
LAYER_1
 10
-10.008349392178969
 20
46.972389049520238
 30
0.0
  0
VERTEX
  5
3C6
  8
LAYER_1
 10
-10.008349392178969
 20
47.041976398946218
 30
0.0
  0
VERTEX
  5
3C7
  8
LAYER_1
 10
-10.008349392178969
 20
47.111563748372198
 30
0.0
  0
VERTEX
  5
3C8
  8
LAYER_1
 10
-10.008349392178969
 20
47.181151097798192
 30
0.0
  0
VERTEX
  5
3C9
  8
LAYER_1
 10
-10.077936741604949
 20
47.181151097798192
 30
0.0
  0
VERTEX
  5
3CA
  8
LAYER_1
 10
-10.077936741604949
 20
47.250738447224158
 30
0.0
  0
VERTEX
  5
3CB
  8
LAYER_1
 10
-10.077936741604949
 20
47.320325796650152
 30
0.0
  0
VERTEX
  5
3CC
  8
LAYER_1
 10
-10.077936741604949
 20
47.389913146076132
 30
0.0
  0
VERTEX
  5
3CD
  8
LAYER_1
 10
-10.077936741604949
 20
47.459500495502112
 30
0.0
  0
VERTEX
  5
3CE
  8
LAYER_1
 10
-10.077936741604949
 20
47.529087844928092
 30
0.0
  0
VERTEX
  5
3CF
  8
LAYER_1
 10
-10.147524091030929
 20
47.529087844928092
 30
0.0
  0
VERTEX
  5
3D0
  8
LAYER_1
 10
-10.147524091030929
 20
47.598675194354072
 30
0.0
  0
VERTEX
  5
3D1
  8
LAYER_1
 10
-10.147524091030929
 20
47.668262543780052
 30
0.0
  0
VERTEX
  5
3D2
  8
LAYER_1
 10
-10.217111440456909
 20
47.668262543780052
 30
0.0
  0
VERTEX
  5
3D3
  8
LAYER_1
 10
-10.217111440456909
 20
47.737849893206032
 30
0.0
  0
VERTEX
  5
3D4
  8
LAYER_1
 10
-10.217111440456909
 20
47.80743724263202
 30
0.0
  0
VERTEX
  5
3D5
  8
LAYER_1
 10
-10.217111440456909
 20
47.877024592057992
 30
0.0
  0
VERTEX
  5
3D6
  8
LAYER_1
 10
-10.217111440456909
 20
47.94661194148398
 30
0.0
  0
VERTEX
  5
3D7
  8
LAYER_1
 10
-10.286698789882889
 20
47.94661194148398
 30
0.0
  0
VERTEX
  5
3D8
  8
LAYER_1
 10
-10.286698789882889
 20
48.01619929090996
 30
0.0
  0
VERTEX
  5
3D9
  8
LAYER_1
 10
-10.286698789882889
 20
48.08578664033594
 30
0.0
  0
VERTEX
  5
3DA
  8
LAYER_1
 10
-10.286698789882889
 20
48.155373989761927
 30
0.0
  0
VERTEX
  5
3DB
  8
LAYER_1
 10
-10.286698789882889
 20
48.2249613391879
 30
0.0
  0
VERTEX
  5
3DC
  8
LAYER_1
 10
-10.356286139308869
 20
48.2249613391879
 30
0.0
  0
VERTEX
  5
3DD
  8
LAYER_1
 10
-10.356286139308869
 20
48.294548688613887
 30
0.0
  0
VERTEX
  5
3DE
  8
LAYER_1
 10
-10.356286139308869
 20
48.364136038039867
 30
0.0
  0
VERTEX
  5
3DF
  8
LAYER_1
 10
-10.42587348873486
 20
48.364136038039867
 30
0.0
  0
VERTEX
  5
3E0
  8
LAYER_1
 10
-10.42587348873486
 20
48.433723387465847
 30
0.0
  0
VERTEX
  5
3E1
  8
LAYER_1
 10
-10.42587348873486
 20
48.503310736891827
 30
0.0
  0
VERTEX
  5
3E2
  8
LAYER_1
 10
-10.49546083816084
 20
48.503310736891827
 30
0.0
  0
VERTEX
  5
3E3
  8
LAYER_1
 10
-10.49546083816084
 20
48.572898086317807
 30
0.0
  0
VERTEX
  5
3E4
  8
LAYER_1
 10
-10.49546083816084
 20
48.642485435743801
 30
0.0
  0
VERTEX
  5
3E5
  8
LAYER_1
 10
-10.49546083816084
 20
48.712072785169767
 30
0.0
  0
VERTEX
  5
3E6
  8
LAYER_1
 10
-10.56504818758682
 20
48.712072785169767
 30
0.0
  0
VERTEX
  5
3E7
  8
LAYER_1
 10
-10.56504818758682
 20
48.781660134595747
 30
0.0
  0
VERTEX
  5
3E8
  8
LAYER_1
 10
-10.56504818758682
 20
48.851247484021741
 30
0.0
  0
VERTEX
  5
3E9
  8
LAYER_1
 10
-10.634635537012789
 20
48.920834833447707
 30
0.0
  0
VERTEX
  5
3EA
  8
LAYER_1
 10
-10.634635537012789
 20
48.990422182873701
 30
0.0
  0
VERTEX
  5
3EB
  8
LAYER_1
 10
-10.70422288643878
 20
48.990422182873701
 30
0.0
  0
VERTEX
  5
3EC
  8
LAYER_1
 10
-10.70422288643878
 20
49.060009532299681
 30
0.0
  0
VERTEX
  5
3ED
  8
LAYER_1
 10
-10.70422288643878
 20
49.129596881725661
 30
0.0
  0
VERTEX
  5
3EE
  8
LAYER_1
 10
-10.77381023586476
 20
49.129596881725661
 30
0.0
  0
VERTEX
  5
3EF
  8
LAYER_1
 10
-10.77381023586476
 20
49.199184231151648
 30
0.0
  0
VERTEX
  5
3F0
  8
LAYER_1
 10
-10.77381023586476
 20
49.268771580577621
 30
0.0
  0
VERTEX
  5
3F1
  8
LAYER_1
 10
-10.84339758529074
 20
49.268771580577621
 30
0.0
  0
VERTEX
  5
3F2
  8
LAYER_1
 10
-10.84339758529074
 20
49.338358930003601
 30
0.0
  0
VERTEX
  5
3F3
  8
LAYER_1
 10
-10.91298493471672
 20
49.407946279429588
 30
0.0
  0
VERTEX
  5
3F4
  8
LAYER_1
 10
-10.91298493471672
 20
49.477533628855561
 30
0.0
  0
VERTEX
  5
3F5
  8
LAYER_1
 10
-10.9825722841427
 20
49.477533628855561
 30
0.0
  0
VERTEX
  5
3F6
  8
LAYER_1
 10
-10.9825722841427
 20
49.547120978281548
 30
0.0
  0
VERTEX
  5
3F7
  8
LAYER_1
 10
-10.9825722841427
 20
49.616708327707528
 30
0.0
  0
VERTEX
  5
3F8
  8
LAYER_1
 10
-11.05215963356868
 20
49.686295677133508
 30
0.0
  0
VERTEX
  5
3F9
  8
LAYER_1
 10
-11.05215963356868
 20
49.755883026559502
 30
0.0
  0
VERTEX
  5
3FA
  8
LAYER_1
 10
-11.12174698299466
 20
49.755883026559502
 30
0.0
  0
VERTEX
  5
3FB
  8
LAYER_1
 10
-11.19133433242064
 20
49.895057725411462
 30
0.0
  0
VERTEX
  5
3FC
  8
LAYER_1
 10
-11.26092168184663
 20
49.964645074837428
 30
0.0
  0
VERTEX
  5
3FD
  8
LAYER_1
 10
-11.26092168184663
 20
50.034232424263422
 30
0.0
  0
VERTEX
  5
3FE
  8
LAYER_1
 10
-11.33050903127261
 20
50.034232424263422
 30
0.0
  0
VERTEX
  5
3FF
  8
LAYER_1
 10
-11.33050903127261
 20
50.103819773689402
 30
0.0
  0
VERTEX
  5
400
  8
LAYER_1
 10
-11.40009638069859
 20
50.103819773689402
 30
0.0
  0
VERTEX
  5
401
  8
LAYER_1
 10
-11.40009638069859
 20
50.173407123115382
 30
0.0
  0
VERTEX
  5
402
  8
LAYER_1
 10
-11.46968373012457
 20
50.173407123115382
 30
0.0
  0
VERTEX
  5
403
  8
LAYER_1
 10
-11.46968373012457
 20
50.242994472541362
 30
0.0
  0
VERTEX
  5
404
  8
LAYER_1
 10
-11.53927107955055
 20
50.242994472541362
 30
0.0
  0
VERTEX
  5
405
  8
LAYER_1
 10
-11.53927107955055
 20
50.312581821967342
 30
0.0
  0
VERTEX
  5
406
  8
LAYER_1
 10
-11.53927107955055
 20
50.382169171393329
 30
0.0
  0
VERTEX
  5
407
  8
LAYER_1
 10
-11.608858428976539
 20
50.382169171393329
 30
0.0
  0
VERTEX
  5
408
  8
LAYER_1
 10
-11.678445778402519
 20
50.382169171393329
 30
0.0
  0
VERTEX
  5
409
  8
LAYER_1
 10
-11.678445778402519
 20
50.451756520819302
 30
0.0
  0
VERTEX
  5
40A
  8
LAYER_1
 10
-11.748033127828499
 20
50.521343870245289
 30
0.0
  0
VERTEX
  5
40B
  8
LAYER_1
 10
-11.748033127828499
 20
50.590931219671262
 30
0.0
  0
VERTEX
  5
40C
  8
LAYER_1
 10
-11.817620477254479
 20
50.590931219671262
 30
0.0
  0
VERTEX
  5
40D
  8
LAYER_1
 10
-11.887207826680459
 20
50.660518569097249
 30
0.0
  0
VERTEX
  5
40E
  8
LAYER_1
 10
-11.887207826680459
 20
50.730105918523229
 30
0.0
  0
VERTEX
  5
40F
  8
LAYER_1
 10
-11.956795176106439
 20
50.730105918523229
 30
0.0
  0
VERTEX
  5
410
  8
LAYER_1
 10
-12.026382525532419
 20
50.799693267949209
 30
0.0
  0
VERTEX
  5
411
  8
LAYER_1
 10
-12.026382525532419
 20
50.869280617375203
 30
0.0
  0
VERTEX
  5
412
  8
LAYER_1
 10
-12.095969874958399
 20
50.869280617375203
 30
0.0
  0
VERTEX
  5
413
  8
LAYER_1
 10
-12.165557224384379
 20
50.938867966801162
 30
0.0
  0
VERTEX
  5
414
  8
LAYER_1
 10
-12.23514457381037
 20
50.938867966801162
 30
0.0
  0
VERTEX
  5
415
  8
LAYER_1
 10
-12.23514457381037
 20
51.008455316227163
 30
0.0
  0
VERTEX
  5
416
  8
LAYER_1
 10
-12.23514457381037
 20
51.078042665653129
 30
0.0
  0
VERTEX
  5
417
  8
LAYER_1
 10
-12.304731923236339
 20
51.078042665653129
 30
0.0
  0
VERTEX
  5
418
  8
LAYER_1
 10
-12.374319272662319
 20
51.078042665653129
 30
0.0
  0
VERTEX
  5
419
  8
LAYER_1
 10
-12.374319272662319
 20
51.147630015079109
 30
0.0
  0
VERTEX
  5
41A
  8
LAYER_1
 10
-12.44390662208831
 20
51.147630015079109
 30
0.0
  0
VERTEX
  5
41B
  8
LAYER_1
 10
-12.44390662208831
 20
51.217217364505103
 30
0.0
  0
VERTEX
  5
41C
  8
LAYER_1
 10
-12.51349397151429
 20
51.217217364505103
 30
0.0
  0
VERTEX
  5
41D
  8
LAYER_1
 10
-12.58308132094027
 20
51.286804713931069
 30
0.0
  0
VERTEX
  5
41E
  8
LAYER_1
 10
-12.65266867036625
 20
51.35639206335707
 30
0.0
  0
VERTEX
  5
41F
  8
LAYER_1
 10
-12.72225601979223
 20
51.35639206335707
 30
0.0
  0
VERTEX
  5
420
  8
LAYER_1
 10
-12.72225601979223
 20
51.425979412783043
 30
0.0
  0
VERTEX
  5
421
  8
LAYER_1
 10
-12.79184336921821
 20
51.425979412783043
 30
0.0
  0
VERTEX
  5
422
  8
LAYER_1
 10
-12.861430718644201
 20
51.495566762209023
 30
0.0
  0
VERTEX
  5
423
  8
LAYER_1
 10
-12.931018068070181
 20
51.495566762209023
 30
0.0
  0
VERTEX
  5
424
  8
LAYER_1
 10
-12.931018068070181
 20
51.56515411163501
 30
0.0
  0
VERTEX
  5
425
  8
LAYER_1
 10
-13.00060541749616
 20
51.56515411163501
 30
0.0
  0
VERTEX
  5
426
  8
LAYER_1
 10
-13.00060541749616
 20
51.634741461060983
 30
0.0
  0
VERTEX
  5
427
  8
LAYER_1
 10
-13.13978011634812
 20
51.634741461060983
 30
0.0
  0
VERTEX
  5
428
  8
LAYER_1
 10
-13.209367465774109
 20
51.634741461060983
 30
0.0
  0
VERTEX
  5
429
  8
LAYER_1
 10
-13.209367465774109
 20
51.70432881048697
 30
0.0
  0
VERTEX
  5
42A
  8
LAYER_1
 10
-13.278954815200089
 20
51.70432881048697
 30
0.0
  0
VERTEX
  5
42B
  8
LAYER_1
 10
-13.348542164626069
 20
51.70432881048697
 30
0.0
  0
VERTEX
  5
42C
  8
LAYER_1
 10
-13.418129514052049
 20
51.77391615991295
 30
0.0
  0
VERTEX
  5
42D
  8
LAYER_1
 10
-13.418129514052049
 20
51.84350350933893
 30
0.0
  0
VERTEX
  5
42E
  8
LAYER_1
 10
-13.48771686347802
 20
51.84350350933893
 30
0.0
  0
VERTEX
  5
42F
  8
LAYER_1
 10
-13.557304212904009
 20
51.84350350933893
 30
0.0
  0
VERTEX
  5
430
  8
LAYER_1
 10
-13.626891562329989
 20
51.84350350933893
 30
0.0
  0
VERTEX
  5
431
  8
LAYER_1
 10
-13.696478911755969
 20
51.91309085876491
 30
0.0
  0
VERTEX
  5
432
  8
LAYER_1
 10
-13.766066261181949
 20
51.91309085876491
 30
0.0
  0
VERTEX
  5
433
  8
LAYER_1
 10
-13.835653610607929
 20
51.91309085876491
 30
0.0
  0
VERTEX
  5
434
  8
LAYER_1
 10
-13.905240960033909
 20
51.91309085876491
 30
0.0
  0
VERTEX
  5
435
  8
LAYER_1
 10
-13.905240960033909
 20
51.98267820819089
 30
0.0
  0
VERTEX
  5
436
  8
LAYER_1
 10
-13.974828309459889
 20
51.98267820819089
 30
0.0
  0
VERTEX
  5
437
  8
LAYER_1
 10
-13.974828309459889
 20
52.05226555761687
 30
0.0
  0
VERTEX
  5
438
  8
LAYER_1
 10
-14.04441565888588
 20
52.05226555761687
 30
0.0
  0
VERTEX
  5
439
  8
LAYER_1
 10
-14.11400300831186
 20
52.05226555761687
 30
0.0
  0
VERTEX
  5
43A
  8
LAYER_1
 10
-14.18359035773784
 20
52.05226555761687
 30
0.0
  0
VERTEX
  5
43B
  8
LAYER_1
 10
-14.25317770716382
 20
52.05226555761687
 30
0.0
  0
VERTEX
  5
43C
  8
LAYER_1
 10
-14.25317770716382
 20
52.12185290704285
 30
0.0
  0
VERTEX
  5
43D
  8
LAYER_1
 10
-14.3227650565898
 20
52.12185290704285
 30
0.0
  0
VERTEX
  5
43E
  8
LAYER_1
 10
-14.39235240601578
 20
52.12185290704285
 30
0.0
  0
VERTEX
  5
43F
  8
LAYER_1
 10
-14.461939755441771
 20
52.12185290704285
 30
0.0
  0
VERTEX
  5
440
  8
LAYER_1
 10
-14.531527104867751
 20
52.12185290704285
 30
0.0
  0
VERTEX
  5
441
  8
LAYER_1
 10
-14.601114454293731
 20
52.12185290704285
 30
0.0
  0
VERTEX
  5
442
  8
LAYER_1
 10
-14.670701803719711
 20
52.12185290704285
 30
0.0
  0
VERTEX
  5
443
  8
LAYER_1
 10
-14.670701803719711
 20
52.19144025646883
 30
0.0
  0
VERTEX
  5
444
  8
LAYER_1
 10
-14.740289153145691
 20
52.19144025646883
 30
0.0
  0
VERTEX
  5
445
  8
LAYER_1
 10
-14.809876502571671
 20
52.19144025646883
 30
0.0
  0
VERTEX
  5
446
  8
LAYER_1
 10
-14.879463851997651
 20
52.19144025646883
 30
0.0
  0
VERTEX
  5
447
  8
LAYER_1
 10
-14.949051201423631
 20
52.19144025646883
 30
0.0
  0
VERTEX
  5
448
  8
LAYER_1
 10
-15.018638550849611
 20
52.19144025646883
 30
0.0
  0
VERTEX
  5
449
  8
LAYER_1
 10
-15.227400599127559
 20
52.19144025646883
 30
0.0
  0
VERTEX
  5
44A
  8
LAYER_1
 10
-15.296987948553539
 20
52.19144025646883
 30
0.0
  0
VERTEX
  5
44B
  8
LAYER_1
 10
-15.366575297979519
 20
52.19144025646883
 30
0.0
  0
VERTEX
  5
44C
  8
LAYER_1
 10
-15.436162647405499
 20
52.19144025646883
 30
0.0
  0
VERTEX
  5
44D
  8
LAYER_1
 10
-15.505749996831479
 20
52.19144025646883
 30
0.0
  0
VERTEX
  5
44E
  8
LAYER_1
 10
-15.575337346257459
 20
52.19144025646883
 30
0.0
  0
VERTEX
  5
44F
  8
LAYER_1
 10
-15.64492469568345
 20
52.19144025646883
 30
0.0
  0
VERTEX
  5
450
  8
LAYER_1
 10
-15.71451204510943
 20
52.19144025646883
 30
0.0
  0
VERTEX
  5
451
  8
LAYER_1
 10
-15.78409939453541
 20
52.19144025646883
 30
0.0
  0
VERTEX
  5
452
  8
LAYER_1
 10
-15.85368674396139
 20
52.19144025646883
 30
0.0
  0
VERTEX
  5
453
  8
LAYER_1
 10
-15.92327409338737
 20
52.19144025646883
 30
0.0
  0
VERTEX
  5
454
  8
LAYER_1
 10
-15.99286144281335
 20
52.19144025646883
 30
0.0
  0
VERTEX
  5
455
  8
LAYER_1
 10
-16.062448792239341
 20
52.19144025646883
 30
0.0
  0
VERTEX
  5
456
  8
LAYER_1
 10
-16.132036141665321
 20
52.19144025646883
 30
0.0
  0
VERTEX
  5
457
  8
LAYER_1
 10
-16.20162349109129
 20
52.19144025646883
 30
0.0
  0
VERTEX
  5
458
  8
LAYER_1
 10
-16.271210840517281
 20
52.19144025646883
 30
0.0
  0
VERTEX
  5
459
  8
LAYER_1
 10
-16.34079818994325
 20
52.19144025646883
 30
0.0
  0
VERTEX
  5
45A
  8
LAYER_1
 10
-16.410385539369241
 20
52.19144025646883
 30
0.0
  0
VERTEX
  5
45B
  8
LAYER_1
 10
-16.479972888795221
 20
52.19144025646883
 30
0.0
  0
VERTEX
  5
45C
  8
LAYER_1
 10
-16.549560238221201
 20
52.19144025646883
 30
0.0
  0
VERTEX
  5
45D
  8
LAYER_1
 10
-16.619147587647181
 20
52.19144025646883
 30
0.0
  0
VERTEX
  5
45E
  8
LAYER_1
 10
-16.688734937073161
 20
52.19144025646883
 30
0.0
  0
VERTEX
  5
45F
  8
LAYER_1
 10
-16.758322286499141
 20
52.19144025646883
 30
0.0
  0
VERTEX
  5
460
  8
LAYER_1
 10
-16.827909635925131
 20
52.19144025646883
 30
0.0
  0
VERTEX
  5
461
  8
LAYER_1
 10
-16.897496985351111
 20
52.19144025646883
 30
0.0
  0
VERTEX
  5
462
  8
LAYER_1
 10
-16.967084334777091
 20
52.19144025646883
 30
0.0
  0
VERTEX
  5
463
  8
LAYER_1
 10
-17.036671684203071
 20
52.19144025646883
 30
0.0
  0
VERTEX
  5
464
  8
LAYER_1
 10
-17.106259033629051
 20
52.19144025646883
 30
0.0
  0
VERTEX
  5
465
  8
LAYER_1
 10
-17.175846383055031
 20
52.19144025646883
 30
0.0
  0
VERTEX
  5
466
  8
LAYER_1
 10
-17.245433732481018
 20
52.12185290704285
 30
0.0
  0
VERTEX
  5
467
  8
LAYER_1
 10
-17.315021081906998
 20
52.12185290704285
 30
0.0
  0
VERTEX
  5
468
  8
LAYER_1
 10
-17.384608431332978
 20
52.12185290704285
 30
0.0
  0
VERTEX
  5
469
  8
LAYER_1
 10
-17.454195780758958
 20
52.05226555761687
 30
0.0
  0
VERTEX
  5
46A
  8
LAYER_1
 10
-17.523783130184938
 20
52.05226555761687
 30
0.0
  0
VERTEX
  5
46B
  8
LAYER_1
 10
-17.593370479610918
 20
52.05226555761687
 30
0.0
  0
VERTEX
  5
46C
  8
LAYER_1
 10
-17.662957829036898
 20
52.05226555761687
 30
0.0
  0
VERTEX
  5
46D
  8
LAYER_1
 10
-17.732545178462878
 20
51.98267820819089
 30
0.0
  0
VERTEX
  5
46E
  8
LAYER_1
 10
-17.802132527888858
 20
51.98267820819089
 30
0.0
  0
VERTEX
  5
46F
  8
LAYER_1
 10
-17.871719877314838
 20
51.98267820819089
 30
0.0
  0
VERTEX
  5
470
  8
LAYER_1
 10
-17.941307226740818
 20
51.91309085876491
 30
0.0
  0
VERTEX
  5
471
  8
LAYER_1
 10
-18.010894576166809
 20
51.91309085876491
 30
0.0
  0
VERTEX
  5
472
  8
LAYER_1
 10
-18.080481925592789
 20
51.91309085876491
 30
0.0
  0
VERTEX
  5
473
  8
LAYER_1
 10
-18.150069275018769
 20
51.91309085876491
 30
0.0
  0
VERTEX
  5
474
  8
LAYER_1
 10
-18.219656624444749
 20
51.84350350933893
 30
0.0
  0
VERTEX
  5
475
  8
LAYER_1
 10
-18.289243973870729
 20
51.77391615991295
 30
0.0
  0
VERTEX
  5
476
  8
LAYER_1
 10
-18.358831323296709
 20
51.77391615991295
 30
0.0
  0
VERTEX
  5
477
  8
LAYER_1
 10
-18.4284186727227
 20
51.77391615991295
 30
0.0
  0
VERTEX
  5
478
  8
LAYER_1
 10
-18.49800602214868
 20
51.70432881048697
 30
0.0
  0
VERTEX
  5
479
  8
LAYER_1
 10
-18.567593371574659
 20
51.70432881048697
 30
0.0
  0
VERTEX
  5
47A
  8
LAYER_1
 10
-18.637180721000639
 20
51.634741461060983
 30
0.0
  0
VERTEX
  5
47B
  8
LAYER_1
 10
-18.706768070426619
 20
51.634741461060983
 30
0.0
  0
VERTEX
  5
47C
  8
LAYER_1
 10
-18.776355419852599
 20
51.56515411163501
 30
0.0
  0
VERTEX
  5
47D
  8
LAYER_1
 10
-19.05470481755653
 20
51.425979412783043
 30
0.0
  0
VERTEX
  5
47E
  8
LAYER_1
 10
-19.12429216698251
 20
51.425979412783043
 30
0.0
  0
VERTEX
  5
47F
  8
LAYER_1
 10
-19.19387951640849
 20
51.425979412783043
 30
0.0
  0
VERTEX
  5
480
  8
LAYER_1
 10
-19.19387951640849
 20
51.35639206335707
 30
0.0
  0
VERTEX
  5
481
  8
LAYER_1
 10
-19.26346686583447
 20
51.35639206335707
 30
0.0
  0
VERTEX
  5
482
  8
LAYER_1
 10
-19.33305421526045
 20
51.286804713931069
 30
0.0
  0
VERTEX
  5
483
  8
LAYER_1
 10
-19.40264156468643
 20
51.286804713931069
 30
0.0
  0
VERTEX
  5
484
  8
LAYER_1
 10
-19.47222891411241
 20
51.217217364505103
 30
0.0
  0
VERTEX
  5
485
  8
LAYER_1
 10
-19.54181626353839
 20
51.217217364505103
 30
0.0
  0
VERTEX
  5
486
  8
LAYER_1
 10
-19.889753010668301
 20
51.008455316227163
 30
0.0
  0
VERTEX
  5
487
  8
LAYER_1
 10
-19.959340360094281
 20
51.008455316227163
 30
0.0
  0
VERTEX
  5
488
  8
LAYER_1
 10
-19.959340360094281
 20
50.938867966801162
 30
0.0
  0
VERTEX
  5
489
  8
LAYER_1
 10
-20.098515058946251
 20
50.869280617375203
 30
0.0
  0
VERTEX
  5
48A
  8
LAYER_1
 10
-20.168102408372231
 20
50.869280617375203
 30
0.0
  0
VERTEX
  5
48B
  8
LAYER_1
 10
-20.237689757798211
 20
50.799693267949209
 30
0.0
  0
VERTEX
  5
48C
  8
LAYER_1
 10
-20.307277107224191
 20
50.730105918523229
 30
0.0
  0
VERTEX
  5
48D
  8
LAYER_1
 10
-20.446451806076158
 20
50.660518569097249
 30
0.0
  0
VERTEX
  5
48E
  8
LAYER_1
 10
-20.446451806076158
 20
50.590931219671262
 30
0.0
  0
VERTEX
  5
48F
  8
LAYER_1
 10
-20.655213854354098
 20
50.451756520819302
 30
0.0
  0
VERTEX
  5
490
  8
LAYER_1
 10
-20.724801203780078
 20
50.382169171393329
 30
0.0
  0
VERTEX
  5
491
  8
LAYER_1
 10
-20.794388553206058
 20
50.312581821967342
 30
0.0
  0
VERTEX
  5
492
  8
LAYER_1
 10
-20.863975902632038
 20
50.242994472541362
 30
0.0
  0
VERTEX
  5
493
  8
LAYER_1
 10
-20.933563252058018
 20
50.173407123115382
 30
0.0
  0
VERTEX
  5
494
  8
LAYER_1
 10
-21.003150601483998
 20
50.173407123115382
 30
0.0
  0
VERTEX
  5
495
  8
LAYER_1
 10
-21.003150601483998
 20
50.103819773689402
 30
0.0
  0
VERTEX
  5
496
  8
LAYER_1
 10
-21.072737950909978
 20
50.103819773689402
 30
0.0
  0
VERTEX
  5
497
  8
LAYER_1
 10
-21.142325300335958
 20
49.964645074837428
 30
0.0
  0
VERTEX
  5
498
  8
LAYER_1
 10
-21.420674698039889
 20
49.686295677133508
 30
0.0
  0
VERTEX
  5
499
  8
LAYER_1
 10
-21.490262047465869
 20
49.616708327707528
 30
0.0
  0
VERTEX
  5
49A
  8
LAYER_1
 10
-21.490262047465869
 20
49.547120978281548
 30
0.0
  0
VERTEX
  5
49B
  8
LAYER_1
 10
-21.559849396891849
 20
49.477533628855561
 30
0.0
  0
VERTEX
  5
49C
  8
LAYER_1
 10
-21.62943674631784
 20
49.477533628855561
 30
0.0
  0
VERTEX
  5
49D
  8
LAYER_1
 10
-21.62943674631784
 20
49.407946279429588
 30
0.0
  0
VERTEX
  5
49E
  8
LAYER_1
 10
-21.699024095743809
 20
49.407946279429588
 30
0.0
  0
VERTEX
  5
49F
  8
LAYER_1
 10
-21.699024095743809
 20
49.338358930003601
 30
0.0
  0
VERTEX
  5
4A0
  8
LAYER_1
 10
-21.7686114451698
 20
49.268771580577621
 30
0.0
  0
VERTEX
  5
4A1
  8
LAYER_1
 10
-21.90778614402176
 20
49.060009532299681
 30
0.0
  0
VERTEX
  5
4A2
  8
LAYER_1
 10
-21.97737349344774
 20
48.990422182873701
 30
0.0
  0
VERTEX
  5
4A3
  8
LAYER_1
 10
-22.04696084287372
 20
48.851247484021741
 30
0.0
  0
VERTEX
  5
4A4
  8
LAYER_1
 10
-22.1165481922997
 20
48.781660134595747
 30
0.0
  0
VERTEX
  5
4A5
  8
LAYER_1
 10
-22.18613554172568
 20
48.712072785169767
 30
0.0
  0
VERTEX
  5
4A6
  8
LAYER_1
 10
-22.25572289115167
 20
48.572898086317807
 30
0.0
  0
VERTEX
  5
4A7
  8
LAYER_1
 10
-22.32531024057764
 20
48.503310736891827
 30
0.0
  0
VERTEX
  5
4A8
  8
LAYER_1
 10
-22.32531024057764
 20
48.433723387465847
 30
0.0
  0
VERTEX
  5
4A9
  8
LAYER_1
 10
-22.39489759000362
 20
48.364136038039867
 30
0.0
  0
VERTEX
  5
4AA
  8
LAYER_1
 10
-22.39489759000362
 20
48.294548688613887
 30
0.0
  0
VERTEX
  5
4AB
  8
LAYER_1
 10
-22.46448493942961
 20
48.294548688613887
 30
0.0
  0
VERTEX
  5
4AC
  8
LAYER_1
 10
-22.46448493942961
 20
48.2249613391879
 30
0.0
  0
VERTEX
  5
4AD
  8
LAYER_1
 10
-22.53407228885559
 20
48.155373989761927
 30
0.0
  0
VERTEX
  5
4AE
  8
LAYER_1
 10
-22.53407228885559
 20
48.08578664033594
 30
0.0
  0
VERTEX
  5
4AF
  8
LAYER_1
 10
-22.60365963828157
 20
48.01619929090996
 30
0.0
  0
VERTEX
  5
4B0
  8
LAYER_1
 10
-22.60365963828157
 20
47.94661194148398
 30
0.0
  0
VERTEX
  5
4B1
  8
LAYER_1
 10
-22.67324698770755
 20
47.877024592057992
 30
0.0
  0
VERTEX
  5
4B2
  8
LAYER_1
 10
-22.74283433713353
 20
47.80743724263202
 30
0.0
  0
VERTEX
  5
4B3
  8
LAYER_1
 10
-22.74283433713353
 20
47.668262543780052
 30
0.0
  0
VERTEX
  5
4B4
  8
LAYER_1
 10
-22.812421686559521
 20
47.529087844928092
 30
0.0
  0
VERTEX
  5
4B5
  8
LAYER_1
 10
-22.812421686559521
 20
47.459500495502112
 30
0.0
  0
VERTEX
  5
4B6
  8
LAYER_1
 10
-22.812421686559521
 20
47.389913146076132
 30
0.0
  0
VERTEX
  5
4B7
  8
LAYER_1
 10
-22.882009035985501
 20
47.320325796650152
 30
0.0
  0
VERTEX
  5
4B8
  8
LAYER_1
 10
-22.951596385411481
 20
47.250738447224158
 30
0.0
  0
VERTEX
  5
4B9
  8
LAYER_1
 10
-22.951596385411481
 20
47.181151097798192
 30
0.0
  0
VERTEX
  5
4BA
  8
LAYER_1
 10
-22.951596385411481
 20
47.111563748372198
 30
0.0
  0
VERTEX
  5
4BB
  8
LAYER_1
 10
-22.951596385411481
 20
47.041976398946218
 30
0.0
  0
VERTEX
  5
4BC
  8
LAYER_1
 10
-23.021183734837461
 20
46.972389049520238
 30
0.0
  0
VERTEX
  5
4BD
  8
LAYER_1
 10
-23.160358433689421
 20
46.624452302390338
 30
0.0
  0
VERTEX
  5
4BE
  8
LAYER_1
 10
-23.160358433689421
 20
46.554864952964351
 30
0.0
  0
VERTEX
  5
4BF
  8
LAYER_1
 10
-23.160358433689421
 20
46.485277603538378
 30
0.0
  0
VERTEX
  5
4C0
  8
LAYER_1
 10
-23.160358433689421
 20
46.415690254112377
 30
0.0
  0
VERTEX
  5
4C1
  8
LAYER_1
 10
-23.229945783115401
 20
46.276515555260431
 30
0.0
  0
VERTEX
  5
4C2
  8
LAYER_1
 10
-23.229945783115401
 20
46.206928205834451
 30
0.0
  0
VERTEX
  5
4C3
  8
LAYER_1
 10
-23.369120481967371
 20
45.580642061000617
 30
0.0
  0
VERTEX
  5
4C4
  8
LAYER_1
 10
-23.369120481967371
 20
45.51105471157463
 30
0.0
  0
VERTEX
  5
4C5
  8
LAYER_1
 10
-23.438707831393351
 20
45.44146736214865
 30
0.0
  0
VERTEX
  5
4C6
  8
LAYER_1
 10
-23.438707831393351
 20
45.371880012722677
 30
0.0
  0
VERTEX
  5
4C7
  8
LAYER_1
 10
-23.438707831393351
 20
45.30229266329669
 30
0.0
  0
VERTEX
  5
4C8
  8
LAYER_1
 10
-23.438707831393351
 20
45.23270531387071
 30
0.0
  0
VERTEX
  5
4C9
  8
LAYER_1
 10
-23.438707831393351
 20
45.16311796444473
 30
0.0
  0
VERTEX
  5
4CA
  8
LAYER_1
 10
-23.508295180819321
 20
45.09353061501875
 30
0.0
  0
VERTEX
  5
4CB
  8
LAYER_1
 10
-23.577882530245301
 20
44.676006518462863
 30
0.0
  0
VERTEX
  5
4CC
  8
LAYER_1
 10
-23.577882530245301
 20
44.536831819610889
 30
0.0
  0
VERTEX
  5
4CD
  8
LAYER_1
 10
-23.577882530245301
 20
44.467244470184923
 30
0.0
  0
VERTEX
  5
4CE
  8
LAYER_1
 10
-23.577882530245301
 20
44.397657120758929
 30
0.0
  0
VERTEX
  5
4CF
  8
LAYER_1
 10
-23.577882530245301
 20
44.328069771332949
 30
0.0
  0
VERTEX
  5
4D0
  8
LAYER_1
 10
-23.577882530245301
 20
44.258482421906969
 30
0.0
  0
VERTEX
  5
4D1
  8
LAYER_1
 10
-23.577882530245301
 20
44.188895072480989
 30
0.0
  0
VERTEX
  5
4D2
  8
LAYER_1
 10
-23.577882530245301
 20
44.119307723055023
 30
0.0
  0
VERTEX
  5
4D3
  8
LAYER_1
 10
-23.577882530245301
 20
44.049720373629022
 30
0.0
  0
VERTEX
  5
4D4
  8
LAYER_1
 10
-23.577882530245301
 20
43.562608927647162
 30
0.0
  0
VERTEX
  5
4D5
  8
LAYER_1
 10
-23.577882530245301
 20
43.423434228795202
 30
0.0
  0
VERTEX
  5
4D6
  8
LAYER_1
 10
-23.577882530245301
 20
43.353846879369208
 30
0.0
  0
VERTEX
  5
4D7
  8
LAYER_1
 10
-23.577882530245301
 20
43.284259529943242
 30
0.0
  0
VERTEX
  5
4D8
  8
LAYER_1
 10
-23.577882530245301
 20
43.214672180517248
 30
0.0
  0
VERTEX
  5
4D9
  8
LAYER_1
 10
-23.577882530245301
 20
43.145084831091282
 30
0.0
  0
VERTEX
  5
4DA
  8
LAYER_1
 10
-23.577882530245301
 20
43.075497481665288
 30
0.0
  0
VERTEX
  5
4DB
  8
LAYER_1
 10
-23.577882530245301
 20
43.005910132239322
 30
0.0
  0
VERTEX
  5
4DC
  8
LAYER_1
 10
-23.577882530245301
 20
42.379623987405481
 30
0.0
  0
VERTEX
  5
4DD
  8
LAYER_1
 10
-23.577882530245301
 20
42.310036637979501
 30
0.0
  0
VERTEX
  5
4DE
  8
LAYER_1
 10
-23.577882530245301
 20
42.240449288553513
 30
0.0
  0
VERTEX
  5
4DF
  8
LAYER_1
 10
-23.577882530245301
 20
42.170861939127541
 30
0.0
  0
VERTEX
  5
4E0
  8
LAYER_1
 10
-23.577882530245301
 20
42.031687240275573
 30
0.0
  0
VERTEX
  5
4E1
  8
LAYER_1
 10
-23.508295180819321
 20
41.892512541423613
 30
0.0
  0
VERTEX
  5
4E2
  8
LAYER_1
 10
-23.508295180819321
 20
41.822925191997633
 30
0.0
  0
VERTEX
  5
4E3
  8
LAYER_1
 10
-23.508295180819321
 20
41.753337842571653
 30
0.0
  0
VERTEX
  5
4E4
  8
LAYER_1
 10
-23.438707831393351
 20
41.127051697737812
 30
0.0
  0
VERTEX
  5
4E5
  8
LAYER_1
 10
-23.438707831393351
 20
40.987876998885852
 30
0.0
  0
VERTEX
  5
4E6
  8
LAYER_1
 10
-23.438707831393351
 20
40.918289649459879
 30
0.0
  0
VERTEX
  5
4E7
  8
LAYER_1
 10
-23.438707831393351
 20
40.848702300033899
 30
0.0
  0
VERTEX
  5
4E8
  8
LAYER_1
 10
-23.438707831393351
 20
40.639940251755952
 30
0.0
  0
VERTEX
  5
4E9
  8
LAYER_1
 10
-23.438707831393351
 20
40.570352902329972
 30
0.0
  0
VERTEX
  5
4EA
  8
LAYER_1
 10
-23.369120481967371
 20
40.500765552903992
 30
0.0
  0
VERTEX
  5
4EB
  8
LAYER_1
 10
-23.369120481967371
 20
40.431178203477998
 30
0.0
  0
VERTEX
  5
4EC
  8
LAYER_1
 10
-23.369120481967371
 20
39.665717359792218
 30
0.0
  0
VERTEX
  5
4ED
  8
LAYER_1
 10
-23.369120481967371
 20
39.596130010366231
 30
0.0
  0
VERTEX
  5
4EE
  8
LAYER_1
 10
-23.369120481967371
 20
39.526542660940251
 30
0.0
  0
VERTEX
  5
4EF
  8
LAYER_1
 10
-23.369120481967371
 20
39.387367962088291
 30
0.0
  0
VERTEX
  5
4F0
  8
LAYER_1
 10
-23.299533132541381
 20
39.317780612662311
 30
0.0
  0
VERTEX
  5
4F1
  8
LAYER_1
 10
-23.299533132541381
 20
39.248193263236331
 30
0.0
  0
VERTEX
  5
4F2
  8
LAYER_1
 10
-23.299533132541381
 20
39.178605913810337
 30
0.0
  0
VERTEX
  5
4F3
  8
LAYER_1
 10
-23.299533132541381
 20
39.039431214958391
 30
0.0
  0
VERTEX
  5
4F4
  8
LAYER_1
 10
-23.229945783115401
 20
38.621907118402497
 30
0.0
  0
VERTEX
  5
4F5
  8
LAYER_1
 10
-23.160358433689421
 20
38.482732419550537
 30
0.0
  0
VERTEX
  5
4F6
  8
LAYER_1
 10
-23.160358433689421
 20
38.41314507012455
 30
0.0
  0
VERTEX
  5
4F7
  8
LAYER_1
 10
-23.090771084263441
 20
38.34355772069857
 30
0.0
  0
VERTEX
  5
4F8
  8
LAYER_1
 10
-23.090771084263441
 20
38.27397037127259
 30
0.0
  0
VERTEX
  5
4F9
  8
LAYER_1
 10
-23.090771084263441
 20
38.20438302184661
 30
0.0
  0
VERTEX
  5
4FA
  8
LAYER_1
 10
-23.090771084263441
 20
38.06520832299465
 30
0.0
  0
VERTEX
  5
4FB
  8
LAYER_1
 10
-23.021183734837461
 20
37.995620973568663
 30
0.0
  0
VERTEX
  5
4FC
  8
LAYER_1
 10
-22.882009035985501
 20
37.508509527586803
 30
0.0
  0
VERTEX
  5
4FD
  8
LAYER_1
 10
-22.882009035985501
 20
37.438922178160823
 30
0.0
  0
VERTEX
  5
4FE
  8
LAYER_1
 10
-22.812421686559521
 20
37.299747479308863
 30
0.0
  0
VERTEX
  5
4FF
  8
LAYER_1
 10
-22.74283433713353
 20
37.090985431030909
 30
0.0
  0
VERTEX
  5
500
  8
LAYER_1
 10
-22.74283433713353
 20
37.021398081604929
 30
0.0
  0
VERTEX
  5
501
  8
LAYER_1
 10
-22.32531024057764
 20
36.116762539067167
 30
0.0
  0
VERTEX
  5
502
  8
LAYER_1
 10
-22.32531024057764
 20
35.908000490789227
 30
0.0
  0
VERTEX
  5
503
  8
LAYER_1
 10
-22.18613554172568
 20
35.699238442511287
 30
0.0
  0
VERTEX
  5
504
  8
LAYER_1
 10
-21.7686114451698
 20
34.86419024939952
 30
0.0
  0
VERTEX
  5
505
  8
LAYER_1
 10
-21.699024095743809
 20
34.86419024939952
 30
0.0
  0
VERTEX
  5
506
  8
LAYER_1
 10
-21.699024095743809
 20
34.725015550547553
 30
0.0
  0
VERTEX
  5
507
  8
LAYER_1
 10
-21.62943674631784
 20
34.585840851695593
 30
0.0
  0
VERTEX
  5
508
  8
LAYER_1
 10
-21.559849396891849
 20
34.585840851695593
 30
0.0
  0
VERTEX
  5
509
  8
LAYER_1
 10
-21.490262047465869
 20
34.446666152843633
 30
0.0
  0
VERTEX
  5
50A
  8
LAYER_1
 10
-21.420674698039889
 20
34.377078803417639
 30
0.0
  0
VERTEX
  5
50B
  8
LAYER_1
 10
-21.142325300335958
 20
33.959554706861752
 30
0.0
  0
VERTEX
  5
50C
  8
LAYER_1
 10
-21.072737950909978
 20
33.820380008009792
 30
0.0
  0
VERTEX
  5
50D
  8
LAYER_1
 10
-21.003150601483998
 20
33.820380008009792
 30
0.0
  0
VERTEX
  5
50E
  8
LAYER_1
 10
-20.933563252058018
 20
33.750792658583812
 30
0.0
  0
VERTEX
  5
50F
  8
LAYER_1
 10
-20.933563252058018
 20
33.681205309157839
 30
0.0
  0
VERTEX
  5
510
  8
LAYER_1
 10
-20.794388553206058
 20
33.542030610305872
 30
0.0
  0
VERTEX
  5
511
  8
LAYER_1
 10
-20.794388553206058
 20
33.472443260879878
 30
0.0
  0
VERTEX
  5
512
  8
LAYER_1
 10
-20.724801203780078
 20
33.402855911453912
 30
0.0
  0
VERTEX
  5
513
  8
LAYER_1
 10
-20.516039155502131
 20
33.194093863175958
 30
0.0
  0
VERTEX
  5
514
  8
LAYER_1
 10
-20.446451806076158
 20
33.124506513749978
 30
0.0
  0
VERTEX
  5
515
  8
LAYER_1
 10
-20.446451806076158
 20
33.054919164323998
 30
0.0
  0
VERTEX
  5
516
  8
LAYER_1
 10
-20.376864456650171
 20
33.054919164323998
 30
0.0
  0
VERTEX
  5
517
  8
LAYER_1
 10
-20.307277107224191
 20
32.985331814898018
 30
0.0
  0
VERTEX
  5
518
  8
LAYER_1
 10
-20.307277107224191
 20
32.915744465472038
 30
0.0
  0
VERTEX
  5
519
  8
LAYER_1
 10
-20.237689757798211
 20
32.846157116046058
 30
0.0
  0
VERTEX
  5
51A
  8
LAYER_1
 10
-20.168102408372231
 20
32.776569766620071
 30
0.0
  0
VERTEX
  5
51B
  8
LAYER_1
 10
-20.028927709520271
 20
32.637395067768111
 30
0.0
  0
VERTEX
  5
51C
  8
LAYER_1
 10
-19.959340360094281
 20
32.567807718342131
 30
0.0
  0
VERTEX
  5
51D
  8
LAYER_1
 10
-19.959340360094281
 20
32.498220368916151
 30
0.0
  0
VERTEX
  5
51E
  8
LAYER_1
 10
-19.889753010668301
 20
32.498220368916151
 30
0.0
  0
VERTEX
  5
51F
  8
LAYER_1
 10
-19.889753010668301
 20
32.428633019490171
 30
0.0
  0
VERTEX
  5
520
  8
LAYER_1
 10
-19.820165661242321
 20
32.428633019490171
 30
0.0
  0
VERTEX
  5
521
  8
LAYER_1
 10
-19.820165661242321
 20
32.359045670064177
 30
0.0
  0
VERTEX
  5
522
  8
LAYER_1
 10
-19.750578311816341
 20
32.359045670064177
 30
0.0
  0
VERTEX
  5
523
  8
LAYER_1
 10
-19.54181626353839
 20
32.150283621786251
 30
0.0
  0
VERTEX
  5
524
  8
LAYER_1
 10
-19.54181626353839
 20
32.080696272360271
 30
0.0
  0
VERTEX
  5
525
  8
LAYER_1
 10
-19.47222891411241
 20
32.080696272360271
 30
0.0
  0
VERTEX
  5
526
  8
LAYER_1
 10
-19.47222891411241
 20
32.011108922934277
 30
0.0
  0
VERTEX
  5
527
  8
LAYER_1
 10
-19.40264156468643
 20
32.011108922934277
 30
0.0
  0
VERTEX
  5
528
  8
LAYER_1
 10
-19.33305421526045
 20
31.9415215735083
 30
0.0
  0
VERTEX
  5
529
  8
LAYER_1
 10
-19.33305421526045
 20
31.87193422408232
 30
0.0
  0
VERTEX
  5
52A
  8
LAYER_1
 10
-19.12429216698251
 20
31.66317217580438
 30
0.0
  0
VERTEX
  5
52B
  8
LAYER_1
 10
-19.05470481755653
 20
31.59358482637839
 30
0.0
  0
VERTEX
  5
52C
  8
LAYER_1
 10
-18.98511746813055
 20
31.59358482637839
 30
0.0
  0
VERTEX
  5
52D
  8
LAYER_1
 10
-18.98511746813055
 20
31.52399747695241
 30
0.0
  0
VERTEX
  5
52E
  8
LAYER_1
 10
-18.915530118704559
 20
31.45441012752643
 30
0.0
  0
VERTEX
  5
52F
  8
LAYER_1
 10
-18.84594276927859
 20
31.38482277810045
 30
0.0
  0
VERTEX
  5
530
  8
LAYER_1
 10
-18.776355419852599
 20
31.38482277810045
 30
0.0
  0
VERTEX
  5
531
  8
LAYER_1
 10
-18.776355419852599
 20
31.31523542867447
 30
0.0
  0
VERTEX
  5
532
  8
LAYER_1
 10
-18.49800602214868
 20
31.106473380396519
 30
0.0
  0
VERTEX
  5
533
  8
LAYER_1
 10
-18.4284186727227
 20
30.96729868154457
 30
0.0
  0
VERTEX
  5
534
  8
LAYER_1
 10
-18.358831323296709
 20
30.96729868154457
 30
0.0
  0
VERTEX
  5
535
  8
LAYER_1
 10
-18.358831323296709
 20
30.897711332118579
 30
0.0
  0
VERTEX
  5
536
  8
LAYER_1
 10
-18.219656624444749
 20
30.897711332118579
 30
0.0
  0
VERTEX
  5
537
  8
LAYER_1
 10
-18.150069275018769
 20
30.758536633266608
 30
0.0
  0
VERTEX
  5
538
  8
LAYER_1
 10
-17.732545178462878
 20
30.410599886136708
 30
0.0
  0
VERTEX
  5
539
  8
LAYER_1
 10
-17.662957829036898
 20
30.410599886136708
 30
0.0
  0
VERTEX
  5
53A
  8
LAYER_1
 10
-17.593370479610918
 20
30.341012536710728
 30
0.0
  0
VERTEX
  5
53B
  8
LAYER_1
 10
-17.454195780758958
 20
30.271425187284748
 30
0.0
  0
VERTEX
  5
53C
  8
LAYER_1
 10
-17.384608431332978
 20
30.271425187284748
 30
0.0
  0
VERTEX
  5
53D
  8
LAYER_1
 10
-17.315021081906998
 20
30.201837837858768
 30
0.0
  0
VERTEX
  5
53E
  8
LAYER_1
 10
-17.245433732481018
 20
30.132250488432788
 30
0.0
  0
VERTEX
  5
53F
  8
LAYER_1
 10
-17.106259033629051
 20
30.132250488432788
 30
0.0
  0
VERTEX
  5
540
  8
LAYER_1
 10
-16.619147587647181
 20
29.853901090728861
 30
0.0
  0
VERTEX
  5
541
  8
LAYER_1
 10
-16.479972888795221
 20
29.784313741302881
 30
0.0
  0
VERTEX
  5
542
  8
LAYER_1
 10
-16.34079818994325
 20
29.714726391876901
 30
0.0
  0
VERTEX
  5
543
  8
LAYER_1
 10
-16.271210840517281
 20
29.645139042450921
 30
0.0
  0
VERTEX
  5
544
  8
LAYER_1
 10
-16.20162349109129
 20
29.645139042450921
 30
0.0
  0
VERTEX
  5
545
  8
LAYER_1
 10
-16.132036141665321
 20
29.575551693024931
 30
0.0
  0
VERTEX
  5
546
  8
LAYER_1
 10
-15.99286144281335
 20
29.505964343598961
 30
0.0
  0
VERTEX
  5
547
  8
LAYER_1
 10
-15.92327409338737
 20
29.505964343598961
 30
0.0
  0
VERTEX
  5
548
  8
LAYER_1
 10
-15.575337346257459
 20
29.297202295321011
 30
0.0
  0
VERTEX
  5
549
  8
LAYER_1
 10
-15.505749996831479
 20
29.297202295321011
 30
0.0
  0
VERTEX
  5
54A
  8
LAYER_1
 10
-15.436162647405499
 20
29.297202295321011
 30
0.0
  0
VERTEX
  5
54B
  8
LAYER_1
 10
-15.366575297979519
 20
29.158027596469051
 30
0.0
  0
VERTEX
  5
54C
  8
LAYER_1
 10
-15.296987948553539
 20
29.158027596469051
 30
0.0
  0
VERTEX
  5
54D
  8
LAYER_1
 10
-15.157813249701571
 20
29.088440247043071
 30
0.0
  0
VERTEX
  5
54E
  8
LAYER_1
 10
-15.018638550849611
 20
29.018852897617091
 30
0.0
  0
VERTEX
  5
54F
  8
LAYER_1
 10
-14.670701803719711
 20
28.81009084933914
 30
0.0
  0
VERTEX
  5
550
  8
LAYER_1
 10
-14.601114454293731
 20
28.81009084933914
 30
0.0
  0
VERTEX
  5
551
  8
LAYER_1
 10
-14.531527104867751
 20
28.81009084933914
 30
0.0
  0
VERTEX
  5
552
  8
LAYER_1
 10
-14.461939755441771
 20
28.74050349991316
 30
0.0
  0
VERTEX
  5
553
  8
LAYER_1
 10
-14.39235240601578
 20
28.74050349991316
 30
0.0
  0
VERTEX
  5
554
  8
LAYER_1
 10
-14.3227650565898
 20
28.74050349991316
 30
0.0
  0
VERTEX
  5
555
  8
LAYER_1
 10
-14.18359035773784
 20
28.67091615048718
 30
0.0
  0
VERTEX
  5
556
  8
LAYER_1
 10
-14.18359035773784
 20
28.6013288010612
 30
0.0
  0
VERTEX
  5
557
  8
LAYER_1
 10
-13.905240960033909
 20
28.46215410220924
 30
0.0
  0
VERTEX
  5
558
  8
LAYER_1
 10
-13.835653610607929
 20
28.46215410220924
 30
0.0
  0
VERTEX
  5
559
  8
LAYER_1
 10
-13.766066261181949
 20
28.46215410220924
 30
0.0
  0
VERTEX
  5
55A
  8
LAYER_1
 10
-13.696478911755969
 20
28.39256675278326
 30
0.0
  0
VERTEX
  5
55B
  8
LAYER_1
 10
-13.696478911755969
 20
28.32297940335728
 30
0.0
  0
VERTEX
  5
55C
  8
LAYER_1
 10
-13.626891562329989
 20
28.32297940335728
 30
0.0
  0
VERTEX
  5
55D
  8
LAYER_1
 10
-13.557304212904009
 20
28.32297940335728
 30
0.0
  0
VERTEX
  5
55E
  8
LAYER_1
 10
-13.278954815200089
 20
28.18380470450531
 30
0.0
  0
VERTEX
  5
55F
  8
LAYER_1
 10
-13.209367465774109
 20
28.18380470450531
 30
0.0
  0
VERTEX
  5
560
  8
LAYER_1
 10
-13.209367465774109
 20
28.11421735507933
 30
0.0
  0
VERTEX
  5
561
  8
LAYER_1
 10
-13.13978011634812
 20
28.11421735507933
 30
0.0
  0
VERTEX
  5
562
  8
LAYER_1
 10
-13.07019276692214
 20
28.04463000565336
 30
0.0
  0
VERTEX
  5
563
  8
LAYER_1
 10
-13.00060541749616
 20
28.04463000565336
 30
0.0
  0
VERTEX
  5
564
  8
LAYER_1
 10
-12.931018068070181
 20
27.97504265622737
 30
0.0
  0
VERTEX
  5
565
  8
LAYER_1
 10
-12.72225601979223
 20
27.90545530680139
 30
0.0
  0
VERTEX
  5
566
  8
LAYER_1
 10
-12.72225601979223
 20
27.83586795737541
 30
0.0
  0
VERTEX
  5
567
  8
LAYER_1
 10
-12.65266867036625
 20
27.83586795737541
 30
0.0
  0
VERTEX
  5
568
  8
LAYER_1
 10
-12.58308132094027
 20
27.83586795737541
 30
0.0
  0
VERTEX
  5
569
  8
LAYER_1
 10
-12.51349397151429
 20
27.76628060794943
 30
0.0
  0
VERTEX
  5
56A
  8
LAYER_1
 10
-12.44390662208831
 20
27.76628060794943
 30
0.0
  0
VERTEX
  5
56B
  8
LAYER_1
 10
-12.374319272662319
 20
27.76628060794943
 30
0.0
  0
VERTEX
  5
56C
  8
LAYER_1
 10
-12.165557224384379
 20
27.627105909097459
 30
0.0
  0
VERTEX
  5
56D
  8
LAYER_1
 10
-12.095969874958399
 20
27.627105909097459
 30
0.0
  0
VERTEX
  5
56E
  8
LAYER_1
 10
-12.026382525532419
 20
27.557518559671479
 30
0.0
  0
VERTEX
  5
56F
  8
LAYER_1
 10
-11.956795176106439
 20
27.557518559671479
 30
0.0
  0
VERTEX
  5
570
  8
LAYER_1
 10
-11.887207826680459
 20
27.557518559671479
 30
0.0
  0
VERTEX
  5
571
  8
LAYER_1
 10
-11.817620477254479
 20
27.487931210245499
 30
0.0
  0
VERTEX
  5
572
  8
LAYER_1
 10
-11.748033127828499
 20
27.487931210245499
 30
0.0
  0
VERTEX
  5
573
  8
LAYER_1
 10
-11.46968373012457
 20
27.348756511393539
 30
0.0
  0
VERTEX
  5
574
  8
LAYER_1
 10
-11.40009638069859
 20
27.348756511393539
 30
0.0
  0
VERTEX
  5
575
  8
LAYER_1
 10
-11.40009638069859
 20
27.279169161967559
 30
0.0
  0
VERTEX
  5
576
  8
LAYER_1
 10
-11.33050903127261
 20
27.279169161967559
 30
0.0
  0
VERTEX
  5
577
  8
LAYER_1
 10
-11.26092168184663
 20
27.279169161967559
 30
0.0
  0
VERTEX
  5
578
  8
LAYER_1
 10
-11.19133433242064
 20
27.279169161967559
 30
0.0
  0
VERTEX
  5
579
  8
LAYER_1
 10
-11.19133433242064
 20
27.209581812541568
 30
0.0
  0
VERTEX
  5
57A
  8
LAYER_1
 10
-11.12174698299466
 20
27.209581812541568
 30
0.0
  0
VERTEX
  5
57B
  8
LAYER_1
 10
-11.05215963356868
 20
27.209581812541568
 30
0.0
  0
VERTEX
  5
57C
  8
LAYER_1
 10
-11.05215963356868
 20
27.139994463115588
 30
0.0
  0
VERTEX
  5
57D
  8
LAYER_1
 10
-10.9825722841427
 20
27.139994463115588
 30
0.0
  0
VERTEX
  5
57E
  8
LAYER_1
 10
-10.9825722841427
 20
27.070407113689608
 30
0.0
  0
VERTEX
  5
57F
  8
LAYER_1
 10
-10.91298493471672
 20
27.000819764263628
 30
0.0
  0
VERTEX
  5
580
  8
LAYER_1
 10
-10.91298493471672
 20
26.931232414837648
 30
0.0
  0
VERTEX
  5
581
  8
LAYER_1
 10
-10.91298493471672
 20
26.861645065411668
 30
0.0
  0
VERTEX
  5
582
  8
LAYER_1
 10
-10.84339758529074
 20
26.861645065411668
 30
0.0
  0
VERTEX
  5
583
  8
LAYER_1
 10
-10.84339758529074
 20
26.792057715985688
 30
0.0
  0
VERTEX
  5
584
  8
LAYER_1
 10
-10.77381023586476
 20
26.792057715985688
 30
0.0
  0
VERTEX
  5
585
  8
LAYER_1
 10
-10.77381023586476
 20
26.722470366559708
 30
0.0
  0
VERTEX
  5
586
  8
LAYER_1
 10
-10.70422288643878
 20
26.652883017133728
 30
0.0
  0
VERTEX
  5
587
  8
LAYER_1
 10
-10.70422288643878
 20
26.583295667707741
 30
0.0
  0
VERTEX
  5
588
  8
LAYER_1
 10
-10.70422288643878
 20
26.513708318281768
 30
0.0
  0
VERTEX
  5
589
  8
LAYER_1
 10
-10.634635537012789
 20
26.444120968855788
 30
0.0
  0
VERTEX
  5
58A
  8
LAYER_1
 10
-10.634635537012789
 20
26.374533619429801
 30
0.0
  0
VERTEX
  5
58B
  8
LAYER_1
 10
-10.634635537012789
 20
26.304946270003821
 30
0.0
  0
VERTEX
  5
58C
  8
LAYER_1
 10
-10.634635537012789
 20
26.235358920577841
 30
0.0
  0
VERTEX
  5
58D
  8
LAYER_1
 10
-10.56504818758682
 20
26.235358920577841
 30
0.0
  0
VERTEX
  5
58E
  8
LAYER_1
 10
-10.56504818758682
 20
26.165771571151861
 30
0.0
  0
VERTEX
  5
58F
  8
LAYER_1
 10
-10.49546083816084
 20
26.096184221725881
 30
0.0
  0
VERTEX
  5
590
  8
LAYER_1
 10
-10.49546083816084
 20
26.026596872299891
 30
0.0
  0
VERTEX
  5
591
  8
LAYER_1
 10
-10.49546083816084
 20
25.957009522873911
 30
0.0
  0
VERTEX
  5
592
  8
LAYER_1
 10
-10.42587348873486
 20
25.887422173447931
 30
0.0
  0
VERTEX
  5
593
  8
LAYER_1
 10
-10.42587348873486
 20
25.748247474595971
 30
0.0
  0
VERTEX
  5
594
  8
LAYER_1
 10
-10.356286139308869
 20
25.678660125169991
 30
0.0
  0
VERTEX
  5
595
  8
LAYER_1
 10
-10.356286139308869
 20
25.609072775744011
 30
0.0
  0
VERTEX
  5
596
  8
LAYER_1
 10
-10.286698789882889
 20
25.539485426318031
 30
0.0
  0
VERTEX
  5
597
  8
LAYER_1
 10
-10.286698789882889
 20
25.46989807689204
 30
0.0
  0
VERTEX
  5
598
  8
LAYER_1
 10
-10.286698789882889
 20
25.40031072746606
 30
0.0
  0
VERTEX
  5
599
  8
LAYER_1
 10
-10.286698789882889
 20
25.33072337804008
 30
0.0
  0
VERTEX
  5
59A
  8
LAYER_1
 10
-10.217111440456909
 20
25.33072337804008
 30
0.0
  0
VERTEX
  5
59B
  8
LAYER_1
 10
-10.217111440456909
 20
25.261136028614111
 30
0.0
  0
VERTEX
  5
59C
  8
LAYER_1
 10
-10.217111440456909
 20
25.19154867918812
 30
0.0
  0
VERTEX
  5
59D
  8
LAYER_1
 10
-10.217111440456909
 20
25.12196132976214
 30
0.0
  0
VERTEX
  5
59E
  8
LAYER_1
 10
-10.147524091030929
 20
24.9131992814842
 30
0.0
  0
VERTEX
  5
59F
  8
LAYER_1
 10
-10.147524091030929
 20
24.84361193205822
 30
0.0
  0
VERTEX
  5
5A0
  8
LAYER_1
 10
-10.147524091030929
 20
24.774024582632229
 30
0.0
  0
VERTEX
  5
5A1
  8
LAYER_1
 10
-10.147524091030929
 20
24.704437233206249
 30
0.0
  0
VERTEX
  5
5A2
  8
LAYER_1
 10
-10.147524091030929
 20
24.634849883780269
 30
0.0
  0
VERTEX
  5
5A3
  8
LAYER_1
 10
-10.147524091030929
 20
24.565262534354289
 30
0.0
  0
VERTEX
  5
5A4
  8
LAYER_1
 10
-10.077936741604949
 20
24.495675184928309
 30
0.0
  0
VERTEX
  5
5A5
  8
LAYER_1
 10
-10.077936741604949
 20
24.426087835502329
 30
0.0
  0
VERTEX
  5
5A6
  8
LAYER_1
 10
-10.077936741604949
 20
24.356500486076339
 30
0.0
  0
VERTEX
  5
5A7
  8
LAYER_1
 10
-10.077936741604949
 20
24.286913136650359
 30
0.0
  0
VERTEX
  5
5A8
  8
LAYER_1
 10
-10.077936741604949
 20
24.217325787224379
 30
0.0
  0
VERTEX
  5
5A9
  8
LAYER_1
 10
-10.008349392178969
 20
24.217325787224379
 30
0.0
  0
VERTEX
  5
5AA
  8
LAYER_1
 10
-10.008349392178969
 20
24.147738437798399
 30
0.0
  0
VERTEX
  5
5AB
  8
LAYER_1
 10
-10.008349392178969
 20
24.078151088372429
 30
0.0
  0
VERTEX
  5
5AC
  8
LAYER_1
 10
-10.008349392178969
 20
24.008563738946439
 30
0.0
  0
VERTEX
  5
5AD
  8
LAYER_1
 10
-10.008349392178969
 20
23.938976389520452
 30
0.0
  0
VERTEX
  5
5AE
  8
LAYER_1
 10
-10.008349392178969
 20
23.869389040094472
 30
0.0
  0
VERTEX
  5
5AF
  8
LAYER_1
 10
-10.008349392178969
 20
23.799801690668499
 30
0.0
  0
VERTEX
  5
5B0
  8
LAYER_1
 10
-10.008349392178969
 20
23.730214341242519
 30
0.0
  0
VERTEX
  5
5B1
  8
LAYER_1
 10
-10.008349392178969
 20
23.660626991816539
 30
0.0
  0
VERTEX
  5
5B2
  8
LAYER_1
 10
-10.008349392178969
 20
23.591039642390552
 30
0.0
  0
VERTEX
  5
5B3
  8
LAYER_1
 10
-10.008349392178969
 20
23.521452292964572
 30
0.0
  0
VERTEX
  5
5B4
  8
LAYER_1
 10
-10.008349392178969
 20
23.451864943538592
 30
0.0
  0
VERTEX
  5
5B5
  8
LAYER_1
 10
-10.008349392178969
 20
23.382277594112612
 30
0.0
  0
VERTEX
  5
5B6
  8
LAYER_1
 10
-10.008349392178969
 20
23.312690244686632
 30
0.0
  0
VERTEX
  5
5B7
  8
LAYER_1
 10
-10.008349392178969
 20
23.243102895260652
 30
0.0
  0
VERTEX
  5
5B8
  8
LAYER_1
 10
-10.008349392178969
 20
23.173515545834661
 30
0.0
  0
VERTEX
  5
5B9
  8
LAYER_1
 10
-10.008349392178969
 20
23.103928196408681
 30
0.0
  0
VERTEX
  5
5BA
  8
LAYER_1
 10
-10.008349392178969
 20
23.034340846982701
 30
0.0
  0
VERTEX
  5
5BB
  8
LAYER_1
 10
-10.008349392178969
 20
22.964753497556721
 30
0.0
  0
VERTEX
  5
5BC
  8
LAYER_1
 10
-10.008349392178969
 20
22.895166148130741
 30
0.0
  0
VERTEX
  5
5BD
  8
LAYER_1
 10
-10.008349392178969
 20
22.82557879870475
 30
0.0
  0
VERTEX
  5
5BE
  8
LAYER_1
 10
-9.9387620427529821
 20
22.82557879870475
 30
0.0
  0
VERTEX
  5
5BF
  8
LAYER_1
 10
-9.9387620427529821
 20
22.75599144927877
 30
0.0
  0
VERTEX
  5
5C0
  8
LAYER_1
 10
-9.9387620427529821
 20
22.68640409985279
 30
0.0
  0
SEQEND
  5
5C1
  8
LAYER_1
  0
CIRCLE
  5
22C
  8
LAYER_1
 62
   240
 10
-33.212656340362798
 20
82.010560949528625
 30
0.0
 40
3.4668321978941559
  0
CIRCLE
  5
22D
  8
LAYER_1
 62
   240
 10
-10.313626511767721
 20
23.024894907949228
 30
0.0
 40
2.3890920441964449
  0
LINE
  5
22E
  8
LAYER_1
 10
-33.212656340362798
 20
82.01056094952861
 30
0.0
 11
8.2646360936031442
 21
73.051465783791969
 31
0.0
  0
LINE
  5
22F
  8
LAYER_1
 10
8.2646360936031442
 20
73.051465783791969
 30
0.0
 11
16.891912919868052
 21
62.101460581224963
 31
0.0
  0
VIEWPORT
  5
20A
 67
     1
  8
0
 10
5.2499996395561652
 20
3.9999998836066779
 30
0.0
 40
19.354102901133331
 41
8.9929997457669497
 68
     1
 69
     1
1001
ACAD
1000
MVIEW
1002
{
1070
    16
1010
0.0
1020
0.0
1030
0.0
1010
0.0
1020
0.0
1030
1.0
1040
0.0
1040
8.9929997457669497
1040
5.2499996395561652
1040
3.9999998836066779
1040
50.0
1040
0.0
1040
0.0
1070
     0
1070
  1000
1070
     1
1070
     1
1070
     0
1070
     0
1070
     0
1070
     0
1040
0.0
1040
0.0
1040
0.0
1040
0.5
1040
0.5
1040
0.5
1040
0.5
1070
     0
1002
{
1002
}
1002
}
  0
VIEWPORT
  5
20E
 67
     1
  8
LAYER_1
 10
5.2499997615814209
 20
3.9999997615814209
 30
0.0
 40
8.3999996185302752
 41
6.3999996185302743
 68
     2
 69
     2
1001
ACAD
1000
MVIEW
1002
{
1070
    16
1010
0.0
1020
0.0
1030
0.0
1010
0.0
1020
0.0
1030
1.0
1040
0.0
1040
9.202549224290113
1040
6.0
1040
4.5
1040
50.0
1040
0.0
1040
0.0
1070
     0
1070
  1000
1070
     1
1070
     2
1070
     0
1070
     0
1070
     0
1070
     0
1040
0.0
1040
0.0
1040
0.0
1040
0.5
1040
0.5
1040
0.5
1040
0.5
1070
     0
1002
{
1002
}
1002
}
  0
ENDSEC
  0
EOF
